<?xml version="1.0" encoding="UTF-8"?><svg id="Layer_7" xmlns="http://www.w3.org/2000/svg" viewBox="0 0 589.66 512.9"><defs><style>.cls-1{fill:#e95d5e;}.cls-2{fill:#ce4142;}.cls-3{fill:#e36365;}.cls-4{fill:#e27076;}.cls-5{fill:#413439;}</style></defs><path class="cls-3" d="M364.3,460.98c1.97-.13,3.88-.65,5.8-.79,5.97-.44,11.15-2.55,16.17-5.78,3.36-2.16,7.48-3.15,11.5-3.58,2.55-.27,4.51-1.09,6.33-2.83,3.84-3.67,8.07-6.94,11.93-10.56,3.02-2.83,5.32-6.47,7.2-10.25,.98-1.96,2.05-3.75,4.66-3.54-5.18,10.15-7.91,17.6-16.53,29.92-14.46,8.46-29.15,9.44-29.15,9.44-106.2,16.37-244.61-3.36-244.61-3.36-6.59-6.23-10.67-14.09-14.22-22.25-4.33-9.95-7.5-20.31-10.17-30.82-1.7-6.68-3.43-13.34-6.58-19.55-.76-1.49-2.09-3.1-1.15-5.08,10,1.52,19.99,3.04,29.99,4.56,10.98,1.67,21.97,3.22,32.92,5.03,9.15,1.51,18.23,3.42,27.37,5,17.59,3.04,35.2,5.93,52.91,8.13,11.58,1.44,23.15,2.92,34.8,3.74,9.25,.65,18.51,1.31,27.76,1.97-.2,1.49-1.09,2.27-2.56,2.27-5.63-.01-11.52,.96-16.84-.36-6.69-1.66-13.39-1.15-20.05-1.95-8.3-1-16.85,.66-25.09-1.89-4.47-1.38-9.18-.67-13.75-1.56-3.55-.69-7.05-1.81-10.74-1.84-3.37-.03-6.85,1.35-10.11-.76-.5-.32-1.38-.08-2.08-.06-6.47,.22-12.85-1.43-19.34-.87-1.02,.09-1.89-.48-2.83-.74-4.45-1.2-8.84-2.75-13.54-2.62-2.14,.06-4.12-.29-6.12-1.21-2.15-.98-4.49-1.89-6.82-2.08-6.31-.53-12.65-.66-18.98-.95-.28-.01-.57-.02-.84,0-2.15,.2-5.02,2.69-5.39,4.68-.42,2.25,.97,4.3,3.7,5.42,.52,.21,1.08,.32,1.59,.56,4.09,1.95,8.67,2.14,12.9,3.61,3.16,1.09,6.52,1.44,9.76,2.29,3.09,.81,6.59,.76,9.95,.52,3.64-.26,7.19,0,10.26,2.57,1.21,1.02,2.66,2.79,4.36,2.16,2.75-1.03,4.92,.1,7.21,1.05,1.74,.72,3.55,.68,5.38,.83,5.09,.42,10.2,.38,15.16,2.26,3.15,1.19,6.71,1.82,10.08,1.82,5.36-.01,10.59,1.41,15.96,1.02,.79-.06,1.63,.35,2.43,.59,4.32,1.31,8.71,1.97,13.26,1.95,5.74-.02,11.27,2.24,17.07,1.92,.26-.01,.53,.18,.79,.29,2.52,1.08,5.17,1.22,7.86,1.14,1.26-.04,2.61-.15,3.78,.21,5.97,1.84,12.15,.89,18.21,1.44,.82,.07,1.72-.03,2.48-.32,1.41-.53,2.69-.2,4.1,0,5.26,.73,10.59,1.87,15.83,1.57,5.63-.33,11.24-.09,16.85-.37,2.82-.14,5.54-.55,7.96-2.24,1.14-.8,2.48-1.65,3.79-1.78,6.85-.66,13.22-3.82,20.22-3.66,1.34,.03,2.74-.58,4.04-1.11,3.64-1.47,6.77-4.02,10.66-4.96,.37-.09,.82-.42,.98-.75,2.06-4.33,6.63-4.81,10.29-6.57,3.35-1.62,6.88-3.01,10.15-4.69,2.43-1.25,4.84-1.99,7.39-2.63,1.25-.32,2.34,.25,2.85,1.28,.63,1.27,.15,2.46-1.09,3.26-3.24,2.08-6.44,4.72-8.11,7.87-3.12,5.87-8.83,8.88-12.81,13.6-3.41,4.04-8.07,5.95-12.14,8.69-4.7,3.17-10.36,4.96-15.69,7.12-2.31,.93-4.68,1.75-7.31,1.85-8.72,.33-17.23,1.66-25.16,5.69m-213.39-35.86c1.05,3.09,1.79,5.88,4.24,7.84,1.45,1.16,2.33,2.76,3.24,4.37,2.92,5.15,6.72,9.32,12.8,10.73,3.85,.9,7.82,.37,11.59,.05,3.43-.29,6.91,.97,10.27-.43,.43-.18,1.07,.22,1.63,.3,4.69,.75,9.55,.94,14.02,2.37,4.68,1.5,9.43,.97,14.02,1.19,7.62,.36,15.32,1.43,23,.34,.66-.09,1.45,.02,2.05,.3,4.77,2.22,9.56,1.74,14.36,.2,2.67-.85,5.18-.99,7.57,.88,1.1,.86,2.45,1.28,3.98,.93,4.79-1.1,9.64-1.71,14.57-1.54,.83,.03,1.84,.08,2.46-.33,2.88-1.92,5.79-1.46,8.89-.71,2.03,.49,4.22,.49,6.28-.05,1.19-.31,2.59-.76,2.88-2.18,.33-1.67-.6-2.97-1.83-3.99-.42-.35-.96-.6-1.49-.78-5.45-1.84-11.12-2.34-16.79-1.97-4.35,.28-8.5,.12-12.67-1.3-4.57-1.56-9.4-1.78-14.15-1.15-2,.27-3.61-.05-5.53-.41-3.61-.67-6.86-2.21-10.34-3.07-.92-.23-2.09-.29-2.91,.09-2.42,1.13-4.67,.32-6.99-.22-1.76-.4-3.5-1.32-5.34-.54-1.63,.69-3.33,.4-4.99,.58-7.39,.77-14.78-1.7-22.18-.05-.94,.21-1.96,0-2.89-.42-6.08-2.65-12.67-2.11-19.02-2.82-6.12-.68-11.56-2.35-16.81-5.71-3.92-2.5-8.69-3.51-13.91-2.53Z"/><path class="cls-1" d="M142.7,343.67c8.11-11.79,11.42-25.57,15.92-38.83,6.14-18.13,10.6-36.72,14.85-55.36,1.22,.17,2.51,.68,2.04,2.05-.91,2.62,.05,5.37-.86,7.93-.64,1.8-.57,3.55-.03,5.37,.65,2.19,1.04,4.66-.14,6.59-2.08,3.37-1.76,7.15-1.48,10.51,.31,3.68-.45,6.59-2.28,9.49-.48,.75-.94,1.52-.53,2.35,1.18,2.39-.11,4.06-1.56,5.65-3.29,3.58-4.96,8.09-5.08,12.61-.1,3.68-.34,6.99-1.9,10.34-.69,1.48-1.6,2.63-2.73,3.65-1.49,1.35-2.52,3.02-3.63,4.64-.7,1.02-.76,2.12-.1,3.17,.7,1.13,1.91,1.23,3.02,1.01,1.91-.38,3.84-.77,5.29-2.33,1.13-1.22,2.22-2.55,4.06-2.88,.46-.08,1.09-.62,1.21-1.06,.81-3.11,3.58-4.6,5.48-6.81,.91-1.06,2.13-1.88,2.63-3.26,1.24-3.45,3.88-5.8,6.36-8.3,1.15-1.17,2.77-2.07,2.8-4.03h0c1.1-.03,1.66-.6,1.68-1.7,2.28-1.67,3.23-4.67,5.93-5.92,1.1-.02,1.66-.58,1.69-1.68h0c.83-.14,1.72-.12,2.47-.44,1.85-.8,2.78,.19,3.15,1.68,1.04,4.2,4.22,6.94,6.93,9.87,3,3.24,4.86,6.7,5.26,11.11,.41,4.6,4.03,7.21,8.43,6.38,.41-.08,.79-.29,1.19-.42,2.3-.7,4.2-.2,5.4,2,.62,1.14,1.37,2.28,2.45,2.85,3.3,1.75,4.59,4.77,5.62,8.05,.33,1.06,.72,2.15,1.31,3.08,.72,1.14,1.87,1.7,3.28,1.37,1.54-.36,1.78-1.53,1.9-2.89,.17-1.9-.69-3.58-1.03-5.36-.39-2.04-1.51-3.31-3.99-3.58-3.65-.39-4.22-1.34-4.29-4.93-.02-.99,.02-1.97,0-2.96-.11-3.41-.92-6.42-4.53-7.83-.51-.2-1.03-.5-1.43-.87-2.41-2.27-1.91-4.43,1.28-5.51,.93-.31,1.95-.36,2.84-.75,4.69-2.09,6.71-5.16,5.78-8.11-1.14-3.61-2.1-7.27-3.02-10.94-.27-1.06-.51-1.89-1.75-1.97l-.03-2.53c-.03-2.66,.16-5.3-.67-7.94-.44-1.4-.54-3.1,1.12-4.16,1.25-.79,1.21-2.09,1.28-3.38,.16-3.15-.68-6.08-1.66-9.03-1.55-4.7-5.18-8.69-4.5-14.21,.18-1.42-1.32-3.03-1.97-4.59-.65-1.55-1.98-3.34-1.64-4.68,1.04-4.14-1.81-6.55-3.48-9.49-.61-1.07-1.56-2.26-2.84-2.39-3.16-.31-6.26-1.96-9.51-.54-1.44,.63-2.72,.11-4.04-.49-2.19-1-3.37-2.74-4.33-4.89-1.27-2.84-2.86-5.84-6.42-6-2.71-.12-3.56-1.69-4.56-3.62-.83-1.6-.75-3.26-.75-4.94,8.32,2.54,16.64,5.05,24.95,7.62,12.34,3.81,24.66,7.67,36.99,11.5,.09,4.97,1.29,9.99-.7,14.88-.17,.41,.37,1.05,.4,1.6,.13,2.38,.48,4.8-.19,7.12-2.32,8.05-3.07,16.17-1.48,24.46,.15,.8,.13,1.75-.17,2.48-.78,1.91-.69,3.9-.53,5.83,.33,4.01,1.59,7.99,.11,12.03-.12,.33,.1,.84,.27,1.21,1.44,3.04,.85,6.36,1.38,9.49,.76,4.43,.66,8.89,1.29,13.33,.85,5.93,2,11.81,2.93,17.73,.38,2.43,.28,5.16,1.86,7.24,1.76,2.32,2.69,4.95,3.31,7.67,1.1,4.75,2.14,9.49,3.97,14.05,.64,1.59,1.2,3.1,2.4,4.35,3.3,3.44,3.67,8.34,6.04,12.26,.31,.51,.03,1.38,.03,2.08-4.1-.15-7.86-1.85-11.82-2.67-9.08-1.88-18.23-3.33-27.4-4.59-13.35-1.84-26.68-3.81-40.13-4.85-6.28-.49-12.59-.89-18.79-2.14,.08-2.01,1.56-2.56,3.13-2.81,4.46-.72,8.56-2.69,12.97-3.58,1.69-.34,3.07-1.4,4.15-2.76,1.54-1.94,.64-4.36-1.8-4.65-2.42-.29-4.79-.05-6.88,1.4-3.82,2.64-8.38,1.95-12.6,2.68-2.33,.41-4.26-1.27-5.51-3.21-1.32-2.04-.67-3.94,.78-5.79,1.04-1.32,1.94-2.73,3.16-3.93,1.82-1.79,3.27-3.9,4.13-6.3,.54-1.5,.34-3.06-1.01-4.26-1.38-1.23-2.81-1.08-4.29-.26-2.95,1.63-6.44,2.73-8.72,5.03-3.45,3.48-8.12,4.11-12.03,6.41-1.78,1.04-4.32,1.58-6.06-.79Zm31.07,8.68c5.32-.79,9.86-1.9,12.83-5.84,1.7-2.25,3.75-4.17,5.47-6.35,3.51-4.43,8.4-7.93,9.45-14.08,.31-1.83,1.74-3.18,3.23-4.29,.78-.58,1.7-.94,2.26-1.83,1.03-1.63,.71-3.36-.97-4.78-2.27-1.91-5.02-2.5-6.2-1.22-.65,.7-1.31,1.56-1.55,2.46-.7,2.64-2.51,4.28-4.61,5.77-.56,.4-1.32,.82-1.51,1.39-.99,2.99-3.6,4.59-5.62,6.67-1.29,1.33-2.52,2.64-3.28,4.29-.91,1.98-2.3,3.58-3.96,4.85-2.92,2.24-4.35,5.75-7.19,8.04-.69,.56-1.62,1.44-.85,2.52,.79,1.11,1.6,2.34,2.49,2.4Z"/><path class="cls-4" d="M364.3,460.98c1.97-.13,3.88-.65,5.8-.79,5.97-.44,11.15-2.55,16.17-5.78,3.36-2.16,7.48-3.15,11.5-3.58,2.55-.27,4.51-1.09,6.33-2.83,3.84-3.67,8.07-6.94,11.93-10.56,3.02-2.83,5.32-6.47,7.2-10.25,.98-1.96,2.05-3.75,4.66-3.54,.43-.54,.89-1.07,1.27-1.63,6.85-10.02,13.42-22.16,21.98-30.94,.82-.85,2-1.59,2.07-3.02-.04-.55-.66,.41-.68-.15-.18-4.87-.34-5.02-5.04-5.72-1.22-.18-2.41-.6-3.61-.9-7.91,1.05-15.51,3.37-23.09,5.75-5.36,1.68-10.72,3.37-15.81,5.79,.05,.81,.12,1.66-.92,1.91-.76,.18-1.23-.3-1.57-.93-5.47,1.68-10.72,3.94-15.99,6.15-.21,1.25-.51,2.27-1.77,.64-2.05,.36-3.99,1.02-5.83,1.98-.04,.88-.33,1.65-1.1,2.15-3.06,2-6.44,3.28-10.05,3.68-1.81,.2-3.61,.22-5.34,.85-5.45,2-11.28,1.45-16.88,2.54-6.9,1.34-13.92,.87-20.89,.89-1.95,0-4,.15-4.95-2.17-2.81-.34-5.63-.34-8.45-.12-.2,1.49-1.09,2.27-2.56,2.27-5.63-.01-11.52,.96-16.84-.36-6.69-1.66-13.39-1.15-20.05-1.95-8.3-1-16.85,.66-25.09-1.89-4.47-1.38-9.18-.67-13.75-1.56-3.55-.69-7.05-1.81-10.74-1.84-3.37-.03-6.85,1.35-10.11-.76-.5-.32-1.38-.08-2.08-.06-6.47,.22-12.85-1.43-19.34-.87-1.02,.09-1.89-.48-2.83-.74-4.45-1.2-8.84-2.75-13.54-2.62-2.14,.06-4.12-.29-6.12-1.21-2.15-.98-4.49-1.89-6.82-2.08-6.31-.53-12.65-.66-18.98-.95-.28-.01-.57-.02-.84,0-2.15,.2-5.02,2.69-5.39,4.68-.42,2.25,.97,4.3,3.7,5.42,.52,.21,1.08,.32,1.59,.56,4.09,1.95,8.67,2.14,12.9,3.61,3.16,1.09,6.52,1.44,9.76,2.29,3.09,.81,6.59,.76,9.95,.52,3.64-.26,7.19,0,10.26,2.57,1.21,1.02,2.66,2.79,4.36,2.16,2.75-1.03,4.92,.1,7.21,1.05,1.74,.72,3.55,.68,5.38,.83,5.09,.42,10.2,.38,15.16,2.26,3.15,1.19,6.71,1.82,10.08,1.82,5.36-.01,10.59,1.41,15.96,1.02,.79-.06,1.63,.35,2.43,.59,4.32,1.31,8.71,1.97,13.26,1.95,5.74-.02,11.27,2.24,17.07,1.92,.26-.01,.53,.18,.79,.29,2.52,1.08,5.17,1.22,7.86,1.14,1.26-.04,2.61-.15,3.78,.21,5.97,1.84,12.15,.89,18.21,1.44,.82,.07,1.72-.03,2.48-.32,1.41-.53,2.69-.2,4.1,0,5.26,.73,10.59,1.87,15.83,1.57,5.63-.33,11.24-.09,16.85-.37,2.82-.14,5.54-.55,7.96-2.24,1.14-.8,2.48-1.65,3.79-1.78,6.85-.66,13.22-3.82,20.22-3.66,1.34,.03,2.74-.58,4.04-1.11,3.64-1.47,6.77-4.02,10.66-4.96,.37-.09,.82-.42,.98-.75,2.06-4.33,6.63-4.81,10.29-6.57,3.35-1.62,6.88-3.01,10.15-4.69,2.43-1.25,4.84-1.99,7.39-2.63,1.25-.32,2.34,.25,2.85,1.28,.63,1.27,.15,2.46-1.09,3.26-3.24,2.08-6.44,4.72-8.11,7.87-3.12,5.87-8.83,8.88-12.81,13.6-3.41,4.04-8.07,5.95-12.14,8.69-4.7,3.17-10.36,4.96-15.69,7.12-2.31,.93-4.68,1.75-7.31,1.85-8.72,.33-17.23,1.66-25.16,5.69,0,0-4.82,3.78-.76,7.02l4.06,3.24s14.71,1.29,19.86-3.24Z"/><path class="cls-5" d="M448.09,374.65c8.35-1.77,16.69-3.61,25.06-5.29,3.74-.75,7.36-2.2,11.91-2.48-3.68,3.5-7.99,4.62-11.43,7.11-.1,.11-.18,.08-.79,.7l.04-.03c-3.02-.17-5.74,1.18-8.59,1.8-6.83,1.47-13.83,2.24-20.4,4.83-7.91,1.05-15.51,3.37-23.09,5.75-5.36,1.68-10.72,3.37-15.81,5.8-.86,.25-1.8,.29-2.49,.98-5.47,1.68-10.72,3.94-15.99,6.15-.67-.02-1.29,.11-1.77,.64-2.05,.36-3.99,1.02-5.83,1.98-.68,.14-1.39,.22-2.05,.42-14.94,4.41-30.23,6.59-45.77,7.17-3.8,.14-7.6,.23-11.39,.34-2.81-.34-5.63-.34-8.45-.12-9.25-.66-18.51-1.32-27.76-1.97-11.65-.81-23.22-2.29-34.8-3.74-17.71-2.21-35.33-5.09-52.91-8.13-9.14-1.58-18.22-3.49-27.37-5-10.95-1.81-21.95-3.37-32.92-5.03-10-1.52-19.99-3.04-29.99-4.56-1.15-1.26-1.43-2.45,.79-2.33,3.37,.18,6.72,.63,10.07,1.08,13.8,1.86,27.59,3.83,41.39,5.64,11.73,1.53,23.36,3.59,35.01,5.58,1.52,.26,3.07,.53,4.6,.52,25.21-.14,50.41,.75,75.62,1.1,8.45,.12,16.9,.25,25.35,.38,.56,0,1.13-.02,1.69-.03,.64-.01,1.04-.34,1.13-.96,.11-.76-.1-1.42-.85-1.73-.51-.21-1.09-.26-1.64-.36-11.64-2.04-23.36-3.6-35.06-5.23-18.95-2.64-37.91-5.28-56.85-7.98-16.58-2.36-33.14-4.78-49.71-7.22-11-1.62-21.98-3.33-32.96-5.04-1.47-.23-3.89-.23-3.72-1.91,.24-2.24,2.64-1.14,4.18-1.22,.42-.02,.84-.04,1.27-.07,3.79,1.24,7.76,1.3,11.66,1.77,2.91,.4,5.82,.8,8.72,1.2,18.8,2.65,37.6,5.25,56.39,7.95,18.51,2.66,37,5.5,55.52,8.11,8.21,1.16,16.36,2.77,24.64,3.41,5.57,1.19,11.16,2.21,16.9,1.89,1.21-1.08,.49-2.39,.33-3.55-1.06-7.38-2.21-14.75-3.31-22.12-5.36-35.76-10.69-71.53-16.12-107.28-.65-4.28-.78-8.67-2.26-12.81,.26-2.15-.8-4.16-.76-6.24,.05-2.97-1.54-4.11-4.14-4.92-7.57-2.38-15.43-3.76-22.85-6.65-12.33-3.84-24.65-7.69-36.99-11.5-8.31-2.57-16.63-5.08-24.95-7.62-3.62-1.32-7.24-2.65-11.02-3.45-.76-.91-1.91-1.08-2.89-1.58-.96-.49-2.45-.91-1.95-2.21,.45-1.2,1.92-.81,3-.59,2.57,.54,5.3,.75,7.54,2.19,1.13,.72,2.14,.27,3.19,.44,3.32,1.1,6.54,2.55,10.11,2.71,.56,.77,1.47,.75,2.26,.98,21.43,6.39,42.86,12.78,64.3,19.14,.78,.23,1.59,.65,2.44,.18l-.08-.09c-.32,.72,.34,.6,.66,.78,2.57,1.26,5.33,1.87,8.09,2.5,.82,.09,1.83,.32,1.77-.97-.07-1.53-.31-3.07-.55-4.59-2.22-14.39-4.36-28.79-6.73-43.16-.93-5.64-1.18-11.41-2.99-16.89-.02-2.67-.67-5.28-.89-7.91-.21-2.45-1.47-3.43-3.51-4.03-2.55-.75-5.1-1.51-7.63-2.32-12.27-3.92-24.53-7.86-36.8-11.79-1.21-1.51-3.29-1.51-4.71-2.69-.58-.49-1.05-1-.78-1.76,.27-.76,1.02-1,1.73-.88,1.53,.25,3.05,.54,4.54,.94,7.89,2.11,15.51,5.07,23.26,7.59,6.69,2.17,13.33,4.49,20,6.73,.65,.22,1.34,.33,1.93,.47,1.02-.94,.52-1.92,.39-2.85-1.68-11.85-3.42-23.69-5.02-35.55-.32-2.41-1.15-4.97,.51-7.29,2.57,1.37,2.89,3.94,3.36,6.4,.85,4.47,1.66,8.95,2.49,13.42,.19,3.87,.8,7.67,1.83,11.41,.03,3.5,.72,6.92,1.3,10.35,.5,2.07,.07,4.26,.53,6.26,2.31,10.15,3.31,20.49,5,30.73,1.38,8.31,2.13,16.72,3.93,24.97,.55,6.4,1.76,12.7,2.84,19.02-.07,2.4,.39,4.72,.99,7.03,1.72,11.25,3.41,22.5,5.15,33.74,4.14,26.79,8.26,53.59,12.5,80.37,.9,5.67,1.18,11.46,3,16.97-.13,3.22,.7,6.32,1.24,9.45-.23,2.28,.72,4.42,.79,6.67,.04,1.23,.75,2.01,1.71,2.72,7.1,5.28,14.17,10.59,21.23,15.92,1.06,.8,2.2,1.16,3.51,1.18,15.59,.27,31.18,.58,46.77,.81,.99,.01,2.28,.45,3.03-.9-1.11-1.75-2.22-3.5-3.34-5.25,.89-.19,1.78-.38,2.67-.57,.73,1.02,1.48,2.03,2.18,3.08,2.27,3.4,2.28,3.45,5.9,2.05,8.89-3.42,17.74-6.93,26.79-9.91,.14-.05,.18-.37,.28-.58-2.4-1-4.96-1.02-7.43-1.43-10.22-1.7-20.46-3.28-30.69-4.91v-1.5c1.42,.07,2.84,.03,4.22,.24,8.07,1.22,16.13,2.57,24.21,3.72,3.66,.52,7.28,1.56,11.4,1.36-1.35-2.86-3.76-4.7-4.23-7.57l1.67-.81c2.57,2.03,4.11,4.94,6.18,7.39,1.14,1.35,2.19,1.87,3.96,1.16,2.2-.88,4.53-1.45,6.8-2.15,4.55-.89,9.09-1.84,13.51-3.28m-229.39,20.08c23.53,3.53,47.12,6.58,70.85,8.34,4.91,.36,9.83,.7,14.74,1.11,1.76,.15,2.75-.25,2.31-2.27-.18-.82-.25-1.67-.33-2.51-.4-4.22,.04-3.84-4.15-3.94-20.41-.48-40.83-.91-61.24-1.36-1.18-.57-2.46-.49-3.71-.52-6.99-.15-13.98-.28-20.97-.38-1.32-.02-2.65,.15-3.97,.23l-.04,.5c2.17,.27,4.33,.53,6.5,.8Zm92.92,1.18c-.08,2.3,.73,4.17,.91,6.1,.19,2.06,1.25,2.51,3.07,2.46,7.31-.17,14.63-.24,21.94-.42,1.01-.02,2.22,.19,3.19-1.12-2.83-2.18-5.59-4.29-8.34-6.43-.59-.46-1.25-.6-1.96-.6-6.17,0-12.34,0-18.81,0Zm25.09,.18l-.34,.64c2.52,1.95,5.07,3.87,7.55,5.86,1.12,.89,2.33,.8,3.59,.65,7.24-.89,14.49-1.77,21.59-3.48,2.92-.71,5.98-1.08,9.54-2.9-14.58-.27-28.26-.52-41.93-.77Zm-28.33-18.19c.78,5.07,1.43,9.37,2.1,13.66,.17,1.09,.69,1.76,1.94,1.75,4.97-.03,9.95-.01,15.91-.01-7.01-5.41-13.19-10.18-19.95-15.4Z"/><path class="cls-2" d="M264.6,117.7c-.83-4.48-1.63-8.95-2.49-13.42-.47-2.46-.79-5.02-3.36-6.4,1.27-2.16,2.48-4.36,3.84-6.47,.82-1.28,1.6-2.64,3-3.45,1.06,.02,1.8,.67,2.6,1.25,1.75,1.28,3.28,1.29,5.32,.01,2.82-1.77,6.05-2.96,9.34-3.69,4.33-.96,8.71-1.65,13.07-2.49,6.26-1.2,12.27-1.84,18.35,1.55,2.76,1.54,5.88,3.29,9.35,3.35,3.79,.06,7.59,.1,11.39,0,2.88-.08,4.01-1.82,3.06-4.49-.37-1.04-1.47-1.74-1.44-2.98,10.85-2.97,19.36-9.29,26.26-18.06,2.42-3.08,4.86-6.21,8.2-8.43,2.15,.37,4.16-.22,6.18-.86,3.57-1.14,7.15-1.27,10.66,.34-6.83,4.79-13.69,9.55-19.88,15.18-2.72,2.47-5.16,5.16-6.96,8.39-.39,.7-1.05,1.36-.48,2.76,3.05-1.38,5.4-3.67,7.9-5.69,4.22-3.4,8.09-7.24,12.74-10.09,1.41-.86,2.94-1.52,4.42-2.28,.11,1.52-.31,2.69-1.79,3.47-1.79,.95-2.92,2.55-3.84,4.35-1.5,2.96-3.89,5.35-6.58,6.99-4.44,2.7-7.76,6.34-11,10.24-2.24,2.71-5.29,5.09-8.45,5.97-7.08,1.97-12.71,6.27-18.79,9.89-.79,.47-1.11,1.23-1.17,2.12-4.12,.02-8.01-1.26-11.99-2.09-5.88-1.24-11.69-3.01-17.77-2.91-15.34,.25-28.54,5.36-38.66,17.31-.25,.3-.69,.43-1.05,.64Z"/><path class="cls-1" d="M206.19,173.14c.9-2.96,2.68-5.51,4-8.27,4.34-9.11,6.59-18.69,6.61-28.78,2.51,.73,3.71,3.34,6.18,4.22,2.38,.85,4.34,2.5,6.37,4.01,5.37,4.01,9.69,9.18,14.91,13.37,2.04,1.63,3.65,3.87,3.62,6.82,0,.65,.45,1.31,.69,1.96,1.97,5.29,5.91,9.93,5.31,16.1-.06,.61,.43,1.33,.78,1.93,.75,1.28,.82,2.66,.75,4.07-1.63-.04-2.09-1.32-2.42-2.52-.5-1.83-1.62-3.29-2.76-4.66-3.85-4.62-8.41-8.55-12.68-12.76-1.63-1.61-3.69-1.67-5.45-.76-1.76,.92-1.99,2.67-1.39,4.73,1.77,6.06,4.31,11.75,7.65,17.09,.75,1.2,1.55,2.32,1.78,3.75,.89,5.49,4.48,9.19,8.63,12.33,1.89,1.44,4.43,1.69,6.87,1.34,1.71-.25,2.78-1.3,3.06-3,.16-.96,.11-1.96,.15-2.94,1.68,.21,2.53,1.2,2.47,2.85-.16,4.13-.18,8.27-.82,12.37-13.5-7.93-27.34-14.97-43.18-16.93,.66-2.16,1.36-4.4,.65-6.61-.77-2.4-.49-4.6,0-7,1.28-6.17-.57-9.4-5.88-11.28-.96-.34-1.93-.35-2.91-.37-1.12-.02-2.29,.11-3.01-1.06Z"/><path class="cls-3" d="M397.73,344.96c.63,.39,.85,1.05,1.11,1.68-.97,.03-1.95,.02-2.92,.08-3.38,.21-4.7,1.81-4.32,5.14,.2,1.74,1.29,3.02,2.14,4.44,.55,.92,1.88,2.03,.2,3.18-2.05-.95-4.04-1.98-5.73-3.51,0-1.27,.31-2.64-.08-3.78-.96-2.81-1.43-6.45-4.97-7.06-3.84-.65-5.87-3.12-7.56-6-3.25-5.54-5.32-11.66-8.1-17.44-1.2-2.5-2.24-4.78-4.57-6.18-1.72-1.04-2.53-2.48-3.08-4.3-.8-2.69-1.46-5.5-3.08-7.81-4.56-6.53-6.97-14.32-12.22-20.43-.44-.52-.71-1.22-.94-1.88-1.69-4.84-4.24-9.14-7.94-12.73-.59-.57-1.22-1.26-1.46-2.02-.83-2.59-2.44-4.67-3.85-6.94-1.85-2.98-4.19-5.66-5.77-8.77-3.62-7.12-6.93-14.4-10.45-21.57-1.24-2.53-1.31-5.34-2.43-7.96-1.69-3.94-3.57-8.04-4.32-12.18-.81-4.46-2.01-8.64-3.78-12.74,.97,.01,1.94,.05,2.9,.03,1-.02,1.99,1.2,3-.13,1.07-1.41,.29-2.54-.21-3.84-.84-2.19-2.71-3.84-3.14-6.23,.72,.06,1.55,.13,1.87,.8,1.35,2.86,3.66,4.94,5.63,7.31,1.43,1.72,1.92,4.11,1.58,6.35-.82,5.37-1.12,10.49,3.85,14.26,.31,.24,.45,.7,.66,1.07,4.68,8.31,9.61,16.49,13.2,25.38,1.16,2.86,2.28,5.99,4.28,8.2,5.34,5.89,7.4,13.45,10.96,20.22,.9,1.71,2.05,3.32,2.71,5.2,1.62,4.6,3.48,9.07,5.63,13.5,2.08,4.28,4.81,8.18,6.89,12.46,1.93,3.98,3.44,7.98,4.36,12.19,.58,2.67,1.52,4.65,3.89,6.12,2.16,1.35,3.86,3.16,4.12,6.02,.24,2.53,1.9,4.47,3.88,5.8,3.56,2.4,5.9,5.51,6.91,9.66,.32,1.33,1.23,2.39,2.52,2.59,2.91,.47,5.61,1.86,8.62,1.79Z"/><path class="cls-3" d="M177.55,200.37c3.78,.8,7.4,2.14,11.02,3.45,0,1.68-.08,3.34,.75,4.94,1,1.93,1.85,3.51,4.56,3.62,3.56,.15,5.15,3.16,6.42,6,.96,2.15,2.14,3.89,4.33,4.89,1.32,.6,2.6,1.12,4.04,.49,3.26-1.42,6.36,.23,9.51,.54,1.28,.13,2.23,1.32,2.84,2.39,1.66,2.93,4.51,5.35,3.48,9.49-.34,1.34,.99,3.13,1.64,4.68,.65,1.56,2.14,3.16,1.97,4.59-.68,5.52,2.94,9.51,4.5,14.21,.98,2.95,1.82,5.88,1.66,9.03-.06,1.29-.03,2.59-1.28,3.38-1.66,1.06-1.56,2.76-1.12,4.16,.84,2.64,.64,5.28,.67,7.94-.95-.09-1.43-.59-1.76-1.51-.52-1.44-.73-3.01-1.78-4.24-1.81-2.13-1.85-4.75-1.39-7.23,.48-2.59,1.2-5.24,2.4-7.56,1.14-2.2,.99-4.04-.14-5.95-1.56-2.63-3.21-5.21-4.91-7.75-.79-1.19-1.7-2.35-1.66-3.8,.12-4.12-1.54-7.95-1.85-12.02-.2-2.54-1.63-4.77-3.62-6.49-1.67-1.45-3.65-2.43-5.81-1.52-2.12,.89-3.11,2.89-3.1,5.13,.01,4.32-1.16,8.31-2.92,12.17-.72,1.58-.65,2.98,.61,4.25,.39,.4,.8,.83,1.04,1.32,.62,1.26,.44,2.46-.55,3.49-.59,.61-1.22,1.31-2.17,.83-1.04-.53-1.76-1.39-1.92-2.61-.05-.42-.1-.85-.05-1.26,.48-4.21-1.89-7.83-2.45-11.82-.19-1.36-1.1-2.24-2.02-3.13-2.41-2.33-4.01-5-4.05-8.5-.02-1.7-.8-3.25-1.45-4.81-.79-1.89-2.19-2.59-4.07-1.81-3.89,1.63-7.08,3.86-8.08,8.43-.52,2.37-.68,4.7-.75,7.08-.11,3.63,.49,7.3-.76,10.88-1.35,3.88-.05,7.98-.87,11.93-.11,.51,.08,1.13,.28,1.64,1.79,4.74,1.33,9.69,1.38,14.6,.01,1.16-.16,2.25-.75,3.24-1.82,3.04-2.25,6.61-3.87,9.76-.85,1.66-1.42,3.7-1.28,5.69,.19,2.72-1.06,4.89-2.45,7.02-1.51,2.33-3.12,4.6-4.54,6.98-1.75,2.94-3.43,5.94-.91,9.35,.3,.41,.18,1.1,.33,1.63,.93,3.2,3.16,4.01,5.6,1.81,1.97-1.77,3.8-3.71,5.5-5.8,2.35-2.88,4.5-6.12,8.29-7.46-.03,1.97-1.65,2.87-2.8,4.03-2.47,2.51-5.12,4.86-6.36,8.3-.5,1.38-1.72,2.2-2.63,3.26-1.9,2.2-4.67,3.69-5.48,6.81-.11,.44-.74,.98-1.21,1.06-1.83,.33-2.92,1.65-4.06,2.88-1.45,1.56-3.38,1.96-5.29,2.33-1.1,.22-2.31,.12-3.02-1.01-.66-1.05-.59-2.15,.1-3.17,1.11-1.62,2.14-3.29,3.63-4.64,1.13-1.02,2.04-2.17,2.73-3.65,1.56-3.34,1.8-6.66,1.9-10.34,.12-4.52,1.79-9.03,5.08-12.61,1.45-1.58,2.74-3.26,1.56-5.65-.41-.82,.06-1.59,.53-2.35,1.84-2.9,2.59-5.81,2.28-9.49-.28-3.35-.6-7.14,1.48-10.51,1.19-1.92,.79-4.39,.14-6.59-.54-1.82-.61-3.58,.03-5.37,.91-2.56-.06-5.31,.86-7.93,.48-1.37-.82-1.89-2.04-2.05,2.79-11.87,5.2-23.78,4.77-36.09-.15-4.34-1.22-8.64-.69-13.01Z"/><path class="cls-1" d="M303.61,196.2c1.77,4.1,2.97,8.28,3.78,12.74,.75,4.14,2.62,8.24,4.32,12.18,1.13,2.62,1.19,5.43,2.43,7.96,3.52,7.17,6.83,14.45,10.45,21.57,1.58,3.1,3.92,5.79,5.77,8.77,1.41,2.26,3.02,4.35,3.85,6.94,.24,.75,.87,1.44,1.46,2.02,3.7,3.6,6.25,7.89,7.94,12.73,.23,.66,.5,1.36,.94,1.88,5.25,6.11,7.67,13.9,12.22,20.43,1.62,2.32,2.28,5.13,3.08,7.81,.54,1.82,1.35,3.27,3.08,4.3,2.33,1.4,3.37,3.68,4.57,6.18,2.78,5.78,4.86,11.9,8.1,17.44,1.69,2.88,3.72,5.34,7.56,6,3.54,.6,4,4.25,4.97,7.06,.39,1.14,.08,2.51,.08,3.78-4.49-1.81-8.45-4.6-12.71-6.83,.07-1.17-.1-2.29-1.08-3.06-2.78-2.18-3.88-5.45-5.57-8.36-2.45-4.2-3.67-9.09-7.15-12.72-.66-.69-1.41-1.49-1.34-2.56,.11-1.68-.94-2.85-1.54-4.25-2-4.6-5.1-8.61-6.58-13.51-1.07-3.55-3.26-6.74-4.88-10.14-2.81-5.91-7.86-10.6-9.62-17.15-.21-.77-.94-1.39-1.35-2.13-2.5-4.52-6.52-8.1-8.05-13.23-.27-.9-.94-1.75-1.6-2.46-4.63-4.97-6.95-11.48-11.16-16.73-.43-.53-.68-1.25-.86-1.92-1.25-4.79-4.61-8.23-7.49-12.01-2.71-3.57-5.73-7.02-7.74-10.98-1.45-2.85-2.9-5.64-4.65-8.32-1.97-3.02-2.71-6.3-1.41-9.91,.41-1.13,.63-1.76,1.95-1.34,2.19,.69,2.79-.96,2.18-2.27-1.33-2.84-1.15-6.07-2.46-8.79-2.68-5.51-5.82-10.8-8.1-16.52-.2-.51-.78-.87-.96-1.38-.92-2.64-3-4.68-3.62-7.53-.99-4.58-1.37-9.39-4.14-13.44-1.88-2.74-4.02-4.99-7.73-4.69-1.41-1.13-1.09-3.39-2.81-4.32-.58-3.43-1.27-6.85-1.3-10.35,1.33,.66,2.08,1.89,2.85,3.04,5.66,8.33,11.3,16.68,16.87,25.07,.66,1,1.54,2.01,1.58,3.35-1.53,2.07-1.48,2.37,.61,3.48,.25,4.37,3.87,7.72,3.77,12.22,0,.38,.65,.91,1.12,1.15,3.93,2.02,4.95,6.23,5.76,9.7,.85,3.62,2.48,6.35,4.61,9.08Z"/><path class="cls-1" d="M397.73,344.96c-3.01,.07-5.72-1.33-8.62-1.79-1.3-.21-2.2-1.27-2.52-2.59-1.01-4.16-3.35-7.26-6.91-9.66-1.98-1.34-3.64-3.27-3.88-5.8-.27-2.85-1.96-4.67-4.12-6.02-2.37-1.47-3.3-3.45-3.89-6.12-.92-4.21-2.43-8.21-4.36-12.19-2.08-4.28-4.81-8.18-6.89-12.46-2.15-4.42-4.02-8.89-5.63-13.5-.66-1.88-1.81-3.49-2.71-5.2-3.57-6.77-5.62-14.33-10.96-20.22-2.01-2.22-3.13-5.34-4.28-8.2-3.59-8.89-8.52-17.07-13.2-25.38-.21-.37-.35-.83-.66-1.07-4.97-3.77-4.67-8.89-3.85-14.26,.34-2.23-.14-4.62-1.58-6.35-1.97-2.37-4.28-4.45-5.63-7.31-.31-.66-1.15-.74-1.87-.8-.05-.93,.12-1.93-.87-2.54-.05-1.9-2.26-3.12-1.65-5.23,6.22,6.22,10.74,13.64,15.12,21.19,7.34,12.66,12.28,26.48,19.24,39.33,9.31,17.19,19.37,33.94,28.93,50.98,4.26,7.6,8.23,15.36,12.32,23.06,4.95,9.32,10.5,18.28,15.92,27.32,.94,1.56,2.06,3.03,2.55,4.83Z"/><path class="cls-2" d="M260.5,216.39c.64-4.1,.66-8.24,.82-12.37,.06-1.65-.79-2.64-2.47-2.85,1.05-2.41-.58-4.46-.92-6.68,.01-1.11-.56-1.67-1.64-1.77-.84-1.27-.95-2.7-.89-4.16,.07-1.42,0-2.79-.75-4.07-.35-.6-.84-1.31-.78-1.93,.6-6.17-3.34-10.81-5.31-16.1-.24-.65-.7-1.31-.69-1.96,.02-2.96-1.59-5.19-3.62-6.82-5.22-4.19-9.54-9.36-14.91-13.37-2.03-1.51-3.99-3.16-6.37-4.01-2.47-.88-3.67-3.49-6.18-4.22-.25-.98-.32-1.95,.1-2.91,12.26,3.93,24.53,7.87,36.8,11.79,2.53,.81,5.08,1.57,7.63,2.32,2.04,.6,3.3,1.57,3.51,4.03,.23,2.63,.87,5.24,.89,7.91-3.32,22.66-1.39,44.65,8.5,65.6-2.76-.63-5.53-1.24-8.09-2.5"/><path class="cls-2" d="M137.45,363.96c-3.91-.47-7.87-.53-11.67-1.77,.02-1.76,1.29-2.76,2.47-3.68,5.48-4.31,10.14-9.4,14.45-14.83,1.74,2.36,4.28,1.83,6.06,.79,3.91-2.29,8.58-2.93,12.03-6.41,2.28-2.3,5.77-3.4,8.72-5.03,1.48-.82,2.91-.97,4.29,.26,1.34,1.2,1.54,2.76,1.01,4.26-.86,2.4-2.3,4.51-4.13,6.3-1.22,1.2-2.12,2.61-3.16,3.93-1.45,1.85-2.1,3.75-.78,5.79,1.26,1.94,3.18,3.62,5.51,3.21,4.22-.74,8.78-.05,12.6-2.68,2.09-1.45,4.47-1.68,6.88-1.4,2.44,.29,3.34,2.7,1.8,4.65-1.08,1.36-2.46,2.42-4.15,2.76-4.41,.89-8.51,2.87-12.97,3.58-1.57,.25-3.05,.8-3.13,2.81-9.06-.6-18-2.43-27.12-2.36-2.88-1.01-5.8-.31-8.71-.18Z"/><path class="cls-3" d="M206.19,173.14c.71,1.17,1.88,1.04,3.01,1.06,.98,.02,1.94,.03,2.91,.37,5.31,1.88,7.15,5.12,5.88,11.28-.5,2.41-.78,4.6,0,7,.71,2.2,0,4.45-.65,6.61-4.36-.02-8.72-.26-13.08,.1-2.66,.22-5.29,.47-7.69,1.76-3.57-.16-6.79-1.61-10.11-2.71,.52-.65,.96-1.39,1.57-1.95,7-6.42,12.33-14.13,17.15-22.22,.28-.47,.69-.86,1.03-1.29Z"/><path class="cls-3" d="M334.07,104.76c.06-.89,.37-1.65,1.17-2.12,6.08-3.62,11.72-7.92,18.79-9.89,3.16-.88,6.2-3.26,8.45-5.97,3.23-3.91,6.56-7.54,11-10.24,2.69-1.64,5.08-4.03,6.58-6.99,.91-1.8,2.04-3.41,3.84-4.35,1.48-.78,1.91-1.95,1.79-3.47,3.79-2.58,8.13-3.71,12.55-4.41,6.4-1.01,12.84-1.21,19.25,.05,.82,.16,1.82,.15,2.01,1.17,.23,1.26-.87,1.65-1.74,2.03-2.46,1.09-5.13,1.39-7.72,2.01-5.72,1.36-11.34,2.86-16.66,5.6-6.46,3.32-11.54,7.87-15.31,14-.51,.83-1.12,1.6-1.69,2.39-3.02-1.19-5.42,.23-8.15,1.38-2.77,1.17-3.96,3.79-6.44,5.17-5.67,3.16-11.43,6.1-17.41,8.62-2.63,1.11-4.84,2.77-6.13,5.43-1.44,.35-2.8-.11-4.18-.4Z"/><path class="cls-3" d="M336.64,80.46c-.03,1.24,1.07,1.95,1.44,2.98,.95,2.67-.18,4.41-3.06,4.49-3.79,.1-7.59,.07-11.39,0-3.47-.06-6.59-1.81-9.35-3.35-6.08-3.39-12.1-2.75-18.35-1.55-4.36,.84-8.74,1.53-13.07,2.49-3.29,.73-6.52,1.93-9.34,3.69-2.04,1.28-3.57,1.27-5.32-.01-.8-.58-1.54-1.23-2.6-1.25,5.43-6.48,12.81-9.28,20.77-10.9,5.17-1.05,10.41-.89,15.41,.72,11.44,3.68,23.02,4.7,34.87,2.68Z"/><path class="cls-4" d="M338.25,105.15c1.29-2.66,3.5-4.32,6.13-5.43,5.98-2.52,11.74-5.45,17.41-8.62,2.47-1.38,3.67-4.01,6.44-5.17,2.73-1.15,5.14-2.57,8.15-1.38-4.81,11.68-13.55,18.35-25.98,20.2-4.02,.6-8.06,1.38-12.14,.39Z"/><path class="cls-4" d="M305.3,183.49c.99,.61,.82,1.62,.87,2.54,.42,2.38,2.3,4.04,3.14,6.23,.5,1.3,1.28,2.43,.21,3.84-1.02,1.33-2.01,.11-3,.13-.97,.02-1.94-.02-2.9-.03-2.13-2.72-3.76-5.46-4.61-9.08-.81-3.47-1.83-7.67-5.76-9.7-.47-.24-1.13-.77-1.12-1.15,.09-4.51-3.52-7.85-3.77-12.22,.67-.31,1.33-.63,1.99-.94,3.78,3.78,7.19,7.89,10.6,12-.33,4.68,.78,6.82,4.36,8.38Z"/><path class="cls-4" d="M393.95,359.49c1.68-1.15,.35-2.26-.2-3.18-.86-1.43-1.94-2.7-2.14-4.44-.39-3.33,.93-4.93,4.32-5.14,.97-.06,1.95-.06,2.92-.08,2.9,3.79,4.83,8.14,7.17,12.26,2.12,3.75,3.73,7.81,6.65,11.1,.52,.58,.62,1.53,.92,2.31-.56,.27-1.11,.54-1.67,.81-1.75-2.62-4.15-4.47-6.82-6.13-3.8-2.36-7.76-4.52-11.14-7.51Z"/><path class="cls-3" d="M443.88,381.29c6.56-2.59,13.57-3.36,20.4-4.83,2.86-.62,5.57-1.97,8.59-1.8-.03,1.19-1.06,1.57-1.81,2.1-6.07,4.36-12.54,8.16-18.42,12.8-.04-.55-.09-1.1-.11-1.66-.18-4.87-.34-5.02-5.04-5.72-1.22-.18-2.41-.6-3.61-.9Z"/><path class="cls-3" d="M387.93,53.46c-3.5-1.61-7.08-1.48-10.66-.34-2.03,.64-4.03,1.23-6.18,.86,1.56-2.1,3.79-3.3,6.1-4.28,6.21-2.63,12.68-4.41,19.31-5.55,1.4-.24,3.56-1.02,4.14,.71,.6,1.8-1.72,2.25-2.91,2.99-3.2,1.98-6.53,3.75-9.81,5.61Z"/><path class="cls-3" d="M305.3,183.49c-3.57-1.56-4.68-3.7-4.36-8.38,1.25,.75,2.09,1.86,2.71,3.15-.61,2.11,1.59,3.33,1.65,5.23Z"/><path class="cls-3" d="M290.34,163.11c-.66,.31-1.33,.63-1.99,.94-2.09-1.11-2.14-1.41-.61-3.48,.87,.85,1.74,1.69,2.61,2.54Z"/><path class="cls-4" d="M127.76,418.1c5.22-.98,10,.03,13.91,2.53,5.25,3.36,10.69,5.02,16.81,5.71,6.36,.71,12.95,.17,19.02,2.82,.93,.41,1.95,.63,2.89,.42,7.4-1.65,14.78,.82,22.18,.05,1.67-.17,3.36,.12,4.99-.58,1.84-.79,3.58,.13,5.34,.54,2.31,.53,4.56,1.34,6.99,.22,.82-.38,1.99-.32,2.91-.09,3.48,.86,6.73,2.4,10.34,3.07,1.92,.36,3.53,.68,5.53,.41,4.75-.64,9.58-.41,14.15,1.15,4.17,1.42,8.32,1.59,12.67,1.3,5.67-.37,11.33,.13,16.79,1.97,.53,.18,1.07,.43,1.49,.78,1.24,1.03,2.17,2.33,1.83,3.99-.29,1.42-1.69,1.87-2.88,2.18-2.06,.54-4.25,.55-6.28,.05-3.09-.75-6.01-1.21-8.89,.71-.62,.42-1.63,.36-2.46,.33-4.93-.17-9.78,.43-14.57,1.54-1.52,.35-2.87-.07-3.98-.93-2.39-1.87-4.9-1.73-7.57-.88-4.8,1.53-9.59,2.02-14.36-.2-.6-.28-1.39-.39-2.05-.3-7.68,1.09-15.38,.02-23-.34-4.58-.22-9.34,.31-14.02-1.19-4.47-1.44-9.33-1.63-14.02-2.37-.55-.09-1.2-.48-1.63-.3-3.36,1.4-6.85,.14-10.27,.43-3.77,.32-7.74,.84-11.59-.05-6.08-1.41-9.88-5.58-12.8-10.73-.91-1.61-1.79-3.21-3.24-4.37-2.45-1.96-3.2-4.75-4.24-7.84Z"/><path class="cls-4" d="M186.02,306.13c-3.79,1.34-5.94,4.58-8.29,7.46-1.7,2.09-3.53,4.03-5.5,5.8-2.44,2.2-4.66,1.39-5.6-1.81-.16-.54-.03-1.23-.33-1.63-2.52-3.41-.84-6.42,.91-9.35,1.42-2.38,3.03-4.65,4.54-6.98,1.39-2.14,2.64-4.3,2.45-7.02-.14-2,.43-4.03,1.28-5.69,1.62-3.15,2.05-6.73,3.87-9.76,.59-.99,.76-2.09,.75-3.24-.05-4.9,.41-9.85-1.38-14.6-.19-.51-.38-1.13-.28-1.64,.81-3.94-.49-8.05,.87-11.93,1.25-3.58,.65-7.25,.76-10.88,.07-2.39,.23-4.71,.75-7.08,1.01-4.57,4.19-6.8,8.08-8.43,1.88-.79,3.28-.08,4.07,1.81,.65,1.56,1.43,3.11,1.45,4.81,.04,3.49,1.65,6.17,4.05,8.5,.91,.88,1.83,1.76,2.02,3.13,.56,3.99,2.93,7.61,2.45,11.82-.05,.41,0,.85,.05,1.26,.15,1.22,.87,2.08,1.92,2.61,.95,.48,1.58-.22,2.17-.83,.99-1.03,1.17-2.23,.55-3.49-.24-.49-.65-.92-1.04-1.32-1.27-1.28-1.34-2.67-.61-4.25,1.76-3.86,2.93-7.86,2.92-12.17,0-2.23,.98-4.24,3.1-5.13,2.16-.91,4.14,.08,5.81,1.52,1.99,1.72,3.42,3.95,3.62,6.49,.32,4.07,1.98,7.89,1.85,12.02-.04,1.44,.87,2.61,1.66,3.8,1.7,2.54,3.35,5.12,4.91,7.75,1.13,1.91,1.28,3.75,.14,5.95-1.2,2.32-1.93,4.97-2.4,7.56-.46,2.48-.42,5.1,1.39,7.23,1.05,1.24,1.26,2.8,1.78,4.24,.33,.92,.82,1.42,1.76,1.51,0,.84,.02,1.69,.03,2.53,.08,2.94-.24,5.87,.67,8.79,.44,1.42,.16,3.07,.13,4.62-.03,1.69-.96,2.58-2.65,2.63-1.55,.04-3.11,.15-4.64,.01-4-.37-2.8,4.51-5.6,5.44-.79,.26-.68,1.49-.44,2.31,.19,.67,.5,1.33,.89,1.91,1.04,1.54,2.36,2.6,4.2,3.31,2.31,.89,2.96,3.19,1.81,4.76-1.6,2.2-8.67,2.58-9.95,.05-1.29-2.54-2.28-5.14-1.9-8,.44-3.32,.54-3.31-2.46-4.46-.52-.2-1.11-.26-1.6-.51-2.19-1.14-8.5-9.87-8.86-12.44-.16-1.12-.4-2.19-.75-3.26-.34-1.05-.81-1.78-2.03-1.7-1.09,.07-2.15,.59-2.13,1.65,.05,2.01-1.86,3.16-1.9,5.05h0c-1.1,.02-1.66,.59-1.69,1.69-2.7,1.25-3.65,4.25-5.93,5.92-1.1,.02-1.66,.59-1.68,1.69h0Z"/><path class="cls-2" d="M250.51,222.94c7.42,2.89,15.28,4.26,22.85,6.65,2.6,.82,4.18,1.96,4.14,4.92-.03,2.09,1.02,4.09,.76,6.24-.5,1.01-1.03,2-1.49,3.02-6.2,13.99-7.32,28.82-6.85,43.83,.35,11.26,1.63,22.46,3.48,33.57,1.99,11.94,4.37,23.77,9.4,34.94,2.76,6.12,6.52,11.69,9.25,17.8,2.01,4.5,4.32,8.84,7.58,12.6-5.74,.32-11.33-.69-16.89-1.89-3.53-2-7.63-2.32-11.3-3.89,0-.7,.28-1.57-.03-2.08-2.37-3.92-2.74-8.82-6.04-12.26-1.2-1.25-1.76-2.77-2.4-4.35-1.83-4.56-2.87-9.3-3.97-14.05-.63-2.72-1.55-5.35-3.31-7.67-1.58-2.08-1.48-4.81-1.86-7.24-.92-5.92-2.07-11.8-2.93-17.73-.64-4.43-.54-8.9-1.29-13.33-.53-3.13,.05-6.45-1.38-9.49-.18-.37-.39-.88-.27-1.21,1.48-4.04,.21-8.02-.11-12.03-.16-1.93-.25-3.91,.53-5.83,.3-.74,.33-1.69,.17-2.48-1.58-8.29-.83-16.41,1.48-24.46,.67-2.33,.32-4.75,.19-7.12-.03-.54-.56-1.19-.4-1.6,1.99-4.89,.78-9.91,.7-14.88Z"/><path class="cls-3" d="M195.33,296.83c.05-1.89,1.95-3.04,1.9-5.05-.02-1.06,1.03-1.58,2.13-1.65,1.22-.08,1.69,.65,2.03,1.7,.35,1.07,.59,2.14,.75,3.26,.37,2.57,6.67,11.3,8.86,12.44,.49,.25,1.08,.31,1.6,.51,3,1.15,2.9,1.14,2.46,4.46-.38,2.86,.61,5.46,1.9,8,1.29,2.53,8.36,2.15,9.95-.05,1.14-1.57,.5-3.87-1.81-4.76-1.83-.71-3.16-1.77-4.2-3.31-.39-.57-.69-1.24-.89-1.91-.24-.82-.34-2.05,.44-2.31,2.79-.93,1.59-5.81,5.6-5.44,1.53,.14,3.1,.03,4.64-.01,1.69-.04,2.61-.94,2.65-2.63,.03-1.55,.31-3.2-.13-4.62-.91-2.92-.59-5.85-.67-8.79,1.24,.08,1.48,.9,1.75,1.97,.92,3.67,1.88,7.33,3.02,10.94,.93,2.95-1.09,6.02-5.78,8.11-.88,.39-1.91,.44-2.84,.75-3.19,1.07-3.69,3.23-1.28,5.51,.4,.38,.92,.67,1.43,.87,3.61,1.41,4.42,4.41,4.53,7.83,.03,.99-.01,1.97,0,2.96,.08,3.58,.64,4.54,4.29,4.93,2.48,.26,3.61,1.54,3.99,3.58,.34,1.78,1.2,3.46,1.03,5.36-.12,1.36-.36,2.53-1.9,2.89-1.41,.33-2.56-.23-3.28-1.37-.59-.93-.98-2.01-1.31-3.08-1.02-3.29-2.31-6.31-5.62-8.05-1.09-.57-1.83-1.71-2.45-2.85-1.2-2.2-3.1-2.69-5.4-2-.4,.12-.78,.34-1.19,.42-4.41,.84-8.02-1.78-8.43-6.38-.4-4.41-2.26-7.87-5.26-11.11-2.71-2.93-5.88-5.67-6.93-9.87-.37-1.49-1.3-2.48-3.15-1.68-.74,.32-1.64,.3-2.47,.43Z"/><path class="cls-3" d="M173.77,352.35c-.89-.07-1.7-1.29-2.49-2.4-.77-1.08,.16-1.96,.85-2.52,2.84-2.29,4.27-5.8,7.19-8.04,1.65-1.27,3.04-2.87,3.96-4.85,.76-1.65,2-2.97,3.28-4.29,2.01-2.08,4.63-3.68,5.62-6.67,.19-.57,.95-.99,1.51-1.39,2.09-1.48,3.91-3.12,4.61-5.77,.24-.9,.9-1.75,1.55-2.46,1.19-1.28,3.93-.69,6.2,1.22,1.69,1.42,2.01,3.15,.97,4.78-.56,.89-1.48,1.25-2.26,1.83-1.49,1.11-2.92,2.46-3.23,4.29-1.04,6.14-5.94,9.65-9.45,14.08-1.73,2.18-3.77,4.1-5.47,6.35-2.97,3.93-7.51,5.04-12.83,5.84Zm29.05-35.69c-.13-.57-.33-.92-.82-.82-.43,.08-.64,.45-.62,.86,.03,.59,.36,1.04,.98,.81,.25-.09,.34-.62,.45-.84Z"/><path class="cls-3" d="M186.03,306.13c.02-1.1,.58-1.66,1.68-1.69-.02,1.1-.58,1.66-1.68,1.69Z"/><path class="cls-3" d="M193.64,298.52c.02-1.1,.58-1.66,1.69-1.68-.03,1.1-.59,1.66-1.69,1.68Z"/><path class="cls-3" d="M319.69,410.51c3.8-.11,7.6-.2,11.39-.34,15.54-.58,30.83-2.77,45.77-7.17,.67-.2,1.37-.28,2.05-.42-.04,.88-.33,1.65-1.1,2.15-3.06,2-6.44,3.28-10.05,3.68-1.81,.2-3.61,.22-5.34,.85-5.45,2-11.28,1.45-16.88,2.54-6.9,1.34-13.92,.87-20.89,.89-1.95,0-4,.15-4.95-2.17Z"/><path class="cls-3" d="M402.49,393.82c.69-.69,1.63-.73,2.49-.98,.05,.81,.12,1.66-.92,1.91-.76,.18-1.23-.3-1.57-.93Z"/><path class="cls-3" d="M384.74,400.6c.47-.53,1.09-.66,1.77-.64-.21,1.25-.51,2.27-1.77,.64Z"/><path class="cls-2" d="M270.54,143.77c3.71-.3,5.85,1.96,7.73,4.69,2.78,4.05,3.15,8.86,4.14,13.44,.62,2.85,2.7,4.89,3.62,7.53,.18,.51,.76,.87,.96,1.38,2.28,5.72,5.42,11,8.1,16.52,1.32,2.71,1.13,5.95,2.46,8.79,.61,1.31,0,2.96-2.18,2.27-1.32-.41-1.55,.21-1.95,1.34-1.3,3.61-.56,6.89,1.41,9.91,1.75,2.68,3.2,5.47,4.65,8.32,2,3.95,5.02,7.41,7.74,10.98,2.87,3.78,6.24,7.22,7.49,12.01,.18,.67,.43,1.39,.86,1.92,4.22,5.25,6.53,11.76,11.16,16.73,.66,.71,1.33,1.56,1.6,2.46,1.54,5.12,5.56,8.71,8.05,13.23,.41,.74,1.14,1.35,1.35,2.13,1.76,6.55,6.81,11.24,9.62,17.15,1.61,3.4,3.8,6.59,4.88,10.14,1.48,4.91,4.58,8.92,6.58,13.51,.61,1.4,1.65,2.57,1.54,4.25-.07,1.07,.68,1.87,1.34,2.56,3.48,3.63,4.7,8.52,7.15,12.72,1.69,2.91,2.79,6.18,5.57,8.36,.98,.77,1.15,1.89,1.08,3.06-4.27-2.08-8.81-3.4-13.33-4.78-1.85-.24-2.84-1.5-3.76-2.98-1.75-2.85-3.77-5.49-6.54-7.45-3-5.39-5.76-10.91-8.58-16.39-7.89-15.33-16.73-30.16-24.24-45.68-1.96-4.04-4.45-7.74-6.96-11.43-.03-.84-.04-1.67-.51-2.44-1.74-2.87-3.47-5.76-5.2-8.64-2.36-3.96-5.14-7.7-6.94-11.96-1.85-4.41-4.09-8.6-6.58-12.67-.44-.72-.88-1.68-1.88-1.2-1.35,.64-1,1.88-.47,2.88,.64,1.21,1.91,1.99,2.12,3.54,.46,3.31,1.32,6.57,1.62,9.89,.62,6.73,.51,6.74-6.32,7.32-2.35-6.5-3.81-13.27-5.76-19.89-.36-2.4-1.19-4.64-2.16-6.84-1.08-6.32-2.29-12.63-2.84-19.02,1.71,.66,2.4,2.26,3.29,3.65,2.34,3.62,4.64,7.27,6.96,10.91,.04,.39,.15,.94,.59,.77,.6-.24,.3-.85,.16-1.33-1.12-9.49-3.11-18.84-4.61-28.27-1.59-10.02-4.1-19.76-8.09-29.14-1.96-4.6-3.71-9.34-4.94-14.23Z"/><path class="cls-1" d="M287.95,247.16c6.83-.58,6.94-.59,6.32-7.32-.3-3.32-1.16-6.58-1.62-9.89-.22-1.56-1.48-2.33-2.12-3.54-.53-1-.88-2.23,.47-2.88,1-.48,1.44,.49,1.88,1.2,2.48,4.07,4.73,8.26,6.58,12.67,1.79,4.26,4.57,8,6.94,11.96,1.72,2.89,3.45,5.77,5.2,8.64,.46,.76,.47,1.6,.51,2.44-1.27,0-2.56,.18-3.8-.02-3.56-.58-6.14,1.55-8.9,3.12-1.14,.65-1.64,1.79-1.73,3.19-.17,2.75,.58,5.23,1.52,7.77,1.4,3.81,3.96,7.25,4.32,11.36,.27,3.13,1.48,5.59,3.39,7.95,3.02,3.74,5.32,7.97,6.43,12.61,.7,2.92,2.36,6.23,1.01,9.04-3.27,6.79-3.72,13.68-2.27,20.87,.05,.27,.03,.56,0,.84-.61,5.73,1.1,10.74,4.54,15.31,1.78,2.37,4.66,2.51,6.01-.11,.95-1.84,1.86-3.91,1.01-6.06-.76-1.93-.61-3.89-.52-5.83,.13-2.8,1.63-3.56,4.26-2.62,2.46,.88,2.92,3.04,3.19,5.05,.89,6.65,6.29,8.95,11.22,11.22,2.49,1.14,5.32,1.48,7.28,3.7,.49,.56,1.21,.68,1.93,.71l2.53,.02c1.53,2.25,3.14,3.03,5.03,2.37,2.16-.75,1.87-2.65,1.69-4.24-.39-3.32-.84-6.82-2.83-9.5-2.13-2.86-3.02-6.25-4.85-9.19-.78-1.26-.78-2.65-.69-4.06,2.78,1.96,4.79,4.61,6.54,7.45,.91,1.48,1.91,2.74,3.76,2.98-.04,1.06,.69,1.77,1.15,2.61,1.93,3.51,4.18,6.87,5.36,10.76-2.63-.26-3.63,1.57-4.66,3.5-1.54,2.9-2.15,6.32-.57,8.85,2.16,3.46,1.86,6.91,1.89,10.51-8-2.53-16.11-4.66-24.29-6.55-12.59-2.91-25.3-4.87-38.15-6.05-.55-3.13-1.38-6.23-1.24-9.45,.39-6.74,.66-13.46,.44-20.24-.62-19.05-3.32-37.81-6.58-56.54-2.03-11.65-5.01-23.09-7.58-34.61Z"/><path class="cls-2" d="M376.31,376.89c.99,3.9,1.98,7.8,2.96,11.7-.89,.19-1.78,.38-2.67,.57-.31-.27-.72-.48-.93-.81-2.42-3.96-6.53-5.64-10.34-7.74-.02-3.6,.27-7.04-1.89-10.51-1.58-2.53-.98-5.95,.57-8.85,1.03-1.93,2.03-3.76,4.66-3.5,2.41,4.44,4.18,9.16,5.97,13.86,.49,1.29,.6,2.75,1.67,3.78,0,.5,0,1-.01,1.5Z"/><path class="cls-4" d="M257.93,194.5c.34,2.22,1.97,4.27,.92,6.68-.04,.98,0,1.98-.15,2.94-.28,1.71-1.35,2.76-3.06,3-2.44,.35-4.98,.09-6.87-1.34-4.14-3.14-7.74-6.84-8.63-12.33-.23-1.43-1.03-2.55-1.78-3.75-3.34-5.33-5.88-11.03-7.65-17.09-.6-2.07-.37-3.81,1.39-4.73,1.76-.91,3.82-.85,5.45,.76,4.27,4.21,8.84,8.14,12.68,12.76,1.14,1.37,2.26,2.83,2.76,4.66,.33,1.19,.79,2.47,2.42,2.52-.06,1.46,.05,2.89,.89,4.16-.07,1.16,.49,1.73,1.64,1.77Z"/><path class="cls-1" d="M257.93,194.5c-1.15-.03-1.71-.61-1.64-1.77,1.08,.09,1.65,.66,1.64,1.77Z"/><path class="cls-1" d="M202.81,316.66c-.11,.22-.2,.75-.45,.84-.62,.23-.95-.22-.98-.81-.02-.4,.19-.77,.62-.86,.49-.1,.68,.25,.82,.82Z"/><path class="cls-3" d="M351.87,333.95c-.09,1.41-.09,2.8,.69,4.06,1.82,2.94,2.72,6.33,4.85,9.19,1.99,2.68,2.44,6.18,2.83,9.5,.19,1.58,.48,3.48-1.69,4.24-1.88,.66-3.5-.12-5.03-2.37,3.9-.81,4.82-2.18,3.89-5.72-.44-1.66-1.28-3.09-2.22-4.5-3.1-4.7-5.93-9.53-6.74-15.23-.16-1.15-.55-2.25-1.26-3.09-2.91-3.42-2.76-8.63-6.77-11.38-.1-.07-.14-.24-.19-.37-2.45-6.65-5.33-13.08-9.5-18.87-.4-.56-.65-1.26-.83-1.93-.72-2.66-2.36-4.78-4.13-6.76-1.24-1.4-2.09-2.9-2.8-4.63-1.47-3.6-2.73-7.44-4.97-10.54-2.85-3.94-6.6-7.18-11.2-9.29-1.91-.87-3.22-.61-4.36,1.01-1.28,1.82-1.91,3.81-.9,5.95,2.48,5.22,3.76,10.83,5.41,16.32,.25,.84,.82,1.46,1.18,2.21,1.9,3.92,4.97,7.14,6.49,11.31,1.48,4.08,2.53,8.29,3.83,12.42,.35,1.13,.25,2.14,.05,3.29-.53,3.02-.04,6.07,2.34,8.04,1.57,1.3,2.78,2.83,3.84,4.38,1.61,2.36,3.28,4.47,5.83,5.86,1.14,.62,1.72,1.7,1.89,3.1,.68,5.83,4.46,8.89,9.62,10.92,3.76,1.48,7.39,3.34,8.99,7.52-.72-.03-1.44-.15-1.93-.71-1.96-2.23-4.79-2.56-7.28-3.7-4.93-2.27-10.33-4.56-11.22-11.22-.27-2.01-.73-4.17-3.19-5.05-2.64-.95-4.13-.18-4.26,2.62-.09,1.95-.23,3.91,.52,5.83,.85,2.15-.06,4.22-1.01,6.06-1.35,2.62-4.23,2.47-6.01,.11-3.44-4.57-5.15-9.57-4.54-15.31,.03-.28,.05-.57,0-.84-1.46-7.2-1-14.09,2.27-20.87,1.35-2.81-.31-6.11-1.01-9.04-1.11-4.63-3.41-8.87-6.43-12.61-1.91-2.36-3.11-4.82-3.39-7.95-.36-4.11-2.91-7.55-4.32-11.36-.94-2.54-1.69-5.03-1.52-7.77,.09-1.4,.59-2.55,1.73-3.19,2.76-1.57,5.33-3.7,8.9-3.12,1.23,.2,2.53,.03,3.8,.02,2.51,3.7,5,7.39,6.96,11.43,7.52,15.52,16.35,30.35,24.24,45.68,2.82,5.48,5.57,11,8.58,16.39Z"/><path class="cls-4" d="M287.44,215.97c.25-.19,.5-.37,.75-.56,.15,.48,.44,1.08-.16,1.33-.44,.18-.54-.38-.59-.77Z"/><path class="cls-4" d="M351,358.55c-1.59-4.18-5.23-6.04-8.99-7.52-5.16-2.03-8.95-5.08-9.62-10.92-.16-1.4-.75-2.48-1.89-3.1-2.55-1.39-4.22-3.5-5.83-5.86-1.06-1.55-2.26-3.08-3.84-4.38-2.38-1.96-2.87-5.01-2.34-8.04,.2-1.14,.3-2.16-.05-3.29-1.3-4.13-2.35-8.33-3.83-12.42-1.51-4.16-4.59-7.39-6.49-11.31-.36-.74-.93-1.37-1.18-2.21-1.65-5.49-2.93-11.1-5.41-16.32-1.02-2.14-.39-4.13,.9-5.95,1.14-1.62,2.46-1.88,4.36-1.01,4.6,2.11,8.35,5.35,11.2,9.29,2.24,3.1,3.49,6.94,4.97,10.54,.71,1.73,1.56,3.24,2.8,4.63,1.77,1.99,3.41,4.1,4.13,6.76,.18,.67,.43,1.37,.83,1.93,4.17,5.79,7.06,12.22,9.5,18.87,.05,.13,.09,.3,.19,.37,4.01,2.75,3.86,7.96,6.77,11.38,.71,.84,1.1,1.94,1.26,3.09,.81,5.71,3.64,10.54,6.74,15.23,.93,1.41,1.78,2.84,2.22,4.5,.93,3.54,.02,4.91-3.89,5.72-.84,0-1.69-.01-2.53-.02Z"/></svg>