<?xml version="1.0" encoding="utf-8"?>
<!-- Generator: Adobe Illustrator 26.3.1, SVG Export Plug-In . SVG Version: 6.00 Build 0)  -->
<svg version="1.1" id="Layer_1" xmlns="http://www.w3.org/2000/svg" xmlns:xlink="http://www.w3.org/1999/xlink" x="0px" y="0px"
	 viewBox="0 0 170.2 84.4" style="enable-background:new 0 0 170.2 84.4;" xml:space="preserve">
<style type="text/css">
	.st0{fill:#FE4D00;}
	.st1{fill:#FE3700;}
	.st2{fill:#FE4300;}
	.st3{fill:#FEB5A8;}
	.st4{fill:#FEA088;}
	.st5{fill:#FE662B;}
	.st6{fill:#FEAE9E;}
	.st7{fill:#FE825B;}
	.st8{fill:#FEA793;}
	.st9{fill:#FEB8AD;}
	.st10{fill:#FE703D;}
	.st11{fill:#FE8D6C;}
	.st12{fill:#FE967A;}
	.st13{fill:#FE7749;}
	.st14{fill:#345940;}
</style>
<path class="st0" d="M41.9,29.2c0,0.1,0,0.2,0.1,0.2c0.7,0.5,3.6-0.3,4.1-1.1c0.9,0.2,1.6,0,2.3-0.5c0.4-0.1,1-0.1,1.2-0.7
	c0.7,0.1,1.4-0.1,2-0.6c0.7-0.6,1.7-0.4,2.5-1c0.6-0.2,1.2-0.4,1.8-0.7c0.5-0.1,1-0.3,1.4-0.6l1.4-0.5c0.5-0.4,1.4-0.2,1.6-1.1
	l0.3,0c1,0.2,1.6-0.5,2.4-0.8l1.9-0.7c1.7-0.8,1.7-1,0.9-2.8c-0.3-0.7-0.5-1.4-0.6-2.2c-0.1-1.1-1.2-1.6-1.8-2.3
	c-0.4-0.5-1-0.6-1-1.5c0-0.5-0.3-1.5-1.4-1.8c-0.5-0.1-1.3-0.6-1.3-1.5h2.2c0.3,0.9,0.7,1.8,1.5,2.4c0.5,0.4,1,1,1.2,1.8
	c0.2,0.6,0.6,1.2,1.1,1.5c0.6,0.3,0.7,0.6,0.5,1.2c-0.2,0.9,0.8,3,1.7,3.4c0.6,0.3,1.1,0.2,1.6-0.3c2.7-1,5.3-2.1,8-3.1
	c4.1-1.5,8.3-2.8,12.4-4.1c0.2-0.1,0.4-0.2,0.7-0.2c0.8-0.2,1.6-0.3,2.4-0.5c2.3-0.6,4.5-0.9,6.9-0.7c1.7,0.2,3.4,0,5.2,0
	c0.3,0,0.8,0.1,0.8-0.4l0.7,0.1c0.1,0.6,0.6,0.8,1.1,0.8c1.7,0.2,3.4,0.4,5,0.5c0.5,0,1-0.1,1.1-0.7c0.4-0.1,0.8-0.1,1.2,0.2
	c0.5,0.9,1.1,0.5,1.7,0.2c4.7,0.4,9.2,1.4,13.6,3.2c0.2,0.5-0.1,0.9-0.4,1.3c-1.2,1.7-2.4,3.4-3.6,5.1c-1.6,2.2-2.5,4.6-3.2,7.2
	l-0.4,1.2l-0.1,1c-0.3,0.6-0.1,1.3-0.1,1.9c-0.2,1.8,0.1,3.6,0.9,5.3c0,0.5,0.4,1,0.2,1.6c-1.5,0-3.1,0-4.5,0.6
	c-0.6,0.2-1.3,0.3-1.7,0.9l0,0c-0.9,0.4-1.5,1.1-1.9,1.9c-1.1,1.2-1.9,2.6-2.6,4.1c-0.6,0.7-0.8,1.6-1.2,2.4l-0.3,1
	c-0.1,0.3-0.3,0.6-0.4,1c-1,1.5-1,1.6,0.6,2.2c1.6,0.6,3.1,1.5,4.9,1.3c0.8-0.1,1.5-0.2,2.2-0.5c0.7,0,1.4-0.3,2-0.7
	c0.4-0.1,0.8-0.2,1.2-0.5c0.5-0.1,0.9-0.3,1.2-0.7c2.1-1.1,3.9-2.6,5.2-4.6c0.3,0,0.6-0.1,0.2-0.5l0-0.5c0.8,0.1,0.8-0.4,0.7-1l0,0
	c0.6-0.3,0.6-1.2,0.5-1.3c-0.5-0.8,0.3-0.9,0.6-1c1.2-0.5,2-1.4,2.7-2.4c0.3-0.5,1.3,0.1,1.4-0.8c2.3-0.6,4.2-2.3,6.5-2.8
	c0.4-0.1,0.9,0,1.3,0c0.9,0,1.8,0.4,2.5-0.5c0.2-0.3,0.6,0,0.9,0.1c0.6,0.3,1.2,0.5,1.8,0.4c0.2,0,0.4,0,0.6,0.1
	c1,0.6,1.9-0.2,2.8-0.3c1.1-0.1,1.8-1.2,3-1c0.4,0,0.6-0.2,0.8-0.4c0.6-0.5,1.3-0.9,2.1-1l0.7,0.9c0,0.2-0.1,0.5-0.3,0.5
	c-1.3,0-2.2,0.9-3.2,1.4c-0.2,0.1-0.4,0.2-0.5,0.2c-1.9,0.1-3.5,1-5.4,1.2c-1.1,0.1-2.3-0.1-3.4-0.1c-0.5,0-1-0.1-1.5,0.2
	c-0.8,0.5-1.7-0.1-2.5-0.2c-1.3-0.2-2.2,0.7-3.2,1c-0.8,0.2-1.4,1.1-2.4,1.1c-0.1,0-0.2,0.1-0.2,0.1c-1,1.3-2.4,2.3-3,3.9
	c-0.6,1.5-0.6,3.1-1.4,4.5c-0.2,0.3-0.2,0.7,0,0.9c0.7,0.9,1.1,2,2,2.7l0,0c0.7,1.4,1.9,2.3,3.4,2.9l0.2,0.2
	c0.4,1.1,1.4,1.5,2.3,1.1c1.9-0.9,4-1.7,5.5-3c1.6-1.4,3.4-2.2,5.2-3.1c0.5-0.2,0.6-0.8,1.1-1.1c2.1-1.5,4.1-3.1,6.6-4.1
	c1-0.4,1.9-1.1,3.1-1.2c0.2,1.3-1.2,0.8-1.7,1.3c-0.1,0.1-0.4,0.5-0.7,0.5c-0.4,0.1-0.5,1.3-1.1,0.2c-0.1-0.2-1.2,0.8-1,1
	c0.9,0.8-0.3,1-0.3,1.5c0,0.1,0,0.1,0,0.2c-0.3,0-0.5,0.2-0.7,0.5c-0.3,0-0.5,0.1-0.5,0.5h0l-0.7,0.1c-0.8-0.1-1.1,0.7-1.7,0.9
	c-2.3,1.2-4.5,2.6-6.5,4.3c-1.2,1-2.4,1.9-3.2,3.3c-0.2,0.4-0.3,0.7-0.3,1.1c-1.1,0.3-2.2,0.4-3.3,0.5c-4.5,0.1-9,0.1-13.5,0.2
	c-0.4-0.5-0.8-0.8-1.2,0l-0.5,0c-0.6-0.5-1.3-0.8-2.1-0.7c-1.5,0.1-3,0.4-4.5,0.5c-1.6,0.1-2.3,1.3-3.1,2.4
	c-1.4,1.9-3.3,2.4-5.4,2.5c-1.5,0.1-2.7,0.8-4.2,1c-0.3,0-0.4,0.3-0.4,0.5c0.4,1.2,0.2,2.7,1,3.8c-0.5,0.3-1,0.4-1.6,0.5
	c-0.4-0.3-0.4-0.8-0.6-1.2l0.1-0.1l-0.1,0.1c-0.5-0.2-0.5-0.6,0.1-1.3c-2.1,0.2-2,0.1-3.1-2.1c-0.3-0.6-0.7-1.6-1.9-1.1
	c-0.7,0.3-1.4-0.7-1.9-1.1c-0.7-0.6-1.5-0.8-2.3-1.1c-0.7-0.2-1.4-0.3-1.9-0.9c-0.1-0.2-0.3-0.3-0.5-0.2c-1.3,0.8-2.5-0.3-3.7-0.5
	c-1.2-0.1-2.3-0.7-3.5-0.3c-0.7,0.2-1.5-0.1-2.2-0.1c-0.9,0.1-2.1-0.4-2.7,0.8c-0.1,0.1-0.4,0.3-0.5,0.1c-0.4-0.4-0.9-0.3-1.4-0.4
	c-0.5-0.2-0.9-0.3-1.4-0.2c-0.8,0.1-1.6-0.5-1.6-1.3c0.1-1.5-1.1-1.5-1.9-2c-0.2-0.2-0.6-0.1-0.9-0.2c-0.5-0.2-1.1-0.5-1.7-0.5
	c-0.6-0.3-1.2-0.5-1.9-0.5c-1.6-0.7-3.4-0.9-5.1-1.4l-1.2-0.2L59.5,55l-1-0.2c-0.7-0.2-1.4-0.5-2.2-0.7c-0.5-0.2-1.1-0.5-1.7-0.5
	L53,52.8c-0.5-0.4-1.1-0.6-1.7-0.7c-0.3-0.4-0.8-0.5-1.2-0.5c-0.4-0.3-0.9-0.6-1.5-0.6c-0.9-0.7-1.7-1.3-2.9-0.4
	c-0.5,0.4-1.3,0.1-2,0.1c0.1-0.4,1-0.5,0.4-1.1c-2.2-2.3-4.7-2.7-7.8-1.3c-0.1-0.3-0.1-0.7-0.2-1c-0.8-1.5,0-3.1-0.5-4.6
	c-0.6-1.7-0.4-3.5-0.4-5.3c0-1.3-0.2-2.5-0.4-3.8c-0.2-0.9,0-1.5,0.8-2c0.8-0.6,1.6-1.3,2.3-2.1c1.4,0.1,2.7,0,4.1,0L41.9,29.2z
	 M78.7,39.9c0.1-0.7-0.1-1-0.8-1c-0.8,0.1-1.6,0.2-2.3,0.7c-0.4,0-0.7,0.2-0.9,0.5c-1,0.7-1.3,1.7-1.2,2.9c0,0.7,0,1.7,0.6,1.9
	c0.5,0.2,1.2-0.5,1.8-1c0.7-0.6,1.4-1.3,2.6-1.1c0.7,0.1,0.2-0.8,0.3-1.2V39.9L78.7,39.9z M99.3,30.1c0.2,0.4,0.4,0.9,0.9,1.2
	c0.5,0.7,1.2,1.7,2,1.4c0.8-0.2,0.3-1.4,0.4-2.2c0-0.2,0-0.5,0-0.7l0.2-1.2l0-0.7v-2.1c-0.1-0.6,0.4-1.5-0.3-1.8
	c-0.6-0.3-1.3,0.2-1.9,0.6c-0.3,0.2-0.6,0.3-0.8,0.7c-0.6,0.3-0.8,0.9-1,1.5c-0.5,0.7-0.1,1.4,0,2.1L99.3,30.1L99.3,30.1z
	 M106.7,31.8c-0.5,0.2-0.9,0.4-1.2,0.9c-0.8,0.7-1,1.6-0.9,2.6c0,2,1.5,4,3.4,4.6c0.8,0.3,0.9,0,0.9-0.7c0-1,0-2,0-3v-1.9l0-1
	c0-0.1,0-0.1,0-0.2C108.9,31,108.7,30.9,106.7,31.8L106.7,31.8z M78.7,29.6l-0.1-0.5c0-0.2,0-0.5,0-0.7v-2.6
	c0.2-1.6,0.2-2.1-1.9-1.4c-0.7,0.2-1.3,0.6-1.8,1.1c-0.3,0.2-0.5,0.4-0.7,0.7c-0.8,1.1-0.8,2.3-0.3,3.5c0,0.4,0.2,0.8,0.5,1.1
	c0.2,0.3,0.4,0.5,0.7,0.7c0.1,0.3,0.4,0.4,0.7,0.5c0.8,0.4,1.9,1.2,2.6,0.5C79.3,31.8,79,30.6,78.7,29.6L78.7,29.6z M86.1,29.3
	c0.2,0.6,0.6,1.1,1.2,1.5c0.6,1,1.7,1.5,2.8,1.8c0.5,0.2,0.8,0,0.8-0.6c0.1-0.8-0.2-1.6-0.3-2.4v-1.4c0-0.6,0-1.1,0-1.7
	c0-0.7,0.4-1.6-0.1-2c-0.7-0.5-1.7,0.1-2.4,0.5c-0.7,0.3-1.3,0.8-1.5,1.6c-0.7,0.4-0.3,1.2-0.6,1.7C85.8,28.6,86.1,29,86.1,29.3
	L86.1,29.3z M102.9,43.4v-1c0.1-1,0-2,0.2-3c0.2-0.7-0.1-1.1-1-0.9c-2.4,0.5-3.7,1.9-3.8,4.1c-0.5,0.9,0,1.7,0.5,2.4
	c0.3,0.5,0.7,0.9,1.2,1.2c0.2,0.1,0.3,0.2,0.5,0.3c0.8,0.4,1.6,0.7,2.3,0.2c0.7-0.5,0.2-1.4,0.1-2.1c0-0.1,0-0.2,0-0.3L102.9,43.4
	L102.9,43.4z M67.9,35.8l0,0.3l0.2,0.5c0,0.9,0.5,1.6,1.3,2.1c0.2,0.5,0.7,0.7,1.2,0.9c1.6,0.7,2.2,0.4,2.2-1.3c0-0.3,0-0.6,0-0.8
	v-1.9l0-1.4c-0.1-0.5-0.2-1.1-0.2-1.6c0-0.7-0.3-0.8-0.9-0.8c-1.8,0.1-3.4,1.7-3.7,3.6L67.9,35.8L67.9,35.8z M87.8,39.4
	c-0.8,0.4-1.2,1-1.3,1.9c-0.5,2.2,0.8,3.6,2.3,4.9c0.2,0.2,0.4,0.2,0.6,0.4c0.3,0.2,0.6,0.5,0.9,0.4c0.5-0.2,0.3-0.6,0.3-0.9
	c0-0.7,0-1.4,0-2.1V42c0.1-0.6,0-1.3,0.2-1.9c0.2-0.9-0.1-1.2-1-1.3C89,38.8,88.5,39.2,87.8,39.4L87.8,39.4z M96.6,36.3l0.2-2.2
	c0-0.4,0-0.9,0-1.3c0-1.7,0-1.7-1.6-1.3c-2.8,0.6-4,4.2-2.3,6.3c0.2,0.6,0.6,1,1.2,1.2c0.4,0.7,1.3,0.7,2,1c0.5,0.2,0.4-0.3,0.4-0.6
	C96.6,38.3,96.6,37.3,96.6,36.3L96.6,36.3z M82.2,32.2c-1.9,0.2-2.5,1.6-2.8,3.2c0.3,2.6,2,4.4,4.4,5c0.7,0.2,1.1,0.1,1.1-0.9
	c-0.1-2.3-0.6-4.6-0.1-6.9c0.1-0.7-0.3-1.1-1-1C83.3,31.6,82.7,31.7,82.2,32.2L82.2,32.2z"/>
<path class="st1" d="M136,55.7c-0.7-1.5-2.1-2.1-3.4-2.9l0,0c0-0.2,0.1-0.4,0-0.6c-0.4-1-1.7-1.8-0.5-3c-0.7-0.8-0.3-1.5,0.2-2.1
	c0.6-0.9,0.9-1.8,1.1-2.8c0.2-0.9,0.7-1.6,1.8-1.8c0.8-0.2,1.6-0.6,2.1-1.2c0.7-0.7,1.3-0.7,2.2-0.7c1.7,0.1,3.4-0.3,5-0.1
	c1.5,0.2,2.9,0,4.2-0.5c1.5-0.6,3.1-0.1,4.7-0.7c1.9-0.7,3.8-1.2,5.5-2.5l3.3,3.8c0,0.2,0,0.4-0.1,0.5c-1.2,0.7-1.9,2.4-3.6,2.4
	c-0.7,0-1.3,0.3-1.9,0.7c-0.6,0.4-1.2,0.8-2.2,0.8c-1.3,0-2,1.3-2.8,2.2c-0.6,0.8-0.9,2-2.1,2.1c-0.8,0-1.5,0.2-2,0.8
	c-1.4,1.6-3.6,1.8-5.2,3c-0.9,0.7-1.7,1.4-2.5,2.1c-1.5,1.4-1.6,1.4-3.4,0.7L136,55.7L136,55.7z"/>
<path class="st1" d="M69.6,19.1c0-0.4-0.2-0.7-0.5-0.9c-1.4-0.7-1.7-2.1-2-3.4c-0.3-1.6-1.1-2.9-2.2-3.9c-0.5-0.5-0.8-1-0.7-1.8
	C64.2,9,64.3,9,64.4,9C73.7,8.5,83,9.2,92.3,9.3c0.4,0,0.7,0.1,1.1,0.2c-0.1,0.6-0.5,0.4-0.9,0.5c-0.8,0.3-1.8,0.5-1.8,1.7
	c-0.2,0.1-0.4,0.2-0.7,0.2c-4.2,1.3-8.4,2.5-12.4,4.1C74.9,17,72.2,18,69.6,19.1L69.6,19.1z"/>
<path class="st2" d="M36.5,48.2c-2.5,1.5-4.5,3.5-6.7,5.3c-0.5-0.6-0.2-1.4-0.1-2.1c0.1-1.3-0.6-2.4-0.9-3.6
	c-0.4-1.3-0.1-2.5,0.2-3.7c0.3-1.2-0.2-2.2-0.2-3.3c0-0.7,0-1.5,0-2.2c0-0.9-0.2-1.8-0.5-2.8c-0.4-1.3-1.1-2.5-1-3.9
	c0.1-1.1-0.8-2.1-1.2-3.1c-0.3-0.8-0.7-1.4-0.2-2.3c0.3-0.5-0.2-1.4-0.3-2.2c-0.1-0.5-0.3-1-0.3-1.5c0.9,0.6,1.9,1.1,2.7,1.9
	c-0.5,0.4-0.3,0.8-0.2,1.3c0.3,1.6,0.9,3,1,4.7c0.1,1.6,1.2,2.9,1.9,4.4c0.2,0.4,0.5,0,0.6-0.3c0.4-0.8,0.2-1.7,0.6-2.5
	c0.4-0.9,0.8-1.7,1.6-2.3c0.6-0.4,0.7-1.1,1.2-1.6l3.3,1c-0.7,0.8-1.4,1.5-2.3,2.1c-0.8,0.5-0.9,1.2-0.8,2c0.2,1.2,0.4,2.5,0.4,3.8
	c0,1.8-0.2,3.5,0.4,5.3c0.5,1.5-0.3,3.1,0.5,4.6C36.4,47.5,36.4,47.8,36.5,48.2L36.5,48.2z"/>
<path class="st3" d="M35,60.9c0.4,0,0.8-0.1,1.2-0.4c1-0.9,2.1-1.8,3.1-2.7c0.6-0.6,1.6-0.3,2.3-0.9c0.4-0.2,0.7-0.2,1,0.2
	c0.2,0.3,0.5,0.4,0.7,0c0.3,0,0.6,0,0.9,0.2c0.1,0.1,0.5,0.2,0.5,0.2c0.4-1,1.8-0.9,2.2-1.8c0.3,0,0.6-0.2,0.7-0.5
	c0.1,0,0.2,0,0.2,0l0.2,0.2c0,0.3,0.2,0.5,0.6,0.5c0.8,0,1.5,0.2,2.2,0.5c0.2,0.1,0.5,0.3,0.7,0.1c1.1-1.4,0.9,0,1.1,0.5
	c0.3,0,0.2-0.2,0.3-0.4c0.4-0.4,0.6-1.3,1.3-0.6c0.5,0.5,1.8,0.9,0.5,1.9c-0.1,0.1-0.2,0.2-0.2,0.3c-0.2,1.5-1.1,1.7-2.4,1.5
	c-0.5-0.1-0.8,0.1-1,0.6c-0.4,0.9-1.1,1.5-2,1.7c-0.4,0.1-0.9,0.2-1.1,0.6c-0.6,1.7-2.1,2.2-3.4,3.2c-1.5,1.2-2.8,1.7-4.8,0.9
	c-0.7-0.3-2.1-0.7-2.7,0.6c-0.1,0.1-0.3,0.1-0.4,0.2c-2.1,0.3-3.3-1.4-2.8-3.4c0.2-1,0.9-1.8,0.9-2.8C34.9,61.2,35,61.1,35,60.9
	L35,60.9z"/>
<path class="st2" d="M123,60.4c-0.3,0.9-0.9,1.6-1.7,2.1c-0.8,0.6-1.6,1.1-2.4,1.7c-4.5,3-9.4,4.9-14.5,6.3c-0.8-1.1-0.5-2.6-1-3.8
	c-0.1-0.2,0.1-0.5,0.4-0.5c1.4-0.2,2.7-1,4.1-1c2.1-0.1,4-0.7,5.4-2.5c0.8-1.1,1.6-2.2,3.1-2.4c1.5-0.2,3-0.4,4.6-0.5
	C121.7,59.7,122.4,59.9,123,60.4L123,60.4z"/>
<path class="st4" d="M65.4,69c1.4-1.1,0-2-0.2-2.9c0,0-0.1-0.1-0.1-0.1c-1.3-1.9-1.3-1.9-3.8-0.8c-1.2,0.6-2.4,1.2-3.8,0.2
	c-0.2-0.2-1.3-0.8-1.9-0.2c-0.7,0.6-1,1.4-0.7,2.3c0.1,0.3,0.2,0.5,0.6,0.6c0.9,0.3,1.3,0.9,1.4,1.9c-0.9,0-1.7,0.4-2.6,0.2
	c0.1-0.6-0.2-0.9-0.7-1.1c-0.1,0-0.3,0-0.3-0.1c-1.6-2.2-3.9,0-5.8-1c-0.1,0-0.3,0.2-0.4,0.4c-0.5,0.4-1.1,0.8-1.3,1.5
	c-1.2-0.1-2.3-0.3-3.5-0.4c0-0.2,0-0.6,0.2-0.6c1.7-0.3,3.3-0.9,4.8-1.7c1.1-0.6,2.3-0.4,3.5-0.2c0.3,0,0.6,0.3,0.8-0.1
	c0.1-0.2,0-0.5-0.2-0.7c-0.4-0.6-0.2-1.1,0.3-1.4c0.4-0.2,0.7-0.5,0.7-1c0-0.2,0.3-0.5,0.3-0.4c1.1,0.2,0.8-0.5,0.8-1.1
	c0.1,0,0.2,0,0.2,0c0.7,0.1,1.2-0.1,1.5-0.8c0.3-0.6,0.8-0.7,1.4-0.7l-0.4,1c0.4,0.3,0.7-0.1,1.1,0c0.4,0,0.8,0.1,0.8,0.5
	c0,1.3,0.9,1.1,1.6,0.9c0.8-0.2,1.8-0.2,2.4-0.9h0.2c1.1,1.1,2.7,1.2,3.8,2.3c0.5,0.5,1,1.5,2.1,0.7c0.1,0,0.9,0.7,1,1.1
	c0.1,0.4-0.6,0.7-1.1,0.8c-0.7,0.3-1.5,0.4-1.2,1.5C66.5,69.2,66,69,65.4,69L65.4,69z"/>
<path class="st5" d="M27.9,55.4c-0.2-0.1-0.5-0.3-0.4-0.5c0.5-1.3-0.4-2.2-0.9-3.2c-0.3-0.5-0.4-1-0.2-1.6c0.2-0.5,0.2-1.1-0.1-1.6
	c-0.1-0.1-0.2-0.3-0.2-0.4c0.2-1.9,0-1.9-0.4-3.6c-0.3-1-1.2-1.8-1-3c0.1-1,0.5-1.9,0.4-3c-0.2-1.7,0.6-3.5-1.4-4.6
	c0.3-1-0.9-1.6-0.8-2.3c0-0.9,0.2-1.8-0.1-2.7c-0.7-2.2-0.8-4.6-1.8-6.8c-0.4-0.8,0.1-1.9-1-2.5c-0.1-0.1,0.2-0.4,0.4-0.5
	c0.8,0.4,1.5,0.8,2.1,1.4c0.5,2,1.4,3.9,1.5,5.9c0,1,0.4,2,0.2,3c-0.1,0.4,0.2,0.5,0.4,0.6c0.6,0.4,0.6,1,0.7,1.6
	c0.1,0.6,0.1,1.2,0.7,1.5c0.8,0.4-0.3,0.5-0.1,1.1c0.6,1.5,1.6,3,1.5,4.7c0,1.3,0.4,2.4,0.3,3.7c-0.1,1.3-0.3,2.6-0.2,3.9
	c0,0.4-0.1,0.8,0.1,1c0.4,0.5,0.5,1.2,0.4,1.8c-0.5,1.8,0.4,3.2,1.3,4.7L27.9,55.4L27.9,55.4z"/>
<path class="st6" d="M53.5,62.3c-0.6-0.1-1.3-0.6-1.7,0.4c-0.1,0.1-0.3,0.2-0.5,0.3c-0.7,0.4-1.8,0.2-2.1,1
	c-0.2,0.7-0.7,1.4-0.7,2.4c-0.8-1.1-1.4-0.9-2.2-0.1c-1.2,1.2-2.8,1.7-4.4,2c-0.5,0.1-1.3,0-1.3,0.9c-0.4-0.1-0.9-0.1-1.3-0.2
	c-1.7-0.3-3.5-0.5-5.2-1c-0.6-1.1-1.1-2.2-1.7-3.2c0.4-1.4,1.3-2.4,2.2-3.5c0,1-0.7,1.8-0.9,2.8c-0.5,2.1,0.7,3.7,2.8,3.4
	c0.1,0,0.4-0.1,0.4-0.2c0.6-1.3,2-0.9,2.7-0.6c1.9,0.7,3.3,0.2,4.8-0.9c1.2-1,2.8-1.5,3.4-3.2c0.2-0.5,0.7-0.5,1.1-0.6
	c0.9-0.2,1.6-0.8,2-1.7c0.2-0.5,0.5-0.7,1-0.6c1.3,0.2,2.2-0.1,2.4-1.5c0-0.1,0.1-0.2,0.2-0.3c1.3-1-0.1-1.4-0.5-1.9
	c-0.7-0.7-1,0.2-1.3,0.6c-0.1,0.1-0.1,0.4-0.3,0.4c-0.2-0.5,0-1.9-1.1-0.5c-0.2,0.2-0.4,0-0.7-0.1c-0.7-0.3-1.4-0.5-2.2-0.5
	c-0.3,0-0.5-0.1-0.6-0.5c1.3-0.2,2.6-0.2,3.7-0.5c0.8-0.2,1.5-0.6,2.3-0.5c0.5,0.1,0.6-0.4,0.6-0.9c0.6,0,1.1,0.3,1.7,0.5
	c0.2,0.8,0.2,1.5-0.2,2.2c-0.4,0.8-0.8,1.7-0.2,2.7c0.4,0.6-0.4,0.9-0.8,1.2c-0.8,0.5-1.5,1.1-1.5,2.2
	C53.7,62.3,53.6,62.3,53.5,62.3L53.5,62.3z"/>
<path class="st7" d="M60.7,22.8c0-0.1,0.1-0.2,0.1-0.2c1.8-1,2-2.4,1.4-4.2c-0.2-0.5-0.6-0.7-0.8-1.1c-1.1-1.7-3.1-2.2-4.4-3.7
	c-0.7-0.8-1.7-0.8-2.7-0.6c-0.2,0.1-0.6,0.3-0.5,0.6c0.4,1.4-0.8,1.2-1.5,1.4c-0.6,0.2-1.4-0.2-1.8,0.5c-0.1,0.2-0.4,0.1-0.5-0.1
	c-0.5-0.8-1-0.6-1.7-0.2c-0.5,0.2-1.2,0.7-1.6-0.2c-1.2,0.4-1.2-0.7-1.8-1.2c-0.4-0.4-1.3-0.5-2-0.9h-0.2c-0.2-0.3-0.5-0.6-0.7-0.9
	c-0.2-0.3-0.5-0.4-0.7-0.1c-0.1-0.1-0.2-0.2-0.2-0.2c-0.1-0.7-0.3-0.8-0.9-0.3c-0.2,0.2-0.7,0.8-0.9,0.2c-0.3-0.7-2-0.4-1.3-1.8
	c1.5-0.1,3-0.1,4.6-0.2c-0.6,1.1,0.5,1,0.9,1.4c-0.2,0.2-0.3,0.4-0.1,0.6c0.9,0.6,1.5,1.6,2.6,1.8c0.7,0.2,1.5-0.2,2.2-0.1
	c0.1,0,0.2-0.2,0.2-0.4c-0.2-1.1,0.1-1.3,1.1-1.8c1.5-0.7,2.7,0.2,4,0.4c1,0.1,1.8,0.1,2.5-0.5l0,0c1.8,1.1,2.8,3.1,4.8,3.8
	c0.1,0.6,0.6,0.4,1,0.5c0,0.4,0.1,0.8,0.5,1c1,0.6,1,1.5,0.9,2.5c-0.1,0.7,0.4,1.3,0.2,2.1c-0.1,0.3-0.2,0.7-0.2,1
	C62.3,22.3,61.6,23,60.7,22.8L60.7,22.8z"/>
<path class="st8" d="M126.4,20.8c1.1,1,2.5,1.6,3.9,1.9c0.8,0.1,1.6,0.5,2.3,0.8c2.2,0.9,4.3-0.1,6.4-0.2c0.8-0.1,1.5-0.3,2.3-0.1
	c1.7,0.5,1.7,0.4,2.3-1.2l1,0.7c-0.1,1.6-0.9,2.3-2.5,2.3c-0.9,0-1.9-0.4-2.9,0.5c-0.5,0.4-1.6,0.2-2.4-0.1c-1.3-0.6-2.7-1-4.2-0.8
	c-0.9,0.1-1.7,0.5-2.3,1c-0.6,0.5-1.2,1-1.9,1.4c-0.2,0.1-0.4,0.5-0.6,0.4c-1.4-0.5-1.9,0.6-2.5,1.5c-0.2,0.4-0.7,0.3-0.8-0.1
	c-0.2-0.7-0.8-0.6-1.3-0.8C123.9,25.3,124.8,22.9,126.4,20.8L126.4,20.8z"/>
<path class="st3" d="M30.1,12.6c1.2-0.4,2.6-0.2,3.8-0.4c1.3-0.2,2.1,1,2.9,1.8c0.4,0.4,0.7,0.9,0.9,1.5c0.1,0.5,0.6,0.8,1.1,0.8
	c1.4,0.2,2.1,0.7,2.3,2.1c0.1,0.4,0.2,0.8,0.7,0.8c1.8,0.1,2.4,1.7,3.3,2.8c0.4,0.5,0.3,1.2-0.5,1.6c-0.5,0.2-0.9,0.6-1.3,0.9h-0.5
	c-1.2-1-2.8-0.2-4.1-0.8c-0.9-0.4-1.7,0-2.4,0.3c-0.5-0.5-0.9-1-1.4-1.5c1.5-0.1,3-0.2,4.4-0.2c0.7,0,1.4-0.2,1.6-0.7
	c0.2-0.5-0.3-1.1-0.7-1.7c-1.1-1.5-2.7-2.2-4.4-2.8c-0.3-0.1-0.7-0.3-0.7-0.7c0-0.7-0.1-1.3-0.9-1.5c-0.9-0.1-1.9-0.3-2.8,0.3
	c-0.2,0.2-0.4,0.4-0.5,0.6C30.4,15,30.1,13.8,30.1,12.6L30.1,12.6z"/>
<path class="st3" d="M12.3,51.1c0.5,0.5,0.9,0.1,1.3-0.2c0.6-0.5,1.2-0.6,1.8-0.1c0.6,0.5,1.3,0.8,2,0.9c1.3,0.3,1.8,1.2,1.1,2.4
	c-0.6,1.1-1.2,2.1-0.6,3.5c0.5,1-0.3,2.1-0.9,3c-0.2,0.3-0.4,0.5-0.4,0.8c-1.1,0.2-2.2,0.5-3.4,0c-0.1-1.1,0.1-2.1,0.8-2.9
	c0.6-0.7,0.2-1.1-0.3-1.5c-1-1-2.2-1.8-3.1-3C11.2,53,11.7,52.1,12.3,51.1L12.3,51.1z"/>
<path class="st0" d="M22.4,20.7c1,0.6,2,1.4,2.9,2.2c-0.1,0.5,0.2,1,0.3,1.5c0.2,0.7,0.6,1.6,0.3,2.2c-0.5,0.9-0.1,1.5,0.2,2.3
	c0.4,1.1,1.2,2,1.2,3.1c-0.1,1.5,0.6,2.7,1,3.9c0.3,0.9,0.5,1.8,0.5,2.8c0,0.7,0,1.5,0,2.2c0,1.1,0.5,2.1,0.2,3.3
	c-0.3,1.1-0.6,2.3-0.2,3.7c0.3,1.2,1,2.3,0.9,3.6c0,0.7-0.4,1.4,0.1,2.1l-0.7,0.7c-0.8-1.5-1.8-2.8-1.3-4.7c0.1-0.5,0.1-1.2-0.4-1.8
	c-0.2-0.2-0.1-0.7-0.1-1c-0.1-1.3,0.1-2.6,0.2-3.9c0-1.3-0.4-2.4-0.3-3.7c0.1-1.6-0.9-3.1-1.5-4.7c-0.2-0.6,0.9-0.8,0.1-1.1
	c-0.6-0.3-0.7-1-0.7-1.5c-0.1-0.6-0.1-1.2-0.7-1.6c-0.2-0.1-0.5-0.3-0.4-0.6c0.3-1-0.2-2-0.2-3C23.8,24.6,22.9,22.7,22.4,20.7
	L22.4,20.7z"/>
<path class="st2" d="M132.6,52.8c-0.9-0.7-1.3-1.9-2.1-2.7c-0.2-0.2-0.2-0.6,0-0.9c0.7-1.4,0.8-3,1.4-4.5c0.7-1.6,2.1-2.6,3-3.9
	c0-0.1,0.1-0.1,0.2-0.1c1,0,1.6-0.9,2.4-1.1c1.1-0.3,1.9-1.2,3.2-1c0.8,0.1,1.6,0.7,2.5,0.2c0.5-0.3,1-0.2,1.5-0.2
	c1.1-0.1,2.3,0.1,3.4,0.1c1.8-0.1,3.5-1.1,5.4-1.2c0.2,0,0.4-0.2,0.5-0.2c1.1-0.5,1.9-1.4,3.2-1.4c0.2,0,0.3-0.3,0.3-0.5
	c0.5,0.4,0.9,0.9,1.2,1.5c-1.6,1.2-3.6,1.8-5.5,2.5c-1.5,0.6-3.1,0-4.7,0.7c-1.3,0.5-2.7,0.7-4.2,0.5c-1.7-0.2-3.4,0.2-5,0.1
	c-0.9,0-1.5,0-2.2,0.7c-0.6,0.6-1.4,1-2.1,1.2c-1.1,0.2-1.5,1-1.8,1.8c-0.2,1-0.5,2-1.1,2.8c-0.4,0.6-0.9,1.4-0.2,2.1
	c-1.2,1.2,0.1,2,0.5,3C132.6,52.4,132.6,52.6,132.6,52.8L132.6,52.8z"/>
<path class="st8" d="M49.7,27.2c-0.7-0.3-1.4-0.7-2.1-1c-0.3-0.1-0.6-0.2-0.9-0.1c-1.5,0.3-2.4-0.6-3.5-1.3c1.5-0.2,2.9,0.6,4.3,1
	c1.1,0.3,1.5,0,1.3-1.1c-0.1-0.4-0.2-0.9,0.4-1.1c0.2-0.1,0.3-0.3,0.2-0.5S49,23,48.8,23c-1.3,0-2.3-0.1-3.1-1.5
	c-0.5-0.9-1.4-2-2.6-2.5c-0.7-0.3-0.8-1.1-1.1-1.6c-0.3-0.5-0.4-1.1-0.6-1.6c-0.1-0.3-0.3-0.6-0.6-0.6c-1.2,0.1-1.8-0.8-2.5-1.4
	c-0.7-0.6-1.3-1.1-2.2-1.3c-0.5-0.1-1-0.6-1.4-1c-0.4-0.5-0.8-1.1-1.7-0.9c-0.4,0.1-0.3-0.3-0.4-0.6c0.7,0,1.4,0,2.2,0
	c-0.1,0.8,0.8,1.1,1.1,1.4c1.1,0.9,2.3,2,3.8,2.1c0.8,0.1,1.5,0.6,1.6,1c0.3,1,1.2,1.3,1.8,2c0.7,1,1.5,1.9,2.4,2.7
	c0.8,0.7,1.7,0.9,2.8,1.1c1.4,0.3,3,0.5,3.9,2c0.3,0.6,1.2,0.9,1.5,1.7c0.2,0.5-0.2,1.2,0.5,1.5c-0.8,0.5-1.8,0.4-2.5,1
	C51.1,27.1,50.4,27.3,49.7,27.2L49.7,27.2z"/>
<path class="st9" d="M12.6,16.7c0.6,1.9,1.2,3.8,1.4,5.7c0.2,2.2,0.1,4.5-2.1,5.3c-0.1-0.1-0.2-0.2-0.3-0.4c-1.2-3-2.9-5.7-5.3-8
	c-0.7-0.7-0.3-1.1,0.3-1.5C8.5,17,10.5,16.6,12.6,16.7L12.6,16.7z"/>
<path class="st7" d="M19.9,37.8c-1-1.4-0.4-3.2-1.2-4.7c-0.4-0.9-0.2-1.9-0.3-2.9c-0.1-1.2-0.1-2.4,0.5-3.5c0.2-0.4-0.1-1-0.2-1.5
	c-0.2-0.7-0.4-1.2,0-2c0.3-0.5,0-1.3-0.9-1.5v-0.2c0.5-1-0.7-1.6-0.4-2.5c0.1-0.4,0-0.9,0-1.3c0.4,0.1,0.9,0.3,1.2,0.6
	c-0.3,0.4-0.3,0.8,0,1.2c-0.1,0.8-0.4,1.7,0.7,2.1c0.2,0.7,0.4,1.5,0.1,2.2c0,0.1-0.1,0.4,0,0.4c1.5,1.1,0.4,2.7,0.8,4
	c0.6,1.5,0,3.2,0.9,4.7c0.4,0.6,0.4,1.3,0.4,2c0,0.1-0.1,0.3,0,0.3c1.2,1.2,0.7,2.9,0.9,4.3c0.1,0.9,0.4,1.9-0.1,2.9
	c-0.3,0.6,0,1.6,0.3,2.3c0.5,1.3,1,2.6,1.4,4c0.3,1.1,0.2,1.9-0.2,2.8l0,0c-0.5-0.3-1-0.5-0.5-1.2c0.3-0.5,0.1-1-0.5-1.2l0,0
	c0.6-1.8-0.4-3-1.5-4.1c-0.5-0.5-0.7-2.7-0.1-3.2c0.5-0.5,0.5-0.9,0.2-1.5c-0.3-0.6-0.4-1.2-0.7-1.8c0.2-0.3,0.6-0.1,0.9-0.5
	C21,38.1,20.3,38.3,19.9,37.8L19.9,37.8z"/>
<path class="st10" d="M18.6,18.3c0.6,0.2,1.2,0.5,1.7,1c-0.2,0.1-0.5,0.4-0.4,0.5c1,0.6,0.6,1.7,1,2.5c1,2.1,1,4.5,1.8,6.8
	c0.3,0.9,0.1,1.8,0.1,2.7c0,0.7,1.1,1.3,0.8,2.3c1.9,1.1,1.2,3,1.4,4.6c0.1,1.1-0.3,2-0.4,3c-0.2,1.2,0.8,1.9,1,3
	c0.4,1.7,0.6,1.7,0.4,3.6c0,0.1,0.1,0.3,0.2,0.4c0.4,0.5,0.3,1.1,0.1,1.6c-0.2,0.6-0.1,1.1,0.2,1.6c0.5,1,1.4,1.8,0.9,3.2
	c-0.1,0.2,0.2,0.4,0.4,0.5c-0.3,0.5-0.5,0.9-1,1.2c-0.1-0.8-0.2-1.5-0.2-2.3c0-0.8-0.3-1.3-1.1-1.5c0-0.4-0.2-0.6-0.5-0.7
	c-0.1-2-0.7-3.9-1-5.9c-0.1-0.9-1.3-1.5-0.9-2.7c0.6-1.6,0.2-3.3,0.4-4.9c0.1-0.7-0.1-1.3-0.4-2c-0.5-1.4-1-2.7-1.7-4
	c-0.4-0.8,0.2-1.7,0-2.7c-0.4-2.1-0.8-4.2-1.5-6.3c-0.1-0.3-0.1-0.6,0-1c0.1-0.7-0.3-1-1-0.9c-0.2-0.7-0.1-1.6-0.7-2.1
	C18.2,19.1,18.3,18.7,18.6,18.3L18.6,18.3z"/>
<path class="st6" d="M126.3,20.7c1.2-1.7,2.4-3.4,3.6-5.1c0.3-0.4,0.6-0.8,0.4-1.3c1,0.2,1.8,0.7,2.7,1.2c-0.6,0.9-1.7,0.4-2.5,0.9
	c-0.8,0.5-1.4,1.2-1.1,2.2c0.5,2,1.5,2.7,3.6,2.7c1.1,0,2.2-0.1,3.3,0.2c1.8,0.4,3.1-0.4,4.3-1.6c1.1,0.6,2,1.4,2.9,2.1
	c-0.6,1.6-0.7,1.6-2.3,1.2c-0.8-0.2-1.6,0-2.3,0.1c-2.1,0.2-4.2,1.1-6.4,0.2c-0.7-0.3-1.5-0.6-2.3-0.8
	C128.8,22.4,127.4,21.8,126.3,20.7L126.3,20.7z"/>
<path class="st5" d="M102.7,71.1c-0.5,0.3-1.1,0.4-1.7,0.5c-0.2-0.6-0.2-1.4-1.2-1.1c-0.1,0-0.3-0.1-0.3-0.1
	c-0.1-0.9-1.1-1.4-1.2-2.2c-0.1-0.6-0.4-1.2-0.8-1.3c-0.8-0.2-1.3-0.8-2-1.3c-0.7-0.5-1.8-0.1-2.4-0.8c-0.7-0.7-1.8-0.5-2.5-1.1
	c-1.4-1.1-3.1-1-4.7-1.3c-0.4-0.1-1-0.1-1.5-0.2c-0.4-0.1-0.8-0.2-1.2,0c-0.3,0.2-0.7,0.3-1.1,0c-0.5-0.4-1-0.4-1.4,0.2
	c-0.4,0.5-1.1-0.2-1.5,0.3c-0.4,0.1-0.9,0.1-1.2,0.5h-0.2c-0.1-0.2-0.2-0.2-0.2,0c0,0.1,0,0.2,0,0.2c-0.6,0-0.8-0.5-1.2-0.7
	c-0.2,0-0.5-0.1-0.7,0c-0.9,0.6-1.5,0.3-2.5-0.3c-1-0.6-1.2-1-0.9-2c0.4-1.2-0.8-1.5-1.2-2.3c0.3,0.1,0.7,0,0.9,0.2
	c0.8,0.5,2,0.5,1.9,2c-0.1,0.8,0.8,1.4,1.6,1.3c0.6-0.1,0.9,0,1.4,0.2c0.5,0.1,1,0,1.4,0.4c0.1,0.2,0.4,0,0.5-0.1
	c0.6-1.2,1.7-0.8,2.7-0.8c0.8-0.1,1.6,0.2,2.2,0.1c1.3-0.3,2.4,0.2,3.5,0.3c1.2,0.1,2.3,1.2,3.7,0.5c0.2-0.1,0.4,0,0.5,0.2
	c0.5,0.6,1.2,0.7,1.9,0.9c0.8,0.3,1.6,0.5,2.3,1.1c0.6,0.4,1.2,1.4,1.9,1.1c1.3-0.5,1.7,0.5,1.9,1.1c1,2.2,1,2.2,3.1,2.1
	c-0.6,0.7-0.6,1.1-0.1,1.3l0,0C102.3,70.2,102.3,70.7,102.7,71.1L102.7,71.1z"/>
<path class="st4" d="M144.6,22.6l1,0.9c0,0.2-0.1,0.5,0,0.6c0.9,1.1,0.4,2.2,0.2,3.4c-0.1,0.8-0.8,1.4-1.4,0.8
	c-0.7-0.5-1.5-0.5-2.1-1c-0.8-0.7-2.2-0.3-2.8,0.6l-0.5,0c-0.4-0.4-1-0.7-1.6-0.9c-1.2-0.4-2.4-0.9-3.6-1.4c-1.1-0.5-2,0-3,0.3
	c-0.5,0.1-0.2,0.7-0.2,1.1l0,0c-0.4,0.2-0.9,0.3-1.3,0.5c-1.3,0.7-1.4,0.9-0.9,2.3c0.1,0.3,0.3,0.7-0.1,0.9
	c-0.4,0.2-0.7-0.1-0.8-0.5c-0.1-0.6-0.5-0.6-1-0.5c-1.4,0.4-2.5-0.5-3.8-0.7c0.1-0.4,0.2-0.8,0.4-1.2c0.5,0.2,1.1,0.1,1.3,0.8
	c0.2,0.5,0.6,0.5,0.8,0.1c0.6-0.9,1.1-1.9,2.5-1.5c0.1,0,0.3-0.3,0.6-0.4c0.7-0.4,1.3-0.8,1.9-1.4c0.6-0.5,1.3-0.9,2.3-1
	c1.5-0.2,2.9,0.2,4.2,0.8c0.8,0.3,1.9,0.6,2.4,0.1c1-0.8,2-0.5,2.9-0.5C143.6,24.9,144.5,24.2,144.6,22.6L144.6,22.6z"/>
<path class="st9" d="M133.1,15.5c2.8,1.1,5.3,2.5,7.7,4.3c-1.2,1.2-2.5,2.1-4.3,1.6c-1.1-0.3-2.2-0.2-3.3-0.2
	c-2.1,0-3.1-0.7-3.6-2.7c-0.3-1,0.2-1.6,1.1-2.2C131.4,15.8,132.5,16.4,133.1,15.5L133.1,15.5z"/>
<path class="st11" d="M62.1,62.3C62,62.1,61.6,62,61.4,62c-1.7,0.1-2.2-1.2-2.9-2.3c-0.6-1.1-0.4-1.9,0.7-2.7
	c0.3-0.2,0.3-0.5,0.2-0.7c-0.3-0.5,0-0.9,0.1-1.4c0.5,0.1,1,0.3,1.4,0.5c0.2,1.1-0.5,1.9-1,2.7c-0.4,0.6-0.5,1,0.1,1.6
	c0.3,0.4,0.2,1,1,1c0.8,0,1.6,0.6,2.1-0.6c0.1-0.2,0.3-0.2,0.5,0.1c0.1,0.3,0.3,0.6,0.6,0.3c0.2-0.2,0.1-0.4-0.1-0.6
	c-0.4-0.5,0-0.9,0.2-1.4c0.1,1,0.5,1,1.2,0.9c0.9-0.2,1.4,0.4,1.2,1.3c-0.2,0.8,0.4,1.2,0.9,0.9c1.1-0.6,1.3,0.1,1.7,0.8
	c0.8,1.7,2.1,2.6,4,2.8c0.8,0.1,1.2-0.6,1.9-0.7h0.7c0.7,0.1,1-0.2,1-0.9c0.1,0,0.2,0,0.2,0c0.3,0.1,0.6,0.4,0.7-0.2
	c0.3,0,0.6,0,0.9-0.1l0.2,0.7c-0.3,0.5-1.3,0.1-1.2,1l-0.2,0.2c-1.2-0.9-0.8,0.3-1,0.7c-0.1,0.2-0.2,0.2-0.4,0.2
	c-0.3-0.1-0.8-0.5-0.9-0.2c-0.2,0.6-1.3,0.8-0.9,1.7c-0.3,0-0.6,0-0.9,0.1c-0.4-0.3-0.5-1.5-1.4-0.4c-0.2,0.3-0.6-0.2-0.7-0.6
	c-0.3-0.8-0.8-1.2-1.7-1.2c-0.6,0-0.7-0.5-0.9-1c-0.6-1.6-1.1-2-2.8-1.7c-0.6,0.1-1.3-0.1-1.7-0.5c-0.7-0.7-1.1-0.6-1.6,0
	c-0.1,0.1-0.3,0-0.5,0L62.1,62.3L62.1,62.3z"/>
<path class="st9" d="M34.8,22.7c-1.8-1.9-3.2-4.1-3.9-6.6c0.2-0.2,0.3-0.5,0.5-0.6c0.8-0.6,1.8-0.5,2.8-0.3c0.8,0.1,0.9,0.8,0.9,1.5
	c0,0.4,0.4,0.6,0.7,0.7c1.7,0.6,3.3,1.2,4.4,2.8c0.4,0.5,0.9,1.1,0.7,1.7c-0.2,0.5-0.9,0.7-1.6,0.7C37.8,22.5,36.3,22.6,34.8,22.7
	L34.8,22.7z"/>
<path class="st4" d="M34.8,10l1.6-0.1c0.2,1.4,1.1,2.2,2.4,2.4c0.1,0.3,0.1,0.7,0.6,0.6c1.8-0.4,2.5,0.9,3.3,2.1
	c0.3,0.4,0.5,0.8,1.1,1c0.9,0.4,1.4,1.4,2,2.2c0.4,0.6,0.9,0.9,1.5,0.9c1.4,0,2.8,0.5,4.1-0.3c0.6-0.4,1.2-0.5,1.7,0.2
	c0.2,0.3,0.5,0.5,0.9,0.5c1.5,0,2.3,1,3.1,2.1c0.1,0.1,0.1,0.3-0.1,0.4c-1.2,0.6-1.1,1.7-1,2.8c-0.5,0.4-1.2,0.5-1.8,0.7
	c-0.7-0.3-0.3-1-0.5-1.5c-0.3-0.8-1.1-1.1-1.5-1.7c-0.9-1.6-2.5-1.8-3.9-2c-1.1-0.2-2-0.4-2.8-1.1c-0.9-0.8-1.6-1.8-2.4-2.7
	c-0.5-0.7-1.4-1-1.8-2c-0.1-0.4-0.8-0.9-1.6-1c-1.6-0.1-2.7-1.2-3.8-2.1C35.6,11.2,34.7,10.9,34.8,10L34.8,10z"/>
<path class="st6" d="M43.2,24.8v-0.2c0.4-0.3,0.8-0.6,1.3-0.9c0.8-0.4,0.9-1.1,0.5-1.6c-0.9-1.1-1.5-2.7-3.3-2.8
	c-0.5,0-0.6-0.4-0.7-0.8c-0.3-1.4-1-2-2.3-2.1c-0.5-0.1-0.9-0.4-1.1-0.8c-0.2-0.6-0.5-1.1-0.9-1.5c-0.8-0.8-1.5-2-2.9-1.8
	c-1.3,0.2-2.6,0-3.8,0.4c-0.3-0.6-0.2-1.3-0.8-1.8c-0.4-0.3,0-0.7,0.4-0.6c1,0,2-0.4,3-0.2c0,0.2-0.1,0.7,0.4,0.6
	c0.8-0.2,1.2,0.4,1.7,0.9c0.4,0.4,0.9,0.9,1.4,1c0.9,0.2,1.6,0.7,2.2,1.3c0.7,0.6,1.3,1.6,2.5,1.4c0.3,0,0.4,0.3,0.6,0.6
	c0.2,0.5,0.4,1.1,0.6,1.6c0.3,0.6,0.4,1.3,1.1,1.6c1.2,0.5,2.1,1.5,2.6,2.5c0.8,1.4,1.8,1.6,3.1,1.5c0.2,0,0.4-0.1,0.5,0.1
	c0.1,0.2,0,0.4-0.2,0.5c-0.6,0.2-0.5,0.7-0.4,1.1c0.2,1-0.2,1.4-1.3,1.1C46.1,25.4,44.8,24.6,43.2,24.8L43.2,24.8z"/>
<path class="st5" d="M128.5,46.3c-0.3-0.2-0.4-0.6-0.5-0.9c0.4-0.9,0.2-1.8,0.9-2.7c0.4-0.5,1.1-0.9,1.2-1.7h0.5
	c1,0.2,2.5-0.7,2.4-1.8c0-0.5,0.2-0.6,0.4-0.9c0.5-0.3,1.1-0.6,1.7-0.1c0.1,0.1,0.3,0.1,0.3,0.1c0.9-1,2.5-0.8,3.4-1.8
	c0.1-0.1,0.3-0.3,0.5-0.3c1.5-0.3,2.8-1,4.4-0.9h1.2c0.5,0.5,2.6,1.1,3.1,0.9c0.3-0.1,0.2-0.4,0.2-0.6c1.1,0.4,2.8,0.4,3.3-0.2
	c1-1.3,2.9-0.6,3.7-1.9c0.1-0.1,0.3,0,0.5-0.1c0.4,0.3,0.7,0.6,0.9,1c-0.8,0.1-1.5,0.5-2.1,1c-0.2,0.2-0.5,0.4-0.8,0.4
	c-1.1-0.1-1.9,0.9-3,1c-0.9,0.1-1.8,0.9-2.8,0.3c-0.1-0.1-0.4-0.1-0.6-0.1c-0.7,0.1-1.3-0.1-1.8-0.4c-0.2-0.1-0.6-0.4-0.9-0.1
	c-0.7,0.9-1.6,0.5-2.5,0.5c-0.4,0-0.9,0-1.3,0c-2.4,0.5-4.2,2.2-6.5,2.8c0,1-1,0.4-1.4,0.8c-0.7,1-1.6,1.9-2.7,2.4
	c-0.3,0.1-1.1,0.2-0.6,1c0.1,0.1,0,1-0.5,1.3l-0.2-0.2c-0.1,0.3,0.2,0.1,0.2,0.2C129.3,45.9,129.3,46.4,128.5,46.3L128.5,46.3z"/>
<path class="st2" d="M162,40.6c0.7,0.6,1.2,1.4,1.7,2.2c-0.8,0.5-1.5,1.2-2.6,0.8c-0.3-0.1-0.5,0.5-0.8,0.7
	c-0.1,0.1-0.3,0.1-0.4,0.2c-1.2,0-2.1,0.7-3.1,1.2c-2.4,1-4.4,2.7-6.6,4.1c-0.4,0.3-0.6,0.8-1.1,1.1c-1.8,0.9-3.6,1.6-5.2,3.1
	c-1.5,1.4-3.6,2.2-5.5,3c-0.9,0.4-1.9,0-2.3-1.1c1.9,0.8,1.9,0.7,3.4-0.7c0.8-0.8,1.7-1.4,2.5-2.1c1.6-1.3,3.8-1.5,5.2-3
	c0.5-0.6,1.2-0.7,2-0.8c1.2,0,1.5-1.3,2.1-2.1c0.8-1,1.5-2.3,2.8-2.2c1,0,1.6-0.4,2.2-0.8c0.6-0.5,1.2-0.7,1.9-0.7
	c1.7-0.1,2.3-1.7,3.6-2.4C162.1,41,162.1,40.7,162,40.6L162,40.6z"/>
<path class="st12" d="M22.4,59.7c-1.2-1-0.9-2.3-1-3.6c1-0.6,0.1-1.3,0-1.9l-0.2-1c0.9-0.5,0.5-1.2,0.2-1.9l-0.2-0.2
	c-0.1-0.7-0.2-1.4-0.3-2.1c-0.1-0.4-0.3-0.7-0.8-0.8c-0.8-0.2-1.1-0.7-0.8-1.4c0.1-0.3,0.2-0.6-0.2-0.7c-1.4-0.2-2.6-1.1-4.1-1
	c0.4-1.2,1.1-2.2,1.8-3.2c0.7-1.1,1.5-2.1,2.9-2.5c0.2,0.7,0.7,2,0.1,2.1c-0.9,0.2-0.8,0.8-1.1,1.2c-0.5,0.6-0.6,1.1,0.4,1.5
	c0.8,0.3,1.1,1.4,1.5,2.1c0.6,1.2,1.6,2,2.3,3.1l0,0c-0.5,1.3-0.7,2.9-0.4,4c0.5,1.9-0.5,4.1,1.4,5.6C23.4,59.4,22.9,59.6,22.4,59.7
	L22.4,59.7z"/>
<path class="st9" d="M13.3,61.4c-0.2,0-0.3,0-0.5,0c-2.4-0.3-4.4-1.5-6.6-2.3c-0.6-0.2-0.5-0.7-0.1-0.9c1.8-1,3.1-2.7,4.4-4.2
	c0.9,1.2,2.1,2,3.1,3c0.5,0.5,0.9,0.8,0.3,1.5C13.4,59.3,13.1,60.3,13.3,61.4L13.3,61.4z"/>
<path class="st13" d="M148.4,35.6c-1.1,0.1-2.2-0.4-3.4-0.2l0,0c-0.4-0.9-0.8-0.5-1.2,0c-1.6-0.1-2.9,0.6-4.4,0.9
	c-0.2,0-0.4,0.2-0.5,0.3c-0.9,1-2.5,0.8-3.4,1.8c0,0-0.2,0-0.3-0.1c-0.6-0.5-1.1-0.2-1.7,0.1c-0.2-0.1-0.4-0.6-0.6-0.2
	c-0.5,1.1-1.6,1.8-2.2,2.8c-0.2,0-0.3,0-0.5,0c-0.5,0-0.9-0.1-1.3,0.2c-0.7,0.5-1.2,0.2-1.8-0.2c-0.2-1.5,1.1-1.6,1.8-1.6
	c1.4,0,2.3-0.8,3.2-1.6c0.3-0.2,0.5-0.2,0.8-0.2c2.3-0.1,4.2-1.1,6-2.4c0.1,0,0.1-0.2,0.1-0.3c1.6,0.5,3,0.1,4.1-1.2
	c2.7,0.9,5.4,1.3,8.2,0.3c0.6-0.2,1.2-0.5,2-0.3c0.8,0.2,1.2-0.7,1.6-1.3c0.3,0.3,0.6,0.7,1,1c-0.2,0-0.4,0-0.5,0.1
	c-0.9,1.3-2.7,0.6-3.7,1.9C151.2,36,149.5,36,148.4,35.6L148.4,35.6z"/>
<path class="st12" d="M145.6,23.5c0.9,0.5,1.6,1.3,2.4,2c-0.6,0.9-1.4,1.8-0.4,3c0.4,0.5,0.8,0.6,1.3,0.6c0.7-0.1,1.4,0.2,2,0.6
	c0.6,0.3,1,0.7,0.8,1.3c-0.2,0.6-0.4,1.3-1.3,1.3c-0.8,0-2.5-0.5-3.2-1c-0.6-0.5-1.2-0.9-2.1-0.5c-0.5,0.2-1-0.2-1.5-0.2
	c-0.8-1.7-2-2.8-4-2.7c0.5-0.9,1.9-1.3,2.8-0.6c0.6,0.5,1.4,0.5,2.1,1c0.7,0.5,1.3,0,1.4-0.8c0.2-1.2,0.7-2.3-0.2-3.4
	C145.5,24,145.6,23.7,145.6,23.5L145.6,23.5z"/>
<path class="st9" d="M155.1,49.2c0.6,1,1.6,0.6,2.4,0.5c1.6-0.4,2.6,0.2,3.4,1.5c-1.4,1.5-3,2.8-4.8,3.8c-1,0.1-1.8-0.4-2.8-0.4
	c-0.9,0-1.2-0.9-1-1.8c0.3-1.1,1.4-1.6,1.5-2.6h0c0.4,0.1,0.5-0.1,0.5-0.5C154.5,49.4,154.8,49.2,155.1,49.2L155.1,49.2z"/>
<path class="st1" d="M28,24.8c2.1,1.4,4.3,2.6,6.7,3.6c-0.5,0.5-0.7,1.1-1.2,1.6c-0.8,0.6-1.2,1.4-1.6,2.3c-0.4,0.8-0.2,1.7-0.6,2.5
	c-0.1,0.3-0.4,0.7-0.6,0.3c-0.7-1.5-1.8-2.8-1.9-4.4c-0.1-1.7-0.7-3.1-1-4.7C27.7,25.6,27.5,25.1,28,24.8L28,24.8z"/>
<path class="st6" d="M12.3,51.1c0.4-0.9,0.6-1.9,1.2-2.7c0.9-0.3,1.7,0.6,2.3,0.7c1.8,0.1,2.3,1.8,3.6,2.3c0.6,0.2,0.8,0.9,0.7,1.8
	c-0.2,1.3,0.2,2.6,0.2,4c0,0.7-0.7,1.5,0.2,2.1c0.1,0.1-0.4,0.4-0.6,0.4c-0.9,0-0.9,0.6-0.7,1.2c-0.8,0.3-1.7,0.5-2.6,0.5
	c0-0.4,0.3-0.6,0.4-0.8c0.6-0.9,1.4-2,0.9-3c-0.7-1.4-0.1-2.4,0.6-3.5c0.7-1.2,0.2-2.2-1.1-2.4c-0.8-0.2-1.4-0.4-2-0.9
	c-0.6-0.5-1.2-0.4-1.8,0.1C13.2,51.2,12.8,51.6,12.3,51.1L12.3,51.1z"/>
<path class="st8" d="M65.5,69.1l-0.2,0.1c-0.1-1.4-0.6-2.6-1.8-3.4c-0.4-0.3-0.9-0.4-1.2-0.1c-0.6,0.8-1.5,1.1-2.1,1.7
	c-0.3,0.3-0.6,0.6-0.2,1.1c0.5,0.5-0.4,0.8-0.3,1.3c-0.9,0.4-1.9,0.2-2.9,0.2c0-0.9-0.5-1.6-1.4-1.9c-0.4-0.1-0.5-0.3-0.6-0.6
	c-0.2-1,0.1-1.7,0.7-2.3c0.6-0.6,1.7,0.1,1.9,0.2c1.4,1,2.6,0.4,3.8-0.2c2.5-1.1,2.6-1.1,3.8,0.8c0,0,0.1,0.1,0.1,0.1
	C65.5,67.1,66.9,68,65.5,69.1L65.5,69.1z"/>
<path class="st11" d="M147.9,25.5c2.1,1.9,4.2,3.8,6.1,5.9c-1.2,0.6-2.1,2-3.7,1.6c-0.4-0.1-0.9,0.5-1.5,0.4s-1.2-0.1-1.6-0.5
	c-0.3-0.3-0.6-0.5-1-0.1c-0.3,0.3-0.5,0-0.7-0.1c-0.5-0.4-1.1-0.4-1.7-0.2c0-0.6-0.1-1.3-0.1-1.9c0.5,0,1,0.4,1.5,0.2
	c0.8-0.4,1.5,0.1,2.1,0.5c0.7,0.5,2.3,1,3.2,1c0.9,0,1.1-0.7,1.3-1.3c0.2-0.6-0.2-0.9-0.8-1.3c-0.6-0.4-1.3-0.6-2-0.6
	c-0.6,0-1-0.1-1.3-0.6C146.5,27.3,147.4,26.5,147.9,25.5L147.9,25.5z"/>
<path class="st8" d="M13.5,48.5c0.2-0.8,0.6-1.5,1-2.1c0.7,0.2,1.5-0.1,2,0.7c0.2,0.4,0.5,0,0.7-0.2c0.2-0.1,0.4-0.4,0.6-0.1
	c0.2,0.2,0.1,0.5-0.2,0.7c-0.2,0.1-0.6,0-0.6,0.4c0.1,0.5,0.5,0.3,0.8,0.3c1.3,0.3,1.8,1.6,2.7,2.3c0.2,0.2,0.5,0.4,0.7,0.5l0.2,0.2
	c-0.3,0.6-0.5,1.2-0.2,1.9l0.2,1c-0.3,0.6-0.3,1.3,0,1.9c0.1,1.3-0.2,2.6,1,3.6c-1,0.6-2,0.9-3.1,1.2c-0.2-0.6-0.3-1.2,0.7-1.2
	c0.2,0,0.7-0.3,0.6-0.4c-0.9-0.6-0.2-1.5-0.2-2.1c0-1.3-0.4-2.7-0.2-4c0.1-0.9-0.1-1.5-0.7-1.8c-1.4-0.5-1.8-2.2-3.6-2.3
	C15.2,49.1,14.4,48.2,13.5,48.5L13.5,48.5z"/>
<path class="st4" d="M76.7,65.9c0.7,0.3,1.1,0.1,1-0.7l0.2-0.2c1.4,0.3,2.2-0.8,3.3-1.2H82c0.1,0.2,0.3,0.5,0.5,0.4
	c0.8-0.4,1.4,0.1,2.2,0.1c1.2-0.4,2.3,0.4,3.5,0.2c0.4-0.1,0.9,0,1.3,0c0.1,0,0.2,0,0.2,0c0,1,0.4,1.7,1.6,1.7c0.5,0,1.1,0,1.6,0.4
	c0,0.8,1,1.3,0.7,2.2c-1.5-1.5-3.5-2-5.5-2.4c-0.1-0.6-0.5-0.8-1.1-1c-1.5-0.5-3.1-0.4-4.6-0.4c-1.1,0-1.9,0.4-2.2,1.6
	c-1.8,0.3-3.7,0.7-5.5,1c-0.4-0.9,0.7-1,0.9-1.7c0.1-0.4,0.6,0.1,0.9,0.2C76.5,66.1,76.7,66.1,76.7,65.9L76.7,65.9z"/>
<path class="st5" d="M65,21.2l-0.2-0.7c0.8-0.6,0.2-1.3,0.2-2c-0.1-1.8-0.9-3.2-2.7-3.7c-0.7-0.2-0.8-1.1-1.5-1.2l0,0
	c-0.5-1-1.3-1.8-2.4-2.2l0,0c0-0.3,0-0.6-0.4-0.8c-0.6-0.3-0.6-0.9-0.6-1.6h2.4c0,0.9,0.9,1.4,1.3,1.5c1.1,0.3,1.4,1.2,1.4,1.8
	c0,0.9,0.6,1,1,1.5c0.7,0.7,1.8,1.2,1.8,2.3c0.1,0.8,0.3,1.5,0.6,2.2C66.7,20.2,66.7,20.4,65,21.2L65,21.2z"/>
<path class="st12" d="M73.7,67.6c-2.2,0.6-4.4,1-6.7,1.2c-0.3-1.1,0.5-1.2,1.2-1.5c0.5-0.2,1.2-0.4,1.1-0.8c-0.1-0.4-0.9-1.2-1-1.1
	c-1.1,0.8-1.5-0.2-2.1-0.7c-1.1-1.1-2.8-1.2-3.8-2.3c0.2,0,0.4,0,0.5,0c0.6-0.6,1-0.7,1.6,0c0.3,0.4,1,0.5,1.7,0.5
	c1.7-0.2,2.2,0.1,2.8,1.7c0.2,0.4,0.3,1,0.9,1c0.9,0,1.4,0.5,1.7,1.2c0.1,0.3,0.5,0.8,0.7,0.6C73.1,66.1,73.2,67.3,73.7,67.6
	L73.7,67.6z"/>
<path class="st13" d="M89.5,64.5c-0.2-0.5-2-1.4-2.8-1.3c-1.1,0.1-2.3,0-3.4-0.3c-1.2-0.3-2.3,0-3.4,0.2c-0.3,0.1-0.2,0.4-0.2,0.6
	c-0.2,0.1-0.3,0.1-0.5,0.2c-0.1-0.2-0.2-0.5-0.2-0.7c0-0.2,0-0.5,0-0.7c0.4-0.5,1.1,0.2,1.5-0.3c0.4-0.6,0.9-0.6,1.4-0.2
	c0.4,0.3,0.8,0.2,1.1,0c0.4-0.3,0.8-0.1,1.2,0c0.5,0.1,1.1,0.2,1.5,0.2c1.6,0.3,3.3,0.2,4.7,1.3c0.8,0.6,1.8,0.4,2.5,1.1
	c0.7,0.7,1.7,0.3,2.4,0.8c0.6,0.5,1.1,1,2,1.3c0.5,0.1,0.7,0.7,0.8,1.3c0.2,0.8,1.1,1.3,1.2,2.2c0,0.1,0.2,0.1,0.3,0.1
	c1-0.3,1,0.5,1.2,1.1c-0.6,0.3-1.2,0.5-1.9,0.5c-0.4-0.3-0.5-0.7-0.4-1.1c0.1-0.5-0.2-0.8-0.6-0.8c-0.9-0.1-0.5-0.6-0.4-1
	c0.5-0.7,0-0.7-0.5-0.7l0,0c0.3-0.4,0-0.7-0.2-1.1c-0.3-0.6-0.7-0.2-1-0.1c-0.2,0-0.4-0.1-0.5-0.2c-0.1-0.3-0.4-0.5-0.7-0.5l0,0
	c-0.4-1-1.4-1-2.2-1.1c-0.3,0-0.6-0.1-0.9-0.1c-0.6-0.2-1.1-0.9-1.9-0.7C89.6,64.5,89.6,64.5,89.5,64.5L89.5,64.5z"/>
<path class="st4" d="M16.4,17.4c-0.2,0.1-0.3,0.4-0.2,0.6c0.3,1.1,0.2,2.4,0.7,3.5c0.4,1-0.1,2.1,0.5,3.1V25
	c-0.3,2.1-0.7,4.1-0.9,6.2c-0.1,1.1-1,1.1-1.7,1.5c-0.6-0.6-1.1-1.4-1.4-2.2c1.5-0.1,2.6-1.5,2.9-3.5c0.3-2,0.2-4-0.3-6
	c-0.3-1.4-0.9-2.7-1.1-4.1C15.3,16.9,15.9,17.1,16.4,17.4L16.4,17.4z"/>
<path class="st8" d="M53.5,62.3c0,0.5,0.2,1.3-0.8,1.1c-0.1,0-0.3,0.3-0.3,0.4c0,0.5-0.3,0.8-0.7,1c-0.5,0.3-0.7,0.8-0.3,1.4
	c0.1,0.2,0.3,0.4,0.2,0.7C51.3,67.2,51,67,50.8,67c-1.2-0.2-2.4-0.4-3.5,0.2c-1.5,0.8-3.1,1.4-4.8,1.7c-0.3,0.1-0.2,0.4-0.2,0.6
	c-0.5-0.1-1-0.2-1.4-0.2c0-0.9,0.7-0.8,1.3-0.9c1.6-0.3,3.2-0.8,4.4-2c0.8-0.8,1.4-0.9,2.2,0.1c0-1,0.4-1.7,0.7-2.4
	c0.3-0.8,1.4-0.6,2.1-1c0.2-0.1,0.5-0.2,0.5-0.3C52.2,61.8,52.9,62.2,53.5,62.3L53.5,62.3z"/>
<path class="st3" d="M12.6,16.7H14c-0.4,0.8,0.3,1.3,0.4,1.9c0.4,1.8,0.6,3.5,1,5.3c0.3,1.4-0.3,3-1.1,4.4c-0.4,0.6-1.4,0.3-1.8,1
	c-0.4-0.5-0.7-1-0.8-1.7c2.2-0.8,2.3-3.1,2.1-5.3C13.7,20.5,13.2,18.6,12.6,16.7L12.6,16.7z"/>
<path class="st11" d="M17.4,24.6c0.2,0,0.5-0.1,0.4-0.3c-0.3-0.9,0-1.7,0.1-2.5c0.9,0.2,1.2,1,0.9,1.5c-0.4,0.8-0.2,1.3,0,2
	c0.1,0.5,0.4,1.1,0.2,1.5c-0.6,1.2-0.6,2.3-0.5,3.5c0.1,1-0.1,2,0.3,2.9c0.8,1.5,0.2,3.3,1.2,4.7c-1.1-0.5-2.1-1.2-2.9-2.2
	c0.9-0.5,0.2-1.2,0.1-1.8c-0.1-0.5-0.3-0.8,0.2-1.1c0.5-0.3,0.5-0.8,0.4-1.3c-0.3-2-0.3-3.9,0.1-5.9c0.1-0.4-0.3-0.5-0.6-0.5
	L17.4,24.6L17.4,24.6z"/>
<path class="st13" d="M43.5,11c0.6,0.1,1.4-0.3,1.5,0.8c0.1,0.5,0.6,0.4,1,0.4c0.4,0,0.4-0.5,0.5-0.5c0.8-0.5,1.4-1.3,2.3-1.6
	c0.4-0.1,0.7-0.1,0.7-0.6c0.7-0.2,1.4-0.2,2.2-0.1c0,0.7,0.3,0.9,0.9,0.9c0.9,0,1.7,0.2,2.6,0.2c0.3,0,0.6,0.2,0.8,0.5
	c-0.7,0.7-1.5,0.6-2.5,0.5c-1.3-0.2-2.5-1.1-4-0.4c-1,0.5-1.3,0.7-1.1,1.8c0,0.2,0,0.4-0.2,0.4c-0.8-0.2-1.5,0.2-2.2,0.1
	c-1.1-0.2-1.7-1.2-2.6-1.8C43.1,11.4,43.2,11.1,43.5,11L43.5,11z"/>
<path class="st2" d="M69.6,19.1c-0.5,0.5-1,0.6-1.6,0.3c-0.9-0.5-1.9-2.5-1.7-3.5c0.2-0.6,0.1-0.9-0.5-1.2c-0.5-0.3-0.9-0.9-1.1-1.5
	c-0.2-0.7-0.7-1.3-1.2-1.8c-0.8-0.6-1.2-1.5-1.5-2.4l2.2,0c-0.1,0.7,0.2,1.3,0.7,1.8c1.1,1.1,1.9,2.4,2.2,3.9c0.3,1.3,0.6,2.7,2,3.4
	C69.3,18.4,69.6,18.7,69.6,19.1L69.6,19.1z"/>
<path class="st11" d="M22.8,49.4c0.6,0.2,0.8,0.7,0.5,1.2c-0.5,0.7-0.1,1,0.5,1.2c0.2,1,0.7,2,1.1,2.9c0.1,0.1,0.2,0.2,0.2,0.3
	c0,1.2,0.2,1.9,0.8,2.6c-0.6,0.6-1.3,1.1-2.1,1.4c-1.9-1.5-0.9-3.7-1.4-5.6C22.1,52.3,22.4,50.7,22.8,49.4L22.8,49.4z"/>
<path class="st6" d="M14.7,16.9c0.1,1.4,0.7,2.7,1.1,4.1c0.5,2,0.6,4,0.3,6c-0.3,2.1-1.4,3.4-2.9,3.5c-0.4-0.3-0.6-0.7-0.7-1.2
	c0.4-0.8,1.4-0.4,1.8-1c0.8-1.3,1.4-3,1.1-4.4c-0.4-1.8-0.7-3.5-1-5.3c-0.1-0.6-0.8-1.2-0.4-1.9C14.2,16.8,14.5,16.9,14.7,16.9z"/>
<path class="st13" d="M151.5,51.1v0.7l-0.5,0.5c-0.6,0.1-1.1,0.4-1.4,1c-1-0.1-1.2,0.9-1.9,1.2c-1.3,0.7-2.5,1.5-3.6,2.4
	c-0.4,0.3-0.6,0.6-0.4,1.1c0.2,0.5,0.8,0.3,1.2,0.3c0.2,0,0.4-0.1,0.6-0.2c1-0.5,1.7-0.2,2.1,0.7c-2,0.6-4,0.7-6,0.9
	c0-0.4,0.1-0.7,0.3-1.1c0.8-1.3,2-2.3,3.2-3.3C147,53.7,149.2,52.3,151.5,51.1L151.5,51.1z"/>
<path class="st11" d="M19.7,39.4c0.3-0.2,0.5-0.6,0.9-0.5c0.2,0.6,0.4,1.2,0.7,1.8c0.3,0.6,0.3,1-0.2,1.5c-0.5,0.5-0.4,2.7,0.1,3.2
	c1.2,1.1,2.1,2.3,1.5,4.1c-0.7-1.1-1.7-1.9-2.3-3.1c-0.4-0.7-0.7-1.8-1.5-2.1c-1-0.4-0.9-0.9-0.4-1.5c0.3-0.4,0.2-1.1,1.1-1.2
	C20.5,41.4,20,40.2,19.7,39.4L19.7,39.4z"/>
<path class="st7" d="M154,31.5c0.3,0.3,0.6,0.6,0.9,0.9c-0.4,0.7-0.8,1.6-1.6,1.3c-0.8-0.3-1.4,0.1-2,0.3c-2.8,1-5.5,0.6-8.2-0.3
	l0.5-1.2c0.6-0.2,1.1-0.3,1.7,0.2c0.2,0.2,0.4,0.4,0.7,0.1c0.4-0.4,0.7-0.2,1,0.1c0.5,0.4,1,0.5,1.7,0.5c0.6,0,1.1-0.5,1.5-0.4
	C151.9,33.4,152.8,32.1,154,31.5L154,31.5z"/>
<path class="st6" d="M65.3,69.1c-1,0.2-1.9,0.5-2.9,0.4c0-0.5-0.3-0.7-0.8-0.7c-0.6,0.1-0.4,0.6-0.4,0.9c-0.5,0-1,0-1.4,0
	c-0.1-0.5,0.7-0.8,0.3-1.3c-0.4-0.5-0.2-0.8,0.2-1.1c0.6-0.7,1.5-1,2.1-1.7c0.3-0.3,0.8-0.2,1.2,0.1C64.7,66.5,65.2,67.8,65.3,69.1
	L65.3,69.1z"/>
<path class="st6" d="M151.5,51.8c0.9-0.2,1.4-0.8,1.7-1.6c0.2,0,0.4-0.1,0.7-0.1c-0.2,1.1-1.3,1.6-1.5,2.6c-0.2,0.9,0,1.9,1,1.8
	c1,0,1.9,0.5,2.8,0.4c-0.6,0.6-1.2,1-1.9,1.2c-0.5-0.4-0.5-0.1-0.5,0.3c-0.2,0.1-0.3,0.1-0.5,0.2c-0.7-0.5-1.6-0.1-2.4-0.4
	c-0.5-0.2-0.5-0.2-0.5-0.6c0.2-1.1,0.4-2.2,0.6-3.4L151.5,51.8L151.5,51.8z"/>
<path class="st3" d="M155.1,49.2c0-0.1,0-0.1,0-0.2c1.7-0.6,3.2-1.8,5-2.2c0,0.1,0,0.1,0,0.2c0.4,1.1,1.5,1.6,2,2.7
	c-0.2,0.7-0.7,1-1.2,1.4c-0.8-1.3-1.8-1.9-3.4-1.5C156.7,49.8,155.7,50.1,155.1,49.2L155.1,49.2z"/>
<path class="st11" d="M95.9,67.1c0.1,0.7,0.5,1.1,1.2,1.2l0,0c0,0.3,0.2,0.6,0.5,0.7c0,0.4-0.5,1,0.4,1c0.4,0,0.7,0.3,0.6,0.8
	c0,0.4,0.1,0.8,0.4,1.1c-0.6,0.3-1.3,0.4-1.9,0.5c-0.1-1.1-0.2-2.3-1.1-3c-1.1-0.9-1.6-2.5-3.2-2.8c-0.4-0.4-1.1-0.4-1.6-0.4
	c-1.2-0.1-1.5-0.7-1.6-1.7c0.8-0.2,1.3,0.5,1.9,0.7c0.8,1,2,1,3.1,1.2l0,0c0,0.5,0.4,0.5,0.7,0.5C95.6,67.1,95.7,67.1,95.9,67.1
	L95.9,67.1z"/>
<path class="st2" d="M106,10c-0.1,0.5-0.5,0.4-0.8,0.4c-1.7,0-3.5,0.1-5.2,0c-2.4-0.2-4.7,0.1-6.9,0.7c-0.8,0.2-1.6,0.4-2.4,0.5
	c0-1.2,0.9-1.4,1.8-1.7c0.3-0.1,0.8,0.1,0.9-0.5C97.5,9.6,101.8,9.7,106,10z"/>
<path class="st11" d="M147.7,54.4c0.1,1.1,0.4,2.1,1.2,2.9c0.3,0.2,0.5,0.5,0.4,0.9c-0.6,0.3-1.2,0.5-1.9,0.5
	c-0.4-1-1.1-1.2-2.1-0.7c-0.2,0.1-0.4,0.2-0.5,0.2c-0.4,0-0.9,0.2-1.2-0.3c-0.2-0.5,0.1-0.8,0.4-1.1
	C145.2,55.9,146.4,55.2,147.7,54.4L147.7,54.4z"/>
<path class="st4" d="M14.4,46.3c0.1-0.5,0.3-0.8,0.6-1.2c1.5-0.1,2.7,0.8,4.1,1c0.4,0,0.3,0.4,0.2,0.7c-0.3,0.8,0,1.3,0.8,1.4
	c0.5,0.1,0.7,0.4,0.8,0.8c0.1,0.7,0.2,1.4,0.3,2.1c-0.3-0.1-0.5-0.4-0.7-0.5c-0.9-0.7-1.4-2-2.7-2.3c-0.3-0.1-0.7,0.1-0.8-0.3
	c-0.1-0.4,0.3-0.3,0.6-0.4c0.3-0.1,0.4-0.4,0.2-0.7c-0.2-0.3-0.4,0-0.6,0.1c-0.2,0.1-0.4,0.5-0.7,0.2C16,46.3,15.1,46.6,14.4,46.3
	L14.4,46.3z"/>
<path class="st12" d="M96.2,72.7c-0.6-0.9-1.5-1.1-2.7-0.5c0.2-1.1,0.6-2.2,0-3.3c0.2-0.9-0.7-1.4-0.7-2.2c1.6,0.2,2.2,1.8,3.2,2.8
	c0.9,0.7,1,1.9,1.1,3C96.9,72.8,96.5,72.6,96.2,72.7z"/>
<path class="st12" d="M17.1,35.6c-1-0.8-1.8-1.8-2.4-2.9c0.7-0.3,1.6-0.4,1.7-1.5c0.3-2.1,0.6-4.1,0.9-6.2c0.3,0,0.7,0.1,0.6,0.5
	c-0.5,2-0.5,3.9-0.1,5.9c0.1,0.5,0.1,1-0.4,1.3c-0.5,0.3-0.3,0.6-0.2,1.1C17.3,34.4,18,35.1,17.1,35.6L17.1,35.6z"/>
<path class="st12" d="M49.7,70.2c-0.1-0.2-0.1-0.5-0.1-0.5c-1-0.1-1.5-1.1-2.5-1.3c0.1-0.1,0.3-0.4,0.4-0.4c1.8,1,4.2-1.2,5.8,1
	c0.1,0.1,0.2,0,0.3,0.1c0.5,0.2,0.8,0.6,0.7,1.1C52.7,70.3,51.2,70.3,49.7,70.2z"/>
<path class="st10" d="M46.3,52.3c-0.7,0-1.6-0.2-2.3,0.3c-0.5,0.3-1-0.2-1.6-0.2c0.3-0.8,0.8-1.3,1.4-1.8c0.7,0,1.4,0.2,2-0.1
	c1.2-0.9,2-0.3,2.9,0.4C48.2,51.8,47.6,52.3,46.3,52.3z"/>
<path class="st10" d="M43.5,10.9c-0.4-0.4-1.6-0.2-0.9-1.4c2.3-0.1,4.6-0.1,6.9-0.2c0,0.5-0.4,0.5-0.7,0.6c-0.9,0.3-1.5,1.1-2.3,1.6
	c-0.1,0.1-0.1,0.5-0.5,0.5c-0.4,0-0.9,0.1-1-0.4C44.8,10.7,44.1,11,43.5,10.9L43.5,10.9z"/>
<path class="st7" d="M46.2,28.5c-1,0.3-1.7-0.1-2.6-0.6c-1-0.6-2.1-1.1-3.3-0.6c-0.1,0-0.2,0.2-0.3,0.2c-0.7-0.3-1.2-0.7-1.6-1.2
	l2.2-0.3c0.3,0,0.7,0,1-0.2c0.2-0.1,0.8-0.4,0.9,0.2c0.8,0.7,1.9,1.1,2.8,1.6c0.8,0.4,1.6,0.3,2.5,0c0.3,0,0.6,0,0.7,0.3
	C47.8,28.5,47,28.7,46.2,28.5L46.2,28.5z"/>
<path class="st5" d="M155.1,49c0-0.5,1.2-0.7,0.3-1.5c-0.2-0.1,0.9-1.2,1-1c0.6,1.1,0.7-0.2,1.1-0.2c0.3-0.1,0.6-0.4,0.7-0.5
	c0.5-0.5,1.9,0,1.7-1.3c0.2-0.1,0.3-0.1,0.4-0.2c-0.1,0.5-0.2,1,0.5,1c0.3,0,0.6,0.2,0.7,0.5c-0.5,0.4-1,0.8-1.5,1.1
	C158.3,47.1,156.8,48.3,155.1,49L155.1,49z"/>
<path class="st6" d="M88,66.4c-2.7,0-5.3-0.1-7.9,0.2c0.3-1.2,1.2-1.6,2.2-1.6c1.5,0,3.1-0.1,4.6,0.4C87.5,65.6,87.9,65.7,88,66.4
	L88,66.4z"/>
<path class="st10" d="M51.6,9.3l5.8-0.2c0,0.6,0,1.2,0.6,1.6c0.3,0.2,0.4,0.5,0.4,0.8c-0.8-0.1-1.4-1.2-2.4-0.5l0,0
	c-0.2-0.3-0.4-0.4-0.8-0.5c-0.9-0.1-1.7-0.2-2.6-0.2C51.9,10.2,51.6,10,51.6,9.3L51.6,9.3z"/>
<path class="st7" d="M48.7,50.9c0.6,0.1,1,0.3,1.5,0.6c-0.7,1.1-1.9,1-2.9,1.3c-0.8,0.2-1.8,0.7-2.7,0.2c0,0-0.2,0-0.2,0.1
	c-0.5,0.9-1.4,0.7-2.1,1.1h-0.5c0-0.4,0-0.7-0.1-1.1c0.1,0,0.2-0.1,0.2-0.1c0.4,0,0.5-0.2,0.4-0.5v0c0.5,0.1,1.1,0.6,1.6,0.2
	c0.7-0.5,1.7-0.3,2.3-0.3C47.6,52.3,48.2,51.8,48.7,50.9L48.7,50.9z"/>
<path class="st10" d="M46.2,28.5c-0.4,0.8-3.3,1.6-4.1,1.1c-0.1,0-0.1-0.1-0.1-0.2c0.2-0.2,0.6-0.1,0.8-0.5c-0.9-0.5-2-0.6-2.7-1.3
	c0.1-0.1,0.2-0.2,0.3-0.2c1.2-0.5,2.3,0.1,3.3,0.6C44.4,28.4,45.2,28.7,46.2,28.5L46.2,28.5z"/>
<path class="st8" d="M153.3,56.6c-0.7,0.6-1.5,0.8-2.4,1c-0.4-0.3-0.5-0.8-1.1-1c-0.6-0.2-0.9-1.3-0.4-2.1c0.2-0.4,0.3-0.8,0.3-1.2
	c0.3-0.6,0.8-0.8,1.4-1c-0.2,1.1-0.4,2.2-0.6,3.4c-0.1,0.5,0,0.5,0.5,0.6C151.7,56.6,152.5,56.1,153.3,56.6L153.3,56.6z"/>
<path class="st6" d="M42.7,24.6c-0.7,0.3-1.4,0.5-2.2,0.5c-1.1,0.1-2.2-0.1-3.2,0.2c-0.4-0.4-0.8-0.8-1.2-1.2
	c0.8-0.3,1.5-0.7,2.4-0.3C39.9,24.4,41.5,23.6,42.7,24.6L42.7,24.6z"/>
<path class="st0" d="M160.4,44.2c0.3-0.2,0.4-0.8,0.8-0.7c1.1,0.4,1.8-0.3,2.6-0.8c0.1,0.5,1.4,0.7,0.5,1.4c-0.8,0.6-1.8,1-2.6,1.5
	c-0.1-0.3-0.3-0.5-0.7-0.5C160.1,45.1,160.3,44.6,160.4,44.2L160.4,44.2z"/>
<path class="st4" d="M149.3,58.2c0.1-0.4-0.2-0.7-0.4-0.9c-0.9-0.8-1.2-1.8-1.2-2.9c0.7-0.3,1-1.3,1.9-1.2c0,0.5-0.1,0.8-0.3,1.2
	c-0.4,0.8-0.1,1.9,0.4,2.1c0.7,0.2,0.8,0.7,1.1,1C150.4,58,149.9,58.1,149.3,58.2z"/>
<path class="st7" d="M23.8,51.8L23.8,51.8c0.5,0.1,0.9,0.3,1.4,0.2c0.3,0.1,0.5,0.4,0.5,0.7c0.3,1.5-0.2,3,0.5,4.5
	c0,0.2-0.1,0.3-0.3,0.3c-0.7-0.7-0.9-1.3-0.8-2.6c0-0.1-0.1-0.2-0.2-0.3C24.5,53.8,24.1,52.8,23.8,51.8L23.8,51.8z"/>
<path class="st6" d="M35,60.9c0.6-0.8,1.1-1.6,1.9-2.2c1-0.1,1.3-0.8,1.4-1.6c0-0.3,0.2-0.4,0.4-0.5l0.8,0c0.7-0.3,1.4-1,1.9,0.2
	c-0.6,0.7-1.6,0.3-2.3,0.9c-1,0.9-2.1,1.8-3.1,2.7C35.9,60.8,35.5,60.9,35,60.9L35,60.9z"/>
<path class="st11" d="M36.5,9.9c0.5-0.2,1-0.2,1.5-0.1c-0.7,1.4,0.9,1.1,1.3,1.8c0.3,0.6,0.7,0,0.9-0.2c0.6-0.5,0.8-0.4,0.9,0.3
	c-0.5,0.8-1.4,0.6-2.2,0.7C37.6,12.1,36.7,11.3,36.5,9.9L36.5,9.9z"/>
<path class="st2" d="M113.9,10.8c-0.1,0.6-0.6,0.7-1.1,0.7c-1.7-0.1-3.4-0.3-5-0.5c-0.5-0.1-1-0.2-1.1-0.8
	C109.1,10.3,111.5,10.4,113.9,10.8z"/>
<path class="st11" d="M16.4,17.4c0.4,0,0.7,0.1,0.9,0.3c0,0.4,0.1,0.9,0,1.3c-0.2,0.9,0.9,1.6,0.4,2.5c-0.3,0-0.6,0-0.9,0
	c-0.5-1.1-0.4-2.3-0.7-3.5C16.1,17.8,16.2,17.5,16.4,17.4L16.4,17.4z"/>
<path class="st8" d="M34.4,68.1c-0.9,0-1.9,0-2.3-0.9c-0.4-0.8-0.1-1.7,0.6-2.4C33.2,65.9,33.8,67,34.4,68.1L34.4,68.1z"/>
<path class="st11" d="M45.8,69.9c0.2-0.7,0.7-1.1,1.3-1.5c0.9,0.2,1.5,1.2,2.5,1.3c0.1,0,0.1,0.3,0.1,0.5
	C48.4,70.1,47.1,70,45.8,69.9z"/>
<path class="st13" d="M26.8,54.3c0,0.8,0.1,1.5,0.2,2.3c-0.2,0.3-0.4,0.5-0.7,0.6c-0.7-1.4-0.2-3-0.5-4.5
	C26.5,53,26.8,53.5,26.8,54.3z"/>
<path class="st8" d="M160.2,47l2.1,0c0.3,0.5-0.7,1.2,0.4,1.5c-0.1,0.5-0.2,0.9-0.6,1.2C161.7,48.7,160.5,48.1,160.2,47L160.2,47z"
	/>
<path class="st11" d="M96.2,72.7c-0.6,0.3-1.2,0.4-1.8,0.4c-0.7,0-1.1-0.2-0.9-1C94.7,71.6,95.6,71.8,96.2,72.7L96.2,72.7z"/>
<path class="st12" d="M40.6,25v0.5c0,0.1,0,0.1,0,0.2V26c-0.7,0.1-1.4,0.2-2.2,0.3c-0.4-0.3-0.7-0.6-1.1-1
	C38.4,25,39.5,25.2,40.6,25L40.6,25z"/>
<path class="st11" d="M41.8,54.2l-0.2,0.7c-0.4,0-0.4,0.2-0.2,0.5c-0.1,0-0.2,0-0.2,0c-0.3-0.2-0.6-0.4-0.9-0.5
	c0.5-0.6,1-1.1,1.6-1.7C41.8,53.5,41.8,53.9,41.8,54.2L41.8,54.2z"/>
<path class="st4" d="M162.3,47.1c1.1,0,1.3,0.1,0.9,0.7c-0.2,0.3-0.1,0.7-0.5,0.8C161.6,48.3,162.6,47.5,162.3,47.1L162.3,47.1z"/>
<path class="st8" d="M38.4,57.2c-0.2,0.8-0.5,1.5-1.4,1.6C37.2,58,37.8,57.5,38.4,57.2z"/>
<path class="st8" d="M61.2,69.7c0-0.4-0.2-0.8,0.4-0.9c0.5-0.1,0.7,0.2,0.8,0.7C62,69.6,61.6,69.9,61.2,69.7z"/>
<path class="st4" d="M39.6,55.9c0,0-0.1-0.1-0.1-0.1c0.1-0.4,0.3-0.7,0.7-0.9c0.3,0.2,0.6,0.4,0.9,0.5
	C40.6,55.8,40.1,55.7,39.6,55.9z"/>
<path class="st2" d="M116.8,11.2c-0.6,0.3-1.2,0.7-1.7-0.2C115.7,11,116.3,10.8,116.8,11.2z"/>
<path class="st2" d="M124.7,60.4h-1.2C123.9,59.6,124.3,59.9,124.7,60.4L124.7,60.4z"/>
<path class="st4" d="M39.5,55.8c0,0,0.1,0.1,0.1,0.1v0.7l-0.8,0C38.8,56.2,39.2,56,39.5,55.8z"/>
<path class="st8" d="M153.7,56.4c0-0.3,0-0.7,0.5-0.3C154,56.3,153.9,56.3,153.7,56.4z"/>
<path class="st10" d="M42.4,52.5c0.1,0.4-0.1,0.5-0.4,0.5C42,52.8,42,52.4,42.4,52.5z"/>
<path class="st12" d="M130.7,27c-0.1,0.3-0.1,0.6-0.3,0.9c-0.2,0.4-0.2,0.8,0.4,0.8c0.9-0.1,0.8,1,1.4,1.2c0.8,0.2,0.8,0.7,0.7,1.3
	c-0.1,0.5,0.2,0.9,0.6,1c1.4,0.3,1.4,1.5,1.4,2.4c0,1.1-1.1,1.2-1.9,1.5c-0.8,0.3-1.7,0.4-2.5,0.9c-1.1,0.6-2.5,0.5-3.7,0.1
	c-1.5-0.5-2.2-2.8-1.4-4.3c0.2-0.3,0.6-0.5-0.1-0.7c-0.3-0.1-0.4-0.2-0.2-0.5c0.7-1-0.1-0.8-0.6-0.8c-0.7,0.1-1.2-0.4-1.8-0.6
	c0-0.3,0.1-0.6,0.1-1c1.3,0.1,2.4,1.1,3.8,0.7c0.5-0.2,0.8-0.1,1,0.5c0.1,0.4,0.4,0.6,0.8,0.5c0.5-0.2,0.3-0.6,0.1-0.9
	c-0.5-1.4-0.5-1.6,0.9-2.3C129.8,27.3,130.2,27.1,130.7,27L130.7,27z M132,30.4c-0.1,0.1-0.2,0.2-0.2,0.3c-0.1,0.2,0.1,0.3,0.3,0.2
	c0.1,0,0.2-0.2,0.3-0.3C132.3,30.5,132.2,30.4,132,30.4L132,30.4z"/>
<path class="st11" d="M130.7,27L130.7,27c0.6-0.1,1.1-0.1,1.5-0.7c0.4-0.6,1.1,0.6,1.7-0.1c-0.1,1,1.4,0.5,1.5,1.6
	c0.1,0.8,1.4,1.1,1.6,2c-0.5,1.9,0,3.5,1.6,4.7c-1.1,0.4-2.4,0.6-3.1,1.8c-0.2,0.3-0.9,0.3-1.3,0.4c-1.9,0.2-3.4,1.8-5.5,1.2
	c-0.7-0.2-2.3,1.5-2.5,2.4c-0.1,0.4-0.3,0.7-0.5,1.1c-0.7-0.5-0.8-1.4-1.4-1.9l-0.5-0.5c0.2-0.6-0.2-1.1-0.2-1.6c0,0,0.1,0,0.1-0.1
	c0.6-0.9,0.4-4.2-0.2-4.9c-0.2-0.2-0.5-0.2-0.7-0.3c0-0.6-0.2-1.3,0.1-1.9c0.6,0.3,1.1,0.7,1.8,0.6c0.5-0.1,1.3-0.2,0.6,0.8
	c-0.2,0.3-0.1,0.5,0.2,0.5c0.7,0.1,0.3,0.3,0.1,0.7c-0.8,1.5-0.1,3.8,1.4,4.3c1.2,0.4,2.5,0.5,3.7-0.1c0.8-0.5,1.7-0.6,2.5-0.9
	c0.8-0.3,1.9-0.4,1.9-1.5c0-0.9,0-2.1-1.4-2.4c-0.4-0.1-0.7-0.5-0.6-1c0.1-0.6,0.2-1.1-0.7-1.3c-0.6-0.1-0.5-1.2-1.4-1.2
	c-0.6,0-0.6-0.3-0.4-0.8C130.5,27.6,130.6,27.3,130.7,27L130.7,27z"/>
<path class="st11" d="M60.7,22.8l-0.3,0c-1.1-0.5-1.3,0.4-1.6,1.1c-0.5,0.2-0.9,0.3-1.4,0.5c0.3-0.7,0.5-1.4,0.8-2.1
	c0.2-0.5,0.5-1,1.2-1c0.6-0.1,0.9-0.6,0.8-1c-0.2-0.9-0.1-1.7-0.3-2.6c-0.3-1.2-1.5-1.3-2.2-1.9c-0.3-0.3-0.5,0.5-0.6,0.9
	c-0.2,1.2-1.8,2.1-2.7,1.5c-0.1-0.1-0.3-0.2-0.3-0.3c-0.1-0.3,0.6-0.9,0-0.9c-0.7,0-1.5-0.4-2.2,0c-0.7,0.4-1.4,1.3-2.2,0.1
	c0,0-0.2,0-0.3,0.1c-2,0.6-3.4,0.3-4.6-1.4c-0.7-0.9-2-1.4-1.8-2.9c0.7,0.3,1.6,0.5,2,0.9c0.6,0.6,0.6,1.6,1.8,1.2
	c0.4,0.9,1.1,0.4,1.6,0.2c0.7-0.3,1.2-0.6,1.7,0.2c0.1,0.2,0.4,0.3,0.5,0.1c0.5-0.7,1.2-0.4,1.8-0.5c0.7-0.2,1.8-0.1,1.5-1.4
	c-0.1-0.3,0.2-0.5,0.5-0.6c1-0.2,2-0.1,2.7,0.6c1.2,1.5,3.3,2,4.4,3.7c0.2,0.3,0.6,0.5,0.8,1.1c0.6,1.8,0.3,3.3-1.4,4.2
	C60.7,22.6,60.7,22.7,60.7,22.8L60.7,22.8z"/>
<path class="st12" d="M57.4,24.3c-0.4,0.3-0.9,0.5-1.4,0.6c0-1.1-0.2-2.2,1-2.8c0.2-0.1,0.2-0.3,0.1-0.4c-0.8-1-1.6-2.1-3.1-2.1
	c-0.4,0-0.7-0.1-0.9-0.5c-0.5-0.7-1.1-0.6-1.7-0.2c-1.3,0.9-2.7,0.4-4.1,0.3c-0.6,0-1.1-0.3-1.5-0.9c-0.6-0.8-1.1-1.8-2-2.2
	c-0.5-0.3-0.8-0.6-1.1-1c-0.8-1.1-1.5-2.5-3.3-2.1c-0.4,0.1-0.5-0.3-0.6-0.6c0.8-0.1,1.6,0.1,2.2-0.7c0.1,0.1,0.2,0.2,0.2,0.2
	c0.3,0.6,0.4,1.4,1.4,1H43c-0.2,1.5,1.2,2,1.8,2.9c1.2,1.7,2.6,2,4.6,1.4c0.1,0,0.3-0.1,0.3-0.1c0.8,1.2,1.5,0.3,2.2-0.1
	c0.7-0.4,1.5,0,2.2,0c0.7,0-0.1,0.6,0,0.9c0,0.1,0.2,0.2,0.3,0.3c0.9,0.6,2.5-0.3,2.7-1.5c0.1-0.4,0.3-1.2,0.6-0.9
	c0.7,0.6,1.9,0.7,2.2,1.9c0.2,0.9,0.1,1.7,0.3,2.6c0.1,0.4-0.2,1-0.8,1c-0.7,0.1-1,0.5-1.2,1C57.9,22.9,57.6,23.6,57.4,24.3
	L57.4,24.3z"/>
<path class="st7" d="M61,55.4l1.2,0.2c0,0.5,0.1,1,0.4,1.4c0.3,0.5,0.2,0.9,0.9,0.2c0.4-0.4,1.3-0.1,2,0c0.5,0.1,0.9,0.3,1.3,0.4
	c0.6,0.2,0.4-0.3,0.5-0.6c0.7,0,1.3,0.2,1.9,0.5c0,0.5,0.5,0.7,0.7,0.9c1.3,0.7,0.8,1.7,0.5,2.6c-0.4,1.2,0.1,2.4,1.3,2.7
	c0.4,0.1,0.7,0.2,0.9,0.6c0.2,0.4,0.5,0.4,0.9,0.2c0.6-0.4,1.2-0.5,1.9-0.5l0,0v0.5c-0.7,0.1-1.1,0.8-1.9,0.7
	c-1.9-0.2-3.2-1.2-4-2.8c-0.4-0.7-0.6-1.4-1.7-0.8c-0.6,0.3-1.1-0.1-0.9-0.9c0.2-0.9-0.3-1.5-1.2-1.3c-0.8,0.2-1.2,0.1-1.2-0.9
	c-0.2,0.5-0.7,0.9-0.2,1.4c0.2,0.2,0.3,0.4,0.1,0.6c-0.3,0.3-0.5,0-0.6-0.3c-0.1-0.2-0.4-0.3-0.5-0.1c-0.5,1.2-1.3,0.6-2.1,0.6
	c-0.8,0-0.7-0.6-1-1c-0.6-0.7-0.4-1-0.1-1.6C60.5,57.3,61.2,56.5,61,55.4L61,55.4z"/>
<path class="st6" d="M124.2,39.4c-3.5-0.3-5.9,1.7-8,4c-0.8,0.9-1.7,1.7-1.9,3c-0.1,0.7-0.2,1.1,0.6,1.3c1.7,0.5,3.3,1.1,4.9,1.7
	c0.2,0.1,0.3,0.2,0.5,0.3c1.3,0.9,2.6,0.7,3.9-0.2c1.8-1.1,2.4-3,3.3-4.7c0.1,0.2,0.3,0.3,0.4,0.5c0.1,0.4,0.2,0.7,0.5,0.9l0,0.5
	c-0.2,0.1-0.3,0.3-0.2,0.5c-1.3,2-3.2,3.5-5.2,4.6c-0.9-0.5-1.7-0.9-2.8-0.8c-0.8,0.1-1.7-0.2-2.2-1c-0.4-0.5-0.8-0.7-1.4-0.7
	c-0.8,0-1.7-0.2-2.4-0.5c-0.7-0.3-1.3-0.7-0.9-1.6c0.2-0.4-0.3-0.6-0.4-0.9c0.7-1.5,1.5-2.8,2.6-4.1c1.1-0.2,1.9-0.7,1.9-1.9l0,0
	c0.6-0.2,1.5,0.2,1.7-0.9c1.4-0.6,3-0.5,4.5-0.6C123.9,39,124,39.2,124.2,39.4L124.2,39.4z"/>
<path class="st7" d="M79.5,35.3c1.5-0.6,2.8-1.3,2.8-3.2c0.4-0.5,1-0.6,1.6-0.7c0.7-0.1,1.1,0.3,1,1c-0.5,2.3,0.1,4.6,0.1,6.9
	c0,1-0.3,1.1-1.1,0.9C81.4,39.8,79.8,37.9,79.5,35.3L79.5,35.3z"/>
<path class="st12" d="M62.2,62.4c-0.6,0.8-1.6,0.7-2.4,0.9c-0.7,0.2-1.6,0.4-1.6-0.9c0-0.4-0.4-0.5-0.8-0.5c-0.4,0-0.7,0.3-1.1,0
	l0.4-1c0.3-0.6,0.5-2.6,0.2-3.2c-0.1-0.2-0.3-0.5-0.1-0.5c1.4-0.2,1.1-1.7,1.7-2.5c0.3,0.1,0.6,0.2,1,0.2c-0.1,0.5-0.3,0.9-0.1,1.4
	c0.1,0.2,0.1,0.5-0.2,0.7c-1.1,0.7-1.3,1.6-0.7,2.7c0.6,1.1,1.2,2.4,2.9,2.3C61.7,62,62,62.1,62.2,62.4L62.2,62.4z"/>
<path class="st7" d="M102.8,42.5c-1.2-0.5-2,0.5-3.1,0.6c-0.6,0.1-1.1,0.2-1.4-0.4c0.1-2.2,1.4-3.5,3.8-4.1c0.9-0.2,1.2,0.2,1,0.9
	C102.8,40.5,102.9,41.5,102.8,42.5L102.8,42.5z"/>
<path class="st7" d="M96.9,34.1c-0.5,0-1.1-0.1-1.6,0c-0.3,0.1-1.1-0.1-0.7,0.9c0.2,0.4-0.6,1.2-1,1.8c-0.2,0.3-0.5,0.5-0.5,0.9
	c-1.8-2.1-0.5-5.7,2.3-6.3c1.6-0.3,1.6-0.4,1.6,1.3C96.9,33.3,96.9,33.7,96.9,34.1L96.9,34.1z"/>
<path class="st13" d="M69.1,57.6c0.6,0,1.1,0.2,1.7,0.5c0.3,0.8,1.6,1.1,1.2,2.3c-0.3,1-0.1,1.4,0.9,2c0.9,0.6,1.5,0.9,2.5,0.3
	c0.2-0.1,0.5,0,0.7,0v0.7l-0.2,0.2c-0.3,0-0.5,0.2-0.5,0.5c-0.7,0-1.4,0.1-1.9,0.5c-0.4,0.3-0.7,0.2-0.9-0.2
	c-0.2-0.5-0.5-0.5-0.9-0.6c-1.2-0.3-1.7-1.5-1.3-2.7c0.3-0.9,0.8-1.9-0.5-2.6C69.6,58.3,69.1,58.1,69.1,57.6L69.1,57.6z"/>
<path class="st10" d="M86.5,41.3c1.2,0.6,2.3,1.5,3.3,2.5c0.2,0.2,0.5,0.1,0.8,0.1c0,0.7,0,1.4,0,2.1c0,0.3,0.2,0.8-0.3,0.9
	c-0.4,0.1-0.7-0.1-0.9-0.4c-0.2-0.2-0.4-0.2-0.6-0.4C87.4,44.9,86,43.5,86.5,41.3L86.5,41.3z"/>
<path class="st7" d="M104.6,35.3c0.6,0.1,1.4-0.4,1.6,0.7c0.1,0.4,0.8,0.2,1.2,0.2c0.5,0,0.9,0,1.4,0c0,1,0,2,0,3
	c0,0.7-0.1,0.9-0.9,0.7C106.1,39.3,104.6,37.3,104.6,35.3L104.6,35.3z"/>
<path class="st10" d="M111,50.6c0.7,0.9,1.8,1.2,2.9,1.2c1.1,0,1.9,0.5,2.7,1.2c0.5,0.5,0.9,0.6,1.4,0.2c0.2,0.2,0.8-0.1,0.7,0.5
	c-0.7,0.3-1.4,0.4-2.2,0.5c-1.8,0.2-3.3-0.8-4.9-1.3C110,52.2,110,52.1,111,50.6L111,50.6z"/>
<path class="st8" d="M56.6,60.9c-0.6-0.1-1.1,0.1-1.4,0.7c-0.3,0.6-0.8,0.8-1.5,0.8c0-1,0.7-1.6,1.5-2.2c0.4-0.3,1.2-0.6,0.8-1.2
	c-0.6-1-0.2-1.9,0.2-2.7c0.4-0.8,0.4-1.5,0.2-2.2c0.7,0.2,1.4,0.5,2.2,0.7c-0.6,0.8-0.3,2.2-1.7,2.5c-0.2,0,0,0.3,0.1,0.5
	C57.1,58.3,56.9,60.3,56.6,60.9L56.6,60.9z"/>
<path class="st8" d="M123,51.9c-0.3,0.4-0.8,0.6-1.2,0.7c-1-0.6-2.2-0.5-3.2-1c-1.8-1-3.8-1.7-5.7-2.6c-0.4-0.2-0.8-0.1-1.2-0.2
	c0.3-0.8,0.6-1.7,1.2-2.4c0.1,0.3,0.6,0.5,0.4,0.9c-0.4,0.9,0.3,1.3,0.9,1.6c0.8,0.4,1.6,0.6,2.4,0.5c0.6,0,1.1,0.1,1.4,0.7
	c0.5,0.8,1.3,1.1,2.2,1C121.3,51,122.2,51.4,123,51.9L123,51.9z"/>
<path class="st12" d="M121.8,52.5c-0.3,0.3-0.7,0.4-1.2,0.5c-1.4-0.8-3.2-1-4.6-1.9c0,0-0.2,0.1-0.3,0.2h-1c0-0.5-0.1-1-0.7-0.5
	c-0.9-0.4-1.8-0.8-2.7-1.2c0.1-0.3,0.2-0.6,0.3-1c0.4,0,0.8,0,1.2,0.2c1.9,0.9,3.8,1.6,5.7,2.6C119.6,52,120.8,52,121.8,52.5
	L121.8,52.5z"/>
<path class="st12" d="M52.3,53.5c-1.2,0.2-2.2,0.8-3.3,1.3c-0.5,0.2-1.4-0.1-2-0.3c-0.8-0.3-0.9,0.1-1.1,0.6h-0.7
	c0-0.3,0.1-0.9-0.6-0.3c-0.2,0.2-0.6,0.4-0.9,0.6v-0.7c1.2-1.1,2.8-0.9,4.2-1.1c0.9-0.2,1.8-0.5,2.7-0.5c0.5,0,0.8-0.5,0.7-1
	c0.6,0.1,1.2,0.4,1.7,0.7C52.9,53.1,52.6,53.4,52.3,53.5z"/>
<path class="st11" d="M72.6,34.1c-1.8-0.6-3.2,0.8-4.7,1.2c0.2-1.9,1.9-3.5,3.7-3.6c0.6,0,0.9,0.1,0.9,0.8
	C72.5,33,72.6,33.6,72.6,34.1L72.6,34.1z"/>
<path class="st5" d="M73.4,43h1.2l0.1,0.1L74.6,43c0.1-0.6,0.5-0.8,1-1c0.4-0.2,1.1-0.2,1.2-0.9c0.6,0.2,1.2,0.7,1.9,0.5
	c-0.1,0.4,0.3,1.3-0.3,1.2c-1.2-0.2-1.9,0.5-2.6,1.1c-0.5,0.5-1.2,1.2-1.8,1C73.4,44.7,73.4,43.7,73.4,43L73.4,43z"/>
<path class="st11" d="M104.6,35.3c-0.1-1,0.1-1.9,0.9-2.6c0.1,0.1,0.3,0.1,0.3,0.2c0.5,1.6,1.8,1.5,3,1.5c0,0.6,0,1.3,0,1.9
	c-0.5,0-0.9,0-1.4,0c-0.4,0-1.1,0.2-1.2-0.2C106,34.9,105.2,35.4,104.6,35.3L104.6,35.3z"/>
<path class="st8" d="M53,52.8c0.6,0.2,1.1,0.5,1.7,0.7c0,0.5-0.1,1-0.6,0.9c-0.9-0.1-1.5,0.2-2.3,0.5c-1.2,0.4-2.5,0.4-3.7,0.5
	l-0.2-0.2c-0.1-0.2-0.2-0.2-0.2,0c-0.1,0.3-0.4,0.5-0.7,0.5c-0.4,0-0.8,0-1-0.5c0.2-0.5,0.3-0.9,1.1-0.6c0.6,0.2,1.4,0.5,2,0.3
	c1.1-0.5,2.1-1.1,3.3-1.3C52.6,53.4,52.9,53.1,53,52.8L53,52.8z"/>
<path class="st13" d="M96.6,36.3c-1.4,0-2.1,0.8-2.4,2.7c-0.6-0.2-1-0.5-1.2-1.2c0-0.4,0.3-0.6,0.5-0.9c0.4-0.6,1.2-1.3,1-1.8
	c-0.3-1,0.4-0.8,0.7-0.9c0.5-0.1,1,0,1.6,0C96.9,34.1,96.6,36.3,96.6,36.3z"/>
<path class="st10" d="M69.3,38.7c-0.4-1.6,1-2.1,2.5-1.5c0.3,0.1,0.6,0.3,0.9,0.2c0,0.3,0,0.6,0,0.8c0,1.7-0.6,2-2.2,1.3
	C70.1,39.4,69.6,39.2,69.3,38.7L69.3,38.7z"/>
<path class="st11" d="M43.7,54.7H43c-0.2-0.2-0.5-0.3-0.7-0.5c0.7-0.4,1.7-0.2,2.1-1.1c0-0.1,0.2-0.1,0.2-0.1c1,0.5,1.9,0,2.7-0.2
	c1-0.3,2.2-0.3,2.9-1.3c0.4,0.1,0.9,0.2,1.2,0.5c0.1,0.6-0.2,1.1-0.7,1c-1-0.1-1.8,0.3-2.7,0.5C46.5,53.8,44.9,53.6,43.7,54.7
	L43.7,54.7z"/>
<path class="st4" d="M40.6,25.8c0-0.1,0.1-0.1,0.1-0.2c0,0-0.1,0-0.1-0.1c0-0.2,0-0.3,0-0.5c0.8,0,1.5-0.2,2.2-0.5h0.5v0.2
	c1.1,0.7,2,1.6,3.5,1.3c0.3-0.1,0.6,0,0.9,0.1c0.7,0.3,1.4,0.6,2.1,1c-0.2,0.6-0.8,0.6-1.2,0.7c-0.2-0.3-0.5-0.3-0.7-0.3
	c0-0.8-0.6-0.8-1.1-0.7c-1.2,0.2-2.1-0.2-2.8-1c-0.5-0.5-0.9-0.2-1.3,0c-0.2-0.6-0.7-0.3-0.9-0.2c-0.3,0.2-0.7,0.2-1,0.2L40.6,25.8
	L40.6,25.8z"/>
<path class="st7" d="M87.3,30.8c0.5-0.9,1.6-0.8,2.4-1c0.2-0.1,0.6-0.2,0.9-0.2c0,0.8,0.3,1.6,0.3,2.4c-0.1,0.6-0.3,0.8-0.8,0.6
	C89,32.3,87.9,31.8,87.3,30.8L87.3,30.8z"/>
<path class="st13" d="M69.3,38.7c-0.8-0.5-1.2-1.2-1.3-2.1c0.5,0,0.7-0.4,1.1-0.7c0.6-0.5,1.2-0.8,1.9-0.3c0.6,0.4,1.1,0.1,1.6,0
	c0,0.6,0,1.3,0,1.9c-0.3,0-0.6-0.1-0.9-0.2C70.3,36.6,69,37.1,69.3,38.7L69.3,38.7z"/>
<path class="st11" d="M90.6,42c-0.6,0.2-1.1,0.1-1.5-0.5c-0.5-0.7-1.6-0.9-1.3-2.1c0.7-0.2,1.3-0.6,2-0.5c0.9,0,1.2,0.4,1,1.3
	C90.6,40.7,90.7,41.4,90.6,42L90.6,42z"/>
<path class="st10" d="M96.6,39.4c0,0.3,0.1,0.8-0.4,0.6c-0.7-0.3-1.5-0.3-2-1c0.2-1.9,0.9-2.6,2.4-2.7
	C96.6,37.3,96.6,38.3,96.6,39.4z"/>
<path class="st7" d="M90.6,42c0,0.6,0,1.3,0,1.9c-0.3,0-0.6,0-0.8-0.1c-1-1-2.1-1.8-3.3-2.5c0.1-0.8,0.5-1.5,1.3-1.9
	c-0.3,1.2,0.8,1.4,1.3,2.1C89.6,42.1,90,42.2,90.6,42L90.6,42z"/>
<path class="st7" d="M114.1,50.9c0.1,0.3,0.4,0.5,0.7,0.5c0.3,0,0.6,0,0.9,0c0.3,1.1,1.6,1.1,2.2,1.9c-0.5,0.4-0.9,0.3-1.4-0.2
	c-0.7-0.7-1.5-1.2-2.7-1.2c-1.1,0-2.1-0.3-2.9-1.2c0.1-0.3,0.3-0.6,0.4-1C112.4,50.1,113.2,50.5,114.1,50.9L114.1,50.9z"/>
<path class="st6" d="M90.6,26.5h-4c0.2-0.8,0.8-1.2,1.5-1.6c0.8-0.4,1.7-1,2.4-0.5C91,24.8,90.6,25.8,90.6,26.5L90.6,26.5z"/>
<path class="st11" d="M78.6,28.4c-2,0-3.6,0.9-4,2.4c-0.3-0.3-0.5-0.6-0.5-1.1c0.5-1.1,1.2-2.1,2.6-2.3c0.4,0,0.3-0.4,0.3-0.7
	c0.5,0.1,1.1,0.3,1.6,0.2C78.6,27.4,78.6,27.9,78.6,28.4L78.6,28.4z"/>
<path class="st13" d="M65,21.2c-0.6,0.2-1.3,0.5-1.9,0.7c0-0.4,0.1-0.7,0.2-1c0.2-0.8-0.2-1.4-0.2-2.1c0.1-1.1,0.1-1.9-0.9-2.5
	c-0.4-0.2-0.5-0.6-0.5-1c0.9,0.6,2.3,1.2,2.3,2.4c0,0.7,0.3,1.3,0.4,1.9c0,0.4,0.2,0.7,0.5,0.9L65,21.2L65,21.2z"/>
<path class="st4" d="M90.6,26.5l0,1.7c-1.5-0.9-2.9-0.4-4.3,0.1c-0.1,0-0.3-0.1-0.4-0.1c0.3-0.5,0-1.3,0.6-1.7H90.6L90.6,26.5z"/>
<path class="st7" d="M68.1,36.6l-0.2-0.5c0.2-0.1,0.1-0.2,0-0.3c0-0.1,0-0.3,0.1-0.5c1.6-0.4,2.9-1.8,4.7-1.2c0,0.5,0,1,0,1.4
	c-0.5,0.1-1,0.4-1.6,0c-0.7-0.5-1.4-0.2-1.9,0.3C68.8,36.2,68.5,36.5,68.1,36.6L68.1,36.6z"/>
<path class="st12" d="M102.8,27.9c-1.4,0-2.7,0.5-4,1c-0.1-0.7-0.5-1.4,0-2.1c1,0,2.1,0.3,3.1,0c0.4-0.1,0.5,0.5,0.9,0.4
	C102.8,27.4,102.8,27.7,102.8,27.9L102.8,27.9z"/>
<path class="st5" d="M101.2,44.9c0.6-0.2,1.1-0.3,1.7-0.5c0,0.1,0,0.2,0,0.3c0.2,0.7,0.6,1.6-0.1,2.1c-0.7,0.5-1.6,0.1-2.3-0.2
	c-0.2-0.1-0.3-0.2-0.5-0.3C100,45.5,100.4,45.1,101.2,44.9z"/>
<path class="st13" d="M102.9,43.5c-0.6-0.2-1.1-0.3-1.5,0.4c-0.2,0.3-0.3,0.4-0.8,0.2c-0.8-0.3-1.2,0.6-1.8,1
	c-0.5-0.8-1-1.5-0.5-2.4c0.3,0.6,0.9,0.5,1.4,0.4c1-0.1,1.9-1.2,3.1-0.6C102.9,42.5,102.9,43.5,102.9,43.5z"/>
<path class="st4" d="M98.8,26.7c0.2-0.6,0.4-1.2,1-1.5c1.1-0.4,1.9,0.6,3,0.5c0,0.5,0,1,0,1.4c-0.4,0-0.5-0.5-0.9-0.4
	C100.9,27,99.9,26.7,98.8,26.7L98.8,26.7z"/>
<path class="st7" d="M78.6,28.4v0.7c-1.3,0.5-2.6,1-3.3,2.4c-0.3-0.2-0.6-0.4-0.7-0.7C75,29.3,76.6,28.4,78.6,28.4L78.6,28.4z"/>
<path class="st10" d="M74.6,40.1c0.2,0.5,0.5,0.9,1.1,0.9c0.4,0,0.6-0.3,0.6-0.7h0.5v0.7c-0.1,0.7-0.7,0.7-1.2,0.9
	c-0.5,0.2-1,0.4-1,1h-1.2C73.3,41.8,73.6,40.8,74.6,40.1z"/>
<path class="st11" d="M87.3,30.8c-0.6-0.4-1-0.8-1.2-1.5c0.4,0,0.9,0.1,1.2-0.1c1-1,2.2-0.6,3.3-0.3c0,0.2,0,0.5,0,0.7
	c-0.3,0-0.6,0.1-0.9,0.2C88.9,30,87.9,29.9,87.3,30.8L87.3,30.8z"/>
<path class="st4" d="M77,26.7c-0.9-0.1-1.9,0.2-2.6-0.5c0.1-0.3,0.3-0.5,0.7-0.7c1.2,0.1,2.5-0.4,3.6,0.2c0,0.4,0,0.8,0,1.2
	C78.1,27,77.5,26.8,77,26.7L77,26.7z"/>
<path class="st5" d="M76,32c1.1-0.5,1.6-1.8,2.7-2.4c0.3,1,0.6,2.2-0.1,2.9C77.9,33.2,76.9,32.4,76,32L76,32z"/>
<path class="st7" d="M122.6,32c0.2,0.1,0.6,0.2,0.7,0.3c0.6,0.7,0.8,4,0.2,4.9c0,0-0.1,0.1-0.1,0.1C122.7,35.6,122.4,33.8,122.6,32z
	"/>
<path class="st13" d="M62.1,55.7c1.7,0.5,3.4,0.7,5.1,1.4c-0.1,0.3,0.1,0.7-0.5,0.6c-0.5-0.1-0.9-0.3-1.3-0.4c-0.7-0.1-1.6-0.4-2,0
	c-0.7,0.7-0.6,0.3-0.9-0.2C62.3,56.6,62.1,56.2,62.1,55.7L62.1,55.7z"/>
<path class="st12" d="M76.7,27.4c-1.4,0.2-2,1.2-2.6,2.3c-0.6-1.2-0.6-2.4,0.3-3.5c0.8,0.7,1.7,0.4,2.6,0.5C77,27,77,27.3,76.7,27.4
	z"/>
<path class="st10" d="M102.9,43.4c0,0.3,0,0.6,0,1c-0.6,0.2-1.1,0.3-1.7,0.5c-0.7,0.2-1.2,0.6-1.2,1.4c-0.5-0.3-0.9-0.7-1.2-1.2
	c0.5-0.5,1-1.3,1.8-1c0.5,0.2,0.7,0.1,0.8-0.2C101.7,43.1,102.3,43.2,102.9,43.4L102.9,43.4z"/>
<path class="st12" d="M86.2,29.4c0-0.4-0.4-0.8-0.2-1.2c0.1,0,0.3,0.2,0.4,0.1c1.4-0.5,2.8-1.1,4.3-0.1c0,0.2,0,0.5,0,0.7
	c-1.1-0.3-2.3-0.7-3.3,0.3C87,29.5,86.5,29.3,86.2,29.4L86.2,29.4z"/>
<path class="st11" d="M115.8,51.3c0.1-0.1,0.2-0.2,0.3-0.2c1.4,0.9,3.1,1,4.6,1.9c-0.6,0.4-1.2,0.6-2,0.7c0-0.6-0.5-0.2-0.7-0.5
	C117.4,52.5,116.1,52.5,115.8,51.3L115.8,51.3z"/>
<path class="st13" d="M82.2,32.2c0,1.9-1.3,2.6-2.8,3.2C79.7,33.7,80.4,32.4,82.2,32.2z"/>
<path class="st12" d="M105.5,32.7c0.3-0.5,0.7-0.7,1.2-0.9c0.1,1.3,1.2,1.3,2.1,1.6c0,0.3,0,0.6,0,1c-1.2,0-2.6,0.2-3-1.5
	C105.8,32.8,105.6,32.8,105.5,32.7L105.5,32.7z"/>
<path class="st13" d="M100.2,31.3c0.5-0.2,1-0.4,1.3-0.9c0.2-0.4,0.6-0.6,1.1-0.5c0,0.2,0.1,0.5,0,0.7c-0.1,0.8,0.4,1.9-0.4,2.1
	C101.4,32.9,100.7,32,100.2,31.3L100.2,31.3z"/>
<path class="st11" d="M102.8,27.9l0,0.7c-1.3,0.1-2.2,1.2-3.5,1.4c-0.2-0.4-0.3-0.8-0.5-1.2C100.2,28.4,101.4,27.9,102.8,27.9
	L102.8,27.9z"/>
<path class="st7" d="M102.6,29.8c-0.5,0-0.8,0.2-1.1,0.5c-0.3,0.5-0.8,0.7-1.3,0.9c-0.5-0.3-0.7-0.8-0.9-1.2
	c1.3-0.2,2.2-1.3,3.5-1.4C102.7,29,102.7,29.4,102.6,29.8z"/>
<path class="st6" d="M76.8,24.4c2-0.7,2.1-0.2,1.9,1.4c-1.2-0.6-2.4-0.2-3.6-0.2C75.5,24.9,76.1,24.6,76.8,24.4z"/>
<path class="st13" d="M76,32c-0.3-0.1-0.6-0.2-0.7-0.5c0.7-1.4,2-1.9,3.3-2.4c0,0.2,0.1,0.3,0.1,0.5C77.6,30.2,77.2,31.5,76,32
	L76,32z"/>
<path class="st6" d="M100.6,24.6c0.6-0.4,1.3-0.9,1.9-0.6c0.7,0.3,0.2,1.2,0.3,1.8c-1,0.1-1.9-0.9-3-0.5
	C100,24.9,100.4,24.8,100.6,24.6z"/>
<path class="st4" d="M108.8,33.2c0,0.1,0,0.1,0,0.2c-0.8-0.3-2-0.3-2.1-1.6C108.7,30.9,108.9,31,108.8,33.2z"/>
<path class="st7" d="M76.3,40.3c0-0.5-0.4-0.5-0.7-0.7c0.7-0.5,1.4-0.7,2.3-0.7c0.8,0,1,0.3,0.8,1c-0.7,0.1-1.3,0.2-1.9,0.5
	C76.6,40.3,76.4,40.3,76.3,40.3L76.3,40.3z"/>
<path class="st13" d="M78.7,39.9c0,0.6,0,1.1,0,1.7c-0.7,0.2-1.3-0.3-1.9-0.5c0-0.2,0-0.5,0-0.7C77.4,40.1,78,40,78.7,39.9
	L78.7,39.9z"/>
<path class="st2" d="M132.6,52.8c1.3,0.8,2.7,1.4,3.4,2.9C134.5,55,133.3,54.2,132.6,52.8z"/>
<path class="st13" d="M76.3,40.3c0,0.4-0.2,0.7-0.6,0.7c-0.6,0-0.9-0.4-1.1-0.9c0.2-0.3,0.6-0.4,0.9-0.5
	C75.9,39.8,76.3,39.9,76.3,40.3L76.3,40.3z"/>
<path class="st8" d="M117.5,40.3c0,1.3-0.8,1.8-1.9,1.9C116,41.4,116.6,40.7,117.5,40.3z"/>
<path class="st11" d="M151.5,51.1c0.6-0.2,0.9-1,1.7-0.9c-0.3,0.8-0.8,1.4-1.7,1.6C151.5,51.6,151.5,51.3,151.5,51.1z"/>
<path class="st7" d="M58.8,23.8c0.3-0.7,0.4-1.6,1.6-1.1C60.2,23.6,59.3,23.4,58.8,23.8z"/>
<path class="st8" d="M119.2,39.4c-0.2,1.1-1.1,0.7-1.7,0.9C117.9,39.8,118.6,39.7,119.2,39.4z"/>
<path class="st6" d="M154.4,49.6c0,0.4-0.1,0.6-0.5,0.5C153.9,49.8,154.1,49.7,154.4,49.6z"/>
<path class="st5" d="M128.3,47.3c0-0.2,0.1-0.4,0.2-0.5C128.9,47.2,128.6,47.2,128.3,47.3z"/>
<path class="st5" d="M102.2,69.8L102.2,69.8L102.2,69.8L102.2,69.8L102.2,69.8z"/>
<path class="st11" d="M67.9,35.8c0.2,0.1,0.2,0.2,0,0.3C67.9,36,67.9,35.9,67.9,35.8z"/>
<path class="st8" d="M45.1,55.2c-0.2,0.6-0.5,1-1.1,1.2c-0.3,0.1-0.8,0.2-0.8,0.7c-0.3,0.3-0.5,0.3-0.7,0c-0.2-0.4-0.6-0.4-0.9-0.2
	c-0.5-1.3-1.2-0.5-1.9-0.2v-0.7c0.5-0.2,1-0.1,1.4-0.5c0.1,0,0.2,0,0.2,0s0.2,0,0.2,0l0.7-0.2c0.1,0.4,0.6,0,0.7,0.2
	c0.2,0.2,0.3,0.2,0.5,0h0.2c0.3-0.2,0.6-0.3,0.9-0.6C45.2,54.2,45.1,54.8,45.1,55.2L45.1,55.2z"/>
<path class="st6" d="M45.1,55.2h0.7c0.2,0.4,0.5,0.5,1,0.5c-0.4,1-1.8,0.9-2.2,1.8c0,0-0.4,0-0.5-0.2c-0.3-0.2-0.6-0.3-0.9-0.2
	c0-0.5,0.4-0.6,0.8-0.7C44.7,56.2,45,55.8,45.1,55.2L45.1,55.2z"/>
<path class="st6" d="M47.5,55.2c0.1-0.2,0.2-0.2,0.2,0C47.7,55.2,47.6,55.2,47.5,55.2z"/>
<path class="st10" d="M61.7,15.2c-0.4,0-0.9,0.2-1-0.5c0-0.4,0-0.8,0-1.2c0.7,0.2,0.8,1,1.5,1.2c1.8,0.5,2.6,2,2.7,3.7
	c0.1,0.6,0.6,1.4-0.2,2c-0.3-0.2-0.5-0.5-0.5-0.9c0-0.6-0.4-1.2-0.4-1.9C63.9,16.4,62.6,15.9,61.7,15.2L61.7,15.2z"/>
<path class="st13" d="M60.7,14.8c-2-0.7-3-2.7-4.8-3.8c1-0.8,1.6,0.4,2.4,0.5l0,0c0.2,1.4,0.9,2.1,2.4,2.2l0,0
	C60.7,14,60.7,14.4,60.7,14.8L60.7,14.8z"/>
<path class="st11" d="M42,11.9c0.2,0.3,0.5,0.6,0.7,0.9c-1,0.4-1.2-0.3-1.4-0.9C41.6,11.6,41.8,11.6,42,11.9z"/>
<path class="st13" d="M23.8,51.8c0.4-0.9,0.5-1.7,0.2-2.8c-0.4-1.4-0.9-2.7-1.4-4c-0.3-0.7-0.6-1.7-0.3-2.3c0.5-1,0.2-2,0.1-2.9
	c-0.2-1.4,0.3-3-0.9-4.3c-0.1,0,0-0.2,0-0.3c0-0.7,0-1.4-0.4-2c-0.9-1.4-0.4-3.2-0.9-4.7c-0.4-1.3,0.7-2.9-0.8-4
	c-0.1-0.1-0.1-0.3,0-0.4c0.3-0.8,0.1-1.5-0.1-2.2c0.7-0.1,1.1,0.2,1,0.9c0,0.3-0.1,0.7,0,1c0.7,2.1,1.1,4.2,1.5,6.3
	c0.2,0.9-0.5,1.9,0,2.7c0.7,1.3,1.2,2.7,1.7,4c0.3,0.7,0.5,1.3,0.4,2c-0.2,1.6,0.1,3.3-0.4,4.9c-0.4,1.1,0.8,1.7,0.9,2.7
	c0.3,2,0.9,3.9,1,5.9C24.7,52.2,24.3,51.9,23.8,51.8L23.8,51.8z"/>
<path class="st12" d="M17.8,21.7c-0.1,0.8-0.4,1.7-0.1,2.5c0.1,0.2-0.2,0.3-0.4,0.3c-0.6-1-0.1-2.1-0.5-3.1c0.3,0,0.6,0,0.9,0V21.7z
	"/>
<path class="st13" d="M18.5,19.6c0.6,0.6,0.5,1.4,0.7,2.1C18.1,21.3,18.5,20.4,18.5,19.6z"/>
<path class="st10" d="M78.9,63.3L78,63.3c-0.1-0.1-0.2-0.2-0.2-0.2c0.3-0.3,0.8-0.4,1.2-0.5C78.9,62.8,78.9,63,78.9,63.3L78.9,63.3z
	"/>
<path class="st10" d="M77.2,63.3v0.2c-0.1,0-0.2,0-0.2,0h-0.5c-0.1-0.2-0.3-0.2-0.5-0.2l0,0v-0.7C76.5,62.8,76.7,63.3,77.2,63.3z"/>
<path class="st7" d="M77.2,63.3c0-0.1,0-0.2,0-0.2h0.2c0.1,0,0.2,0,0.2,0c0.1,0.1,0.2,0.2,0.2,0.2c-0.1,0.6-0.4,0.4-0.7,0.2
	L77.2,63.3L77.2,63.3z"/>
<path class="st10" d="M77.5,63.1h-0.2C77.3,62.9,77.4,62.9,77.5,63.1z"/>
<path class="st14" d="M136.9,29.9c0.5-0.9,1.2-1.6,2.2-1.9l0.5,0c2-0.1,3.2,1,4,2.7c0,0.6,0.1,1.3,0.1,1.9l-0.5,1.2
	c-1.1,1.3-2.4,1.7-4.1,1.2c-0.2-0.1-0.4-0.2-0.5-0.3C136.9,33.3,136.4,31.8,136.9,29.9L136.9,29.9z"/>
<path class="st12" d="M136.9,29.8c-0.2-1-1.5-1.2-1.6-2c-0.1-1.1-1.5-0.6-1.5-1.6c-0.5,0.7-1.2-0.5-1.7,0.1
	c-0.4,0.6-0.9,0.6-1.5,0.7c0.1-0.4-0.2-0.9,0.2-1.1c1-0.3,1.9-0.8,3-0.3c1.2,0.5,2.4,1,3.6,1.4c0.6,0.2,1.1,0.5,1.6,0.9
	C138.1,28.3,137.4,29,136.9,29.8L136.9,29.8z"/>
<path class="st12" d="M79.6,63.8c0.6,0.2,1.1-0.6,1.7,0c-1.1,0.4-2,1.5-3.3,1.2c0-0.9,0.9-0.5,1.2-1C79.3,63.9,79.5,63.8,79.6,63.8
	L79.6,63.8z"/>
<path class="st7" d="M77,63.6c0.1,0.7-0.2,1-1,0.9c0-0.5-0.4-0.5-0.7-0.5l0,0c0-0.3,0.2-0.5,0.5-0.5l0,0c0.2,0.3,0.5,0.3,0.7,0
	C76.7,63.6,76.8,63.6,77,63.6L77,63.6z"/>
<path class="st12" d="M77.7,65.2c0.1,0.8-0.2,1-1,0.7C76.9,65.5,76.5,64.3,77.7,65.2z"/>
<path class="st13" d="M76,64.5c-0.2,0-0.5,0-0.7,0V64C75.7,64,76,64,76,64.5L76,64.5z"/>
<path class="st10" d="M127.5,44.9l-0.8-2.3c0-0.6-0.2-1.1,0.4-1.6c0.5,0.4,1.1,0.8,1.8,0.2c0.4-0.3,0.9-0.2,1.3-0.2
	c-0.1,0.8-0.8,1.2-1.2,1.7c-0.7,0.8-0.6,1.8-1,2.7C127.9,45.2,127.7,45.1,127.5,44.9L127.5,44.9z"/>
<path class="st10" d="M133.5,38.4c-0.2,0.3-0.4,0.4-0.4,0.9c0,1-1.4,2-2.4,1.8c0.6-1,1.8-1.6,2.2-2.8
	C133.1,37.8,133.3,38.4,133.5,38.4L133.5,38.4z"/>
<path class="st10" d="M148.4,35.6c0,0.2,0,0.5-0.2,0.6c-0.5,0.2-2.7-0.4-3.1-0.9C146.2,35.2,147.3,35.7,148.4,35.6L148.4,35.6z"/>
<path class="st10" d="M143.8,35.3c0.4-0.5,0.8-0.9,1.2,0C144.6,35.3,144.2,35.3,143.8,35.3z"/>
<path class="st0" d="M129.2,45.4c-0.1-0.1-0.3,0.1-0.2-0.2L129.2,45.4L129.2,45.4z"/>
<path class="st4" d="M21.4,56.1c-0.3-0.6-0.3-1.3,0-1.9C21.5,54.9,22.4,55.5,21.4,56.1z"/>
<path class="st4" d="M21.2,53.3c-0.3-0.7-0.1-1.3,0.2-1.9C21.7,52,22.1,52.7,21.2,53.3z"/>
<path class="st7" d="M126.7,42.6c-0.7-0.2-0.9-0.7-1.1-1.3c0.2-0.4,0.4-0.7,0.5-1.1c0.2-0.8,1.8-2.5,2.5-2.4c2.1,0.6,3.6-1,5.5-1.2
	c0.5,0,1.1-0.1,1.3-0.4c0.7-1.2,2-1.4,3.1-1.8c0.2,0.1,0.4,0.2,0.5,0.3c0,0.1,0,0.3-0.1,0.3c-1.8,1.3-3.7,2.3-6,2.4
	c-0.3,0-0.6,0-0.8,0.2c-0.9,0.8-1.8,1.6-3.2,1.6c-0.8,0-2.1,0.1-1.8,1.6C126.5,41.5,126.7,42.1,126.7,42.6L126.7,42.6z"/>
<path class="st11" d="M79.6,63.8c0-0.2-0.1-0.5,0.2-0.6c1.1-0.3,2.2-0.6,3.4-0.2c1.1,0.3,2.2,0.4,3.4,0.3c0.8-0.1,2.6,0.8,2.8,1.3
	c-0.4,0-0.9-0.1-1.3,0c-1.2,0.2-2.3-0.6-3.5-0.2C84,63.1,83,63.6,82,63.8c-0.2,0-0.5,0-0.7,0C80.8,63.1,80.2,63.9,79.6,63.8
	L79.6,63.8z"/>
<path class="st12" d="M84.7,64.3c-0.7,0-1.4-0.4-2.2-0.1c-0.2,0.1-0.4-0.2-0.5-0.4C83,63.6,84,63.1,84.7,64.3L84.7,64.3z"/>
<path class="st10" d="M60.7,13.6c-1.5-0.1-2.3-0.8-2.4-2.1C59.5,11.8,60.2,12.5,60.7,13.6z"/>
<path class="st7" d="M91.6,65.2c0.3,0,0.6,0,0.9,0.1c0.8,0.1,1.8,0.2,2.2,1.1C93.6,66.2,92.4,66.2,91.6,65.2L91.6,65.2z"/>
<path class="st7" d="M96.9,67.2c0.2,0.4,0.5,0.6,0.2,1.1c-0.7-0.1-1.1-0.5-1.2-1.2C96.3,67,96.6,66.7,96.9,67.2z"/>
<path class="st7" d="M97.6,69c-0.3-0.1-0.5-0.4-0.5-0.7C97.6,68.3,98.1,68.3,97.6,69z"/>
<path class="st7" d="M95.4,66.9c-0.3,0-0.7,0-0.7-0.5C95.1,66.4,95.3,66.6,95.4,66.9z"/>
<path class="st11" d="M45.3,27.7c-0.9-0.5-2-0.9-2.8-1.6c0.4-0.3,0.8-0.6,1.3,0c0.8,0.8,1.7,1.3,2.8,1c0.5-0.1,1.1,0,1.1,0.7
	C46.9,28,46.1,28.1,45.3,27.7z"/>
<path class="st12" d="M41.5,54.9l0.2-0.7c0.2,0,0.3,0,0.5,0c0.2,0.2,0.5,0.3,0.7,0.5l-0.7,0.5l-0.7,0.2V54.9z"/>
<path class="st6" d="M40.6,25.8c0-0.1,0-0.1,0-0.2c0,0,0.1,0,0.1,0.1C40.6,25.6,40.6,25.7,40.6,25.8L40.6,25.8z"/>
<path class="st4" d="M41.5,55.4c-0.1,0-0.2,0-0.2,0c-0.1-0.3-0.2-0.5,0.2-0.5V55.4L41.5,55.4z"/>
<path class="st11" d="M132,30.4c0.2,0,0.3,0.1,0.3,0.2c0,0.1-0.1,0.3-0.3,0.3c-0.2,0.1-0.3,0-0.3-0.2
	C131.8,30.6,131.9,30.5,132,30.4L132,30.4z"/>
<path class="st3" d="M127.6,44.9c-0.8,1.7-1.5,3.6-3.3,4.7c-1.4,0.9-2.6,1.1-4,0.2c-0.2-0.1-0.3-0.2-0.5-0.3
	c-1.6-0.6-3.2-1.2-4.9-1.7c-0.8-0.2-0.7-0.7-0.6-1.3c0.2-1.3,1.1-2.2,1.9-3c2.2-2.4,4.5-4.3,8-4c0.6,0.5,0.7,1.4,1.4,1.9
	c0.2,0.6,0.4,1.1,1.1,1.3C127,43.4,127.3,44.1,127.6,44.9z M123,40.6c-1.2,1-3.3,0.9-4.4,2.8c-0.4,0.8-0.8,1.6-1.7,2.1
	c-0.4,0.2-0.7,0.6-0.5,1.1s0.7,0.8,1.2,0.6c1.4-0.4,2.3,0.1,2.9,1.3c0.4,0.7,2.5,0.7,3.2,0.2c1.8-1.5,2.5-4.7,1.5-6.8
	C124.7,41.2,124.3,40.5,123,40.6L123,40.6z"/>
<path class="st7" d="M76,63.3l-0.2,0.2l0,0L76,63.3L76,63.3z"/>
<path class="st11" d="M114.9,51.3c-0.3,0-0.6-0.2-0.7-0.5C114.8,50.4,114.8,50.8,114.9,51.3z"/>
<path class="st4" d="M43.7,54.7v0.7H43c-0.2-0.3-0.6,0.2-0.7-0.2l0.7-0.5C43.2,54.7,43.5,54.7,43.7,54.7z"/>
<path class="st10" d="M74.6,43L74.6,43L74.6,43L74.6,43L74.6,43z"/>
<path class="st12" d="M43,55.4h0.5C43.3,55.7,43.1,55.7,43,55.4z"/>
<path class="st13" d="M76,63.3c0.2,0,0.4,0,0.5,0.2c-0.2,0.3-0.5,0.3-0.7,0L76,63.3L76,63.3z"/>
<path class="st9" d="M122.9,40.6c1.3-0.1,1.8,0.6,2.2,1.3c1,2.1,0.3,5.2-1.5,6.8c-0.7,0.6-2.8,0.6-3.2-0.2c-0.7-1.3-1.5-1.7-2.9-1.3
	c-0.5,0.1-1-0.1-1.2-0.6c-0.2-0.5,0.1-0.9,0.5-1.1c0.9-0.5,1.3-1.3,1.7-2.1C119.6,41.5,121.8,41.6,122.9,40.6L122.9,40.6z"/>
</svg>
