<?xml version="1.0" encoding="UTF-8"?><svg id="Layer_1" xmlns="http://www.w3.org/2000/svg" viewBox="0 0 216 72.11"><defs><style>.cls-1{fill:#02755e;}.cls-2{fill:#02371b;}.cls-3{fill:#fcb0a8;}.cls-4{fill:#929586;}.cls-5{fill:#b89d90;}.cls-6{fill:#bab3ab;}.cls-7{fill:#bad6d3;}.cls-8{fill:#8ebab5;}.cls-9{fill:#e2aca3;}.cls-10{fill:#1d806c;}.cls-11{fill:#0b7964;}.cls-12{fill:#71b1a8;}.cls-13{fill:#5ba59a;}.cls-14{fill:#338c7b;}.cls-15{fill:#4e9c8f;}</style></defs><path class="cls-3" d="M13.93,34.88c-.63-.39-.89-1.11-1.44-1.57-.63-.52-.49-.89,.13-1.4,3.59-2.97,7.64-5.17,11.83-7.14,5.39-2.53,11.04-4.31,16.8-5.72,5.28-1.29,10.62-2.34,16.05-2.85,.87-.08,1.73-.2,2.61-.24,.19,1.41,.41,2.81,.6,4.22,.08,.57-.19,1.39,.57,1.8,.05,2.28,.46,4.52,.87,6.74,.17,.94,.11,2,.77,2.83,.16,1.44,.18,2.87-.15,4.3-.35,.93-.77,1.84-.69,2.87,.13,.85-.63,1.52-.49,2.38-.9,.2-1.67-.3-2.51-.47,0-.62-.43-.66-.9-.69-4.49-.25-8.97-.51-13.45-.74-1.49-.08-1.49-.03-.9,1.34-.39-.06-.85-.01-1.16-.21-.98-.61-1.83-.55-2.73,.16-.24,.19-.68,.14-1.03,.2-.32-.08-.52,.03-.58,.36-.62,.15-1.23,.39-1.89,.3-.36-.35-.69-.36-.99,.07l-.95,.07c-.69-.59-1.56-.5-2.37-.63v-.04c-.51-.69,.29-1.22,.23-1.86,.81-.34,.64-1.04,.64-1.72-.38,1.03-1.07,.72-1.62,.34-.8-.55-1.57-.6-2.49-.4-.81,.18-1.65-.06-2.43-.31-.69-.21-1.35-1.1-1.87,.2-.09,.23-.37,.13-.52,.02-1.02-.68-2.06-1.21-3.35-.88-.1,.03-.25-.2-.4-.24-1.8-.49-3.61-.91-5.5-.58h0c.02-.53-.35-.5-.7-.5Zm28.7,.47c.77-.74,.87-1.39,.42-2.21-.62-1.15-1.21-2.33-1.67-3.55-1.09-2.9-3.13-4.19-6.21-3.79-1.55,.2-2.82-.17-3.67-1.56-.01-.02-.14,.02-.49,.09,2.34,2.93,3.05,6.21,2.33,9.67,.69-.51,1.27-1.12,1.99-1.42,.61-.25,.69,.62,1.05,.94,.25,.23,.59,.74,.68,.04,.14-1.12,.65-.59,1.08-.34,.79,.48,1.36,1.46,2.54,.97,.43-.18,.49,.83,1.06,.43,.85-.59,.86,.02,.89,.73Zm-16.57-2.63c1.79,.03,3.41-1.41,3.46-3.05,.05-1.55-1.3-2.89-2.95-2.92-1.87-.04-3.5,1.41-3.52,3.11-.01,1.57,1.32,2.84,3.01,2.86Z"/><path class="cls-1" d="M176.43,29.42c2.79-.66,5.57-1.33,8.31-2.18,.82-.26,1.58-.7,2.47-.75,.36,1.03,.44,2.28,1.94,2.39h.25l-.02,.5c-.67,.42-.93,.74-.5,1.7,.37,.82,1.53,.88,1.46,1.9-1.26,.69-2.77,.23-4.17,.88,1.31,.89,2.93,.7,4.16,1.5-.75,.7-1.26,1.55-1.63,2.51-.09,.23-.77-.02-.61,.49,.15,.47,.66,.3,1.04,.34,.41,.39,.9,.62,1.45,.71,.37,.22,.77,.28,1.19,.25,.42,.32,.91,.44,1.42,.51,0,.06,.02,.12,.04,.18l-.26,.52-.7-.07c-.19-.24-.46-.2-.72-.22-.34-.36-.8-.16-1.21-.24-.85-.62-1.78-.98-2.85-.91-.21,.01-.5,.11-.44,.29,.41,1.39-.84,1.68-1.51,2.35-1.45-.42-2.72-1.21-4.06-1.87-3.6-1.77-7.38-2.38-11.35-1.78,.54-.99-.69-1.49-.64-2.35,.08,0,.16,0,.23,0,.3,.53,1.05,.57,1.27,1.2,.1,.27,.38,.27,.61,.18,.3-.11,.25-.36,.18-.6-.15-.55-.31-1.1,.09-1.64,.39,.29,.29,1,.72,.93,.4-.07,.76-.49,.96-.94,.43-.98,.9-1.93,1.31-2.92,.42-1.01,.94-1.96,1.58-2.85Z"/><path class="cls-11" d="M128.3,47.86c-3.91,1.17-7.9,1.9-11.96,2.33-4.58,.48-9.15,1.06-13.72,1.6,.05-1.6-1.1-.64-1.51-.55-1.03,.22-1.76,.03-2.32-.84,.99-.02,2,.3,2.99-.21,.3-.15,.99-.1,1.12,.1,.72,1.1,.98,0,1.38-.25,.42-.26,.11-.84,.5-1.26,.6,.89,1.09,.72,1.45-.48,.43,1.42,.94,1.33,1.55,.44,.26-.39,.67-.52,1.15-.49,1.04,.07,2.09,.03,3.09,.36,.37,.12,.58-.08,.61-.36,.05-.46,.36-.89,.11-1.39-.11-.22,0-.47,.23-.62,.21-.13,.4-.06,.52,.12,.54,.76,.9,.43,1.19-.19,.25-.52,.4-.41,.83-.08,1.17,.88,3.78,.99,4.7,.18,.56-.49,1.01-.52,1.57-.16,.56,.35,.67,.22,.56-.41-.08-.45-.39-1.06,.4-1.27,.22,.35,.22,.75,.28,1.14,.04,.27,.14,.57,.42,.68,.39,.15,.44-.18,.55-.44,.12-.28,.37-.52,.65-.27,1.17,1.08,1.8,.27,2.42-.65,.21-.31,.55-.71,.82-.31,.7,1.08,.81,.18,1.15-.24,.26-.33,.55-1.14,.97-.03,.19,.5,.75,.67,1.29,.31,.67-.46,1.43-.6,2.22-.76,1.45-.28,2.82-.82,3.87-1.95,.39-.42,.81-.64,.96,.22,.09,.51,.37,.62,.86,.41,1.28-.54,2.59-.97,3.91-1.37,1.13-.35,.99,.36,1.13,.87,.07,.27-.11,.61-.18,.92l-2.85,1.02c-3.88,.87-7.75,1.74-11.63,2.6-.73,.16-1.23,.48-1.3,1.28Z"/><path class="cls-8" d="M108.14,13.84c1.14,.94,2.08,2.06,2.84,3.32-1.04,.15-2.06-.14-3.09-.18-.31,0-.62,0-.93,0-2.21-.03-4.43,.21-6.64,0h-.03c-.14-.19-.34-.24-.57-.22-2.79,.11-5.55-.28-8.33-.47-.33,0-.67-.01-1-.02l-5.51-.73c-.06-.55,.25-.86,.66-1.17,.88-.67,1.83-.69,2.89-.62,1.83,.13,3.67,.12,5.5,.1,1.32-.02,2.61,.57,3.88,.42,2.54-.3,5.05-1.12,7.58,.05,.12,.06,.35,.02,.46-.06,.69-.59,1.53-.31,2.3-.39Z"/><path class="cls-3" d="M75.3,15.02c2.22,0,4.44,0,6.66,0,.35,.17,.7,.34,1.05,.51-1.44,5.01-2.15,10.22-3.9,15.16-.24-.65-.36-1.27-.51-1.88-.46-1.83-.88-3.68-1.34-5.51-.69-2.75-1.22-5.55-1.96-8.29Z"/><path class="cls-3" d="M67.13,15.3c2.33-.15,4.66-.36,6.99-.25-.07,.55,0,1.1-.16,1.65-.32,1.17-.58,2.36-.83,3.54-.42,1.92-.81,3.85-1.22,5.77-.45,.82-.07,1.78-.42,2.62-.64,.98-.24,2.3-1.11,3.25,0-1.06-.4-2-.58-3-.54-2.91-1.01-5.82-1.56-8.73-.31-1.63-.74-3.25-1.11-4.87Z"/><path class="cls-6" d="M83.01,15.54c-.35-.17-.7-.34-1.05-.51,1.91-1.3,3.63-2.87,5.78-3.82,1.45,.08,2.9,.15,4.36,.24,.7,.04,1.45-.32,2.03-.22,1.35,.24,2.63,.64,3.95-.04,.3-.15,.59-.09,.92-.02,2.26,.47,4.51,.54,6.74-.18,.99,.79,1.86,1.68,2.4,2.85-.77,.08-1.6-.2-2.3,.39-.1,.09-.34,.12-.46,.06-2.53-1.17-5.04-.35-7.58-.05-1.27,.15-2.56-.44-3.88-.42-1.83,.02-3.67,.03-5.5-.1-1.06-.07-2.01-.05-2.89,.62-.41,.31-.72,.63-.66,1.17-.32,0-.64,.01-.95,.02h-.91Z"/><path class="cls-3" d="M122.39,19.56c1.53,.1,3.02,.39,4.44,1,.06,1.08,.78,1.69,1.65,2.05,.6,.25,1.08,.58,1.5,1.03-.02,.32-.04,.63-.05,.95-.72,2.47-1.44,4.93-2.17,7.4-.89,.17-1.76,.07-2.61-.23-.26-.17-.23-.45-.25-.71-.02-1.58-.71-3.01-.96-4.54-.08-.62-.03-1.29-.26-1.84-.56-1.35-.24-3-1.4-4.14l.11-.98Z"/><path class="cls-14" d="M57.56,51.55c-5.46-.78-10.81-2.02-16.1-3.56-.11-.03-.2-.11-.3-.17,.51-.34,1.02-1.36,1.39-1.07,.96,.78,2.19,.63,3.18,1.22,.54,.32,1.42,.93,1.89,.23,.53-.77,.71-.56,1.17-.07,.17,.18,.5,.33,.75,.31,1.93-.13,3.67,1.21,5.81,.39,1.28-.49,2.68-1.11,4.19-1.16,.52-.02,.96-.7,1.62-.62,.05,.33-.11,.71,.32,.93,.39,.21,2.91,.15,3.19-.16,.26-.29,.52-.64,.12-1.03,0-.15,0-.31-.01-.46,.24,0,.47,0,.71-.01l.48,.96c.08,.78,.41,1.08,1.17,.63,.31-.18,.73-.2,.7,.26-.07,1.27,.79,1.03,1.52,1.02,.52,0,1.03,.03,1.51,.28,.48,.25,.96,.34,1.41-.13,.48-.5,.56-1.01,.16-1.58v-.47c.56-.07,.4,.77,.94,.73,0,.08,0,.15,.01,.23-.07,.58,.11,1.11,.25,1.66-.29,.03-.54,.13-.67,.42-.45,1.02-1.37,.93-1.96,.46-.65-.53-1.32-.57-2.04-.72-.64-.13-1.5,.26-1.86-.77-.06-.18-.88-.3-1.25-.69-.18-.18-.42-.1-.58,.16-.62,1.03-1.88,1.08-2.73,1.74-.08,.06-.4,0-.42-.06-.22-.92-1.33-.88-1.79-1.94-.38,1.39-1.12,2.11-2.29,2.33-.41,.08-.49,.35-.47,.7Z"/><path class="cls-10" d="M57.56,51.55c-.02-.35,.06-.62,.47-.7,1.17-.22,1.92-.94,2.29-2.33,.46,1.06,1.58,1.02,1.79,1.94,.01,.05,.34,.12,.42,.06,.86-.67,2.12-.72,2.73-1.74,.16-.26,.4-.35,.58-.16,.37,.39,1.18,.51,1.25,.69,.37,1.03,1.22,.64,1.86,.77,.72,.15,1.39,.19,2.04,.72,.59,.48,1.51,.57,1.96-.46,.13-.29,.37-.39,.67-.42h0c.01,.4,.2,.77,.6,.67,.52-.13,.46-.72,.59-1.14h0c.33-.01,.61,.06,.8,.38,.41,.7,1.01,.64,1.65,.35,1.17-.52,2.37-.15,3.54-.05,.79,.07,1.68-.24,1.91-1.04,.05-.18-.02-.44,.24-.48,.29-.04,.38,.22,.5,.42,.17,.28,.25,.58,.2,.91-.24,0-.58-.04-.62,.22-.16,.92-.88,.93-1.54,.94-.54,.01-1.02,.16-1.51,.33-.39,.13-.75,.23-1.14,0-.87-.53-1.74-.38-2.6,.05-.37,.19-.7,.42-1.22,.22-1.56-.62-1.86-.36-1.65,1.27,.01,.08,0,.16,0,.24-4.24-.14-8.45-.56-12.65-1.18-1.06-.16-2.11-.31-3.17-.47Z"/><path class="cls-15" d="M61.15,47.06c-.66-.08-1.1,.6-1.62,.62-1.5,.05-2.9,.67-4.19,1.16-2.14,.82-3.87-.52-5.81-.39-.25,.02-.58-.13-.75-.31-.46-.49-.64-.7-1.17,.07-.47,.69-1.35,.09-1.89-.23-.99-.59-2.21-.44-3.18-1.22-.36-.29-.88,.73-1.39,1.07-2.54-.56-5.09-1.11-7.5-2.13,.06-.26,.12-.52,.17-.78h.48c.35,.55,.67,.6,1.25,.19,.98-.7,2.17-1.48,3.31-.77,.8,.5,1.56,.83,2.45,.97,2.13,.34,4.14,1.39,6.38,1.06,.08-.01,.17,0,.24,.03,1.45,.7,3.17,.36,4.6,1.18,.29,.16,.55,.13,.88-.04,1.33-.7,2.97-.33,4.28-1.16,.14-.09,.39-.03,.59,0q1.89,.2,2.39-1.68c.07-.24,.15-.48,.22-.72,.01-.08,.02-.15,.02-.23,.49,.05,.48,.41,.48,.77,0,.62,0,1.24,0,1.86-.29,.17-.23,.45-.24,.71h-.01Z"/><path class="cls-3" d="M107.89,16.97c1.03,.05,2.05,.33,3.09,.18,1.1,.73,2.52,.3,3.64,.98-.09,.17-.22,.33-.28,.51-.98,3.19-1.75,6.45-2.77,9.63-.28,.87-.76,1.75-.59,2.74-.48,.01-.42-.34-.49-.66-.5-2.51-1.01-5.01-1.46-7.53-.35-1.96-.94-3.87-1.15-5.86Z"/><path class="cls-5" d="M83.01,15.54c.3,0,.61,0,.91,0-.08,.92,.25,1.78,.35,2.67,.15,1.26,.95,2.42,.62,3.76-.16,.08-.32,.17-.48,.25-.55-1.09-.37-2.38-.89-3.47-.38,.05-.43,.32-.48,.52-.75,3.05-1.46,6.12-2.25,9.16-.32,1.22-.22,2.59-1.11,3.64-.27-.85-.65-.06-.98-.06-.33-1.35-.94-2.61-1.12-4.01-.31-2.42-1.19-4.72-1.72-7.1-.28-1.26-.55-2.52-.88-4.02-.24,.38-.33,.47-.35,.58-.5,2.55-1.01,5.09-1.49,7.65-.08,.44-.31,.71-.64,.95h-.57c.4-1.94,.8-3.86,1.22-5.78,.26-1.19,.51-2.37,.83-3.54,.15-.55,.09-1.1,.16-1.65,.38-.24,.77-.33,1.17-.03,.75,2.74,1.27,5.54,1.96,8.29,.46,1.83,.88,3.68,1.34,5.51,.15,.61,.27,1.23,.51,1.88,1.76-4.94,2.46-10.14,3.9-15.16Z"/><path class="cls-3" d="M60.67,15.82c1.91-.44,3.87-.21,5.8-.46-.84,3.26-1.42,6.56-1.98,9.88-.27,1.6-.69,3.18-1.05,4.77h-.34c-.49-2.66-1.16-5.28-1.25-8-.34-2.07-.47-4.18-1.18-6.19Z"/><path class="cls-8" d="M139.33,23.59c1.91,.49,3.81,.99,5.72,1.48-.19,.03-.39,.05-.5,.25-.92,.77-.91,2.08-1.76,2.92-.33,.32-.1,.85,.26,1,.39,.17,.42-.29,.56-.57,.32-.66,.36-1.58,1.39-1.65,0,1.51,.74,2.86,1.03,4.3,0,.31-.01,.62-.02,.93-.42,.48-.53,1.05-.51,1.66l-.23,.48c-1.34,.15-2.48-.82-3.81-.72-.02-.08-.04-.15-.04-.23,.5-.02,.51-.35,.47-.72,.14-.19,.31-.36,.4-.57,.13-.29,.23-.7-.02-.89-.41-.31-.49,.2-.67,.41-.36,.42-.49,.29-.72-.16-.55-1.06-.26-2.27-.62-3.31-.52-1.51-.68-3.06-.94-4.6Zm3.46,6.81l-.08-.2c-.07,.03-.17,.04-.19,.08-.02,.05,.04,.13,.07,.19,.07-.03,.13-.05,.2-.08Z"/><path class="cls-6" d="M131.89,21.71c.87,.18,1.74,.36,2.61,.54,1.64,.64,2.16,2.1,2.62,3.59,.07,.21-.04,.53,.29,.55,.27,.01,.41-.24,.42-.49,.03-.47,.28-.62,.71-.57,.74,2.33,1.41,4.68,1.46,7.16-1.63,.53-3.2-.13-4.79-.25-.02-.35-.22-.46-.55-.49-.59-.06-.67-.47-.62-.95,.79-.24,2.19-2.35,2.01-3.03-.04-.15-.13-.31-.24-.4-.73-.59-1.17-1.42-1.79-2.09-.47-.51-.72-1.38-1.65-1.37-.01-.09-.03-.18-.04-.27-.09-.65-.66-1.2-.44-1.92Z"/><path class="cls-3" d="M89.15,10c2.47-1.92,5.29-3.18,8.22-4.21,1.04-.36,2.05,.18,2.94,.7,1.75,1.02,3.3,2.32,4.71,3.77-.41,.14-.88,.47-1.22,.37-1.54-.44-3.12-.08-4.59-.28-1.57-.22-3.06-.65-4.71-.51-1.21,.1-2.48,0-3.67,.2-.61,.11-1.12,.26-1.67-.04Z"/><path class="cls-10" d="M169.72,36.06c-.08,0-.16,0-.23,0-.85,.92-2.45,.48-3.13,1.74-.1,.18-.39,0-.54,.05-.59,.17-1.37,.15-1.37,1.08-1.86,.56-3.82,.53-5.71,.96-.72,.16-1.46,.27-2.19,.4-.02-.49-.05-.97,.6-1.11,.87-.19,.71-.67,.33-1.21,0-.16,0-.32,0-.48,.48-.02,.73,.4,1.13,.56,.26,.1,.5,.21,.77,.03,.36-.25,.18-.53,.05-.82,.55-.22,.7-.75,.96-1.2,.59,.07,1.13-.1,1.68-.26,1.13,.41,2.58-.24,3.11-1.41,.01-.08,.02-.16,.01-.24l.94-.48h.71c-.13,.32-.5,.53-.46,.94,.26,.96,1.33,.17,1.73,1.03,.06-1.28,.33-1.57,1.48-1.73,.42-.06,.98-.19,.76-.62-.22-.44-.16-1.14-.84-1.31v-.46c.19-.05,.37-.14,.57-.15,.34-.03,.73-.46,.97-.12,.33,.46-.31,.61-.47,.93-.02,.04,.04,.13,.06,.2,1.22-.34,1.58-1.22,1.01-2.5,.72-.09,1.41-.38,2.16-.24-.81,1.54-1.74,2.99-2.9,4.31-.53,.6-1.15,1.2-1.18,2.1Zm-8.72,1.82c.31-.13,.68-.22,.77-.63,.05-.22-.06-.44-.29-.37-.34,.1-.84,.07-.83,.64,0,.21,.08,.38,.36,.36Zm4.63-2.12l-.34,.26c.06,.08,.1,.2,.18,.22,.15,.04,.31,.01,.3-.19,0-.09-.09-.19-.14-.29Z"/><path class="cls-5" d="M61.84,22c.09,2.72,.77,5.34,1.25,7.99h.34c.35-1.58,.78-3.16,1.05-4.76,.56-3.31,1.14-6.62,1.98-9.88,.22-.02,.44-.04,.66-.05,.37,1.62,.8,3.24,1.11,4.87,.55,2.9,1.02,5.82,1.56,8.73,.18,.99,.59,1.94,.58,3,.87-.95,.47-2.27,1.11-3.25,.21,0,.43,0,.64,0-.07,.47-.09,.95-.21,1.4-.33,1.23-.21,2.59-1.06,3.66-.22-.26-.52-.29-.83-.27-.08-.13-.2-.26-.22-.4-.65-3.56-1.27-7.13-1.96-10.68-.3-1.52-.3-3.1-.97-4.57-1.12,4.65-1.72,9.39-2.93,14.01-.36-.34-.8-.24-1.23-.25-.66-.83-.6-1.89-.77-2.83-.42-2.22-.82-4.47-.87-6.74,.26,0,.51,.02,.77,.03Z"/><path class="cls-14" d="M157.48,37.98c.37,.54,.54,1.02-.33,1.21-.65,.14-.62,.63-.6,1.11l-1.69,.28c-1.08-.63,0-1.72-.48-2.71-.43,1.02-.81,1.78-1.56,2.3-.28,.19-.46,.48-.03,.74l-2.71,.67-1.45,.23c-.25-.35-.63-.2-.96-.24,.19-.79,.84-.38,1.29-.48,.58-.13,.75-.56,.83-1.04,.05-.3-.21-.32-.49-.34-1.02-.09-1.92,.23-2.76,.76-.56,.35-1.11,.02-1.61-.13-.61-.19-1.13-1.11-1.8-.08-.01,.02-.26-.04-.3-.11-.38-.7-.76-.11-1.17-.06-.71,.09-1.72,.84-1.9-.65,.4-.24,.81-.48,1.21-.73h.48c.1,.14,.27,.26,.35,.06,.11-.27-.16-.28-.34-.31v-.47h.72c-.03,.54,.13,.94,.77,.95,.66,0,1.05-.3,1.14-.95,.28-.66,.31-1.44,.96-1.91h.46c0,.09,.01,.17,.02,.24l-.02,.94c-.76,.44-.21,.71,.15,.95,.9,.6,1.52,0,2.2-.77,0,.91,.71,1.4,1.03,1.12,.59-.5,1.14-.21,1.69-.33h.47c0,.4,.07,.71,.57,.7,.36,0,.66-.05,.5-.54-.06-.17-.02-.32,.18-.36,.31-.07,.41,.18,.52,.38,.42,.77,.7,.4,.93-.12,.11-.24,.12-.53,.18-.8,.64-.39,.82-1.1,1.19-1.68,1.04,.4,.11,.97,.11,1.46,0,.34-.23,.73,.04,1.02,.3,.32,.57-.02,.83-.17,.45-.25,.94-.11,1.41-.15Z"/><path class="cls-3" d="M115.32,18.18c2.16,.03,4.21,.67,6.28,1.19-1.09,3.32-1.53,6.84-2.89,10.2-.51-.78-.87-1.47-.77-2.31-.04-.27-.06-.54-.13-.8-.5-1.88-1.12-3.72-1.62-5.6-.13-.5-.06-1.54-1.12-1.51l.25-1.17Z"/><path class="cls-11" d="M73.38,53.2c0-.08,0-.16,0-.24-.22-1.63,.08-1.89,1.65-1.27,.52,.21,.85-.03,1.22-.22,.87-.43,1.73-.58,2.6-.05,.39,.24,.75,.14,1.14,0,.49-.17,.97-.31,1.51-.33,.66-.01,1.38-.02,1.54-.94,.05-.27,.39-.22,.62-.23,0,.08,.01,.16,.02,.23,.05,.23,.02,.59,.16,.67,.61,.36,1.26,.67,1.92,.93,.56,.22,.7-.39,1.04-.61,.2-.12,.44-.25,.66-.25,1.13-.02,1.57-.63,1.5-1.69,.41-.74,.54-.77,.65-.38,.24,.83,.88,.78,1.5,.85,.46,.01,.97-.08,1.21,.49-.8,.33-1.4,1.36-2.48,.66-.32-.21-.43,.1-.5,.29-.29,.78-.87,1.09-1.65,1.32-.33,.1-1.02-.14-1.12,.55-4.39,.46-8.78,.29-13.18,.2Z"/><path class="cls-8" d="M194.39,23.59c2.52-1.16,5.19-1.83,7.91-2.3,.43-.07,1.06-.24,1.3,.28,.23,.5-.29,.88-.59,1.19-1.41,1.49-3.06,2.71-4.64,4l-2.24,.3c-.92-.98-1.43-2.18-1.74-3.47Z"/><path class="cls-8" d="M145.27,25.11c1.13,.24,2.25,.47,3.38,.71,.25,1.47,.5,2.94,1.19,4.28,.22,.8,.05,1.72,.71,2.39l.02,1.9-.04,.48c-1.05,.55-2.34,.36-3.31-.49-.02-.5,.02-1.01-.3-1.44l.02-1.41c.85-1.27,.6-2.8,1.1-4.16-1.12,.55-.69,1.94-1.69,2.69-.28-1.72-.59-3.36-1.08-4.96Z"/><path class="cls-7" d="M151.76,42.51c.08,.01,.17,0,.23,.04,.82,.53,2.01,.94,2,1.99-.02,.96-1.26,1.11-2.03,1.43-3.56,1.45-7.07,3.05-10.75,4.2-.09-1.12,.35-1.81,1.45-2.26,.6-.25,1.49-.18,1.78-.82,.41-.93,1.04-.79,1.77-.66,1.39,.25,2.92-.67,3.37-2.01,.28-1.15,1.34-1.42,2.18-1.92Z"/><path class="cls-9" d="M14.63,35.38c1.89-.33,3.7,.08,5.5,.58,.15,.04,.29,.27,.4,.24,1.29-.33,2.33,.2,3.35,.88,.15,.1,.43,.21,.52-.02,.51-1.31,1.18-.42,1.87-.2,.78,.24,1.62,.48,2.43,.31,.91-.2,1.69-.15,2.49,.4,.55,.38,1.24,.69,1.62-.34,0,.68,.16,1.38-.64,1.72-.45,0-.68-.47-1.17-.5-1.06-.07-2.13-.23-3.17-.46-.95-.21-1.9,0-2.85-.06-2.71-.18-5.44,.04-8.14-.42-.34-.72-.88-1.09-1.7-.98,.01-.45-.56-.65-.5-1.13Z"/><path class="cls-12" d="M195.6,46.08c-1.03-.21-1.99-.6-2.88-1.14,.05-.59,.92-.87,.65-1.57-.27-.7-.12-1.41-.16-2.12,.92,0,1.81,.22,2.7,.44,1.81,.45,3.63,.87,5.44,1.3,.79,.62,1.37,1.4,1.73,2.34-.79,.04-1.34-.72-2.22-.59-.62,.09-1.18-.25-1.69-.83-1.01-1.16-1.8-1.13-2.39,.02-.38,.73-.89,1.37-1.18,2.14Z"/><path class="cls-4" d="M132.09,49.92c-.9-.42-1.64-1.08-2.43-1.65,1.36-.41,2.8-.71,4.15-.82,1.67-.14,3.13-.8,4.72-1.07,.84-.14,1.68-.54,2.36-.88,.74-.37,1.54-.85,2.27-1.35,.44-.31,.97-.55,1.19-1.1,.47,.03,.8-.28,1.18-.48,.08,.02,.16,.04,.24,.06,0,.8-.6,1.05-1.19,1.28-.56,.22-1.32,.45-1.36,.99-.09,1.14-.94,1.66-1.53,2.4-.06-.05-.12-.15-.17-.15-2.12,.15-4.01,1.55-6.23,1.22-.84,.98-2.27,.75-3.2,1.55Z"/><path class="cls-1" d="M86.56,53c.1-.69,.79-.45,1.12-.55,.78-.24,1.36-.54,1.65-1.32,.07-.19,.18-.5,.5-.29,1.08,.7,1.68-.33,2.48-.66,.16,0,.32,0,.48,0l.21,.39c.6-.35,1.27,.06,1.79-.07,.77-.19,1.91,.43,2.31-.81,.35-.4,.57-.05,.74,.17,.25,.32,.47,.63,.94,.55,.56,.87,1.29,1.06,2.32,.84,.41-.09,1.56-1.05,1.51,.55l-2.59,.31-1-.26c-.83-.32-1.71-.36-2.54-.2-.64,.12-1.6-.14-1.78,.93-2.72,0-5.41,.63-8.14,.43Z"/><path class="cls-9" d="M89.15,10c.56,.3,1.06,.15,1.67,.04,1.19-.21,2.46-.1,3.67-.2,1.65-.14,3.14,.29,4.71,.51,1.48,.21,3.06-.16,4.59,.28,.34,.1,.81-.24,1.22-.37,.31,.17,.56,.4,.72,.73-2.23,.72-4.49,.65-6.74,.18-.33-.07-.62-.13-.92,.02-1.32,.68-2.6,.28-3.95,.04-.58-.1-1.33,.26-2.03,.22-1.45-.09-2.9-.16-4.36-.24,.16-.76,.84-.93,1.41-1.21Z"/><path class="cls-13" d="M33.83,44.91c-.06,.26-.11,.52-.17,.78-3.28-.48-6.4-1.57-9.51-2.65-2.08-.72-4.19-1.39-6.13-2.45,.52-.73,1.11-.18,1.6-.02,1.1,.36,2.05,1.11,3.31,1.01,1.97-.15,3.95-.27,5.65,1.11,.2,.16,.62,.05,.94,.07,.1,.2,.28,.23,.48,.22,.33,.85,1.22,1.25,1.86,1.32,1.07,.11,1.2-.07,1.97,.61Z"/><path class="cls-4" d="M115.32,18.18c-.08,.39-.16,.78-.25,1.17-.21,.11-.21,.29-.19,.49-.02,.28,0,.57-.08,.83-.84,2.88-1.75,5.75-2.53,8.64-.49,1.81-1.34,3.58-.99,5.55,.08,.4,.17,.79,.25,1.19-.07,.49,.06,.9,.45,1.22v1.19h-.51c-.09-.01-.17-.03-.26-.04,.14-.61-.15-1.16-.21-1.74-.04-.37,.1-.9-.42-.97-.57-.08-.42,.56-.65,.84l-.37-.03-.06-.75,.03-.4c.24-.11,.27-.31,.22-.54,.37-.82,.51-1.68,.53-2.57l.71-1.23c-.17-.99,.31-1.87,.59-2.74,1.02-3.18,1.79-6.44,2.77-9.63,.06-.18,.18-.34,.28-.51l.7,.04Z"/><path class="cls-11" d="M169.72,36.06c.04-.9,.65-1.49,1.18-2.1,1.16-1.31,2.09-2.77,2.9-4.31,.89,.04,1.73-.42,2.64-.24-.64,.89-1.16,1.84-1.58,2.85-.41,.98-.88,1.94-1.31,2.92-.2,.45-.56,.87-.96,.94-.43,.07-.33-.64-.72-.93-.39,.55-.24,1.1-.09,1.64,.07,.24,.12,.48-.18,.6-.23,.09-.52,.09-.61-.18-.23-.62-.97-.67-1.27-1.2Z"/><path class="cls-12" d="M29.52,42.75c-.32-.02-.74,.09-.94-.07-1.7-1.38-3.68-1.26-5.65-1.11-1.26,.09-2.22-.66-3.31-1.01-.49-.16-1.08-.71-1.6,.02-.51-.17-1.04-.31-1.45-.7,.13-.7,.44-.79,1.1-.49,.75,.34,1.64,.16,2.44,.46,.42,.16,.74-.18,.78-.67,.08,0,.17,0,.25,0,.5,.71,1.24,.42,1.9,.46l1.68-.21c.45,.94,1.2,.63,1.92,.45l.96,.25c.21,.64,.73,.83,1.33,.99,1.37,.36,1.43,.56,.58,1.64Z"/><path class="cls-8" d="M141.68,47.3c.59-.74,1.45-1.26,1.53-2.4,.04-.54,.8-.78,1.36-.99,.59-.23,1.2-.48,1.19-1.28,.62-.25,1.34-.19,1.91-.59,.33-.05,.71,.11,.95-.25l1.45-.23c.5,.42,1.23,.43,1.67,.94-.85,.51-1.91,.77-2.18,1.92-.52-.01-.98,.08-1.47,.32-.8,.39-1.56,1.22-2.49,.98-1.25-.32-1.96,.26-2.64,1.09-.34,.4-.68,.79-1.29,.72v-.24Z"/><path class="cls-8" d="M195.6,46.08c.29-.77,.8-1.42,1.18-2.14,.6-1.15,1.39-1.18,2.39-.02,.5,.58,1.06,.92,1.69,.83,.88-.13,1.43,.63,2.22,.59l-.02,.03c.24,.81,.11,1.53-.5,2.14-2.36-.3-4.73-.51-6.96-1.43Z"/><path class="cls-15" d="M157.48,37.98c-.47,.03-.96-.11-1.41,.15-.26,.15-.53,.49-.83,.17-.27-.29-.05-.67-.04-1.02,0-.48,.93-1.06-.11-1.46,.06-.33,.11-.65,.17-.98,.32-.72,.23-1.42-.15-2.09-.21-.38-.27-.8-.29-1.23h.53c.34,.38,.72,1.37,1.2,.38,.6-1.23,1.61-2.37,1.45-3.9l.92,.21c.08,.39,.16,.77,.24,1.16-.34,0-.68,0-.71,.47-.16,.4-.28,.83-.49,1.2-.54,.97-1.11,1.93-.97,3.11-.5,.58,.16,.95,.27,1.42-.81,.74,.08,1.29,.22,1.92v.48Z"/><path class="cls-4" d="M20.89,39.19c-.04,.49-.37,.83-.78,.67-.8-.3-1.69-.12-2.44-.46-.66-.3-.97-.21-1.1,.49-1.5-.54-2.83-1.4-4.19-2.2-.25-.15-.64-.35-.52-.71,.12-.36,.52-.43,.89-.44,.79-.01,1.59-.02,2.38-.03,.82-.11,1.36,.27,1.7,.98-.11,.7,.17,1.11,.9,.95,1.19-.25,2.11,.48,3.16,.74Z"/><path class="cls-8" d="M158.01,28.01c.16,1.53-.85,2.67-1.45,3.9-.48,.98-.86,0-1.2-.39-.2-.97-.68-1.81-1.13-2.67-.31-.6-.82-1.14-.78-1.89l4.56,1.05Z"/><path class="cls-4" d="M117.94,27.26c-.1,.84,.26,1.53,.77,2.31,1.36-3.37,1.8-6.88,2.89-10.2,.29-.05,.58-.1,.79,.19-.04,.33-.07,.66-.11,.98-.41,.31-.19,.77-.29,1.15-.3,.3-.41,.67-.47,1.07-.4,2.69-1.39,5.22-2.16,7.81-.83-.43-.51,.84-1.11,.75-.16-1.4-.89-2.66-.98-4.07h.67Z"/><path class="cls-15" d="M144.35,43.05c-.22,.56-.74,.8-1.19,1.1-.73,.5-1.53,.98-2.27,1.35-.68,.34-1.53,.74-2.36,.88-1.59,.27-3.05,.93-4.72,1.07-1.35,.11-2.8,.41-4.15,.82l-.94-.44c1.11-.61,2.33-.85,3.56-.98,2.18-.23,4.41-.25,6.39-1.27,.87-.45,1.99-.61,2.56-1.59,.95-.34,1.9-.68,2.85-1.02,.09,.03,.19,.05,.28,.08Z"/><path class="cls-14" d="M141.22,43.99c-.56,.98-1.68,1.14-2.56,1.59-1.98,1.02-4.21,1.04-6.39,1.27-1.22,.13-2.45,.37-3.56,.98l-.42,.04c.07-.8,.57-1.11,1.3-1.28,3.88-.85,7.75-1.73,11.63-2.6Z"/><path class="cls-13" d="M193.22,40.35c-.02-.06-.03-.12-.04-.18-.06-.49,.28-.78,.58-1.08,.52-.52,1.16-.78,1.87-.92,1.69,.98,3.15,2.26,4.52,3.64-.31-.04-.63-.04-.93-.11-2-.44-3.99-.9-5.99-1.35Z"/><path class="cls-12" d="M163.49,29.39c1.31,.12,2.63,.24,3.94,.36-.51,.59-.45,1.33-.56,2.02h0c-.56,.15-1.13,.31-1.69,.46-.32-.13-.47-.38-.48-.72-.07-.46-.38-.71-.78-.58-.28,.09,.02,.38,.06,.58v.95c-.09,1.12-.92,.98-1.67,.96,.04-1.45,.88-2.67,1.18-4.04Z"/><path class="cls-15" d="M163.49,29.39c-.3,1.37-1.14,2.59-1.18,4.04-.33,.14-.48,.38-.5,.73-1.52-.14-1.04,1.21-1.42,1.91-.25,.45-.41,.98-.96,1.2-1.37,.27-1.61,.06-1.94-1.67,.35,0,.7,0,1.05,0,1.01-.04,1.81-.89,1.83-1.92l-.25-1.19h.5c.08,0,.15,0,.22,0,.02,.21-.05,.55,.2,.57,.4,.04,.24-.35,.29-.57,.75-.98,1.02-2.14,1.2-3.33,.36-.11,.67,.02,.95,.23Z"/><path class="cls-6" d="M141.68,47.54c.6,.07,.95-.32,1.29-.72,.69-.83,1.39-1.41,2.64-1.09,.92,.24,1.68-.59,2.49-.98,.5-.24,.96-.33,1.47-.32-.45,1.33-1.98,2.26-3.37,2.01-.73-.13-1.35-.28-1.77,.66-.28,.64-1.18,.57-1.78,.82-1.1,.46-1.54,1.14-1.45,2.26-.4,.39-.96,.42-1.44,.64,0-.3,0-.6,0-.9,.31-.24,.42-.58,.47-.95,.68-.28,1-.91,1.43-1.43Z"/><path class="cls-5" d="M141.68,47.54c-.43,.52-.75,1.16-1.43,1.43-1.07,.15-2.13,.29-3.22,.34-1.58,.07-3.06,.85-4.68,.85l-.27-.24c.92-.81,2.36-.57,3.2-1.55,2.22,.33,4.1-1.06,6.23-1.22,.05,0,.11,.1,.17,.15v.24Z"/><path class="cls-5" d="M103.11,53.76c.66,.35,.94,.92,1,1.63-.93,.76-2.39,.22-3.19,1.31-.03,.05-.2,.06-.21,.05-.67-1.27-1.46-.13-2.19-.11-.47-.17-.73-.55-.96-.96,.66-.19,1.23-.52,2-.5,.4,0,1.33,0,1.47-.42,.39-1.17,1.24-.99,2.09-.99Z"/><path class="cls-13" d="M140,32.49c-.05-2.47-.73-4.82-1.46-7.16,.19-.73-.31-1.4-.2-2.12,.33,.13,.66,.25,.99,.38,.26,1.54,.42,3.09,.94,4.6,.36,1.04,.07,2.25,.62,3.31,.23,.45,.37,.58,.72,.16,.18-.21,.26-.72,.67-.41,.25,.19,.15,.6,.02,.89-.09,.21-.27,.38-.4,.57l-1.47,.02-.44-.25Z"/><path class="cls-14" d="M189.4,28.89c-.08,0-.16,0-.25,0,.07-.76,.21-1.52-.6-2.06-.15-.1-.09-.51-.13-.78,1.06-.6,2.2-1.02,3.35-1.4-.48,1.18-.18,2.36,0,3.54l-2.37,.71Z"/><path class="cls-10" d="M185.53,42.07c.68-.67,1.92-.96,1.51-2.35-.05-.18,.23-.28,.44-.29,1.07-.06,2,.29,2.85,.91-.22,.43-.49,.78-.84,1.14-.56,.58-1.48,.69-1.81,1.49-.78-.17-1.5-.47-2.16-.9Z"/><path class="cls-8" d="M149.35,26.04c1.15,.11,2.28,.33,3.36,.74-.29,1.36-1.04,2.57-1.23,3.96-.05,.37-.32,.53-.68,.54-.01-.45,.07-.94-.47-1.19,.07-1.45-.69-2.69-.98-4.05Z"/><path class="cls-12" d="M162.54,29.17c-.18,1.19-.45,2.34-1.2,3.33-.16,0-.33,0-.49,0-.07,0-.15-.01-.22-.02-.35-1.1-.62-2.23-1.46-3.1l-.23-1.16c1.19,.35,2.46,.44,3.61,.94Z"/><path class="cls-14" d="M171.64,29.89c.56,1.27,.21,2.15-1.01,2.5-.02-.07-.09-.16-.06-.2,.17-.31,.81-.47,.47-.93-.24-.34-.63,.09-.97,.12-.19,.02-.38,.1-.57,.15-.28-.39-.5-.93-1-.13-.5,.8-1.1,1.52-1.66,2.28h-.71v-.48c.53-.32,.7-.83,.73-1.42h0c.99-.25,1.13-1.13,1.43-1.9h3.35Z"/><path class="cls-11" d="M164.45,38.94c0-.93,.78-.91,1.37-1.08,.15-.05,.44,.13,.54-.05,.67-1.25,2.28-.82,3.13-1.74-.05,.85,1.18,1.36,.64,2.35-1.89,.17-3.78,.35-5.67,.52Z"/><path class="cls-4" d="M103.11,53.76c-.84,0-1.7-.18-2.09,.99-.14,.42-1.06,.43-1.47,.42-.76-.02-1.34,.31-2,.5-.86,.07-1.11-.63-1.5-1.17,.27-.07,.61,.03,.79-.28l.27-.02c1.56,.03,2.88-.6,4.13-1.44,.7,.18,1.31,.52,1.85,1Z"/><path class="cls-3" d="M104.28,56.86c-.02,.83,.05,1.67-.09,2.48-.17,.95-.66,1.06-1.4,.44-.79-.65-1.59-1.29-2.39-1.93,1.25-.5,2.51-.96,3.88-.99Z"/><path class="cls-3" d="M139.78,49.92c0,.3,0,.6,0,.9-.85,.32-1.76,.54-2.54,.98-1.56,.87-2.64,.09-3.72-.87,.58-.52,1.66,.35,2.05-.72,0-.01,.18,0,.22,.04,.6,.66,1.16,.12,1.69-.1,.3-.12,.66-.37,.87-.13,.57,.65,.97,.18,1.43-.1Z"/><path class="cls-10" d="M189.4,28.89c.79-.24,1.58-.47,2.37-.71,.31,0,.63-.02,.94-.03,.2,.11,.25,.29,.25,.49-.08,0-.15,.02-.23,.02-1.76,.11-1.84,.38-1.1,1.89,.27,.55,.75,1.01,.85,1.65l-1.68,.71c-.04-1.2-1.15-2.07-1.06-3.32,0-.06-.25-.14-.38-.21l.02-.49Z"/><path class="cls-13" d="M145.27,25.11c.5,1.59,.8,3.24,1.08,4.96,1.01-.75,.57-2.14,1.69-2.69-.51,1.36-.25,2.89-1.1,4.16-.28-.16-.57-.28-.9-.21-.29-1.45-1.02-2.79-1.03-4.3-.01-.6-.12-1.18-.45-1.7,.11-.2,.31-.22,.5-.25,.07,0,.15,.02,.22,.04Z"/><path class="cls-12" d="M150.8,31.28c.36-.02,.63-.17,.68-.54,.19-1.39,.94-2.6,1.23-3.96,.26-.03,.53-.06,.73,.18-.05,.75,.46,1.29,.78,1.89,.45,.86,.93,1.71,1.13,2.67-.18,0-.35,0-.52,0-.87-.91-.79-2.33-1.72-3.31-.83,1.38-.59,3.05-1.58,4.25h-.49l-.24-1.19Z"/><path class="cls-9" d="M129.98,23.65c-.42-.45-.9-.78-1.5-1.03-.87-.36-1.6-.98-1.65-2.05,1.42-.08,2.74,.27,3.99,.91,0,.24,0,.48-.01,.72-.75,.22-.46,1.02-.83,1.45Z"/><path class="cls-12" d="M194.39,23.59c.31,1.29,.82,2.48,1.74,3.47-.57,.5-1.29,.39-1.97,.46-.38-.54-.68-1.1-.9-1.74-.16-.47-.13-1.14-.78-1.36v-.07c.58-.39,1.23-.61,1.91-.76Z"/><path class="cls-9" d="M139.78,49.92c-.45,.28-.86,.75-1.43,.1-.21-.24-.57,0-.87,.13-.53,.22-1.09,.76-1.69,.1-.04-.05-.21-.05-.22-.04-.39,1.07-1.47,.21-2.05,.72-.46-.14-.81-.45-1.15-.77,1.62,0,3.1-.77,4.68-.85,1.09-.05,2.15-.19,3.22-.34-.05,.37-.17,.71-.47,.95Z"/><path class="cls-10" d="M193.22,40.35c2,.45,3.99,.91,5.99,1.35,.3,.07,.62,.08,.93,.11,.5,.3,.91,.68,1.21,1.19-1.81-.43-3.63-.85-5.44-1.3-.89-.22-1.78-.44-2.7-.44-.08-.13-.17-.25-.25-.38l.26-.52Z"/><path class="cls-8" d="M138.34,23.21c-.11,.72,.38,1.39,.2,2.12-.43-.04-.68,.11-.71,.58-.01,.25-.15,.5-.42,.49-.33-.02-.22-.34-.29-.55-.46-1.49-.98-2.95-2.62-3.59,.37-.31,.7-.1,1.07,.04,.91,.34,1.85,.62,2.77,.92Z"/><path class="cls-9" d="M104.28,56.86c-1.37,.04-2.63,.49-3.88,.99-.7-.3-1.3-.75-1.89-1.22,.73-.02,1.52-1.16,2.19,.11,0,.02,.18,0,.21-.05,.8-1.08,2.26-.55,3.19-1.31,.34,.45,.14,.97,.17,1.46Z"/><path class="cls-13" d="M192.97,40.87c.08,.13,.17,.26,.25,.38,.04,.71-.11,1.42,.16,2.12,.26,.7-.6,.98-.65,1.57-.52-.08-.99-.28-1.43-.55,.01-.35-.42-.74-.14-1.02,.74-.72,.55-1.8,1.12-2.58l.7,.07Z"/><path class="cls-9" d="M61.84,22c-.26,0-.51-.02-.77-.03-.76-.41-.49-1.22-.57-1.8-.19-1.41-.41-2.81-.6-4.22l.02,.02,.25-.18c.16,0,.32,0,.48,.01,.7,2,.84,4.11,1.18,6.19Z"/><path class="cls-15" d="M195.63,38.17c-.7,.14-1.35,.4-1.87,.92-.3,.3-.64,.59-.58,1.08-.51-.07-1-.19-1.42-.51-.17-1.5,1.26-1.85,1.97-2.71,.73,.26,1.26,.83,1.9,1.22Z"/><path class="cls-14" d="M192.48,32.2c-.1-.64-.58-1.1-.85-1.65-.75-1.5-.66-1.78,1.1-1.89,.2,.98,.74,1.8,1.22,2.66-.38,.47-.91,.7-1.47,.88Z"/><path class="cls-14" d="M193.73,36.96c-.71,.86-2.14,1.2-1.97,2.71-.42,.02-.82-.03-1.19-.25,0-.19,0-.39,.01-.58,.01-1,.13-1.88,1.47-1.87,.29,0,.41-.33,.43-.62,.48,.08,.89,.3,1.25,.63Z"/><path class="cls-10" d="M94.7,52.57c.18-1.07,1.14-.81,1.78-.93,.83-.15,1.72-.11,2.54,.2-.06,.37-.2,.52-.64,.65-1.06,.32-2.12,.58-3.2,.78l-.49-.71Z"/><path class="cls-15" d="M192.26,40.8c-.56,.77-.37,1.86-1.12,2.58-.28,.28,.15,.66,.14,1.02-.77-.16-1.49-.48-2.17-.87,.84-.96,1.92-1.71,2.43-2.94,.25,.02,.53-.01,.72,.22Z"/><path class="cls-10" d="M192.49,36.33c-.02,.29-.13,.62-.43,.62-1.34,0-1.46,.88-1.47,1.87,0,.2,0,.39-.01,.58-.55-.09-1.04-.32-1.45-.71,.66-.99,1.02-2.16,1.86-3.04,.57,.06,1.03,.38,1.51,.67Z"/><path class="cls-14" d="M191.55,40.58c-.51,1.23-1.59,1.99-2.43,2.94-.51-.08-1-.24-1.42-.55,.33-.81,1.25-.91,1.81-1.49,.35-.36,.62-.71,.84-1.14,.4,.08,.86-.12,1.21,.24Z"/><path class="cls-13" d="M193.95,31.32c-.47-.86-1.01-1.68-1.22-2.66,.08,0,.15-.01,.23-.02,.41-.06,.82-.13,1.22-.19l.96,1.9c-.31,.43-.64,.84-1.19,.97Z"/><path class="cls-14" d="M95.19,53.27c1.08-.21,2.14-.47,3.2-.78,.43-.13,.58-.28,.64-.65l1,.26c0,.06-.01,.11-.02,.17-.24,.43-.6,.62-1.08,.8-.66,.24-1.58,.19-1.82,1.13l-.27,.02c-.34-.75-.64-.26-.96,.02-.35-.24-.5-.62-.7-.97Z"/><path class="cls-14" d="M194.18,28.45c-.41,.06-.82,.13-1.22,.19,0-.21-.05-.38-.25-.49,.09-.14,.18-.28,.27-.42,.4-.07,.84,.12,1.19-.22,.68-.07,1.39,.04,1.97-.46,.75-.1,1.49-.2,2.24-.3-.36,.32-.72,.64-1.08,.96-1.1-.02-2.08,.46-3.11,.74Z"/><path class="cls-12" d="M194.18,28.45c1.03-.28,2.01-.75,3.11-.74l-2.16,2.64-.96-1.9Z"/><path class="cls-11" d="M189.37,29.38c.13,.07,.38,.15,.38,.21-.09,1.25,1.01,2.12,1.06,3.32l-.47,.07c.07-1.02-1.09-1.08-1.46-1.9-.43-.96-.17-1.28,.5-1.7Z"/><path class="cls-15" d="M192.98,27.73c-.09,.14-.18,.28-.27,.42-.31,0-.63,.02-.94,.02-.19-1.18-.49-2.36,0-3.54,.21-.17,.44-.3,.72-.29v.07c-.5,1.2,.38,2.2,.49,3.32Z"/><path class="cls-10" d="M188.42,26.04c.04,.27-.02,.68,.13,.78,.81,.54,.67,1.3,.6,2.06-1.5-.11-1.59-1.36-1.94-2.39,.36-.26,.75-.43,1.2-.45Z"/><path class="cls-15" d="M149.35,26.04c.29,1.36,1.04,2.61,.98,4.05h-.49c-.7-1.34-.95-2.81-1.19-4.28,.28-.06,.5,.07,.71,.22Z"/><path class="cls-15" d="M97.12,54.2c.24-.95,1.16-.89,1.82-1.13,.48-.18,.84-.36,1.08-.8,.46,.06,.87,.22,1.24,.49-1.25,.84-2.58,1.47-4.13,1.44Z"/><path class="cls-11" d="M190.98,35.66c-.84,.88-1.2,2.05-1.86,3.04-.38-.04-.89,.13-1.04-.34-.16-.5,.52-.25,.61-.49,.36-.96,.88-1.8,1.63-2.51,.28-.05,.49,.08,.65,.29Z"/><path class="cls-10" d="M152.79,40.91c-.43-.26-.25-.55,.03-.74,.75-.52,1.14-1.28,1.56-2.3,.47,.99-.6,2.08,.48,2.71l-2.07,.33Z"/><path class="cls-12" d="M202.56,47.5c.61-.61,.74-1.34,.5-2.14,.24-.03,.35,.13,.45,.3,.29,.52,1.17,.86,.8,1.54-.35,.65-1.14,.26-1.75,.3Z"/><path class="cls-13" d="M168.29,29.89c-.3,.76-.44,1.65-1.43,1.9,.11-.69,.05-1.44,.56-2.02,.29,.04,.58,.09,.87,.13Z"/><path class="cls-15" d="M130.8,22.2c0-.24,0-.48,.01-.72,.4-.1,.75-.01,1.07,.24-.21,.72,.35,1.27,.44,1.92-.18,.1-.36,.2-.54,.3l-.19-.23c-.08-.43,.35-1.06-.46-1.22l-.33-.3Z"/><path class="cls-15" d="M95.89,54.24c.31-.28,.62-.77,.96-.02-.19,.31-.52,.22-.79,.28-.05-.09-.11-.17-.16-.26Z"/><path class="cls-9" d="M13.93,34.88c.35,0,.73-.03,.7,.5-.37,.02-.55-.22-.7-.5Z"/><path class="cls-3" d="M60.18,15.8l-.25,.18,.25-.18Z"/><path class="cls-7" d="M42.63,35.35c-.03-.71-.04-1.32-.89-.73-.57,.4-.63-.61-1.06-.43-1.19,.5-1.75-.49-2.54-.97-.42-.25-.94-.78-1.08,.34-.09,.7-.43,.19-.68-.04-.36-.33-.44-1.19-1.05-.94-.72,.29-1.3,.91-1.99,1.42,.72-3.46,.01-6.74-2.33-9.67,.36-.07,.48-.11,.49-.09,.85,1.39,2.12,1.77,3.67,1.56,3.08-.4,5.11,.89,6.21,3.79,.46,1.22,1.04,2.4,1.67,3.55,.45,.82,.35,1.47-.42,2.21Z"/><path class="cls-12" d="M33.83,44.91c-.77-.68-.9-.5-1.97-.61-.64-.07-1.53-.47-1.86-1.32,.43-.74,1.36-1.13,1.43-2.11l.51-.07v.04c.68,.58,1.42,.99,2.36,.63,.32-.02,.63-.04,.95-.07,.17,.06,.34,.13,.5,.19,.08,.13,.2,.38,.22,.37,.85-.34,1.57,.19,2.36,.31,1.69,.25,3.42,.03,5.1,.48,.71,.19,1.44,.54,2.16,0,2.81,1.56,5.77,1.91,8.86,1,.5,1.16,1.88,1.05,2.39,.76,1.35-.77,2.7-.46,4.06-.57l-.22,.72c-.37-.04-.55,.54-.8,.42-1.11-.55-1.85,.46-2.77,.57-1.15,.13-2.45,1.14-3.47-.33-.15-.21-.43-.2-.66-.1-1.36,.61-2.86-.48-4.2,.34-.05,.03-.19-.11-.3-.15-.92-.34-1.77-1.04-2.86-.53-.16,.07-.42,.04-.58-.05-2.25-1.24-4.87-1.02-7.24-1.8-.42-.14-1.28-.21-1.34,.09-.23,1.27-1.45,1.18-2.15,1.77h-.48Z"/><path class="cls-1" d="M54.45,43.76c-3.1,.91-6.05,.56-8.86-1-.65-.74-1.3-1.49-1.96-2.23-.59-1.36-.59-1.41,.9-1.34,4.49,.23,8.97,.5,13.45,.74,.47,.03,.9,.07,.9,.69-.47,.94-1.36,1.46-2.1,2.13-.78,.34-1.55,.68-2.33,1.02Zm-9.58-3.15c.23,.61,.76,.48,1.22,.47,1.16-.03,2.36-.29,3.47-.08,2.15,.41,4.35-.07,6.48,.53,.65,.18,1.29-.11,1.61-.89-3.46-.16-6.82-.32-10.19-.48-.82-.08-1.64-.17-2.46-.23-.2-.01-.54-.12-.51,.26,.01,.15,.24,.28,.37,.42Z"/><path class="cls-2" d="M26.05,32.72c-1.69-.02-3.02-1.29-3.01-2.86,.02-1.7,1.65-3.15,3.52-3.11,1.65,.03,3,1.37,2.95,2.92-.05,1.65-1.68,3.08-3.46,3.05Z"/><path class="cls-6" d="M31.94,40.8c-.17,.02-.34,.05-.51,.07-1.21-.59-2.48-.84-3.82-.74-.32-.08-.64-.16-.96-.25-.5-.72-1.36,.04-1.92-.45-.56,.07-1.12,.14-1.68,.21-.48-.8-1.25-.36-1.9-.46-.08,0-.17,0-.25,0-1.05-.26-1.98-.99-3.16-.74-.73,.16-1.01-.25-.9-.95,2.7,.46,5.43,.24,8.15,.42,.95,.06,1.9-.14,2.85,.06,1.04,.22,2.11,.38,3.17,.46,.49,.03,.72,.5,1.17,.5,.06,.64-.74,1.17-.22,1.86Z"/><path class="cls-8" d="M43.63,40.52c.65,.74,1.3,1.49,1.96,2.23-.72,.53-1.45,.19-2.16,0-1.68-.45-3.41-.23-5.1-.48-.78-.12-1.51-.65-2.36-.31-.02,0-.14-.24-.22-.37,.16-.09,.32-.17,.48-.26,.66,.08,1.27-.16,1.89-.3,.31,.07,.48-.09,.58-.36,.35-.06,.79,0,1.03-.2,.9-.71,1.75-.77,2.73-.16,.31,.19,.77,.15,1.16,.21Z"/><path class="cls-4" d="M62.72,31.54c.42,0,.87-.09,1.23,.25-.1,1.21-.32,2.41-.05,3.65,.29,1.38,.43,2.8,.64,4.2-.17,.58,.16,1.01,.44,1.45v1.18c-.21,.01-.44,.02-.67,.04-.09-.17-.19-.34-.28-.51-.13-.71,.22-1.47-.25-2.14,.11-.82-.26-1.58-.28-2.38,.12-.75-.27-1.18-.93-1.44,.34-1.42,.31-2.86,.15-4.3Z"/><path class="cls-6" d="M56.78,42.74c.74-.67,1.63-1.19,2.1-2.13,.83,.17,1.6,.67,2.51,.47,0,.32,0,.64,0,.96-.16,.32-.33,.63-.49,.95l-4.11-.25Z"/><path class="cls-5" d="M61.39,42.04v-.96c-.13-.85,.63-1.52,.5-2.38,.23,0,.47,0,.7,0-.07,.56-.13,1.11-.2,1.67-.57,.55,.21,1.12-.03,1.67l-.68,.02-.3-.02Z"/><path class="cls-9" d="M62.59,38.7c-.23,0-.47,0-.7,0-.08-1.03,.34-1.94,.69-2.87,.65,.26,1.05,.69,.93,1.44-1.03,0-.57,.97-.91,1.42Z"/><path class="cls-8" d="M34.3,41.47c-.94,.36-1.68-.05-2.37-.63,.81,.13,1.68,.04,2.37,.63Z"/><path class="cls-9" d="M36.24,41.33c-.16,.09-.32,.17-.48,.26-.17-.06-.34-.13-.5-.19,.3-.43,.63-.42,.99-.07Z"/><path class="cls-9" d="M38.71,40.67c-.1,.27-.27,.43-.58,.36,.06-.33,.26-.44,.58-.36Z"/><path class="cls-10" d="M92.79,50.17c-.16,0-.32,0-.48,0-.24-.57-.74-.48-1.21-.49,.03-.5,.3-1.42,.47-1.24,.79,.84,1.79-.03,2.58,.52,.54,.38,2.24-.48,2.46-1.13,.08-.23,.08-.49,.4-.49,.27,0,.45,.18,.52,.42,.09,.34,.15,.89,.59,.68,1.24-.58,2.5,.03,3.72-.21,1.1-.21,2.3-.32,2.23-1.91-.02-.45,.35-.46,.68-.46,0,.16,0,.31,.01,.47-.37,.47-.04,.77,.33,.91,.5,.18,.94-.02,1.23-.48,.22-.34,.13-.88,.66-1.03,.43,1.5,.45,1.51,1.94,.91,.26-.1,.57-.32,.77-.26,1.24,.41,1.92-.44,2.66-1.13,.26-.25,.39-.42,.77-.16,.99,.7,1.32,.56,1.94-.69l.25-.7c.25,0,.49,.07,.62,.28,.58,.94,1.37,.9,2.2,.43,.79-.45,1.51-.5,2.43-.28,1.22,.28,1.3,.05,.74-1.37,0-.24,0-.49,0-.73l.52-.04c.07,0,.15,.01,.22,.02,0,.39,.16,.71,.46,.97l.24,1.43h0c-.79,.22-.48,.83-.4,1.28,.11,.63,0,.76-.56,.41-.56-.36-1.01-.33-1.57,.16-.92,.81-3.53,.7-4.7-.18-.44-.33-.58-.44-.83,.08-.3,.61-.65,.95-1.19,.19-.12-.17-.32-.25-.52-.12-.23,.15-.34,.39-.23,.62,.25,.5-.06,.93-.11,1.39-.03,.28-.25,.48-.61,.36-1-.33-2.06-.29-3.09-.36-.48-.03-.89,.1-1.15,.49-.61,.89-1.12,.98-1.55-.44-.36,1.19-.85,1.37-1.45,.48-.39,.42-.08,1-.5,1.26-.4,.25-.65,1.35-1.38,.25-.13-.2-.83-.25-1.12-.1-.99,.51-1.99,.19-2.99,.21-.47,.08-.69-.23-.94-.55-.17-.22-.39-.57-.74-.17-.8,.3-1.64,.2-2.48,.25-.61,.04-1.28-.25-1.84,.23Z"/><path class="cls-10" d="M144.35,43.05c-.09-.03-.19-.05-.28-.08,.07-.31,.25-.65,.18-.92-.13-.51,0-1.21-1.13-.87-1.33,.41-2.64,.84-3.91,1.37-.5,.21-.77,.09-.86-.41-.15-.85-.57-.63-.96-.22-1.05,1.13-2.42,1.68-3.87,1.95-.8,.15-1.55,.29-2.22,.76-.53,.37-1.09,.2-1.29-.31-.43-1.11-.71-.3-.97,.03-.33,.42-.44,1.31-1.15,.24-.27-.41-.61,0-.82,.31-.61,.92-1.24,1.73-2.42,.65-.28-.25-.53-.02-.65,.27-.11,.26-.17,.59-.55,.44-.28-.11-.38-.41-.42-.68-.06-.39-.05-.79-.28-1.14h0c1.17,.31,1.56-.6,2.06-1.32,.14-.21,.1-.6,.51-.53,.31,.05,.24,.36,.33,.57,.2,.51,.65,1.02,1.08,.94,.68-.14,0-.71,.09-1.09,.05-.22-.08-.51,.24-.6,.23-.06,.38,.13,.44,.31,.41,1.17,.95,1.1,1.75,.3,.31-.3,.66-.51,.81-.96,.1-.31,.48-.68,.65-.21,.33,.89,.9,.56,1.43,.43,.91-.22,2.05-.04,2.71-.46,.65-.41,1.23-.73,1.97-.82,1.07-.13,1.44-.84,1.53-1.8,.39,.07,.78,.15,1.17,.22,.08,0,.16,0,.23,.01,.19,1.49,1.19,.74,1.9,.65,.41-.05,.8-.64,1.17,.06,.04,.07,.28,.13,.3,.11,.66-1.04,1.18-.12,1.8,.08,.5,.16,1.05,.48,1.61,.13,.85-.53,1.74-.85,2.76-.76,.27,.02,.53,.04,.49,.34-.07,.47-.25,.91-.83,1.04-.44,.1-1.1-.31-1.29,.48h0c-.89-.03-1.71,.07-2.14,1.01-.38,.2-.71,.51-1.18,.48Z"/><path class="cls-3" d="M91.39,16.27c2.77,.19,5.54,.59,8.33,.47,0,.14-.02,.27-.03,.41-.89,1.02-.96,2.37-1.32,3.57-.68,2.22-1.07,4.52-1.63,6.77-.48,1.91-1.03,3.81-1.55,5.71l-.48-.25-.12-1.63c.13-.62-.3-1.13-.36-1.72-.28-3.13-1.23-6.14-1.5-9.28-.08-.93-.51-1.83-.61-2.76-.07-.6-1.12-.54-.74-1.31Z"/><path class="cls-3" d="M84.89,21.96c.33-1.34-.47-2.49-.62-3.76-.1-.89-.43-1.75-.35-2.67,.32,0,.64-.01,.95-.02,1.84,.24,3.67,.49,5.51,.73l-.04,1.14c-.75,2.26-1.04,4.61-1.19,6.97-.28,.44-.32,.95-.41,1.45-.74,2.58-.76,5.3-1.64,8.17-.61-4.24-1.28-8.15-2.21-12.02Z"/><path class="cls-3" d="M100.31,16.96c2.21,.22,4.43-.02,6.64,0-1.31,5.06-2.62,10.13-3.94,15.19l-.31-.07c-.14-1.51-.34-3.03-.56-4.53-.37-2.6-.89-5.17-1.06-7.8-.04-.64,.3-1.63-.64-2.09l-.14-.71Z"/><path class="cls-5" d="M100.46,17.67c.94,.46,.59,1.44,.64,2.09,.17,2.63,.69,5.2,1.06,7.8,.22,1.5,.41,3.01,.56,4.53l.31,.07c1.31-5.06,2.62-10.13,3.94-15.19,.31,0,.62,0,.93,0,.21,1.99,.8,3.91,1.15,5.86,.45,2.52,.96,5.02,1.46,7.53,.06,.31,0,.67,.49,.66-.24,.41-.47,.82-.71,1.23-.3-.76-.69-1.48-.79-2.32-.42-3.48-1.45-6.86-1.59-10.38,0-.24-.07-.53-.36-.52-.29,0-.31,.3-.36,.53-.21,.85-.41,1.69-.64,2.53-.93,3.43-1.83,6.87-2.82,10.28-.15,.53,.18,1.25-.53,1.6-.22-.53-.25-1.22-1.07-1.24-.26-.25-.16-.59-.2-.89-.2-1.55-.32-3.13-.64-4.65-.41-1.96-.61-3.94-.79-5.92,.28-.25,.29-.48-.01-.72l-.23-1.21-.27-.28c.05-.5-.16-1.1,.5-1.39Z"/><path class="cls-4" d="M100.46,17.67c-.65,.29-.44,.88-.5,1.39,0,.09-.01,.18-.02,.26-.21,.55-.48,1.09-.63,1.66-1.02,3.92-1.96,7.86-3.05,11.77-.2,.71-.09,1.62-.83,2.15-.31,.08-.62,.17-.93,.25-.54-1.24-.52-2.55-.53-3.86l.63,.06,.12,1.63c.02,.37-.15,.81,.41,1.07l.07-.82c.52-1.9,1.07-3.8,1.55-5.71,.56-2.25,.95-4.56,1.63-6.77,.37-1.2,.43-2.55,1.32-3.57,.23,.04,.43,0,.59-.19h.03c.05,.23,.1,.47,.14,.71Z"/><path class="cls-5" d="M94.59,31.33c-.21-.02-.42-.04-.63-.06-.21-.47-.39-.93-.47-1.46-.61-3.96-1.27-7.92-1.9-11.88-.08-.53-.31-.3-.55-.17-.11-.35-.32-.52-.7-.37l.04-1.14c.33,0,.67,.01,1,.02-.39,.77,.67,.72,.74,1.31,.1,.93,.53,1.83,.61,2.76,.27,3.13,1.22,6.15,1.5,9.28,.05,.59,.49,1.09,.36,1.72Z"/><path class="cls-5" d="M100.28,16.96c-.16,.19-.36,.23-.59,.19,0-.14,.02-.28,.03-.41,.23-.03,.42,.03,.57,.22Z"/><path class="cls-4" d="M72.14,28.65c-.21,0-.43,0-.64,0,.35-.84-.03-1.8,.42-2.62,.19,0,.38,0,.57,.01-.12,.87-.23,1.74-.35,2.61Z"/><path class="cls-5" d="M127.76,32c.72-2.47,1.44-4.93,2.17-7.4,.19,.19,.38,.38,.57,.56-.09,.47-.16,.94-.28,1.4-.56,2.06-1.13,4.11-1.7,6.16l-.76-.06,.02-.66Z"/><path class="cls-9" d="M121.99,21.7c.1-.39-.12-.85,.29-1.15,1.16,1.14,.83,2.79,1.4,4.14,.23,.55,.18,1.22,.26,1.84-.16-.08-.32-.17-.49-.25-.39-.34-.36-.83-.49-1.28-.32-1.1-.03-2.38-.97-3.29Z"/><path class="cls-9" d="M127.76,32c0,.22-.01,.44-.02,.66-.46,.38-.33,1.05-.71,1.46l-1.4-.45c.07-.69-.59-1.2-.48-1.91,.85,.3,1.72,.4,2.61,.23Z"/><path class="cls-5" d="M123.45,26.27c.16,.08,.33,.17,.49,.25,.25,1.53,.94,2.96,.96,4.54h-.43c-.55-1.55-.9-3.14-1.01-4.79Z"/><path class="cls-4" d="M124.46,31.07h.43c.03,.25,0,.53,.25,.7-.11,.7,.55,1.21,.48,1.91,0,.24,.01,.47,.02,.71l-.52,.04-.45-.04c-.08-.39,.51-.8-.02-1.19l-.24-.96,.05-1.18Z"/><path class="cls-4" d="M130.5,25.16l-.57-.57c.02-.32,.03-.63,.05-.95,.36-.43,.08-1.24,.83-1.45,.11,.1,.22,.2,.33,.29-.07,.47-.15,.94-.22,1.41l-.42,1.26Z"/><path class="cls-15" d="M73.63,49.92c-.14-.54-.32-1.08-.25-1.66,1.19-.63,2.43-1.22,2.41-2.86,.23,.08,.46,.15,.7,.23l-.22,.95c-.18,.15-.25,.34,.02,.44,1.37,.54,2.76,.36,4.14,.09,.36-.07,.62-.34,.63-.75,.71,.05,.78-.42,.7-.93-.13-.81-.31-1.62-.47-2.43,.16-.27,.42-.24,.67-.23-.07,.7,.34,1.27,.53,1.89-.37,.38-.27,.62,.23,.73h0v.95c-.46-.01-.83,.09-.61,.67,.42,1.11-.15,1.35-1.09,1.24-1.41-.17-2.79-.24-4.06,.59-.3,.2-.77,.27-1.01,.02-1.19-1.29-.92,.1-1.13,.59h0c-.45,.01-.66,.63-1.19,.47h0Z"/><path class="cls-15" d="M72.42,47.77c.4,.57,.32,1.08-.16,1.58-.45,.47-.93,.38-1.41,.13-.48-.25-.98-.29-1.51-.28-.73,0-1.59,.25-1.52-1.02,.03-.46-.4-.44-.7-.26-.76,.45-1.09,.15-1.17-.63,1.06,.1,1.92-.03,1.67-1.44l.23-.24c.06,1.68,.94,2.52,2.63,2.5,.04,0,.07,.03,.11,.05,.72,.37,1.35,.33,1.83-.4Z"/><path class="cls-13" d="M72.42,47.77c-.48,.72-1.11,.77-1.83,.4-.04-.02-.07-.05-.11-.05-1.69,.02-2.57-.82-2.63-2.5,0-.4,0-.8,0-1.2,.32-.36,.12-.93,.52-1.25h.45v1.03c-.44,.75-.21,1.59-.32,2.38-.04,.3,.14,.41,.42,.41,1.09,.02,2.17,.05,3.26,.07l.25,.24v.47Z"/><path class="cls-13" d="M75.78,45.4c.02,1.64-1.22,2.23-2.41,2.86,0-.08,0-.15-.01-.23-.15-.65-.3-1.29-.46-1.94,1.16,.6,1.97-.23,2.87-.71h.01Z"/><path class="cls-15" d="M64.77,46.81c.4,.39,.14,.74-.12,1.03-.27,.31-2.8,.36-3.19,.16-.43-.23-.27-.6-.32-.93h.01c.55,0,1.09,.03,1.65,.16,.67,.16,1.43,.27,1.96-.41Z"/><path class="cls-13" d="M64.77,46.81c-.53,.69-1.29,.57-1.96,.41-.55-.13-1.09-.15-1.65-.17,0-.26-.05-.54,.24-.71,.99,.16,2-.51,3,.05,.04,.03,.23-.19,.34-.3l.02,.26v.46Z"/><path class="cls-13" d="M67.62,45.86c.24,1.41-.61,1.54-1.67,1.44-.16-.32-.32-.64-.48-.96l.02-.97c.7,.19,1.26,1,2.13,.49Z"/><path class="cls-15" d="M65.49,45.37l-.02,.97c-.24,0-.47,0-.71,.01,0-.09-.01-.17-.02-.26,0-.98,.08-1.96-.45-2.86,0-.31,.01-.62,.02-.93,.23-.01,.46-.02,.68-.04,.01,.16,.02,.32,.03,.48,.17,.55,.1,1.17,.45,1.67l.02,.94Z"/><path class="cls-15" d="M72.9,46.1c.15,.65,.31,1.29,.46,1.94-.54,.04-.38-.8-.94-.73l-.25-.24c-.08-.88-.15-1.75-.23-2.63,0-.32,.18-.46,.48-.48l.23,.25c.03,.64-.12,1.3,.25,1.9Z"/><path class="cls-14" d="M74.81,49.45c.22-.49-.06-1.88,1.13-.59,.24,.26,.71,.18,1.01-.02,1.27-.83,2.65-.76,4.06-.59,.94,.11,1.51-.12,1.09-1.24-.22-.58,.15-.68,.61-.67l.48,.95c-.31,.55-.3,.89,.47,1.02,.55,.1,1.01,.3,.98-.54,.01-.26-.04-.54,.24-.72,.24,0,.47,0,.71,0,0,.08,0,.15,0,.23-.21,.43-.47,.94-.05,1.29,.36,.31,.88,.2,1.32-.06,.16-.09,.35-.18,.53-.18,1.48,0,1.48,0,1.07-1.53-.07-.56,.2-1.16-.21-1.68l-.04-.46c.13-.41-.29-1.05,.49-1.2l.44,1.22,.07,1.86c.49,1.56,.71,1.72,1.57,1.19,.56-.34,1-1.52,1.85-.32,.03,.04,.28-.08,.44-.11,.57-.1,1.11-.27,1.7,.09,.47,.28,1.04-.03,1.43-.28,.33-.2,.28-.7-.05-1.03,.27-.64-.06-1.27,0-1.91h.68l.03,1.19c.11,.29,.22,.58,.32,.88,.22,.69,.72,.92,1.38,.78,.9-.19,.93-.93,.93-1.66,0-.07,0-.15,.02-.22,.21,.03,.45,.1,.43,.32-.14,1.19,.64,1.17,1.43,1.09,2.66-.29,2.68,.24,2.2-2.63-.25-1.19-.45-2.38-.28-3.61,.05-.32,0-.7,.51-.66-.03,.95,.03,1.9,.27,2.83,.03,.67,.22,1.3,.47,1.92l.22,1.45c-.33,0-.7,0-.68,.46,.07,1.59-1.13,1.7-2.23,1.91-1.22,.24-2.48-.37-3.72,.21-.44,.21-.5-.34-.59-.68-.07-.24-.24-.42-.52-.42-.32,0-.32,.26-.4,.49-.21,.65-1.92,1.51-2.46,1.13-.8-.56-1.79,.31-2.58-.52-.17-.18-.45,.74-.47,1.24-.61-.07-1.25-.02-1.5-.85-.11-.39-.24-.35-.65,.38-1.22,.83-2.48,1.39-3.9,.43-.28-.19-.46-.06-.58,.15-.19,.32-.48,.38-.81,.37,0-.08,0-.16-.02-.23,.05-.33-.03-.63-.2-.91-.12-.2-.21-.46-.5-.42-.26,.04-.19,.3-.24,.48-.23,.8-1.12,1.11-1.91,1.04-1.17-.1-2.37-.47-3.54,.05-.65,.29-1.24,.35-1.65-.35-.19-.33-.47-.39-.8-.38Z"/><path class="cls-14" d="M73.63,49.92c.52,.16,.73-.46,1.19-.47-.13,.42-.07,1.01-.59,1.14-.4,.1-.59-.27-.6-.67Z"/><path class="cls-13" d="M34.31,44.9c.7-.59,1.91-.5,2.15-1.77,.05-.3,.91-.23,1.34-.09,2.37,.78,4.98,.55,7.24,1.8,.16,.09,.42,.12,.58,.05,1.09-.51,1.94,.19,2.86,.53,.11,.04,.25,.18,.3,.15,1.35-.82,2.84,.27,4.2-.34,.23-.1,.51-.12,.66,.1,1.02,1.48,2.32,.47,3.47,.33,.92-.11,1.66-1.12,2.77-.57,.25,.12,.42-.46,.8-.42q-.49,1.89-2.39,1.68c-.2-.02-.45-.09-.59,0-1.31,.84-2.95,.46-4.28,1.16-.33,.18-.6,.21-.88,.04-1.42-.82-3.15-.48-4.6-1.18-.07-.03-.16-.04-.24-.03-2.24,.32-4.25-.72-6.38-1.06-.89-.14-1.65-.47-2.45-.97-1.14-.71-2.33,.08-3.31,.77-.58,.41-.91,.36-1.25-.19Z"/><path class="cls-12" d="M64.29,43.24c.53,.89,.45,1.88,.45,2.86-.12,.1-.3,.32-.34,.3-1-.56-2.01,.11-3-.05,0-.62,0-1.24,0-1.86,0-.36,.01-.72-.48-.77,0-.24-.01-.48-.02-.72,.16-.32,.33-.63,.49-.95,.1,0,.2,.01,.3,.02,.19,1.1,.69,1.7,1.91,1.22,.2-.08,.46-.03,.69-.04Z"/><path class="cls-8" d="M60.9,42.99c0,.24,.01,.48,.02,.72,0,.08,0,.16-.02,.23-1.35,.12-2.71-.19-4.06,.57-.5,.29-1.88,.4-2.39-.76,.78-.34,1.55-.68,2.33-1.01,1.37,.08,2.74,.17,4.11,.25Z"/><path class="cls-3" d="M72.14,28.65c.12-.87,.23-1.74,.35-2.61,.33-.24,.56-.52,.64-.95,.48-2.55,.98-5.1,1.49-7.65,.02-.1,.12-.19,.35-.58,.33,1.5,.6,2.76,.88,4.02,.53,2.38,1.41,4.68,1.72,7.1,.18,1.4,.78,2.67,1.11,4.01-.01,.8-.02,1.6-.03,2.4-.79,1.33-.8,2.88-1.16,4.33l-.09,.44c-.19,.05-.46,.04-.54,.16-.52,.74-1.23,.82-2.09,.96-1.06,.17-1.84-.7-2.83-.41-.59-1.45-.29-3.14-1.17-4.52l.08-1.65c.85-1.08,.73-2.44,1.06-3.66,.12-.45,.15-.93,.21-1.4Z"/><path class="cls-3" d="M79.67,32.06c.89-1.05,.79-2.41,1.11-3.64,.79-3.04,1.5-6.1,2.25-9.16,.05-.21,.1-.48,.48-.52,.52,1.09,.34,2.38,.89,3.47-.05,.92,.16,1.81,.3,2.71,.28,1.87,.8,3.7,.97,5.6,.19,2.04,.53,4.06,1.12,6.04-.12,.47,.15,.99-.21,1.43-.93,.25-1.81,1.07-2.85,.27-.05-.04-.23,.04-.33,.1-.78,.53-1.58,.32-2.38,.1l-.49-1.19c-.11-1.08-.44-2.11-.74-3.14-.14-.69-.25-1.38-.13-2.08Z"/><path class="cls-4" d="M86.8,36.56c-.58-1.97-.93-4-1.12-6.04-.18-1.9-.7-3.72-.97-5.6-.13-.9-.34-1.79-.3-2.71,.16-.08,.32-.17,.48-.25,.93,3.86,1.6,7.78,2.21,12.02,.89-2.86,.9-5.59,1.64-8.17,.24-.01,.48-.02,.71-.03,.25,1.15-.56,2.1-.53,3.26,.04,1.69-.75,3.32-.75,5.04,0,.46-.19,.76-.69,.81-.48,0-.8,.12-.57,.7,.14,.34,.21,.69-.13,.98Z"/><path class="cls-4" d="M79.67,32.06c-.12,.7-.01,1.39,.13,2.08-.38,.09-.76,.17-1.14,.26,.01-.8,.02-1.6,.03-2.4,.33,0,.7-.79,.98,.06Z"/><path class="cls-12" d="M141.46,33.67c1.33-.1,2.47,.87,3.81,.72-.08,.4-.16,.79-.25,1.19-.3,.01-.53,.17-.72,.38-.67,.72-1.47,.85-2.38,.58-.18-.47-.13-1.02-.49-1.43l.03-1.44Z"/><path class="cls-14" d="M141.46,33.67c0,.48-.02,.96-.03,1.44-.46,.02-.69,.26-.71,.72-.35,.86-1.06,1.6-.95,2.63-.18,.3-.27,.61-.25,.96l-1.17-.22-.02-.02c.16-.4,.32-.8,.48-1.19,.26-.47,.7-.85,.71-1.44,.16-.39,.44-.78,.44-1.17,.01-.57,1.04-.75,.5-1.46l.04-.47h.92c0,.07,.01,.15,.04,.23Z"/><path class="cls-13" d="M146.92,32.94c.33,.43,.29,.94,.3,1.44,.07,.56,.15,1.12,.22,1.68-.21,1.12-.65,1.87-1.96,1.2,0-.31,.01-.63,.02-.94,.56-.05,1.39,.1,1.33-.68-.03-.45,.31-1.49-.83-1.45-.11-.21-.3-.25-.51-.26-.01-.61,.09-1.19,.51-1.66,.27,.26,.28,.87,.9,.69Z"/><path class="cls-12" d="M144.55,25.32c.34,.52,.44,1.09,.45,1.7-1.03,.07-1.07,.99-1.39,1.65-.14,.28-.17,.74-.56,.57-.36-.16-.59-.68-.26-1,.85-.83,.84-2.15,1.76-2.92Z"/><path class="cls-15" d="M145.5,33.91c.21,.01,.4,.05,.51,.26-.11,.65-.2,1.31-.52,1.91h-.46v-.5c.07-.4,.15-.79,.24-1.19l.23-.48Z"/><path class="cls-14" d="M146.92,32.94c-.62,.19-.63-.42-.9-.69,0-.31,.01-.62,.02-.93,.33-.07,.62,.05,.9,.21,0,.47-.01,.94-.02,1.41Z"/><path class="cls-15" d="M141.43,33.44c-.31,0-.62,0-.92,0-.02-.24-.05-.47-.07-.71l1.47-.02c.03,.36,.02,.7-.47,.72Z"/><path class="cls-13" d="M142.79,30.4c-.07,.03-.13,.05-.2,.08-.03-.07-.09-.15-.07-.19,.02-.05,.12-.06,.19-.08,.03,.07,.05,.13,.08,.2Z"/><path class="cls-9" d="M132.37,23.9c.93,0,1.18,.86,1.65,1.37,.62,.67,1.06,1.5,1.79,2.09,.12,.09,.2,.25,.24,.4,.18,.68-1.23,2.79-2.01,3.03-.56-2.3-1.11-4.59-1.67-6.89Z"/><path class="cls-8" d="M140.44,32.74c.02,.24,.04,.47,.07,.71-.01,.16-.03,.31-.04,.47-1.37,.52-2.9,.33-4.23,.99-.52,.26-.99,.1-1.48-.04l-.25-1.65c.31-.27,.2-.83,.7-.97,1.6,.12,3.16,.78,4.79,.25,.15,.08,.29,.17,.44,.25Z"/><path class="cls-4" d="M135.21,32.24c-.49,.14-.38,.7-.7,.97-.28-.24-.5-.59-.95-.47-.25-.71-.27-1.49-.67-2.15-.04-.99-.25-1.96-.48-2.92-.3-1.23-.67-2.45-.62-3.74,.18-.1,.36-.2,.54-.3,.01,.09,.02,.18,.04,.27,.56,2.3,1.11,4.59,1.67,6.89-.05,.48,.03,.9,.62,.95,.32,.03,.53,.15,.55,.49Z"/><path class="cls-15" d="M166.84,33.68c.56-.76,1.17-1.48,1.66-2.28,.5-.8,.71-.26,1,.13,0,.15,0,.31,0,.46-.8,1.16-1.5,2.44-3.13,2.63-.04-.41,.33-.62,.46-.94Z"/><path class="cls-14" d="M166.38,34.62c1.63-.19,2.33-1.47,3.13-2.63,.67,.17,.61,.87,.84,1.3,.22,.44-.34,.57-.76,.62-1.15,.16-1.41,.45-1.48,1.73-.39-.86-1.47-.08-1.73-1.03Z"/><path class="cls-13" d="M161.81,34.17c.01-.35,.17-.59,.5-.73,.75,.02,1.58,.16,1.68-.96,.38,0,.66,.07,.73,.54,.06,.4,.12,.85,.48,1.14,0,.08,0,.16-.01,.24-1.14-.15-2.24,.21-3.37,.24v-.47Z"/><path class="cls-15" d="M161.81,34.64c1.13-.03,2.23-.39,3.37-.24-.53,1.17-1.98,1.83-3.11,1.41-.08-.39-.17-.79-.25-1.18Z"/><path class="cls-14" d="M157.49,35.6c.33,1.73,.56,1.94,1.94,1.67,.13,.28,.31,.57-.05,.82-.26,.18-.5,.07-.77-.03-.39-.15-.65-.58-1.13-.56-.14-.63-1.03-1.18-.22-1.92,.08,0,.15,.01,.23,.02Z"/><path class="cls-14" d="M161.81,34.64c.08,.39,.17,.79,.25,1.18-.55,.16-1.1,.33-1.68,.26,.39-.7-.1-2.05,1.42-1.91,0,.16,0,.31,0,.47Z"/><path class="cls-15" d="M165.19,34.17c-.36-.3-.42-.74-.48-1.14-.07-.47-.34-.55-.73-.54,0-.32,0-.63,0-.95h.72c0,.33,.16,.58,.48,.71,.24,.4,.19,1.09,.96,.96v.48c-.31,.16-.62,.32-.94,.48Z"/><path class="cls-14" d="M160.99,37.88c-.28,.02-.35-.14-.36-.36,0-.57,.49-.54,.83-.64,.23-.07,.34,.15,.29,.37-.09,.41-.46,.5-.77,.63Z"/><path class="cls-14" d="M165.62,35.77c.05,.1,.14,.19,.14,.29,0,.21-.16,.24-.3,.19-.08-.02-.12-.15-.18-.22l.34-.26Z"/><path class="cls-3" d="M64.54,39.65c-.21-1.4-.35-2.82-.64-4.2-.26-1.24-.05-2.44,.05-3.65,1.21-4.61,1.81-9.36,2.93-14.01,.68,1.47,.68,3.05,.97,4.57,.69,3.55,1.31,7.12,1.96,10.68,.03,.14,.15,.27,.22,.4,0,.64,0,1.27-.01,1.91l-.05,.43-.17,.52c-.72,.91-.38,2.16-.97,3.12-.9-.23-1.74,.19-2.51,.45-.73,.25-1.24,.34-1.78-.22Z"/><path class="cls-4" d="M70.03,35.35c0-.64,0-1.27,.01-1.91,.31-.02,.61,0,.83,.27-.03,.55-.05,1.1-.08,1.65-.25,0-.5,0-.76,0Z"/><path class="cls-15" d="M145.49,37.26c1.31,.67,1.75-.08,1.96-1.2,.16,.16,.31,.32,.47,.49,.07,.72,.62,.88,1.18,.93,.63,.05,.48-.62,.74-.92h0c.76,.34,.54,1.1,.72,1.68-.55,.12-1.1-.17-1.69,.33-.32,.28-1.03-.21-1.03-1.12-.68,.76-1.3,1.36-2.2,.77-.36-.24-.91-.51-.15-.95Z"/><path class="cls-12" d="M155.27,34.84c-.06,.33-.11,.65-.17,.98-.37,.58-.55,1.29-1.19,1.68-1.26-.05-2.18-1.08-1.9-2.15,1.16,.3,2.24,.09,3.26-.51Z"/><path class="cls-13" d="M150.55,38.23c-.18-.59,.04-1.34-.72-1.68,.03-.64,.75-1.01,.7-1.69,.01-.16,.02-.32,.04-.48,.34,.05,.65-.08,.94-.23,.34,.24,.21,.62,.26,.94-.74,.12-.44,.58-.3,.96,.31,.83,.25,1.57-.45,2.18h-.47Z"/><path class="cls-15" d="M151.02,38.24c.7-.61,.77-1.35,.45-2.18-.14-.38-.44-.84,.3-.96,.08,.08,.15,.17,.23,.25-.28,1.07,.64,2.11,1.9,2.15-.06,.27-.07,.55-.18,.8-.23,.52-.52,.89-.93,.12-.11-.2-.21-.45-.52-.38-.2,.04-.24,.19-.18,.36,.16,.48-.14,.53-.5,.54-.5,.01-.58-.3-.57-.7Z"/><path class="cls-13" d="M145.03,35.58v.49c-.64,.47-.67,1.25-.95,1.91-.64-.15-1.28,.49-1.92,0h0c-.07-.48-.33-.93-.23-1.44,.91,.27,1.72,.14,2.38-.58,.19-.21,.42-.37,.72-.38Z"/><path class="cls-13" d="M139.77,38.46c-.11-1.03,.61-1.76,.95-2.63,.88,.51,.37,1.47,.72,2.15v.71h-.48c-.37-.23-.78-.27-1.2-.24Z"/><path class="cls-12" d="M145.49,36.08c.32-.6,.41-1.25,.52-1.91,1.14-.03,.8,1.01,.83,1.45,.05,.78-.78,.64-1.33,.68,0-.08,0-.15-.02-.23Z"/><path class="cls-15" d="M141.44,37.98c-.35-.68,.15-1.65-.72-2.15,.02-.45,.26-.7,.71-.72,.36,.41,.31,.96,.49,1.43-.1,.51,.16,.96,.23,1.44h-.72Z"/><path class="cls-15" d="M142.16,37.98c.64,.49,1.28-.15,1.92,0-.1,.66-.49,.96-1.14,.95-.64,0-.8-.41-.77-.95Z"/><path class="cls-15" d="M139.77,38.46c.42-.03,.83,.01,1.2,.25-.4,.24-.81,.48-1.21,.73-.08,0-.16-.01-.23-.01-.02-.35,.07-.67,.25-.96Z"/><path class="cls-15" d="M148.63,41.8c-.25,.35-.63,.2-.95,.25v-.49h0c.33,.04,.71-.11,.96,.24Z"/><path class="cls-15" d="M141.44,38.7v-.24c.18,.04,.46,.04,.35,.31-.08,.2-.25,.07-.35-.07Z"/><path class="cls-9" d="M117.94,27.26c-.22,0-.45,0-.67,0-.25-.45-.5-.89-.55-1.42-.15-1.84-1.05-3.5-1.37-5.3-.05-.3-.02-.66-.47-.7-.02-.2-.02-.38,.19-.49,1.06-.03,.99,1,1.12,1.51,.5,1.88,1.12,3.72,1.62,5.6,.07,.26,.09,.54,.13,.8Z"/><path class="cls-10" d="M83.68,50.17c.33,.01,.61-.05,.81-.37,.12-.21,.3-.34,.58-.15,1.42,.95,2.67,.4,3.9-.43,.07,1.06-.37,1.67-1.5,1.69-.22,0-.46,.13-.66,.25-.34,.22-.48,.84-1.04,.61-.66-.26-1.31-.57-1.92-.93-.14-.08-.11-.44-.16-.67Z"/><path class="cls-12" d="M150.54,34.86c.04,.68-.67,1.04-.7,1.69h0c-.64,0-1.28,0-1.92,0-.16-.16-.31-.32-.47-.49-.07-.56-.15-1.12-.22-1.68,.98,.85,2.26,1.04,3.31,.49Z"/><path class="cls-13" d="M149.84,30.09h.49c.53,.25,.46,.74,.47,1.19,.08,.4,.16,.79,.24,1.19-.16,0-.33,0-.49,.01-.67-.67-.5-1.59-.71-2.39Z"/><path class="cls-15" d="M150.55,32.49c.16,0,.33,0,.49-.01,.16,0,.32,0,.49,0,0,.56,0,1.12-.01,1.69-.3,.15-.6,.28-.94,.23,0-.63-.02-1.27-.02-1.9Z"/><path class="cls-14" d="M147.67,41.56v.49c-.57,.4-1.28,.34-1.9,.59-.08-.02-.16-.04-.24-.06,.43-.94,1.25-1.04,2.14-1.01Z"/><path class="cls-11" d="M92.79,50.17c.56-.47,1.22-.19,1.84-.23,.83-.05,1.67,.04,2.48-.25-.4,1.24-1.54,.62-2.31,.81-.52,.13-1.19-.28-1.79,.07l-.21-.39Z"/><path class="cls-8" d="M27.6,40.13c1.34-.1,2.62,.15,3.82,.74-.07,.97-1,1.37-1.43,2.11-.2,0-.38-.03-.48-.22,.84-1.08,.79-1.28-.58-1.64-.6-.16-1.12-.34-1.33-.99Z"/><path class="cls-3" d="M103.17,33.97c.71-.35,.38-1.07,.53-1.6,.99-3.41,1.89-6.85,2.82-10.28,.23-.84,.44-1.69,.64-2.53,.06-.23,.07-.53,.36-.53,.29,0,.35,.28,.36,.52,.14,3.52,1.18,6.9,1.59,10.38,.1,.84,.49,1.56,.79,2.32-.02,.89-.16,1.75-.53,2.57-.25,.11-.52,.21-.22,.54-.01,.13-.02,.27-.03,.4-.13,.03-.26,.07-.39,.1-1.47-.23-2.94,.06-4.37,.28-.76,.12-1.12-.13-1.54-.56l-.02-1.6Z"/><path class="cls-3" d="M114.88,19.84c.45,.03,.42,.39,.47,.7,.31,1.8,1.21,3.46,1.37,5.3,.04,.53,.3,.97,.55,1.42,.09,1.41,.82,2.67,.98,4.07-.01,.22-.03,.44-.04,.67v.25l-.21,.5c-.16,0-.39-.06-.46,.02-.9,1-2.74,.25-3.35,1.81-.05,.13-.42,.15-.65,.22-.75,.2-1.5,.1-2.26,.07-.35-1.97,.5-3.74,.99-5.55,.78-2.9,1.69-5.76,2.53-8.64,.08-.26,.06-.55,.08-.83Z"/><path class="cls-9" d="M111.28,34.86c.75,.04,1.51,.13,2.26-.07,.22-.06,.59-.08,.65-.22,.6-1.56,2.45-.81,3.35-1.81,.07-.08,.31-.02,.46-.02-.1,.71-.2,1.42-.3,2.12l-.4,.53c-.35-.2-.7-.38-1.1-.11-1.44,.95-3.01,1.16-4.67,.77l-.25-1.19Z"/><path class="cls-12" d="M111.2,38.42l.26,.04c.09,1.11,.17,2.23,.26,3.34-.97,.81-2.21,.66-3.33,.94,.26-1.49,.63-2.95,1.37-4.28l1.44-.04Z"/><path class="cls-8" d="M111.97,38.46c0-.4,0-.79,0-1.19,1.69-.25,3.4-.44,5.05-.91,.23,.87-.48,1.52-.53,2.32-1.44,.04-2.76,1.13-4.28,.48l-.25-.71Z"/><path class="cls-15" d="M111.97,38.46c.08,.24,.17,.47,.25,.71,.04,.82,.15,1.64,.46,2.41,0,1.17,.57,1.44,1.67,1.21,.59-.12,.83-.75,1.43-.75-.04,.59-.66,1.03-.45,1.69-.08,.23-.17,.47-.25,.7-1.03,.05-2.02,.04-2.32-1.26-.09-.38-.43-.42-.77-.39-.06-.33,.1-.72-.26-.97-.09-1.11-.17-2.23-.26-3.34h.51Z"/><path class="cls-6" d="M117.02,36.36c-1.65,.47-3.36,.66-5.05,.91-.39-.32-.52-.73-.45-1.22,1.67,.39,3.23,.19,4.67-.77,.4-.26,.75-.08,1.09,.11-.04,.34,.01,.7-.27,.96Z"/><path class="cls-15" d="M109.76,38.46c-.74,1.34-1.11,2.79-1.37,4.28l-.24,.25c-.24,0-.48,.01-.72,.01,0-.24,0-.48,0-.72,.48-1.31,.93-2.64,1.21-4.01,.14-.42,.29-.83,.43-1.25,.03-.06,.05-.13,.06-.2,.31,.12,.44,0,.43-.32,.12,.01,.25,.02,.37,.03-.05,.64-.11,1.28-.16,1.92Z"/><path class="cls-6" d="M109.76,38.46c.05-.64,.11-1.28,.16-1.92,.23-.28,.08-.92,.65-.84,.53,.08,.39,.6,.42,.97,.06,.58,.35,1.14,.21,1.74-.48,.01-.96,.03-1.45,.04Z"/><path class="cls-5" d="M109.55,36.51c.02,.32-.11,.44-.43,.32,0-.32-.01-.65-.02-.97,.13-.03,.26-.07,.39-.1,.02,.25,.04,.5,.06,.75Z"/><path class="cls-5" d="M109.52,35.36c-.3-.33-.03-.43,.22-.54,.05,.23,.02,.43-.22,.54Z"/><path class="cls-8" d="M24.73,39.43c.56,.49,1.41-.27,1.92,.45-.72,.18-1.47,.49-1.92-.45Z"/><path class="cls-8" d="M21.14,39.18c.65,.1,1.42-.35,1.9,.46-.66-.04-1.4,.25-1.9-.46Z"/><path class="cls-8" d="M151.51,34.16c0-.56,0-1.12,.01-1.69,1-1.21,.75-2.87,1.58-4.26,.93,.97,.85,2.39,1.72,3.31,.02,.43,.08,.85,.29,1.23,.38,.67,.47,1.37,.15,2.09-1.02,.6-2.1,.8-3.26,.51-.08-.08-.15-.17-.23-.25-.05-.32,.08-.7-.26-.94Z"/><path class="cls-12" d="M160.12,32.49c.08,.4,.17,.79,.25,1.19-1.19-.3-2.22,.57-3.38,.49-.14-1.18,.43-2.14,.97-3.11,.21-.38,.33-.8,.49-1.2,.66,.1,.59,.71,.82,1.13,.28,.5,.08,1.28,.84,1.52Z"/><path class="cls-13" d="M156.99,34.16c1.16,.08,2.18-.79,3.38-.49-.02,1.03-.83,1.87-1.83,1.92-.35,.01-.7,0-1.05,0-.08,0-.15-.01-.23-.02-.11-.47-.77-.84-.27-1.42Z"/><path class="cls-13" d="M160.12,32.49c-.76-.24-.56-1.01-.84-1.52-.23-.41-.16-1.03-.82-1.13,.03-.47,.37-.47,.71-.47,.84,.87,1.11,2,1.46,3.1-.17,0-.34,0-.5,.01Z"/><path class="cls-3" d="M124.46,31.07c-.02,.39-.03,.79-.05,1.18-.94,.02-1.87-.57-2.78-.19-.77,.32-1.48,.38-2.26,.19l-.03-1.67c.76-2.59,1.76-5.12,2.16-7.81,.06-.4,.17-.78,.47-1.07,.94,.91,.65,2.19,.97,3.29,.13,.45,.1,.94,.49,1.28,.11,1.65,.46,3.24,1.01,4.8Z"/><path class="cls-15" d="M119.36,30.58c0,.56,.02,1.11,.03,1.67,.02,.47,.05,.95,.07,1.42-.1,0-.2,0-.3,0-.01-.29-.14-.47-.46-.44-.36-.26-.19-.66-.26-.99l-.23-.24c.01-.22,.03-.44,.04-.67,.6,.1,.28-1.18,1.11-.74Z"/><path class="cls-13" d="M166.13,33.2c-.77,.12-.72-.56-.96-.96,.56-.15,1.13-.3,1.69-.46-.03,.58-.2,1.09-.73,1.42Z"/><path class="cls-13" d="M164.69,31.53h-.72c-.04-.19-.35-.48-.06-.58,.4-.13,.72,.12,.78,.58Z"/><path class="cls-13" d="M160.85,32.5c.16,0,.33,0,.49,0-.06,.22,.11,.61-.29,.57-.24-.02-.17-.36-.2-.57Z"/><path class="cls-13" d="M192.98,27.73c-.11-1.11-.99-2.11-.49-3.32,.66,.22,.62,.89,.78,1.36,.22,.64,.52,1.2,.9,1.74-.35,.33-.8,.15-1.19,.22Z"/><path class="cls-3" d="M131.79,23.93c-.06,1.29,.32,2.51,.62,3.74,.23,.96,.44,1.93,.48,2.92-.55-.06-.62,.56-1.02,.71-.3,.12-.17,.68-.6,.62-1.09-.13-1.9,.47-2.73,1.01,0-.07-.02-.15-.03-.22,.57-2.05,1.14-4.1,1.7-6.16,.12-.46,.19-.93,.28-1.4,.14-.42,.28-.84,.42-1.26,.24-.04,.51,.05,.68-.19l.19,.23Z"/><path class="cls-5" d="M131.6,23.71c-.18,.24-.45,.16-.68,.19,.07-.47,.15-.94,.22-1.41,.81,.16,.38,.78,.46,1.22Z"/><path class="cls-14" d="M47.48,40.16c3.37,.16,6.73,.32,10.19,.48-.33,.78-.97,1.07-1.61,.89-2.13-.6-4.33-.13-6.48-.53-1.11-.21-2.31,.05-3.47,.08-.46,.01-.99,.14-1.22-.47,.9,.04,1.79,.03,2.6-.45Z"/><path class="cls-4" d="M47.48,40.16c-.81,.48-1.7,.49-2.6,.45-.13-.14-.36-.27-.37-.42-.03-.37,.31-.27,.51-.26,.82,.06,1.64,.15,2.46,.23Z"/><path class="cls-6" d="M65.02,42.76c-.01-.16-.02-.32-.03-.48,0-.39,0-.79-.01-1.18,1.27-.25,2.54-.49,3.81-.74l.03,.02c-.18,.6-.31,1.21-.27,1.85l-.23,.29c-1.11-.14-2.16,.63-3.3,.24Z"/><path class="cls-9" d="M68.79,40.36c-1.27,.25-2.54,.49-3.81,.74-.28-.44-.61-.87-.44-1.45,.54,.56,1.04,.47,1.78,.22,.77-.26,1.61-.68,2.51-.45l-.04,.94Z"/><path class="cls-9" d="M62.36,42.04c.23-.55-.55-1.12,.03-1.67,.5-.16,1.15-.04,1.39-.71,.47,.67,.12,1.43,.25,2.14-.49,.52-1.03,.71-1.66,.24Z"/><path class="cls-3" d="M63.78,39.66c-.24,.67-.89,.55-1.39,.71,.07-.56,.13-1.11,.2-1.67,.34-.45-.12-1.41,.91-1.42,.01,.8,.39,1.56,.28,2.38Z"/><path class="cls-6" d="M62.36,42.04c.63,.47,1.17,.28,1.66-.24,.09,.17,.19,.34,.28,.51,0,.31-.01,.62-.02,.93-.23,0-.49-.04-.69,.04-1.22,.48-1.72-.11-1.91-1.22,.23,0,.45-.01,.68-.02Z"/><path class="cls-14" d="M138.35,39.2c-.09,.95-.46,1.66-1.53,1.8-.74,.09-1.32,.41-1.97,.82-.66,.42-1.79,.23-2.71,.46-.53,.13-1.09,.47-1.43-.43-.17-.47-.55-.1-.65,.21-.15,.45-.5,.65-.81,.96-.8,.8-1.34,.86-1.75-.3-.06-.18-.22-.37-.44-.31-.31,.08-.19,.38-.24,.6-.08,.38,.59,.95-.09,1.09-.43,.09-.88-.43-1.08-.94-.08-.21-.01-.51-.33-.57-.41-.07-.36,.33-.51,.53-.5,.72-.9,1.62-2.06,1.31-.08-.48-.16-.95-.24-1.43,.47,0,.92,.03,1.22-.5,.25-.43,.45-1,1.21-.82,.22,.05,.18-.37,.2-.59,.14-.33,.52-.54,.48-.96,.43-.65,.18-1.45,.44-2.14,0-.52,.23-.79,.78-.73,0,.71-.01,1.43-.02,2.14,0,1.65,.91,2.2,2.37,1.51,.61-.29,1.42-.12,1.82-.91,.1-.2,.4,.02,.62,.12,1.09,.54,2.64,.13,3.38-.9,.18-.25,.36-.28,.6-.2,.89,.3,1.81,.08,2.72,.15l.02,.02Z"/><path class="cls-14" d="M107.42,43.01c.24,0,.48-.01,.72-.02,0,.32-.01,.64-.02,.96-.42,.43-.68,.88-.13,1.41,.56,.53,.79,0,1.13-.31,.48-.43,1.09-.45,1.68-.37,.98,.13,1.28-.31,1.15-1.21l.02-.7c.34-.03,.68,0,.77,.39,.3,1.31,1.29,1.32,2.32,1.26-.61,1.25-.95,1.39-1.94,.69-.38-.27-.51-.09-.77,.16-.73,.7-1.41,1.54-2.66,1.13-.21-.07-.52,.15-.77,.26-1.5,.6-1.52,.59-1.94-.91-.53,.16-.45,.69-.66,1.03-.29,.46-.74,.66-1.23,.48-.37-.13-.7-.43-.33-.91,1.06-.64,2.38-1.05,2.41-2.63,.26-.17,.22-.45,.24-.71Z"/><path class="cls-14" d="M115.32,43.72c-.21-.66,.41-1.09,.45-1.69,.03-.26,0-.54,.26-.72h.5v1.2c-.25,.93-.03,1.06,1.11,.94,1.25-.13,2.39-.78,3.68-.69,.56,1.43,.48,1.66-.74,1.37-.92-.21-1.65-.16-2.43,.28-.83,.47-1.61,.51-2.2-.43-.13-.21-.37-.28-.62-.28Z"/><path class="cls-15" d="M121.32,42.77c-1.29-.09-2.43,.55-3.68,.69-1.14,.12-1.36-.01-1.12-.94,1.52-.16,3.03-.32,4.55-.48h.25v.73Z"/><path class="cls-13" d="M125.62,40.13c.04,.42-.34,.63-.48,.96-1.13,0-2.12,.43-3.09,.94-.07,0-.15-.02-.22-.02,.07-.39,.13-.77,.2-1.16,.63-.18,1.13-1.1,1.7-.82,.7,.35,1.27,.11,1.89,.1Z"/><path class="cls-15" d="M107.18,43.72c-.03,1.58-1.35,1.99-2.41,2.63,0-.16,0-.31-.01-.47-.07-.48-.15-.96-.22-1.45,.99,.17,1.85-.16,2.64-.71Z"/><path class="cls-15" d="M122.05,42.02c.97-.51,1.96-.94,3.09-.94-.02,.22,.02,.64-.2,.59-.76-.18-.97,.39-1.21,.82-.3,.52-.75,.5-1.22,.5-.3-.26-.46-.58-.46-.97Z"/><path class="cls-14" d="M122.03,40.85c-.07,.39-.13,.77-.2,1.16-.17,.01-.34,.02-.52,.04h-.25c.02-.42,0-.83-.24-1.2l-.28-2.12c.12-.2,.31-.27,.53-.27-.12,.97,.56,1.63,.96,2.39Z"/><path class="cls-5" d="M95.19,33.21l-.07,.82c-.56-.26-.39-.7-.41-1.07l.48,.25Z"/><path class="cls-4" d="M90.34,17.39c.38-.14,.59,.02,.7,.37-.51,2.17-1.01,4.35-1.16,6.58l-.74,.02c.16-2.36,.44-4.71,1.19-6.97Z"/><path class="cls-5" d="M89.15,24.36c.25,0,.49-.01,.74-.02,.18,.57-.57,.87-.43,1.43-.24,.01-.48,.02-.71,.03,.09-.5,.13-1,.41-1.45Z"/><path class="cls-3" d="M95.43,34.89c.74-.53,.63-1.44,.83-2.15,1.09-3.9,2.04-7.84,3.05-11.77,.15-.57,.42-1.1,.63-1.66,.09,0,.19,0,.28,.01l.23,1.21c-.31,.25-.31,.48,.01,.72,.17,1.99,.37,3.96,.79,5.92,.32,1.53,.44,3.1,.64,4.65,.04,.31-.06,.64,.2,.89,.17,.76,.32,1.53,.2,2.32-.7,.39-.3,1.21-.67,1.73-.96-.17-2.03,.5-2.91-.41-.18-.18-.49,.16-.71,.32-.81,.56-1.64,.76-2.49,.09l-.06-1.49v-.39Z"/><path class="cls-4" d="M102.3,35.05c.13-.79-.03-1.55-.2-2.32,.82,.02,.84,.72,1.06,1.24,0,.53,.01,1.07,.02,1.6,.16,.79,.31,1.58,.47,2.37-.13,.35,.18,.63,.17,.96l-.04,.78c-.51-.04-.47,.34-.51,.66-.14-.07-.29-.14-.44-.21,0-.48-.01-.96-.02-1.45,.11-1.25-.5-2.4-.53-3.64Z"/><path class="cls-9" d="M100.48,21.26c-.32-.23-.33-.47-.01-.72,.3,.23,.3,.47,.01,.72Z"/><path class="cls-9" d="M100.23,19.33c-.09,0-.19,0-.28-.01,0-.09,.01-.18,.02-.26,.09,.09,.18,.18,.27,.28Z"/><path class="cls-3" d="M89.46,25.78c-.14-.56,.61-.86,.43-1.43,.15-2.23,.65-4.41,1.16-6.58,.24-.13,.47-.36,.55,.17,.63,3.96,1.29,7.92,1.9,11.88,.08,.52,.26,.99,.47,1.46,.01,1.31-.01,2.63,.53,3.86-.16,.72,.21,1.54-.39,2.18-1.1-.21-1.93,.67-3.1,.67-1.35,0-2.55,.28-3.46-.97l-.05-2.13c.49-.05,.69-.35,.69-.81,0-1.73,.78-3.35,.75-5.04-.03-1.16,.78-2.11,.53-3.26Z"/><path class="cls-15" d="M94.11,37.33c.6-.65,.23-1.46,.39-2.18,.31-.08,.62-.17,.93-.25,0,.1,0,.19,.01,.29-.05,.02-.1,.04-.15,.06l.15,.05c.02,.5,.04,.99,.06,1.49-.04,.23-.08,.47-.12,.7-.65,.02-.66,.79-1.17,.98h0l-.23-.23,.12-.9Z"/><path class="cls-4" d="M128.51,32.72c.01,.07,.03,.15,.03,.22-.32,.43-.63,.87-.51,1.45-.08,.24-.16,.48-.24,.71l-.75-.02v-.97c.38-.41,.25-1.08,.71-1.46,.25,.02,.51,.04,.76,.06Z"/><path class="cls-6" d="M127.03,34.12c0,.32,0,.64,0,.97-.6,.7-1.02,.76-1.18-.3-.02-.14-.13-.27-.2-.4,0-.24-.01-.47-.02-.71,.47,.15,.93,.3,1.4,.45Z"/><path class="cls-9" d="M119.45,33.67c-.02-.47-.05-.95-.07-1.42,.77,.19,1.49,.13,2.26-.19,.9-.38,1.84,.21,2.78,.19,.08,.32,.16,.64,.24,.96-1.44,.49-3.02,.54-4.31,1.44-.3-.33-.59-.65-.89-.98Z"/><path class="cls-13" d="M125.65,34.39c.07,.13,.18,.26,.2,.4,.16,1.06,.58,1,1.18,.3,.25,0,.5,.01,.75,.02-.16,.72-.33,1.44-.49,2.16h-.45c-.55-.06-.78,.21-.78,.73-.6-.16-.56-.72-.65-1.15-.1-.49,.04-1.03-.28-1.49v-.93l.52-.04Z"/><path class="cls-8" d="M125.13,34.43c0,.31,0,.62,0,.93-.86,.29-1.65,1.18-2.67,.33-.09-.07-.42,.14-.63,.24-.39,.18-.76,.42-1.22,.37-.02-.22-.05-.43-.07-.65,.8-.25,1.59-.49,2.28-1.03,.5-.39,1.18-.61,1.85-.24l.45,.04Z"/><path class="cls-5" d="M124.68,34.39c-.68-.38-1.35-.15-1.85,.24-.7,.54-1.48,.78-2.28,1.03-.06-.02-.13-.04-.19-.06v-.95c1.29-.9,2.88-.95,4.31-1.44,.53,.39-.06,.79,.02,1.19Z"/><path class="cls-8" d="M82.48,44.67c-.19-.63-.6-1.19-.53-1.89-.15-.63-.29-1.26-.44-1.9,1.5-.34,2.87,.54,4.34,.46l-.46,2.63v.47c-.22,.1-.26,.28-.23,.48-.01,.08-.03,.15-.04,.23l-2.4,.25h0c0-.27,.06-.55-.23-.73Z"/><path class="cls-12" d="M81.28,43c.16,.81,.34,1.61,.47,2.43,.08,.51,0,.98-.7,.93-.33-.39-.71-.49-1.24-.38-1.17,.25-2.36,.41-3.55,.6,.07-.32,.15-.64,.22-.95,.54-.62-.05-1.6,.71-2.15,1.32,.08,2.59-.19,3.86-.48,.08,0,.16,0,.23,0Z"/><path class="cls-13" d="M76.26,46.58c1.18-.19,2.38-.35,3.55-.6,.54-.12,.91,0,1.24,.38-.02,.41-.27,.68-.63,.75-1.38,.27-2.78,.44-4.14-.09-.26-.1-.2-.29-.02-.44Z"/><path class="cls-13" d="M77.19,43.47c-.76,.55-.17,1.53-.71,2.15-.23-.08-.46-.15-.7-.23h-.01c.19-.63,.3-1.26,.25-1.91,.44-.39,.51-.9,.45-1.44,.09-.15,.18-.31,.28-.46,.33,0,.46,.19,.48,.49-.01,.47-.03,.94-.04,1.41Z"/><path class="cls-12" d="M82.72,45.4c.8-.08,1.6-.17,2.4-.25l-.24,1.67c-.93,.39-1.35-.72-2.15-.72v-.7Z"/><path class="cls-13" d="M81.28,43c-.08,0-.16,0-.23,0l-.44-2.6h.66l.24,.48c.15,.63,.29,1.26,.44,1.9-.25-.01-.51-.04-.67,.23Z"/><path class="cls-13" d="M82.73,46.1c.8,0,1.22,1.11,2.15,.72v.25c-.27,.17-.22,.46-.23,.72-.59,.18-.95-.35-1.44-.48l-.48-.95v-.25Z"/><path class="cls-12" d="M82.48,44.67c.29,.17,.24,.46,.23,.72-.5-.11-.6-.34-.23-.72Z"/><path class="cls-12" d="M65.49,45.37c0-.31-.01-.63-.02-.94,.79-.39,1.58-.14,2.38-.01,0,.4,0,.8,0,1.2-.08,.08-.16,.16-.23,.24-.87,.5-1.43-.3-2.13-.49Z"/><path class="cls-12" d="M71.94,44.42c.08,.88,.15,1.75,.23,2.63-1.09-.02-2.17-.05-3.26-.07-.28,0-.46-.11-.42-.41,.11-.79-.12-1.63,.32-2.38,.93,.5,1.92,.23,2.89,.24,.08,0,.15,0,.23,0Z"/><path class="cls-8" d="M71.71,44.43c-.97-.01-1.96,.26-2.89-.24,0-.35,0-.69,0-1.04,0-.11,0-.23,0-.35,.4-.22,.52-.59,.5-1.01,.65,.21,1.31,.41,1.96,0,.26,.86,.4,1.74,.43,2.63Z"/><path class="cls-8" d="M67.85,44.42c-.79-.12-1.59-.38-2.38,.01-.35-.5-.27-1.12-.45-1.67,1.13,.39,2.18-.38,3.3-.24,0,.1,.01,.2,.02,.29l.03,.36c-.4,.32-.21,.9-.52,1.25Z"/><path class="cls-6" d="M68.37,43.16l-.03-.36c.16-.01,.32-.02,.48-.04v.04c0,.12,0,.23,0,.35-.15,0-.3,0-.45,0Z"/><path class="cls-12" d="M76.02,43.49c.05,.65-.05,1.28-.25,1.9-.9,.48-1.71,1.31-2.87,.71-.37-.6-.22-1.26-.25-1.9,.42-.03,1.04,.09,1.23-.13,.62-.75,1.38-.57,2.14-.58Z"/><path class="cls-8" d="M76.02,43.49c-.76,.01-1.52-.17-2.14,.58-.19,.23-.81,.1-1.23,.13l-.23-.25c0-.48,0-.95,0-1.43,1.06-.17,2.23,.27,3.16-.66,.12-.12,.58,.11,.89,.18,.05,.54-.02,1.05-.45,1.44Z"/><path class="cls-13" d="M72.43,42.52c0,.48,0,.95,0,1.43-.31,.01-.48,.16-.48,.48-.08,0-.15,0-.23,0-.03-.9-.17-1.78-.43-2.63-.02-.23-.04-.47-.06-.7l.03-.92,.66,.05c-.07,.82,.04,1.61,.52,2.3Z"/><path class="cls-12" d="M99.51,45.17c0,.07-.01,.15-.02,.22-.88,0-1.75,0-2.63,0,0-.39-.02-.78-.03-1.18-.22-1.37-.43-2.73-.65-4.1,1.5,.19,3,.04,4.5,.01v.48c-.39,1.52-.79,3.04-1.18,4.57Z"/><path class="cls-12" d="M103.8,39.68c.01-.26,.02-.52,.04-.78,.52,.15,1.08,.52,1.57,.15,.98-.74,2.14-.58,3.22-.78-.28,1.37-.73,2.7-1.21,4.01-1.13-.06-2.17,1.07-3.35,.23-.23-.93-.29-1.88-.27-2.83Z"/><path class="cls-15" d="M96.16,46.1c.32,.34,.37,.83,.05,1.03-.4,.25-.96,.56-1.43,.28-.59-.35-1.13-.18-1.7-.09-.15,.03-.41,.15-.44,.11-.85-1.2-1.29-.02-1.85,.32-.86,.52-1.08,.37-1.57-1.19q2.76-.42,3.3-2.87c.38-.91,.37-1.88,.51-2.84,.71-.65,.33-1.83,1.2-2.4h0c.55,.79-.2,1.59,0,2.38-.64,1.31-1.01,2.69-1.12,4.16-.07,.88,.43,1.49,1.31,1.29,.59-.14,1.16-.2,1.75-.18Z"/><path class="cls-8" d="M93.02,40.86c-.14,.95-.13,1.93-.51,2.84-.38,.06-1-.14-1.1,.19-.43,1.3-1.36,.95-2.26,.82-.15-.41-.29-.82-.44-1.22-.36-.76-.16-1.59-.25-2.38,1.55,.56,3.05,.02,4.56-.24Z"/><path class="cls-12" d="M96.16,46.1c-.59-.02-1.16,.05-1.75,.18-.88,.2-1.38-.41-1.31-1.29,.11-1.46,.49-2.84,1.12-4.16,.4,0,.8,0,1.2,0l.74,3.35c-.06,.64,.27,1.27,0,1.91Z"/><path class="cls-13" d="M99.51,45.17c.4-1.52,.79-3.04,1.19-4.57,.24,0,.49,0,.73,0,.08,.69-.02,1.42-.35,1.95-.42,.67-.28,1.38-.47,2.05-.18,.63,.38,.67,.58,.46,.66-.7,1.67-.58,2.37-1.12,.49,2.87,.46,2.34-2.2,2.63-.79,.09-1.57,.1-1.43-1.09,.03-.22-.22-.3-.43-.32Z"/><path class="cls-12" d="M103.56,43.95c-.71,.54-1.71,.41-2.37,1.12-.19,.21-.76,.16-.58-.46,.19-.67,.05-1.37,.47-2.05,.33-.53,.43-1.26,.35-1.95,.08,0,.15,0,.23,0,.55,.24,.97,.14,1.19-.47,.15,.07,.29,.14,.44,.21-.17,1.22,.03,2.42,.28,3.61Z"/><path class="cls-12" d="M89.15,44.7c.89,.13,1.83,.48,2.26-.82,.11-.33,.72-.13,1.1-.19q-.53,2.45-3.3,2.87c-.02-.62-.04-1.24-.06-1.86Z"/><path class="cls-13" d="M104.06,42.52c1.18,.84,2.23-.28,3.35-.23,0,.24,0,.48,0,.72-.02,.26,.02,.53-.24,.71-.79,.55-1.65,.88-2.64,.71-.25-.61-.44-1.25-.47-1.92Z"/><path class="cls-12" d="M88.23,44.68c.01,.15,.03,.31,.04,.46-.56,.96-1.53,.89-2.44,.96,.15-.71,.3-1.42,.45-2.14,.07-.33-.08-.71,.25-.97h1.22c.11,.57-.25,1.28,.47,1.68Z"/><path class="cls-13" d="M85.83,46.11c.91-.07,1.88,0,2.44-.96,.4,.52,.14,1.12,.21,1.68-.83,.93-1.83,.84-2.87,.48,0-.08,0-.15,0-.23,.04-.33-.11-.71,.24-.96Z"/><path class="cls-15" d="M85.6,47.3c1.05,.37,2.04,.45,2.87-.48,.41,1.53,.41,1.52-1.07,1.53-.18,0-.37,.09-.53,.18-.44,.26-.96,.37-1.32,.06-.42-.35-.16-.86,.05-1.29Z"/><path class="cls-13" d="M96.87,45.38c.88,0,1.75,0,2.63,0,0,.73-.03,1.46-.93,1.66-.65,.14-1.16-.09-1.38-.78-.09-.3-.21-.59-.32-.88Z"/><path class="cls-15" d="M96.16,44.2c-.25-1.12-.49-2.23-.74-3.35,.05-.39,.16-.76,.52-.99l.25,.26c.22,1.37,.43,2.73,.65,4.1-.23,0-.46,0-.68-.01Z"/><path class="cls-15" d="M88.23,44.68c-.73-.4-.37-1.11-.47-1.68,.02-.72,.01-1.43-.24-2.12,0-.36,0-.73,.5-.75l.45,.98c.08,.79-.11,1.62,.25,2.38-.78,.15-.36,.79-.49,1.2Z"/><path class="cls-15" d="M85.83,46.11c-.34,.26-.2,.63-.24,.96-.24,0-.47,0-.71,0v-.25c.07-.56,.15-1.11,.24-1.67,.01-.08,.03-.15,.04-.23,.29-.07,.56-.14,.21-.48,0-.16,0-.31,.01-.47,.3,0,.59,0,.89,0l-.45,2.14Z"/><path class="cls-15" d="M83.2,47.3c.49,.13,.85,.66,1.44,.48,.03,.84-.42,.63-.98,.54-.77-.13-.77-.47-.47-1.02Z"/><path class="cls-6" d="M72.43,42.52c-.48-.7-.59-1.48-.52-2.31l.05-.34c.99-.29,1.77,.58,2.83,.41,.86-.14,1.57-.22,2.09-.96,.09-.12,.36-.11,.54-.16,.07,.88-.85,1.5-.66,2.42-.09,.15-.18,.31-.28,.46-.31-.07-.77-.3-.89-.18-.92,.93-2.1,.49-3.16,.66Z"/><path class="cls-5" d="M71.95,39.88l-.05,.34c-.22-.02-.44-.03-.66-.05-.37-1.13-.46-2.32-.67-3.78-.67,1.55-.63,2.94-1.04,4.22-.24-.07-.23-.89-.71-.24l-.03-.02c.01-.31,.02-.63,.03-.94,.59-.96,.25-2.2,.97-3.12,.23-.02,.49-.02,.53-.32,0-.05-.23-.13-.36-.2l.05-.43c.25,0,.5,0,.76,0,.88,1.38,.58,3.07,1.17,4.52Z"/><path class="cls-5" d="M78.66,34.4c.38-.09,.76-.17,1.14-.26,.3,1.04,.63,2.06,.74,3.14-.16,0-.32-.01-.48-.02-.62-.6-.4-1.53-.92-2.31-.54,1.27-.38,2.61-.98,3.75l-.65,.02c.36-1.45,.37-2.99,1.16-4.33Z"/><path class="cls-4" d="M77.5,38.72l.65-.02c0,.32,0,.64,0,.96-.36,.5-.23,1.14-.46,1.67,0,.34,0,.68-.46,.74-.02-.3-.15-.49-.48-.49-.19-.92,.73-1.54,.66-2.42,.03-.15,.06-.29,.09-.44Z"/><path class="cls-9" d="M81.03,38.47c.8,.22,1.61,.43,2.38-.1,.09-.06,.27-.14,.33-.1,1.04,.8,1.92-.03,2.85-.27,0,.08,.02,.17,.03,.25-.51,.37-.2,.93-.33,1.4-1.67,.08-3.37-.22-4.98,.47-.2-.53-.33-1.07-.28-1.64Z"/><path class="cls-15" d="M86.61,38.24c0-.08-.02-.17-.03-.25,.36-.43,.09-.96,.21-1.43,.35-.28,.27-.63,.13-.98-.23-.58,.08-.7,.57-.7,.02,.71,.03,1.42,.05,2.13-.15,.5,.1,.95,.18,1.42-.38-.03-.79,.15-1.12-.19Z"/><path class="cls-4" d="M81.03,38.47c-.05,.57,.08,1.11,.28,1.64-.01,.09-.03,.19-.04,.28-.22,0-.44,0-.66,0-.09-.01-.17-.02-.26-.04-.02-.17-.04-.34-.06-.51l-.23-2.59c.16,0,.32,.01,.48,.02,.16,.4,.33,.79,.49,1.19Z"/><path class="cls-15" d="M138.33,39.18c-.9-.07-1.82,.16-2.72-.15-.24-.08-.42-.05-.6,.2-.74,1.03-2.28,1.45-3.38,.9-.22-.11-.51-.33-.62-.12-.4,.78-1.21,.62-1.82,.91-1.46,.69-2.38,.15-2.37-1.51,.8,.07,1.64,.82,2.39-.13,.02-.03,.22,.04,.31,.11,.86,.7,1.31,.03,1.81-.52,.26-.29,.33-.73,.75-.89,.31,.23,.22,.57,.25,.87,.02,.25,.05,.48,.36,.53,1.11,.16,2.22-1.43,1.8-2.59l-.49-1.68c-.01-.33,0-.67-.46-.7v-1.65c.46-.13,.68,.22,.96,.47,.08,.55,.16,1.1,.25,1.65,.22,.76,.37,1.55,.92,2.18-.29,.53-.35,1.03,.19,1.45,.5,.39,.92,.07,1.26-.2,.53-.42,1.11-.27,1.68-.31l-.48,1.19Z"/><path class="cls-12" d="M135.68,37.04c-.55-.62-.7-1.42-.92-2.18,.49,.14,.96,.3,1.48,.04,1.33-.66,2.86-.47,4.23-.99,.54,.71-.49,.89-.5,1.46,0,.39-.29,.78-.44,1.17-1.27,.23-2.64-.29-3.84,.5Z"/><path class="cls-13" d="M135.68,37.04c1.2-.78,2.57-.27,3.84-.5,0,.59-.45,.97-.71,1.44-.57,.04-1.15-.12-1.68,.31-.34,.28-.77,.6-1.26,.2-.54-.43-.49-.92-.19-1.45Z"/><path class="cls-6" d="M133.56,32.74c0,.16-.01,.32-.02,.48-1.89,.14-3.63,.98-5.51,1.17-.12-.58,.19-1.02,.51-1.45,.83-.55,1.64-1.15,2.73-1.01,.43,.05,.3-.51,.6-.62,.4-.15,.47-.77,1.02-.71,.4,.66,.42,1.44,.67,2.15Z"/><path class="cls-4" d="M69.97,35.78c.12,.07,.36,.15,.36,.2-.04,.3-.3,.3-.53,.32,.06-.17,.12-.35,.17-.52Z"/><path class="cls-13" d="M147.91,36.55c.64,0,1.28,0,1.92,0-.26,.3-.11,.97-.74,.92-.56-.05-1.11-.21-1.18-.93Z"/><path class="cls-9" d="M103.66,37.94c-.16-.79-.31-1.58-.47-2.37,.42,.43,.78,.68,1.54,.56,1.43-.22,2.89-.51,4.37-.28,0,.32,.01,.65,.02,.97-.01,.07-.04,.13-.06,.2-1.8,.32-3.55,.91-5.4,.92Z"/><path class="cls-4" d="M118.43,32.24c.07,.33-.09,.73,.26,.99-.06,.5,.14,1.08-.46,1.41l-.55,.23c.1-.71,.2-1.42,.3-2.12,.07-.17,.14-.33,.21-.5h.24Z"/><path class="cls-9" d="M118.43,32.24h-.24v-.24c.08,.08,.16,.16,.24,.24Z"/><path class="cls-15" d="M117.69,34.87c.18-.08,.37-.16,.55-.23-.09,.72-.19,1.44-.28,2.16-.6,1.2-.52,2.57-.95,3.81l-.48,.7c-.17,0-.33,0-.5,0,0-.47,0-.94,.01-1.41,.36-.33,.21-.85,.45-1.22,.04-.8,.76-1.46,.53-2.32,.28-.27,.23-.63,.27-.96,.13-.18,.26-.35,.4-.53Z"/><path class="cls-13" d="M108.12,43.95c0-.32,.01-.64,.02-.96l.24-.25c1.12-.28,2.36-.14,3.33-.94,.36,.25,.21,.64,.26,.97,0,.23-.01,.47-.02,.7-1.31-.11-2.59,.1-3.84,.48Z"/><path class="cls-12" d="M116.5,38.68c-.25,.37-.09,.89-.45,1.22-.96,.28-2.09,.22-2.51,1.47-.11,.31-.56,.17-.86,.21-.31-.77-.41-1.58-.46-2.41,1.52,.65,2.84-.44,4.28-.48Z"/><path class="cls-13" d="M112.68,41.58c.3-.04,.75,.11,.86-.21,.42-1.24,1.55-1.19,2.51-1.47,0,.47,0,.94-.01,1.41-.26,.18-.22,.46-.26,.72-.6,0-.84,.63-1.43,.75-1.09,.22-1.67-.04-1.67-1.21Z"/><path class="cls-6" d="M103.66,37.94c1.85-.01,3.6-.6,5.4-.92-.14,.42-.29,.83-.43,1.25-1.09,.2-2.24,.04-3.22,.78-.49,.37-1.05,0-1.57-.15,0-.33-.3-.6-.17-.96Z"/><path class="cls-5" d="M117.96,36.79c.09-.72,.19-1.44,.28-2.16,.59-.33,.39-.91,.46-1.41,.32-.02,.45,.15,.46,.44-.05,.68,.18,1.3,.41,1.92,.02,.24,.03,.48,.04,.71-.7-.33-1.09,.37-1.65,.49Z"/><path class="cls-4" d="M119.57,35.59c-.23-.62-.46-1.24-.41-1.92h.3c.3,.32,.59,.65,.89,.97,0,.32,0,.63,0,.95h-.78Z"/><path class="cls-4" d="M68.82,40.37c.48-.65,.47,.17,.71,.24,0,.08,0,.16,0,.24l-.2,.24v.71c0,.43-.12,.79-.52,1.01v-.04c.02-.23-.06-.42-.26-.55-.04-.63,.09-1.25,.27-1.85Z"/><path class="cls-13" d="M68.55,42.22c.21,.13,.28,.32,.27,.55-.16,.01-.32,.02-.48,.04,0-.1-.01-.19-.02-.29,.08-.1,.16-.2,.23-.29Z"/><path class="cls-12" d="M120.62,36.3c.46,.05,.83-.19,1.22-.37,.21-.1,.55-.31,.63-.24,1.03,.85,1.81-.04,2.67-.33,.31,.46,.18,1,.28,1.49,.09,.43,.05,.99,.65,1.15-.26,.69,0,1.48-.44,2.14-.63,0-1.19,.25-1.89-.1-.57-.29-1.07,.63-1.7,.82-.4-.77-1.07-1.42-.96-2.39-.15-.72-.3-1.44-.46-2.15Z"/><path class="cls-12" d="M132.09,37.97c-.41,.16-.49,.6-.75,.89-.5,.55-.95,1.22-1.81,.52-.08-.07-.28-.14-.31-.11-.76,.95-1.59,.2-2.39,.13,0-.72,.01-1.43,.02-2.14h.45c1.32,0,2.61,1.71,3.97,.05,.12-.14,.53-.05,.8-.06l.02,.73Z"/><path class="cls-15" d="M108.12,43.95c1.25-.38,2.52-.59,3.84-.48,.13,.89-.18,1.33-1.15,1.21-.59-.08-1.2-.05-1.68,.37-.34,.3-.57,.84-1.13,.31-.56-.53-.29-.97,.13-1.41Z"/><path class="cls-13" d="M116.53,41.31c.16-.23,.32-.47,.48-.7,1.22,.88,2.54,.23,3.82,.24,.24,.37,.26,.78,.24,1.2-1.52,.16-3.03,.32-4.55,.48,0-.4,0-.81,.01-1.21Z"/><path class="cls-12" d="M120.83,40.85c-1.28,0-2.6,.64-3.82-.24,.43-1.24,.36-2.61,.95-3.81,.57-.11,.95-.82,1.65-.49,.58,.7,.12,1.8,.93,2.42l.28,2.12Z"/><path class="cls-15" d="M120.54,38.73c-.81-.62-.35-1.72-.93-2.42-.01-.24-.03-.48-.04-.71h.78c.07,.01,.13,.03,.19,.06,.02,.22,.05,.43,.07,.65,.15,.72,.3,1.44,.46,2.15-.22,0-.41,.07-.53,.27Z"/><path class="cls-9" d="M95.39,37.47c.04-.23,.08-.47,.12-.7,.86,.66,1.68,.47,2.49-.09,.22-.15,.54-.5,.71-.32,.89,.91,1.95,.24,2.91,.41,.01,.09,.03,.18,.04,.26-.22,.35-.28,.74-.3,1.15-.4,.08-.77,.37-1.23,.13-.35-.19-.6-.03-.65,.38-.07,0-.15,0-.22,0-1.04-.46-2.09-.69-3.13,0-.07,0-.14,0-.21,0-.39-.31-.18-.89-.53-1.21Z"/><path class="cls-5" d="M101.67,37.04c-.01-.09-.03-.18-.04-.26,.37-.52-.04-1.34,.67-1.73,.02,1.23,.64,2.38,.53,3.64-.23,0-.47,0-.7,.01-.15-.55,.41-1.3-.45-1.66Z"/><path class="cls-9" d="M95.45,35.28l-.15-.05c.05-.02,.1-.04,.15-.06v.11Z"/><path class="cls-8" d="M102.13,38.7c.23,0,.47,0,.7-.01,0,.48,.01,.96,.02,1.45-.22,.61-.64,.71-1.19,.47-.03-.68,.05-1.33,.47-1.9Z"/><path class="cls-9" d="M87.73,38.44c-.09-.47-.34-.92-.18-1.42,.91,1.26,2.12,.97,3.46,.97,1.17,0,2-.87,3.1-.67-.04,.3-.08,.6-.12,.9-.28,0-.52,.18-.76,.24-.81,.21-1.44,1.17-2.24,.89-1-.36-2.03-.01-2.98-.42-.09-.16-.19-.33-.28-.49Z"/><path class="cls-6" d="M88.02,38.93c.95,.41,1.98,.06,2.98,.42,.8,.29,1.43-.68,2.24-.89,.24-.06,.47-.24,.76-.24l.23,.23c-.87,.56-.5,1.75-1.2,2.4-1.51,.26-3,.8-4.56,.24-.15-.33-.3-.65-.45-.98,0-.4,0-.79,0-1.19Z"/><path class="cls-4" d="M95.39,37.47c.35,.33,.14,.9,.53,1.21,0,.39,.01,.78,.02,1.17-.36,.23-.47,.6-.52,.99-.4,0-.8,0-1.2,0-.19-.8,.55-1.59,0-2.38,.51-.19,.52-.97,1.17-.98Z"/><path class="cls-8" d="M132.07,37.24c-.27,.02-.69-.08-.8,.06-1.36,1.67-2.65-.05-3.97-.05,.16-.72,.33-1.44,.49-2.16,.08-.24,.16-.48,.24-.71,1.88-.19,3.62-1.03,5.51-1.17,0,.39,0,.78,.01,1.18-.23,.09-.4,.24-.49,.47-.33,.79-.66,1.58-.99,2.38Z"/><path class="cls-6" d="M81.27,40.39c.01-.09,.03-.19,.04-.28,1.61-.69,3.31-.39,4.98-.47,.08,.35-.06,.66-.2,.97l-.23,.73c-1.47,.08-2.84-.8-4.34-.46-.08-.16-.16-.33-.24-.49Z"/><path class="cls-13" d="M85.85,41.34l.23-.73,.7,.26-.25,2.13c-.33,.26-.18,.65-.25,.97-.3,0-.6,0-.89,0,.15-.88,.31-1.75,.46-2.63Z"/><path class="cls-13" d="M85.38,44.43c.34,.34,.08,.42-.21,.48-.03-.21,0-.38,.21-.48Z"/><path class="cls-8" d="M80.35,40.36c.09,.01,.17,.02,.26,.04,.15,.87,.29,1.73,.44,2.6-1.27,.28-2.54,.56-3.86,.48,.01-.47,.03-.94,.04-1.41,.45-.06,.46-.4,.46-.74,.38,.08,.76,.17,1.14,.23,.93,.15,1.54-.13,1.52-1.19Z"/><path class="cls-6" d="M69.32,41.8c0-.24,0-.47,.01-.71,.08,0,.16-.01,.23-.02l1.65,.02c.02,.23,.04,.47,.06,.7-.65,.41-1.3,.21-1.96,0Z"/><path class="cls-9" d="M71.22,41.09c-.55,0-1.1-.01-1.65-.02-.01-.07-.02-.15-.04-.22,0-.08,0-.16,0-.24,.41-1.28,.37-2.67,1.04-4.22,.2,1.46,.29,2.65,.67,3.78,0,.31-.02,.62-.03,.92Z"/><path class="cls-8" d="M95.94,39.85c0-.39-.01-.78-.02-1.17,.07,0,.14,0,.21,0,.04,.5,.42,.43,.77,.51,.89,.22,1.55-.46,2.36-.5,.07,0,.15,0,.22,0,.39,.59,.93,.38,1.44,.26l-.24,1.17c-1.5,.02-3,.18-4.5-.01-.08-.09-.17-.17-.25-.26Z"/><path class="cls-4" d="M100.7,40.12l.24-1.17c.31-.16,.51-.39,.43-.76,.02-.4,.09-.8,.3-1.15,.87,.36,.3,1.11,.45,1.66-.42,.57-.5,1.22-.47,1.9-.08,0-.15,0-.23,0-.24,0-.49,0-.73,0v-.48Z"/><path class="cls-8" d="M86.53,43c.08-.71,.16-1.42,.25-2.13,.25,0,.49,0,.74,0,.25,.69,.26,1.4,.24,2.12-.41,0-.81,0-1.22,0Z"/><path class="cls-4" d="M87.52,40.87c-.25,0-.49,0-.74,0-.23-.08-.46-.17-.7-.26,.15-.31,.29-.61,.2-.97,.13-.46-.19-1.02,.32-1.4,.32,.34,.74,.16,1.12,.19,.09,.16,.19,.33,.28,.49,0,.4,0,.79,0,1.19-.51,.03-.5,.39-.5,.75Z"/><path class="cls-3" d="M80.05,37.26c.08,.86,.15,1.72,.23,2.59-.72,.07-1.46,.29-2.14-.19,0-.32,0-.64,0-.96,.6-1.13,.44-2.48,.98-3.75,.51,.78,.3,1.71,.92,2.31Z"/><path class="cls-6" d="M78.15,39.65c.67,.49,1.41,.26,2.14,.19,.02,.17,.04,.34,.06,.51,.02,1.07-.59,1.34-1.52,1.19-.38-.06-.76-.15-1.14-.23,.23-.54,.1-1.17,.46-1.67Z"/><path class="cls-13" d="M132.07,37.24c.33-.79,.66-1.58,.99-2.38,.24,.08,.47,.16,.71,.23-.13,.41-.27,.81-.37,1.22-.13,.53-.95,1.15-.36,1.51,.63,.38,.95-.56,1.36-.99,.03-.03,.06-.05,.1-.07,.41,1.16-.69,2.74-1.8,2.59-.31-.04-.34-.28-.36-.53-.02-.31,.06-.65-.25-.87,0-.24-.01-.49-.02-.73Z"/><path class="cls-12" d="M134.5,36.79s-.07,.04-.1,.07c-.41,.43-.73,1.37-1.36,.99-.59-.36,.22-.99,.36-1.51,.1-.41,.25-.81,.37-1.22h.23l.49,1.68Z"/><path class="cls-4" d="M134.01,35.1h-.23c-.24-.08-.47-.15-.71-.23,.09-.23,.26-.39,.49-.47,.46,.03,.45,.38,.46,.7Z"/><path class="cls-5" d="M69.53,40.85c.01,.07,.02,.15,.04,.22-.08,0-.16,.02-.23,.02,.07-.08,.13-.16,.2-.24Z"/><path class="cls-5" d="M99.27,38.69c-.81,.04-1.48,.72-2.36,.5-.35-.08-.73-.01-.77-.51,1.05-.68,2.09-.45,3.13,0Z"/><path class="cls-5" d="M101.37,38.18c.07,.38-.12,.6-.43,.76-.52,.12-1.05,.34-1.44-.26,.05-.41,.3-.56,.65-.38,.46,.24,.83-.04,1.23-.13Z"/></svg>