<?xml version="1.0" encoding="UTF-8"?><svg id="Layer_1" xmlns="http://www.w3.org/2000/svg" viewBox="0 0 170.18 84.44"><defs><style>.cls-1{fill:#fe8d6c;}.cls-2{fill:#fe967a;}.cls-3{fill:#fe4d00;}.cls-4{fill:#fe4300;}.cls-5{fill:#fe3700;}.cls-6{fill:#fe662b;}.cls-7{fill:#fe825b;}.cls-8{fill:#fe703d;}.cls-9{fill:#fe7749;}.cls-10{fill:#feb5a8;}.cls-11{fill:#fea088;}.cls-12{fill:#fea793;}.cls-13{fill:#feae9e;}.cls-14{fill:#feb8ad;}.cls-15{fill:#345940;}</style></defs><path class="cls-3" d="M128.36,29.35c1.36,.03,2.72,.15,4.07,0,.67,.8,1.41,1.53,2.26,2.12,.77,.53,.95,1.18,.79,2.05-.23,1.24-.41,2.48-.42,3.75-.02,1.77,.16,3.55-.45,5.28-.52,1.48,.3,3.13-.5,4.62-.16,.3-.16,.68-.24,1.03-3.08-1.39-5.64-.98-7.79,1.31-.53,.57,.38,.71,.44,1.12-.66,0-1.43,.26-1.96-.14-1.17-.86-2.02-.29-2.9,.41-.55,.06-1.02,.31-1.46,.64-.43,.09-.88,.16-1.18,.54-.6,.14-1.17,.35-1.67,.72l-1.68,.7c-.6,.04-1.14,.29-1.67,.53-.72,.24-1.43,.48-2.15,.71l-.96,.25-1.44,.46-1.19,.25c-1.66,.55-3.43,.72-5.05,1.42-.67,.03-1.3,.2-1.91,.49-.61-.04-1.14,.22-1.68,.45-.31,.06-.67,.05-.91,.2-.77,.5-2,.48-1.88,1.99,.06,.77-.81,1.42-1.58,1.28-.58-.1-.94,.03-1.44,.19-.45,.15-.98,0-1.37,.44-.15,.17-.44,.03-.52-.12-.6-1.21-1.73-.75-2.66-.84-.74-.07-1.56,.26-2.25,.06-1.26-.35-2.36,.2-3.53,.33-1.23,.14-2.35,1.25-3.7,.45-.21-.12-.39,.03-.52,.18-.5,.6-1.22,.66-1.89,.9-.79,.29-1.59,.53-2.31,1.09-.56,.44-1.19,1.37-1.93,1.1-1.25-.46-1.66,.49-1.95,1.1-1.04,2.18-.98,2.23-3.09,2.07q.86,1.02,.12,1.26l-.09-.06,.1,.05c-.11,.45-.14,.92-.55,1.24-.58-.05-1.13-.17-1.63-.48,.79-1.15,.53-2.56,.96-3.8,.08-.23-.07-.48-.36-.52-1.41-.21-2.67-.95-4.15-1.01-2.11-.09-4.03-.67-5.39-2.53-.78-1.06-1.55-2.24-3.11-2.39-1.52-.15-3.03-.41-4.55-.54-.76-.06-1.5,.16-2.08,.71l-.48-.04c-.39-.78-.79-.46-1.19-.01-4.5-.06-9.01-.12-13.51-.2-1.1-.02-2.2-.14-3.27-.46-.02-.39-.09-.71-.32-1.08-.84-1.33-2.01-2.31-3.21-3.28-2.03-1.65-4.19-3.08-6.51-4.28-.6-.25-.93-1-1.7-.91l-.66-.1h.02c-.02-.32-.24-.42-.52-.46-.18-.25-.4-.43-.71-.47,0-.07,0-.13-.02-.2,0-.5-1.21-.71-.32-1.46,.18-.15-.9-1.17-1.01-.98-.61,1.08-.72-.15-1.07-.22-.29-.06-.57-.4-.71-.54-.53-.5-1.88-.02-1.7-1.33,1.18,.03,2.1,.73,3.13,1.17,2.43,1.03,4.43,2.69,6.57,4.14,.43,.29,.55,.85,1.06,1.1,1.8,.9,3.62,1.64,5.19,3.07,1.51,1.37,3.57,2.18,5.48,3.04,.91,.41,1.86,0,2.3-1.06l.24-.24c1.42-.61,2.63-1.45,3.36-2.87h0c.93-.73,1.31-1.86,2.05-2.74,.2-.24,.18-.64,.03-.92-.73-1.41-.78-3.02-1.38-4.47-.66-1.58-2.06-2.55-3.04-3.87-.04-.06-.13-.12-.2-.12-.99,0-1.58-.88-2.4-1.13-1.06-.32-1.89-1.16-3.24-.98-.75,.11-1.62,.66-2.46,.17-.47-.27-.97-.15-1.47-.18-1.14-.07-2.28,.14-3.4,.06-1.83-.14-3.49-1.13-5.35-1.19-.18,0-.36-.15-.54-.24-1.05-.53-1.95-1.39-3.22-1.44-.21,0-.26-.27-.3-.47l.73-.91c.81,.13,1.49,.52,2.11,1.04,.25,.21,.48,.44,.83,.39,1.15-.15,1.85,.92,2.99,1.02,.92,.08,1.77,.84,2.79,.27,.16-.09,.37-.14,.55-.12,.68,.08,1.26-.09,1.83-.41,.24-.13,.64-.41,.88-.11,.71,.91,1.64,.55,2.52,.55,.44,0,.89-.04,1.31,.05,2.35,.53,4.22,2.18,6.54,2.8,.02,.97,1.02,.38,1.36,.84,.74,1.01,1.56,1.9,2.74,2.43,.27,.12,1.09,.17,.6,.98-.07,.12-.04,.99,.52,1.27h0c-.02,.52-.04,1.04,.73,.96l-.03,.48c-.34,.38-.06,.44,.25,.48,1.34,2,3.15,3.46,5.25,4.6,.33,.36,.76,.56,1.23,.65,.32,.32,.74,.41,1.15,.52,.59,.41,1.25,.63,1.96,.68,.68,.33,1.41,.41,2.16,.49,1.81,.19,3.31-.76,4.88-1.34,1.68-.62,1.63-.76,.64-2.25-.15-.32-.29-.64-.44-.96l-.33-.96c-.34-.82-.59-1.67-1.15-2.38-.68-1.48-1.53-2.85-2.61-4.07-.44-.84-1.03-1.53-1.91-1.94h0c-.42-.57-1.1-.66-1.71-.89-1.45-.57-2.98-.54-4.5-.57-.18-.57,.24-1.06,.24-1.61,.72-1.69,1.02-3.45,.87-5.28-.02-.64,.21-1.3-.14-1.92l-.1-.95-.36-1.2c-.69-2.55-1.6-5.01-3.18-7.17-1.21-1.72-2.4-3.44-3.64-5.14-.3-.4-.59-.75-.41-1.28,4.39-1.71,8.92-2.8,13.62-3.16,.61,.29,1.23,.67,1.69-.22,.36-.3,.78-.24,1.2-.19,.14,.59,.63,.7,1.1,.66,1.68-.13,3.36-.29,5.04-.5,.45-.06,.94-.23,1.05-.81l.72-.06c.09,.51,.49,.43,.84,.43,1.72,0,3.45,.13,5.15-.03,2.37-.23,4.64,.05,6.91,.7,.8,.23,1.62,.36,2.44,.53,.22,.09,.44,.19,.67,.25,4.18,1.26,8.35,2.52,12.44,4.07,2.67,1.01,5.32,2.06,7.98,3.09,.47,.5,1,.61,1.61,.27,.86-.48,1.91-2.51,1.66-3.45-.17-.63-.06-.89,.53-1.2,.54-.28,.96-.85,1.14-1.47,.21-.72,.65-1.34,1.18-1.75,.84-.65,1.2-1.5,1.54-2.41h2.15c-.02,.88-.87,1.41-1.35,1.53-1.07,.27-1.4,1.25-1.41,1.79-.02,.92-.58,1.04-1.03,1.51-.68,.71-1.78,1.25-1.85,2.32-.05,.8-.26,1.55-.55,2.21-.76,1.75-.75,1.98,.94,2.76l1.91,.73c.79,.34,1.46,1.02,2.43,.84l.33-.04c.15,.9,1.04,.71,1.56,1.06l1.43,.5c.44,.27,.89,.48,1.41,.56,.55,.37,1.17,.55,1.79,.74,.75,.55,1.78,.41,2.49,.97,.6,.48,1.22,.69,1.96,.63,.16,.64,.75,.57,1.2,.72,.68,.58,1.46,.72,2.32,.53,.44,.79,3.35,1.58,4.09,1.1,.05-.03,.05-.14,.07-.22Zm-36.64,10.52v1.67c.13,.43-.34,1.31,.32,1.23,1.2-.16,1.89,.5,2.6,1.14,.54,.49,1.23,1.17,1.76,.97,.58-.21,.57-1.19,.56-1.9,.1-1.16-.17-2.16-1.18-2.87-.25-.28-.56-.45-.94-.48-.67-.53-1.44-.67-2.27-.72-.77-.05-.96,.3-.85,.97Zm-20.68-9.81l.49-1.19c.1-.72,.54-1.43,.02-2.15-.24-.56-.39-1.18-1.03-1.46-.14-.36-.49-.51-.78-.7-.58-.4-1.31-.91-1.93-.62-.69,.33-.2,1.19-.27,1.82v2.15l.02,.71,.21,1.2c-.01,.24-.05,.48-.03,.71,.09,.75-.38,1.91,.4,2.15,.79,.24,1.49-.69,2-1.41,.46-.29,.65-.77,.89-1.21Zm-7.38,1.73c-2.03-.94-2.23-.81-2.13,1.39,0,.08,.02,.15,.03,.23l-.02,.96v1.91c0,.99,0,1.99-.03,2.98-.02,.68,.13,.94,.9,.67,1.86-.65,3.35-2.64,3.37-4.62,.13-1.02-.07-1.93-.91-2.62-.26-.5-.71-.74-1.21-.91Zm28.01-2.2c-.33,.98-.59,2.2,.1,2.88,.71,.71,1.74-.09,2.58-.47,.32-.04,.58-.17,.71-.49,.31-.17,.56-.4,.72-.72,.34-.28,.48-.66,.51-1.08,.56-1.2,.56-2.36-.27-3.46-.14-.32-.36-.56-.65-.73-.44-.59-1.08-.94-1.75-1.15-2.04-.66-2.09-.23-1.87,1.4v2.63c0,.24,0,.48,0,.72l-.07,.48Zm-7.44-.24c.04-.4,.39-.74,.24-1.19-.35-.51,.04-1.3-.64-1.68-.22-.78-.82-1.23-1.49-1.57-.76-.39-1.68-.96-2.42-.45-.54,.36-.11,1.32-.13,2.01,0,.56-.02,1.12-.03,1.68v1.43c-.06,.82-.35,1.6-.28,2.44,.04,.61,.29,.75,.83,.59,1.11-.33,2.13-.79,2.77-1.83,.56-.34,.94-.83,1.16-1.45Zm-16.71,14.1v.96c-.02,.12-.02,.24-.04,.35-.18,.71-.59,1.57,.07,2.09,.7,.54,1.58,.15,2.34-.2,.18-.08,.32-.22,.48-.33,.49-.3,.89-.69,1.2-1.18,.48-.74,.98-1.48,.49-2.42-.1-2.2-1.39-3.55-3.75-4.09-.91-.21-1.16,.23-1,.9,.24,.99,.12,1.98,.2,2.96v.96Zm35-7.67l-.05-.46c-.24-1.88-1.86-3.46-3.68-3.59-.58-.04-.89,.08-.88,.75,.01,.54-.11,1.09-.17,1.64l-.03,1.44v1.91c0,.28-.02,.55-.02,.83,0,1.69,.58,2.05,2.17,1.32,.47-.21,.95-.43,1.18-.94,.78-.49,1.24-1.17,1.26-2.11l.19-.52,.02-.27Zm-19.93,3.64c-.68-.17-1.26-.58-2.03-.54-.92,.04-1.19,.36-.97,1.26,.15,.6,.11,1.25,.16,1.88v1.91c-.02,.72-.04,1.43-.02,2.14,0,.33-.16,.76,.31,.93,.39,.14,.67-.11,.95-.36,.17-.16,.41-.25,.58-.41,1.46-1.32,2.84-2.69,2.29-4.94-.11-.83-.48-1.48-1.26-1.87Zm-8.84-3.14c0,1.03-.02,2.07,0,3.1,0,.27-.08,.81,.43,.58,.67-.3,1.51-.31,1.96-1.03,.64-.16,1.04-.55,1.2-1.18,1.76-2.06,.49-5.68-2.27-6.26-1.62-.34-1.6-.39-1.58,1.33,0,.44,.01,.87,.02,1.31l.23,2.15Zm14.4-4.12c-.43-.48-1.03-.57-1.61-.65-.71-.09-1.11,.31-.97,.98,.47,2.3-.07,4.59-.12,6.87-.03,1.02,.34,1.07,1.07,.92,2.45-.52,4.11-2.37,4.45-4.95-.32-1.6-.92-2.95-2.8-3.17Z"/><path class="cls-5" d="M34.43,55.65l-.24,.24c-1.89,.78-1.95,.73-3.44-.65-.81-.75-1.69-1.42-2.54-2.12-1.55-1.29-3.78-1.46-5.2-3.05-.51-.57-1.17-.74-2.01-.76-1.19-.03-1.5-1.28-2.13-2.07-.77-.98-1.48-2.3-2.81-2.25-.96,.04-1.62-.36-2.21-.78-.62-.45-1.23-.69-1.93-.73-1.71-.08-2.34-1.7-3.58-2.44-.08-.05-.04-.3-.05-.46l3.31-3.83c1.64,1.23,3.56,1.79,5.46,2.47,1.53,.55,3.13,.03,4.67,.65,1.28,.51,2.68,.71,4.16,.55,1.65-.17,3.36,.2,5.04,.14,.88-.03,1.52,.04,2.19,.7,.57,.55,1.36,1.01,2.14,1.19,1.08,.25,1.53,.98,1.75,1.84,.26,1,.51,1.95,1.12,2.81,.45,.63,.89,1.37,.16,2.14,1.22,1.22-.09,2.01-.49,2.97-.07,.17-.02,.39-.02,.59h0c-1.28,.77-2.71,1.36-3.36,2.87Z"/><path class="cls-5" d="M100.8,19.08c-2.66-1.03-5.31-2.08-7.98-3.09-4.08-1.54-8.26-2.81-12.44-4.07-.23-.07-.44-.17-.67-.25-.02-1.15-.94-1.38-1.77-1.66-.34-.11-.81,.07-.87-.51,.35-.07,.7-.19,1.05-.19,9.28-.15,18.54-.83,27.83-.3,.12,0,.24,.03,.35,.05,.11,.73-.17,1.26-.7,1.78-1.12,1.09-1.9,2.37-2.25,3.95-.29,1.31-.62,2.7-2.02,3.42-.3,.15-.55,.47-.54,.87Z"/><path class="cls-4" d="M133.87,48.19c.08-.35,.08-.73,.24-1.03,.8-1.48-.03-3.13,.5-4.62,.61-1.73,.44-3.51,.45-5.28,.01-1.27,.19-2.51,.42-3.75,.16-.86-.01-1.51-.79-2.05-.85-.59-1.59-1.32-2.26-2.12l3.32-.98c.5,.46,.67,1.16,1.23,1.58,.78,.6,1.16,1.43,1.55,2.33,.36,.84,.22,1.73,.57,2.53,.13,.31,.43,.74,.61,.32,.66-1.47,1.82-2.83,1.88-4.42,.06-1.65,.7-3.1,1-4.66,.09-.47,.31-.92-.18-1.29,.79-.79,1.75-1.34,2.7-1.91,.09,.54-.16,1.01-.26,1.51-.15,.73-.58,1.64-.3,2.16,.51,.96,.04,1.56-.23,2.32-.38,1.06-1.25,2.01-1.17,3.15,.1,1.45-.54,2.67-.98,3.93-.32,.92-.48,1.84-.48,2.75,0,.75,0,1.49-.03,2.23-.04,1.08-.51,2.08-.21,3.27,.28,1.12,.56,2.31,.2,3.66-.31,1.18-1.03,2.28-.95,3.61,.04,.66,.39,1.42-.14,2.06-2.19-1.84-4.2-3.88-6.7-5.34Z"/><path class="cls-10" d="M135.33,60.92c.08,.15,.15,.3,.23,.45,.01,1.03,.67,1.84,.92,2.8,.54,2.07-.72,3.69-2.81,3.43-.15-.02-.37-.06-.42-.16-.65-1.3-2.03-.91-2.72-.64-1.91,.74-3.28,.21-4.75-.94-1.23-.96-2.78-1.52-3.37-3.17-.16-.45-.67-.53-1.09-.64-.95-.25-1.64-.83-2.02-1.7-.22-.5-.53-.69-1.01-.62-1.25,.17-2.21-.08-2.39-1.55-.01-.11-.09-.23-.17-.3-1.27-1.01,.05-1.44,.51-1.89,.73-.71,.95,.23,1.3,.61,.11,.12,.06,.4,.35,.37,.21-.5,.03-1.86,1.08-.46,.16,.21,.44,.02,.66-.07,.7-.31,1.42-.51,2.18-.53,.33-.01,.53-.13,.57-.47l.24-.24c.08,0,.16,0,.23,0,.14,.31,.38,.48,.72,.48,.42,.98,1.79,.86,2.21,1.85,0,.02,.37-.06,.51-.16,.27-.2,.56-.27,.87-.25,.26,.31,.53,.29,.73-.05,.26-.44,.58-.42,.95-.19,.61,.66,1.61,.35,2.26,.94,1.01,.92,2.07,1.77,3.06,2.7,.36,.34,.72,.45,1.17,.42Z"/><path class="cls-4" d="M47.37,60.44c.59-.55,1.32-.77,2.08-.71,1.52,.13,3.03,.39,4.55,.54,1.55,.15,2.33,1.33,3.11,2.39,1.36,1.86,3.28,2.44,5.39,2.53,1.47,.06,2.74,.8,4.15,1.01,.29,.04,.44,.3,.36,.52-.43,1.24-.17,2.66-.96,3.8-5.16-1.37-10.07-3.34-14.54-6.31-.82-.55-1.63-1.13-2.44-1.69-.77-.53-1.34-1.22-1.69-2.09Z"/><path class="cls-11" d="M104.88,69.04c-.49-.06-1.01,.16-1.45-.21,.34-1.06-.49-1.21-1.16-1.47-.47-.18-1.16-.4-1.11-.84,.05-.43,.92-1.16,.97-1.13,1.07,.79,1.54-.2,2.06-.72,1.09-1.1,2.75-1.22,3.82-2.33h.24c.61,.78,1.57,.74,2.4,.93,.71,.16,1.57,.38,1.57-.9,0-.39,.42-.49,.81-.53,.38-.05,.73,.34,1.12,.05l-.39-.99c.6-.06,1.12,.08,1.41,.67,.3,.63,.8,.85,1.47,.76,.08,0,.16,0,.24,0,.03,.53-.25,1.3,.82,1.06,.08-.02,.32,.27,.34,.43,.04,.49,.3,.77,.7,1.02,.54,.34,.74,.83,.31,1.41-.14,.2-.31,.42-.16,.65,.2,.32,.48,.1,.75,.05,1.17-.24,2.37-.45,3.49,.16,1.51,.82,3.08,1.43,4.77,1.74,.27,.05,.24,.38,.25,.61-1.17,.13-2.35,.26-3.52,.39-.18-.71-.74-1.11-1.26-1.54-.14-.13-.35-.4-.4-.38-1.8,1.01-4.17-1.2-5.75,1.03-.05,.08-.23,.06-.33,.1-.48,.21-.75,.56-.7,1.11-.9,.17-1.75-.21-2.64-.21,.04-.93,.47-1.6,1.37-1.88,.37-.11,.47-.29,.56-.64,.25-.95-.07-1.73-.73-2.33-.64-.58-1.67,.08-1.91,.25-1.4,1.04-2.57,.4-3.8-.16-2.51-1.13-2.58-1.11-3.84,.79-.02,.03-.07,.06-.07,.09-.21,.97-1.6,1.85-.2,2.93Z"/><path class="cls-6" d="M142.44,55.44l-1.17-1.21c.84-1.44,1.75-2.84,1.27-4.68-.15-.55-.09-1.23,.36-1.77,.21-.26,.11-.67,.13-1.02,.08-1.3-.14-2.59-.2-3.88-.06-1.25,.36-2.41,.32-3.67-.06-1.64,.93-3.14,1.51-4.66,.23-.61-.91-.76-.1-1.14,.63-.3,.66-.96,.73-1.52,.07-.62,.07-1.21,.69-1.6,.2-.12,.5-.28,.4-.65-.27-1.01,.14-2,.16-3,.02-2.07,.93-3.97,1.47-5.94,.61-.62,1.33-1.06,2.12-1.41,.21,.11,.54,.41,.42,.47-1.03,.56-.59,1.67-.97,2.46-1.03,2.13-1.04,4.54-1.78,6.75-.29,.86-.15,1.77-.12,2.68,.02,.71-1.13,1.29-.83,2.3-1.95,1.11-1.24,2.98-1.4,4.64-.1,1.05,.27,1.99,.4,2.99,.15,1.18-.78,1.94-1.04,2.98-.43,1.71-.64,1.73-.45,3.64,.01,.14-.09,.3-.18,.42-.35,.51-.3,1.09-.13,1.6,.2,.6,.06,1.06-.2,1.58-.5,.99-1.45,1.84-.93,3.15,.08,.21-.23,.39-.45,.49Z"/><path class="cls-13" d="M116.86,62.34c-.08,0-.16,0-.24,0-.03-1.04-.69-1.65-1.49-2.19-.43-.29-1.23-.56-.82-1.21,.63-.99,.24-1.88-.15-2.68-.38-.78-.37-1.48-.18-2.25,.54-.24,1.07-.49,1.67-.53-.01,.47,.09,1.01,.63,.92,.88-.14,1.55,.21,2.34,.46,1.18,.38,2.48,.38,3.74,.54-.04,.34-.24,.46-.57,.47-.76,.03-1.49,.23-2.18,.53-.22,.1-.5,.28-.66,.07-1.05-1.4-.87-.04-1.08,.46-.29,.03-.23-.25-.35-.37-.35-.38-.57-1.32-1.3-.61-.46,.45-1.79,.89-.51,1.89,.09,.07,.16,.19,.17,.3,.18,1.47,1.13,1.72,2.39,1.55,.47-.06,.78,.12,1.01,.62,.38,.87,1.08,1.45,2.02,1.7,.42,.11,.93,.19,1.09,.64,.59,1.65,2.14,2.21,3.37,3.17,1.47,1.14,2.85,1.68,4.75,.94,.69-.27,2.08-.67,2.72,.64,.05,.1,.27,.14,.42,.16,2.09,.26,3.35-1.35,2.81-3.43-.25-.96-.91-1.78-.92-2.8,.88,1.07,1.8,2.11,2.19,3.49-.57,1.07-1.14,2.15-1.71,3.22-1.7,.47-3.45,.68-5.19,.97-.43,.07-.85,.14-1.28,.21,.02-.91-.73-.81-1.26-.91-1.62-.32-3.2-.81-4.37-1.99-.79-.79-1.36-.94-2.19,.14,.05-1.01-.41-1.68-.66-2.4-.28-.8-1.39-.6-2.05-1.02-.17-.11-.46-.15-.51-.29-.34-1-1.03-.56-1.65-.43Z"/><path class="cls-7" d="M109.7,22.79c-.97,.17-1.64-.5-2.43-.84,0-.35-.1-.7-.17-1.02-.16-.76,.25-1.43,.19-2.1-.1-1.06-.07-1.95,.95-2.54,.38-.22,.5-.59,.46-1.02,.38-.04,.88,.16,.96-.48,2.04-.73,3.04-2.74,4.79-3.82h0c.73,.67,1.53,.65,2.5,.54,1.3-.15,2.5-1.08,3.97-.35,.97,.48,1.34,.7,1.1,1.79-.04,.19,.03,.39,.17,.36,.76-.17,1.52,.24,2.24,.07,1.07-.25,1.69-1.25,2.59-1.81,.24-.15,.12-.42-.1-.59,.45-.36,1.56-.25,.95-1.35,1.52,.06,3.04,.13,4.56,.19,.71,1.36-.95,1.06-1.26,1.75-.25,.57-.71,.02-.95-.19-.57-.51-.8-.36-.9,.32-.08,.08-.16,.16-.25,.24-.27-.32-.5-.27-.74,.05-.22,.31-.47,.6-.7,.9h-.24c-.66,.35-1.57,.47-1.99,.9-.55,.56-.61,1.6-1.79,1.25-.41,.93-1.11,.45-1.61,.22-.67-.31-1.22-.58-1.7,.24-.1,.18-.36,.27-.5,.06-.47-.74-1.23-.36-1.84-.53-.71-.2-1.85-.07-1.46-1.45,.08-.29-.25-.53-.5-.59-.98-.23-2-.15-2.65,.62-1.25,1.49-3.3,1.98-4.38,3.71-.2,.32-.63,.53-.8,1.06-.58,1.8-.35,3.26,1.43,4.24,.06,.03,.08,.13,.11,.2Z"/><path class="cls-12" d="M44.02,20.73c1.58,2.16,2.49,4.62,3.18,7.17-.51,.16-1.11,.1-1.34,.79-.16,.46-.57,.49-.82,.11-.6-.9-1.09-1.92-2.5-1.45-.12,.04-.34-.3-.55-.41-.7-.37-1.3-.84-1.89-1.39-.59-.54-1.34-.91-2.29-1.03-1.54-.19-2.86,.22-4.2,.78-.8,.34-1.91,.57-2.41,.14-.97-.84-1.97-.46-2.91-.48-1.55-.02-2.44-.71-2.49-2.31l.96-.7c.64,1.6,.65,1.65,2.31,1.19,.82-.23,1.56,0,2.33,.07,2.12,.16,4.19,1.12,6.4,.22,.74-.3,1.49-.65,2.33-.8,1.43-.26,2.8-.83,3.89-1.88Z"/><path class="cls-10" d="M140.33,12.62c-.09,1.2-.36,2.36-.88,3.45-.17-.22-.31-.48-.53-.64-.85-.64-1.82-.48-2.76-.33-.8,.13-.89,.78-.89,1.46,0,.43-.37,.6-.71,.72-1.69,.57-3.29,1.25-4.4,2.78-.39,.54-.89,1.15-.68,1.66,.19,.49,.91,.73,1.62,.73,1.48,0,2.97,.14,4.45,.22-.45,.49-.9,.98-1.36,1.47-.79-.34-1.5-.7-2.45-.31-1.29,.53-2.87-.24-4.11,.75h-.48c-.42-.3-.82-.65-1.28-.86-.78-.37-.89-1.14-.52-1.59,.92-1.12,1.52-2.68,3.3-2.82,.5-.04,.59-.4,.67-.83,.26-1.37,.96-1.94,2.33-2.11,.48-.06,.94-.36,1.08-.83,.18-.6,.52-1.11,.9-1.51,.79-.82,1.52-1.98,2.86-1.8,1.27,.17,2.58-.02,3.83,.4Z"/><path class="cls-10" d="M158.07,51.11c.56,.95,1.12,1.9,1.69,2.85-.89,1.15-2.06,2.01-3.1,3-.49,.46-.9,.79-.31,1.53,.64,.81,.92,1.82,.77,2.89-1.12,.49-2.24,.19-3.36-.02,0-.36-.28-.55-.45-.81-.61-.89-1.4-1.95-.91-2.95,.68-1.43,.07-2.37-.57-3.49-.68-1.19-.24-2.16,1.08-2.42,.77-.15,1.43-.41,2.03-.9,.63-.51,1.24-.44,1.82,.08,.39,.35,.78,.75,1.32,.23Z"/><path class="cls-3" d="M147.99,20.69c-.54,1.97-1.45,3.87-1.47,5.94-.01,1.01-.43,1.99-.16,3,.1,.37-.2,.52-.4,.65-.62,.39-.62,.98-.69,1.6-.06,.57-.1,1.23-.73,1.52-.81,.38,.33,.53,.1,1.14-.57,1.52-1.56,3.02-1.51,4.66,.04,1.26-.37,2.41-.32,3.67,.06,1.29,.28,2.58,.2,3.88-.02,.35,.08,.77-.13,1.02-.45,.55-.51,1.23-.36,1.77,.49,1.84-.43,3.23-1.27,4.68l-.71-.7c.53-.65,.18-1.4,.14-2.06-.09-1.33,.63-2.43,.95-3.61,.36-1.34,.08-2.53-.2-3.66-.29-1.19,.17-2.19,.21-3.27,.03-.75,.04-1.49,.03-2.23,0-.92,.16-1.83,.48-2.75,.43-1.26,1.08-2.48,.98-3.93-.08-1.14,.79-2.09,1.17-3.15,.28-.77,.74-1.37,.23-2.32-.28-.52,.15-1.43,.3-2.16,.1-.5,.35-.98,.26-1.51,.88-.82,1.82-1.57,2.87-2.17Z"/><path class="cls-4" d="M37.79,52.78c0-.2-.05-.42,.02-.59,.41-.95,1.71-1.74,.49-2.97,.73-.77,.29-1.5-.16-2.14-.61-.86-.87-1.81-1.12-2.81-.22-.86-.68-1.59-1.75-1.84-.77-.18-1.57-.63-2.14-1.19-.67-.66-1.31-.73-2.19-.7-1.68,.06-3.38-.32-5.04-.14-1.48,.16-2.88-.04-4.16-.55-1.54-.62-3.14-.09-4.67-.65-1.9-.68-3.82-1.24-5.46-2.47,.3-.58,.72-1.06,1.23-1.46,.04,.2,.08,.46,.3,.47,1.27,.05,2.17,.91,3.22,1.44,.18,.09,.36,.23,.54,.24,1.86,.06,3.52,1.05,5.35,1.19,1.12,.08,2.25-.12,3.4-.06,.5,.03,1-.1,1.47,.18,.84,.49,1.71-.06,2.46-.17,1.35-.19,2.18,.66,3.24,.98,.83,.25,1.41,1.13,2.4,1.13,.07,0,.16,.06,.2,.12,.98,1.31,2.38,2.29,3.04,3.87,.6,1.45,.65,3.06,1.38,4.47,.15,.28,.17,.68-.03,.92-.74,.88-1.12,2.01-2.05,2.74Z"/><path class="cls-12" d="M120.68,27.22c-.74,.06-1.36-.16-1.96-.63-.71-.56-1.74-.42-2.49-.97,.66-.33,.31-1.01,.5-1.5,.31-.78,1.14-1.07,1.49-1.7,.87-1.57,2.51-1.76,3.88-2.03,1.06-.21,1.95-.39,2.76-1.1,.91-.8,1.64-1.75,2.37-2.7,.54-.69,1.42-1.04,1.75-2.03,.12-.38,.82-.94,1.59-1,1.55-.13,2.74-1.15,3.83-2.09,.37-.32,1.25-.61,1.14-1.45,.72,0,1.44,0,2.16,0-.04,.25,.08,.68-.36,.58-.85-.19-1.24,.38-1.68,.87-.4,.45-.88,.91-1.41,1.01-.93,.18-1.57,.72-2.23,1.29-.74,.65-1.31,1.56-2.53,1.41-.26-.03-.44,.31-.55,.57-.21,.54-.35,1.12-.65,1.62-.33,.56-.37,1.35-1.09,1.63-1.2,.47-2.05,1.51-2.57,2.45-.78,1.42-1.8,1.56-3.09,1.51-.2,0-.42-.07-.53,.12-.11,.19-.04,.4,.18,.48,.59,.22,.45,.67,.37,1.1-.19,1.05,.21,1.36,1.29,1.09,1.42-.36,2.75-1.14,4.29-.95-1.07,.66-2.01,1.63-3.48,1.31-.28-.06-.63,.03-.91,.14-.71,.29-1.39,.63-2.08,.95Z"/><path class="cls-14" d="M157.82,16.72c2.1-.15,4.1,.24,5.98,1.18,.67,.33,1.02,.78,.32,1.46-2.36,2.26-4.05,4.95-5.28,7.95-.06,.14-.17,.26-.26,.39-2.17-.75-2.32-3.1-2.11-5.26,.19-1.94,.71-3.86,1.35-5.73Z"/><path class="cls-7" d="M150.41,37.75c-.37,.52-1.06,.37-1.66,.69,.31,.33,.77,.15,.93,.48-.22,.59-.38,1.21-.67,1.77-.29,.57-.32,.99,.18,1.48,.53,.52,.4,2.69-.14,3.21-1.16,1.11-2.09,2.3-1.52,4.06h0c-.62,.2-.79,.69-.48,1.16,.49,.73,.05,.97-.48,1.23h0c-.43-.92-.51-1.69-.21-2.83,.37-1.4,.89-2.71,1.4-4.04,.27-.71,.58-1.68,.31-2.27-.48-1.04-.22-2-.09-2.94,.2-1.44-.29-3.05,.89-4.3,.05-.06-.02-.23-.02-.34,0-.71,.04-1.44,.42-2.05,.91-1.45,.39-3.16,.94-4.7,.45-1.26-.73-2.9,.81-4,.07-.05,.04-.31,0-.44-.3-.76-.09-1.48,.1-2.21,1.12-.42,.79-1.33,.72-2.15,.3-.42,.24-.84-.02-1.25,.34-.34,.78-.48,1.21-.63-.02,.43-.15,.88-.04,1.28,.25,.93-.94,1.57-.43,2.52v.24c-.87,.18-1.18,.98-.87,1.52,.43,.77,.19,1.32,0,1.99-.14,.49-.41,1.12-.23,1.49,.58,1.15,.62,2.28,.5,3.52-.1,.96,.1,2.02-.33,2.88-.75,1.49-.24,3.26-1.2,4.66Z"/><path class="cls-8" d="M151.82,18.31c.26,.41,.32,.83,.02,1.25-.65,.58-.48,1.43-.72,2.15-.71-.09-1.05,.19-.97,.93,.03,.31,.05,.66-.04,.95-.65,2.06-1.06,4.18-1.47,6.3-.18,.92,.45,1.89,.03,2.67-.7,1.3-1.16,2.65-1.67,4.01-.26,.69-.5,1.31-.4,2.01,.23,1.64-.13,3.33,.44,4.94,.4,1.13-.8,1.74-.92,2.67-.26,1.97-.94,3.87-1,5.87-.32,.14-.48,.37-.48,.72-.78,.22-1.05,.75-1.05,1.53,0,.77-.11,1.54-.17,2.31-.46-.28-.72-.73-.99-1.18,.23-.1,.53-.28,.45-.49-.52-1.31,.43-2.17,.93-3.15,.26-.52,.4-.98,.2-1.58-.17-.51-.22-1.09,.13-1.6,.09-.13,.19-.29,.18-.42-.19-1.91,.02-1.93,.45-3.64,.26-1.04,1.19-1.8,1.04-2.98-.13-.99-.5-1.94-.4-2.99,.16-1.65-.55-3.53,1.4-4.64-.3-1.01,.86-1.58,.83-2.3-.03-.91-.17-1.82,.12-2.68,.74-2.22,.75-4.63,1.78-6.75,.38-.79-.06-1.9,.97-2.46,.12-.07-.21-.36-.42-.47,.49-.47,1.08-.76,1.71-.98Z"/><path class="cls-13" d="M44.02,20.73c-1.09,1.05-2.46,1.62-3.89,1.88-.84,.15-1.59,.5-2.33,.8-2.2,.9-4.27-.06-6.4-.22-.78-.06-1.51-.3-2.33-.07-1.66,.46-1.67,.41-2.31-1.19,.91-.78,1.8-1.59,2.88-2.15,1.18,1.23,2.54,2.07,4.32,1.65,1.11-.27,2.21-.2,3.32-.21,2.13-.02,3.06-.69,3.6-2.68,.28-1.03-.25-1.65-1.09-2.19-.8-.51-1.88,.03-2.47-.87,.86-.45,1.7-.96,2.66-1.17-.18,.53,.12,.87,.41,1.28,1.24,1.69,2.43,3.42,3.64,5.14Z"/><path class="cls-6" d="M67.67,71c.4-.32,.43-.8,.55-1.24h0q.74-.24-.12-1.26c2.11,.15,2.05,.11,3.09-2.07,.29-.61,.69-1.56,1.95-1.1,.74,.27,1.37-.66,1.93-1.1,.72-.57,1.52-.8,2.31-1.09,.67-.24,1.4-.3,1.89-.9,.13-.15,.31-.31,.52-.18,1.35,.8,2.47-.31,3.7-.45,1.17-.13,2.26-.68,3.53-.33,.69,.19,1.5-.14,2.25-.06,.92,.09,2.06-.36,2.66,.84,.08,.15,.37,.29,.52,.12,.39-.45,.92-.3,1.37-.44,.5-.16,.86-.29,1.44-.19,.77,.13,1.64-.51,1.58-1.28-.11-1.51,1.11-1.49,1.88-1.99,.25-.16,.61-.14,.91-.2-.35,.79-1.6,1.14-1.2,2.29,.35,.99,.09,1.39-.88,2-.94,.6-1.55,.89-2.49,.3-.17-.11-.46-.03-.7-.04-.45,.16-.64,.73-1.2,.71,0-.08,0-.16,0-.24-.08-.17-.16-.17-.24,0h-.24c-.32-.33-.77-.37-1.19-.48-.44-.51-1.14,.23-1.53-.28-.45-.57-.93-.57-1.44-.2-.4,.29-.75,.22-1.1,0-.42-.27-.81-.14-1.25-.03-.5,.13-1.08,.17-1.52,.25-1.58,.26-3.33,.21-4.71,1.28-.74,.58-1.83,.4-2.51,1.07-.7,.7-1.73,.3-2.45,.82-.63,.45-1.14,1.04-1.97,1.26-.48,.13-.73,.71-.85,1.3-.18,.85-1.13,1.32-1.25,2.25,0,.05-.22,.14-.31,.11-1.01-.3-.96,.51-1.16,1.07-.6-.06-1.21-.12-1.74-.47Z"/><path class="cls-11" d="M25.8,22.64c.04,1.6,.94,2.29,2.49,2.31,.94,.01,1.94-.36,2.91,.48,.5,.43,1.61,.2,2.41-.14,1.34-.56,2.66-.97,4.2-.78,.95,.12,1.71,.49,2.29,1.03,.59,.55,1.19,1.02,1.89,1.39,.21,.11,.43,.45,.55,.41,1.41-.46,1.9,.55,2.5,1.45,.25,.38,.66,.35,.82-.11,.23-.69,.83-.63,1.34-.79,.12,.4,.24,.8,.36,1.2-1.28,.15-2.43,1.09-3.8,.67-.52-.16-.83-.11-.98,.46-.1,.4-.37,.64-.8,.45-.48-.21-.26-.56-.13-.9,.55-1.41,.47-1.62-.87-2.29-.42-.21-.86-.37-1.29-.55h0c-.07-.37,.22-.93-.23-1.06-.97-.28-1.95-.75-3.01-.3-1.18,.5-2.36,1.03-3.58,1.44-.61,.2-1.13,.47-1.58,.89l-.46-.05c-.54-.9-1.93-1.28-2.76-.62-.63,.5-1.43,.54-2.08,1.05-.66,.52-1.26,0-1.41-.83-.2-1.15-.7-2.28,.24-3.36,.1-.11,0-.38,0-.58l.98-.89Z"/><path class="cls-14" d="M37.31,15.49c.59,.9,1.67,.36,2.47,.87,.84,.54,1.37,1.16,1.09,2.19-.54,1.99-1.47,2.66-3.6,2.68-1.11,0-2.21-.06-3.32,.21-1.78,.43-3.14-.41-4.32-1.65,2.36-1.79,4.92-3.21,7.67-4.3Z"/><path class="cls-1" d="M108.23,62.35h-.24c-.16-.01-.38,.03-.46-.05-.55-.59-.97-.67-1.62,0-.34,.35-1.03,.54-1.67,.45-1.66-.24-2.18,.1-2.76,1.73-.16,.45-.3,.95-.9,.96-.87,.01-1.39,.44-1.72,1.22-.13,.31-.54,.82-.74,.56-.87-1.12-.98,.1-1.39,.38-.32-.02-.63-.03-.95-.05,.43-.9-.65-1.04-.86-1.65-.12-.36-.59,.11-.91,.18-.17,.04-.3,0-.4-.16-.2-.41,.23-1.64-.96-.71l-.24-.24c.05-.88-.9-.54-1.21-.99l.25-.72c.32,.02,.63,.04,.95,.06,.08,.59,.42,.35,.72,.22,.08,0,.16,0,.24,0-.09,.73,.23,1.04,.96,.94h.72c.67,.15,1.09,.84,1.92,.74,1.88-.22,3.19-1.15,4.02-2.82,.35-.7,.59-1.42,1.69-.85,.56,.28,1.11-.11,.94-.9-.19-.86,.32-1.49,1.24-1.29,.75,.16,1.19,.1,1.25-.86,.2,.54,.66,.92,.23,1.41-.17,.19-.35,.41-.1,.6,.33,.27,.48-.01,.6-.29,.11-.25,.39-.27,.46-.08,.46,1.17,1.31,.56,2.09,.56,.83,0,.7-.6,1.01-.97,.57-.65,.46-1.02,.06-1.63-.52-.81-1.24-1.58-1.01-2.68,.48-.15,.96-.31,1.44-.46,.09,.45,.31,.88,.05,1.37-.11,.21-.09,.46,.23,.68,1.08,.74,1.28,1.61,.66,2.69-.65,1.13-1.19,2.4-2.86,2.29-.23-.02-.56,.07-.72,.34Z"/><path class="cls-14" d="M135.56,22.67c-1.48-.08-2.97-.22-4.45-.22-.71,0-1.42-.23-1.62-.73-.2-.52,.29-1.13,.68-1.66,1.11-1.53,2.71-2.21,4.4-2.78,.34-.11,.71-.29,.71-.72,0-.68,.08-1.34,.89-1.46,.94-.15,1.91-.31,2.76,.33,.21,.16,.35,.42,.53,.64-.7,2.55-2.11,4.68-3.89,6.6Z"/><path class="cls-11" d="M135.54,10.02c.11,.84-.77,1.13-1.14,1.45-1.09,.94-2.28,1.96-3.83,2.09-.77,.06-1.47,.63-1.59,1-.32,.99-1.21,1.34-1.75,2.03-.74,.95-1.46,1.9-2.37,2.7-.81,.71-1.7,.89-2.76,1.1-1.36,.26-3.01,.46-3.88,2.03-.35,.63-1.18,.92-1.49,1.7-.2,.5,.16,1.17-.5,1.5-.62-.19-1.25-.38-1.79-.74,.05-1.08,.17-2.17-1.01-2.81-.16-.08-.15-.29-.05-.42,.78-1.04,1.59-2.07,3.07-2.08,.39,0,.68-.12,.9-.47,.45-.73,1.09-.59,1.66-.22,1.32,.86,2.73,.39,4.11,.34,.6-.02,1.07-.32,1.48-.93,.55-.82,1.07-1.81,2-2.24,.54-.25,.75-.58,1.05-1,.79-1.13,1.5-2.46,3.29-2.05,.44,.1,.51-.27,.56-.59,1.34-.29,2.21-1.05,2.43-2.45l1.64,.08Z"/><path class="cls-13" d="M127.16,24.81c-1.54-.19-2.87,.6-4.29,.95-1.08,.27-1.47-.04-1.29-1.09,.08-.43,.22-.88-.37-1.1-.22-.08-.29-.29-.18-.48,.11-.2,.33-.13,.53-.12,1.29,.05,2.31-.09,3.09-1.51,.51-.94,1.37-1.99,2.57-2.45,.72-.28,.76-1.07,1.09-1.63,.29-.49,.43-1.08,.65-1.62,.11-.27,.29-.61,.55-.57,1.21,.15,1.79-.76,2.53-1.41,.66-.57,1.3-1.11,2.23-1.29,.53-.1,1.01-.56,1.41-1.01,.44-.49,.83-1.07,1.68-.87,.43,.1,.32-.33,.36-.58,1.03-.18,2.02,.24,3.04,.2,.43-.02,.8,.3,.38,.63-.62,.49-.51,1.19-.78,1.77-1.24-.42-2.55-.23-3.83-.4-1.34-.18-2.07,.97-2.86,1.8-.39,.4-.73,.92-.9,1.51-.14,.47-.6,.77-1.08,.83-1.37,.16-2.07,.73-2.33,2.11-.08,.43-.16,.79-.67,.83-1.78,.14-2.38,1.71-3.3,2.82-.37,.45-.25,1.22,.52,1.59,.46,.22,.85,.57,1.28,.86v.24Z"/><path class="cls-6" d="M41.87,46.33c-.77,.08-.75-.44-.73-.96,.08-.07,.32,.1,.25-.18l-.25,.18c-.55-.28-.59-1.14-.52-1.27,.49-.81-.33-.85-.6-.98-1.18-.53-2.01-1.42-2.74-2.43-.34-.47-1.33,.12-1.36-.84-2.32-.61-4.19-2.26-6.54-2.8-.42-.1-.87-.05-1.31-.05-.88,0-1.81,.37-2.52-.55-.24-.31-.64-.03-.88,.11-.57,.32-1.15,.48-1.83,.41-.18-.02-.4,.03-.55,.12-1.02,.58-1.87-.18-2.79-.27-1.14-.1-1.84-1.17-2.99-1.02-.35,.05-.59-.18-.83-.39-.61-.52-1.3-.91-2.11-1.04,.21-.42,.57-.7,.94-.97,.16,.02,.41-.03,.46,.06,.85,1.31,2.7,.57,3.73,1.92,.48,.63,2.13,.61,3.26,.19,.02,.23-.04,.52,.22,.64,.52,.23,2.68-.39,3.14-.88h1.2c1.55-.09,2.93,.6,4.39,.94,.18,.04,.35,.2,.48,.34,.9,1.03,2.48,.77,3.4,1.78,.04,.04,.25,0,.33-.07,.61-.48,1.16-.2,1.7,.13,.18,.27,.45,.41,.43,.87-.04,1.03,1.4,2,2.44,1.76h.48c.13,.75,.81,1.16,1.24,1.65,.73,.82,.58,1.81,.95,2.67-.06,.37-.2,.7-.51,.94Z"/><path class="cls-4" d="M8.31,40.57c.01,.16-.03,.41,.05,.46,1.24,.74,1.87,2.36,3.58,2.44,.7,.03,1.31,.28,1.93,.73,.58,.42,1.24,.82,2.21,.78,1.33-.05,2.04,1.27,2.81,2.25,.62,.79,.94,2.04,2.13,2.07,.83,.02,1.5,.19,2.01,.76,1.41,1.59,3.65,1.76,5.2,3.05,.85,.7,1.73,1.37,2.54,2.12,1.49,1.38,1.55,1.43,3.44,.65-.44,1.06-1.39,1.47-2.3,1.06-1.91-.86-3.97-1.67-5.48-3.04-1.57-1.43-3.39-2.17-5.19-3.07-.51-.25-.63-.81-1.06-1.1-2.14-1.45-4.13-3.11-6.57-4.14-1.03-.44-1.95-1.14-3.13-1.17-.15-.08-.3-.16-.45-.23-.31-.18-.42-.8-.76-.67-1.11,.41-1.81-.32-2.63-.78,.49-.78,1.02-1.52,1.69-2.16Z"/><path class="cls-2" d="M147.99,59.73c-.53-.13-1.01-.37-1.42-.73,1.85-1.48,.88-3.73,1.39-5.58,.3-1.08,.04-2.67-.43-3.97h0c.67-1.08,1.69-1.87,2.27-3.07,.35-.71,.7-1.8,1.46-2.11,1.04-.41,.89-.9,.42-1.49-.33-.4-.19-1.05-1.11-1.24-.66-.14-.19-1.38,.06-2.11,1.33,.42,2.13,1.45,2.87,2.52,.7,1,1.36,2.05,1.79,3.2-1.48-.13-2.7,.8-4.1,1-.38,.05-.29,.4-.2,.67,.27,.76-.02,1.25-.78,1.41-.48,.1-.68,.4-.75,.79-.12,.69-.19,1.4-.28,2.09l-.24,.24c-.27,.68-.64,1.37,.23,1.92l-.24,.95c-.09,.64-1.03,1.28,0,1.91-.05,1.27,.22,2.63-.97,3.6Z"/><path class="cls-14" d="M157.11,61.38c.16-1.07-.13-2.07-.77-2.89-.59-.74-.17-1.07,.31-1.53,1.04-.99,2.21-1.85,3.1-3,1.36,1.53,2.62,3.16,4.45,4.2,.42,.24,.51,.67-.05,.9-2.16,.88-4.22,2.02-6.58,2.33-.16,.02-.32,0-.48,0Z"/><path class="cls-9" d="M21.97,35.57c-1.14,.43-2.78,.44-3.26-.19-1.03-1.35-2.87-.61-3.73-1.92-.05-.08-.3-.04-.46-.06,.32-.33,.64-.67,.97-1,.37,.65,.82,1.58,1.58,1.33,.81-.27,1.35,.06,1.96,.27,2.8,.97,5.52,.57,8.23-.35,1.08,1.32,2.44,1.72,4.06,1.2,.02,.12,0,.29,.08,.34,1.81,1.29,3.73,2.34,6.01,2.44,.33,.01,.55-.02,.83,.22,.93,.81,1.81,1.61,3.24,1.63,.76,.01,2.06,.1,1.84,1.58-.55,.4-1.12,.76-1.78,.25-.42-.32-.88-.22-1.34-.25-.16,0-.32,0-.48,0-.65-1.01-1.74-1.65-2.25-2.8-.19-.44-.41,.1-.63,.17-.55-.32-1.09-.61-1.7-.13-.08,.07-.29,.12-.33,.07-.92-1.01-2.5-.74-3.4-1.78-.13-.15-.3-.3-.48-.34-1.46-.34-2.84-1.03-4.39-.94-.4-.5-.8-.89-1.2,0h0c-1.14-.16-2.22,.32-3.35,.24Z"/><path class="cls-2" d="M24.82,23.53c0,.2,.1,.47,0,.58-.94,1.07-.44,2.2-.24,3.36,.15,.84,.74,1.35,1.41,.83,.65-.5,1.45-.55,2.08-1.05,.83-.65,2.23-.27,2.76,.62-2.02-.11-3.23,.98-4.02,2.69-.51,.02-1,.39-1.51,.18-.83-.34-1.47,.05-2.07,.51-.67,.51-2.34,1.01-3.16,.98-.88-.03-1.14-.7-1.33-1.3-.18-.56,.22-.94,.78-1.26,.65-.38,1.27-.63,2.01-.56,.56,.05,.97-.14,1.34-.59,.98-1.19,.13-2.07-.44-3.01,.74-.73,1.49-1.45,2.39-1.99Z"/><path class="cls-14" d="M15.29,49.15c.32,.04,.54,.23,.71,.47-.02,.37,.13,.56,.52,.47h-.02c.19,1.04,1.27,1.55,1.54,2.61,.22,.9-.02,1.88-.96,1.85-1-.04-1.86,.52-2.83,.4-1.76-1.06-3.37-2.3-4.76-3.81,.79-1.3,1.81-1.88,3.43-1.52,.72,.16,1.75,.51,2.36-.47Z"/><path class="cls-5" d="M142.41,24.77c.5,.37,.28,.82,.18,1.29-.31,1.55-.94,3-1,4.66-.06,1.59-1.22,2.96-1.88,4.42-.19,.42-.48-.01-.61-.32-.35-.8-.21-1.69-.57-2.53-.38-.9-.77-1.73-1.55-2.33-.56-.43-.73-1.13-1.23-1.58,2.35-.97,4.54-2.22,6.66-3.61Z"/><path class="cls-13" d="M158.07,51.11c-.54,.52-.93,.12-1.32-.23-.58-.52-1.19-.59-1.82-.08-.59,.48-1.26,.74-2.03,.9-1.32,.27-1.76,1.23-1.08,2.42,.63,1.12,1.25,2.06,.57,3.49-.48,1,.3,2.06,.91,2.95,.18,.26,.46,.45,.45,.81-.92,.07-1.79-.15-2.63-.48,.23-.64,.27-1.17-.66-1.21-.25-.01-.71-.34-.62-.4,.93-.63,.2-1.45,.22-2.13,.03-1.33,.39-2.67,.22-3.96-.11-.89,.08-1.54,.72-1.79,1.35-.52,1.82-2.23,3.61-2.31,.58-.03,1.33-.94,2.28-.65,.6,.79,.76,1.78,1.18,2.65Z"/><path class="cls-12" d="M104.88,69.04c-1.4-1.08-.01-1.96,.2-2.93,0-.03,.05-.06,.07-.09,1.26-1.9,1.33-1.92,3.84-.79,1.24,.56,2.4,1.19,3.8,.16,.24-.18,1.27-.83,1.91-.25,.66,.6,.98,1.38,.73,2.33-.09,.35-.19,.52-.56,.64-.9,.27-1.33,.95-1.37,1.88-.97,.02-1.94,.12-2.88-.23,.1-.46-.73-.75-.26-1.27,.41-.46,.15-.75-.18-1.09-.64-.67-1.55-.98-2.13-1.74-.27-.35-.77-.21-1.18,.07-1.21,.83-1.65,2.03-1.76,3.41l-.23-.08Z"/><path class="cls-1" d="M22.44,25.52c.58,.94,1.42,1.82,.44,3.01-.37,.45-.78,.64-1.34,.59-.74-.07-1.36,.18-2.01,.56-.56,.32-.95,.7-.78,1.26,.19,.6,.45,1.28,1.33,1.3,.82,.03,2.48-.47,3.16-.98,.6-.46,1.24-.86,2.07-.51,.52,.21,1-.15,1.51-.18-.03,.63-.06,1.27-.09,1.9-.59-.24-1.15-.28-1.67,.16-.22,.18-.46,.39-.73,.13-.41-.39-.7-.16-1.01,.14-.46,.44-1.04,.49-1.65,.54-.61,.05-1.11-.51-1.53-.41-1.68,.38-2.54-.96-3.74-1.57,1.84-2.16,3.91-4.09,6.05-5.94Z"/><path class="cls-12" d="M156.88,48.46c-.95-.29-1.69,.62-2.28,.65-1.78,.08-2.26,1.79-3.61,2.31-.64,.25-.84,.9-.72,1.79,.17,1.29-.19,2.63-.22,3.96-.02,.68,.71,1.49-.22,2.13-.09,.06,.37,.39,.62,.4,.93,.04,.89,.56,.66,1.21-1.1-.23-2.15-.58-3.12-1.16,1.19-.97,.92-2.32,.97-3.6,.34-.64,.34-1.28,0-1.91l.24-.95c.27-.68,.08-1.31-.23-1.92l.24-.24c.27-.15,.5-.37,.73-.55,.94-.73,1.4-2.03,2.72-2.3,.29-.06,.72,.11,.78-.34,.06-.4-.34-.34-.58-.44-.34-.14-.38-.43-.21-.68,.2-.3,.4-.03,.58,.09,.21,.14,.44,.54,.67,.18,.49-.8,1.33-.49,1.99-.74,.39,.68,.78,1.36,.99,2.13Z"/><path class="cls-11" d="M93.62,65.93c.1,.15,.23,.2,.4,.16,.32-.07,.78-.54,.91-.18,.21,.61,1.29,.75,.86,1.65-1.84-.34-3.67-.67-5.51-1.01-.29-1.17-1.15-1.57-2.22-1.56-1.54,.02-3.08-.07-4.6,.42-.61,.2-1.01,.33-1.1,.97-2.01,.43-3.98,.93-5.5,2.44-.23-.87,.68-1.38,.72-2.16,.44-.4,1.05-.39,1.55-.42,1.18-.08,1.51-.74,1.56-1.74,.07,0,.15-.01,.23-.02,.43-.01,.88-.11,1.3-.03,1.19,.22,2.32-.58,3.51-.2,.71,0,1.4-.44,2.15-.08,.2,.1,.39-.18,.49-.4h.72c1.11,.42,1.97,1.53,3.35,1.2l.24,.24c-.11,.82,.24,1.01,.96,.71Z"/><path class="cls-6" d="M105.37,21.21c-1.69-.78-1.71-1.01-.94-2.76,.29-.67,.5-1.41,.55-2.21,.07-1.07,1.17-1.61,1.85-2.32,.46-.47,1.01-.59,1.03-1.51,.01-.54,.34-1.52,1.41-1.79,.48-.12,1.33-.65,1.35-1.54h2.4c.04,.62,.05,1.22-.58,1.56-.33,.18-.4,.46-.38,.79h0c-1.14,.34-1.87,1.13-2.4,2.15h0c-.7,.17-.84,1-1.54,1.22-1.82,.55-2.6,1.98-2.73,3.74-.05,.64-.59,1.4,.2,1.98l-.23,.7Z"/><path class="cls-2" d="M96.73,67.6c.41-.27,.52-1.49,1.39-.38,.2,.26,.61-.26,.74-.56,.33-.77,.85-1.21,1.72-1.22,.61,0,.74-.52,.9-.96,.59-1.63,1.11-1.97,2.76-1.73,.64,.09,1.33-.1,1.67-.45,.65-.67,1.06-.59,1.62,0,.08,.09,.31,.04,.46,.05-1.07,1.1-2.73,1.23-3.82,2.33-.52,.52-.98,1.51-2.06,.72-.04-.03-.92,.7-.97,1.13-.05,.44,.64,.66,1.11,.84,.68,.26,1.5,.41,1.16,1.47-2.26-.23-4.5-.63-6.69-1.24Z"/><path class="cls-9" d="M80.9,64.48c-.08,0-.15,0-.22,.02-.79-.17-1.28,.48-1.91,.72-.31-.01-.64,.02-.91,.05-.84,.12-1.78,.16-2.2,1.14h0c-.35,0-.59,.15-.72,.48-.1,.19-.28,.23-.48,.25-.34-.12-.65-.46-.99,.11-.23,.38-.54,.64-.21,1.08h0c-.49,.02-1.01,.02-.48,.71,.02,.4,.46,.94-.44,1.01-.4,.03-.66,.32-.61,.85,.03,.36-.08,.79-.44,1.05-.66-.02-1.29-.18-1.88-.47,.2-.56,.15-1.37,1.16-1.07,.09,.03,.3-.06,.31-.11,.12-.92,1.08-1.4,1.25-2.25,.12-.59,.37-1.17,.85-1.3,.83-.22,1.33-.8,1.97-1.26,.72-.51,1.75-.12,2.45-.82,.68-.68,1.76-.49,2.51-1.07,1.38-1.07,3.12-1.02,4.71-1.28,.44-.07,1.03-.12,1.52-.25,.44-.11,.83-.24,1.25,.03,.35,.23,.7,.3,1.1,0,.51-.38,1-.37,1.44,.2,.4,.5,1.09-.23,1.53,.28,0,.23,0,.46,0,.69-.08,.24-.17,.48-.25,.72-.15-.08-.31-.16-.46-.23-.03-.22,.07-.53-.24-.61-1.12-.27-2.19-.56-3.42-.25-1.08,.27-2.24,.37-3.38,.26-.78-.08-2.6,.79-2.82,1.32Z"/><path class="cls-11" d="M153.97,17.38c.53-.28,1.08-.48,1.7-.44-.14,1.42-.74,2.72-1.08,4.09-.5,2.01-.61,3.97-.34,5.98,.28,2.09,1.38,3.43,2.91,3.54-.35,.81-.83,1.53-1.45,2.16-.7-.35-1.59-.4-1.73-1.48-.27-2.07-.62-4.12-.94-6.18v-.48c.61-.97,.11-2.11,.47-3.11,.53-1.1,.38-2.33,.71-3.47,.07-.23-.03-.47-.25-.61Z"/><path class="cls-12" d="M116.86,62.34c.62-.13,1.31-.58,1.65,.43,.05,.14,.34,.19,.51,.29,.66,.42,1.78,.22,2.05,1.02,.25,.72,.71,1.39,.66,2.4,.83-1.08,1.4-.93,2.19-.14,1.17,1.18,2.75,1.67,4.37,1.99,.54,.11,1.29,0,1.26,.91-.48,.08-.96,.15-1.44,.23,0-.24,.03-.56-.25-.61-1.69-.31-3.26-.91-4.77-1.74-1.12-.61-2.31-.4-3.49-.16-.26,.05-.54,.27-.75-.05-.15-.23,.02-.45,.16-.65,.42-.59,.23-1.07-.31-1.41-.4-.25-.66-.53-.7-1.02-.01-.16-.25-.44-.34-.43-1.07,.24-.78-.53-.82-1.06Z"/><path class="cls-10" d="M157.82,16.72c-.64,1.86-1.16,3.78-1.35,5.73-.21,2.16-.06,4.5,2.11,5.26-.09,.63-.33,1.19-.75,1.66-.37-.75-1.41-.41-1.78-1.03-.81-1.35-1.42-3.01-1.12-4.39,.38-1.76,.66-3.53,1.02-5.29,.13-.64,.82-1.17,.43-1.93h1.44Z"/><path class="cls-1" d="M153.03,24.57v.48c-.32,.05-.69,.11-.59,.55,.48,1.95,.48,3.91,.13,5.88-.09,.48-.05,.99,.43,1.27,.53,.31,.34,.63,.23,1.08-.14,.56-.82,1.22,.08,1.75-.8,.94-1.77,1.65-2.89,2.17,.96-1.4,.45-3.17,1.2-4.66,.43-.85,.24-1.91,.33-2.88,.12-1.24,.08-2.37-.5-3.52-.18-.37,.09-1,.23-1.49,.19-.67,.44-1.22,0-1.99-.31-.54,0-1.33,.87-1.52,.09,.84,.44,1.67,.1,2.54-.09,.24,.18,.29,.37,.33Z"/><path class="cls-9" d="M126.92,10.95c.22,.17,.34,.44,.1,.59-.9,.56-1.52,1.56-2.59,1.81-.72,.17-1.47-.24-2.24-.07-.14,.03-.21-.17-.17-.36,.25-1.1-.13-1.32-1.1-1.79-1.47-.72-2.66,.2-3.97,.35-.97,.11-1.77,.13-2.5-.54,.15-.32,.41-.45,.76-.48,.87-.07,1.73-.19,2.6-.23,.64-.02,.98-.26,.94-.92,.72-.05,1.44-.1,2.15,.12,.01,.48,.36,.47,.72,.58,.92,.27,1.52,1.06,2.28,1.59,.09,.07,.05,.54,.47,.54,.4,0,.93,.06,1-.41,.16-1.06,.92-.72,1.53-.78Z"/><path class="cls-4" d="M100.8,19.08c0-.41,.24-.72,.54-.87,1.41-.72,1.73-2.1,2.02-3.42,.35-1.58,1.13-2.86,2.25-3.95,.53-.52,.81-1.05,.7-1.78l2.16,.02c-.34,.91-.71,1.76-1.54,2.41-.52,.41-.96,1.03-1.18,1.75-.19,.62-.61,1.19-1.14,1.47-.59,.31-.69,.58-.53,1.2,.25,.94-.8,2.96-1.66,3.45-.61,.34-1.14,.23-1.61-.27Z"/><path class="cls-1" d="M147.53,49.44c.47,1.3,.73,2.89,.43,3.97-.51,1.85,.46,4.1-1.39,5.58-.81-.34-1.53-.82-2.15-1.44,.68-.71,.88-1.33,.84-2.58,0-.09,.14-.17,.19-.27,.45-.93,.88-1.87,1.13-2.88,.53-.26,.97-.5,.48-1.23-.32-.47-.15-.96,.48-1.16Z"/><path class="cls-13" d="M156.39,16.72c.39,.77-.29,1.29-.43,1.93-.36,1.76-.64,3.53-1.02,5.29-.3,1.38,.31,3.05,1.12,4.39,.37,.62,1.41,.28,1.78,1.03-.11,.47-.28,.89-.68,1.19-1.53-.11-2.63-1.45-2.91-3.54-.27-2.01-.16-3.97,.34-5.98,.34-1.37,.94-2.67,1.08-4.09,.24-.07,.48-.15,.72-.22Z"/><path class="cls-9" d="M18.87,51.09c2.32,1.19,4.48,2.63,6.51,4.28,1.2,.97,2.37,1.95,3.21,3.28,.23,.37,.3,.7,.32,1.08-2.02-.22-4.05-.31-6-.94q.6-1.43,2.1-.71c.17,.08,.37,.2,.55,.19,.4-.03,.93,.24,1.16-.29,.21-.47-.08-.84-.43-1.12-1.13-.9-2.33-1.69-3.59-2.4-.7-.29-.96-1.3-1.92-1.19-.3-.58-.82-.85-1.44-.96l-.46-.5v-.71Z"/><path class="cls-1" d="M150.64,39.43c-.24,.74-.72,1.97-.06,2.11,.91,.19,.78,.84,1.11,1.24,.47,.58,.62,1.07-.42,1.49-.76,.3-1.11,1.39-1.46,2.11-.59,1.21-1.6,1.99-2.27,3.07-.57-1.76,.36-2.95,1.52-4.06,.54-.52,.68-2.69,.14-3.21-.5-.49-.47-.91-.18-1.48,.28-.56,.45-1.18,.67-1.77,.46-.09,.63,.35,.95,.51Z"/><path class="cls-7" d="M16.39,31.46c1.2,.62,2.06,1.95,3.74,1.57,.43-.1,.93,.46,1.53,.41,.61-.05,1.19-.1,1.65-.54,.31-.3,.6-.53,1.01-.14,.28,.26,.52,.06,.73-.13,.52-.44,1.08-.4,1.67-.16l.52,1.18c-2.71,.93-5.43,1.32-8.23,.35-.61-.21-1.15-.54-1.96-.27-.76,.25-1.21-.68-1.58-1.33,.3-.31,.61-.63,.91-.94Z"/><path class="cls-13" d="M105.1,69.13c.11-1.38,.55-2.58,1.76-3.41,.41-.28,.91-.42,1.18-.07,.59,.76,1.49,1.07,2.13,1.74,.33,.34,.59,.63,.18,1.09-.46,.52,.37,.8,.26,1.27-.48,0-.96-.02-1.44-.03-.04-.35,.15-.84-.44-.9-.47-.05-.71,.22-.75,.68-.99,.09-1.93-.21-2.89-.38Z"/><path class="cls-13" d="M18.88,51.8l.46,.5c.2,1.12,.39,2.25,.62,3.37,.09,.45,0,.45-.46,.61-.8,.28-1.65-.13-2.36,.36-.15-.06-.3-.13-.45-.19-.03-.33-.03-.71-.49-.27-.76-.23-1.39-.66-1.94-1.23,.97,.13,1.83-.43,2.83-.4,.94,.03,1.18-.94,.96-1.85-.26-1.07-1.35-1.57-1.54-2.63,.22,.03,.44,.06,.66,.1,.33,.79,.84,1.4,1.7,1.62Z"/><path class="cls-10" d="M15.29,49.15c-.61,.97-1.64,.63-2.36,.47-1.62-.36-2.64,.22-3.43,1.52-.49-.4-1.04-.76-1.23-1.42,.44-1.05,1.55-1.61,1.96-2.69,0-.08,0-.16,.02-.23,1.84,.33,3.31,1.53,5.02,2.16,.02,.06,.03,.13,.02,.2Z"/><path class="cls-1" d="M74.45,67.14c.2-.01,.37-.05,.48-.25,.35,0,.69,0,.72-.48h0c1.1-.23,2.29-.24,3.11-1.2,.63-.25,1.12-.89,1.91-.72-.05,1-.38,1.66-1.56,1.74-.5,.03-1.11,.02-1.55,.42-1.64,.26-2.15,1.85-3.25,2.75-.9,.74-1,1.91-1.08,3.02-.67-.08-1.34-.15-1.94-.49,.35-.26,.47-.69,.44-1.05-.04-.53,.22-.82,.61-.85,.9-.06,.45-.61,.44-1.01,.31-.13,.47-.37,.48-.71h0c.71-.08,1.11-.48,1.2-1.19Z"/><path class="cls-4" d="M77.08,9.5c.06,.58,.53,.4,.87,.51,.83,.27,1.75,.5,1.77,1.66-.81-.17-1.64-.31-2.44-.53-2.26-.64-4.54-.93-6.91-.7-1.7,.16-3.43,.03-5.15,.03-.35,0-.75,.08-.84-.43,4.22-.35,8.46-.39,12.7-.54Z"/><path class="cls-1" d="M22.69,54.45c1.26,.7,2.46,1.49,3.59,2.4,.35,.28,.64,.65,.43,1.12-.24,.53-.76,.26-1.16,.29-.18,.01-.37-.11-.55-.19q-1.49-.72-2.1,.71c-.68,0-1.29-.25-1.89-.53-.08-.41,.17-.66,.43-.9,.86-.78,1.17-1.79,1.24-2.91Z"/><path class="cls-11" d="M155.9,46.33c-.66,.25-1.5-.06-1.99,.74-.23,.37-.46-.04-.67-.18-.19-.13-.39-.39-.58-.09-.16,.25-.13,.54,.21,.68,.24,.1,.64,.04,.58,.44-.07,.45-.5,.28-.78,.34-1.33,.27-1.78,1.57-2.72,2.3-.24,.18-.46,.4-.73,.55,.09-.7,.16-1.4,.28-2.09,.07-.4,.26-.7,.75-.79,.76-.15,1.04-.65,.78-1.41-.1-.27-.18-.62,.2-.67,1.4-.19,2.62-1.12,4.1-1,.3,.34,.55,.71,.6,1.18Z"/><path class="cls-2" d="M73.23,72.43c.08-1.11,.19-2.28,1.08-3.02,1.09-.91,1.61-2.5,3.25-2.75-.04,.79-.94,1.29-.72,2.16-.56,1.11-.16,2.22,.03,3.32-1.19-.54-2.09-.37-2.68,.53-.32-.08-.7,.08-.96-.24Z"/><path class="cls-2" d="M153.3,35.58c-.89-.53-.21-1.19-.08-1.75,.11-.45,.31-.77-.23-1.08-.48-.28-.51-.79-.43-1.27,.35-1.97,.35-3.93-.13-5.88-.11-.44,.26-.5,.59-.55,.32,2.06,.68,4.11,.94,6.18,.14,1.08,1.03,1.13,1.73,1.48-.64,1.09-1.39,2.09-2.4,2.87Z"/><path class="cls-2" d="M116.14,70.19c-.05-.55,.22-.9,.7-1.11,.11-.05,.28-.03,.33-.1,1.57-2.23,3.95-.01,5.75-1.03,.05-.03,.26,.24,.4,.38-.94,.23-1.48,1.21-2.49,1.33-.07,0-.09,.34-.14,.52-1.52,.13-3.03,.08-4.55,.01Z"/><path class="cls-8" d="M121.65,50.89c.88-.7,1.73-1.27,2.9-.41,.53,.39,1.3,.14,1.96,.14,.6,.51,1.16,1.06,1.44,1.82-.54,.06-1.11,.59-1.57,.24-.74-.56-1.67-.32-2.33-.35-1.24-.06-1.83-.58-2.4-1.44Z"/><path class="cls-8" d="M126.92,10.95c-.61,.05-1.37-.28-1.53,.78-.07,.47-.6,.41-1,.41-.42,0-.38-.47-.47-.54-.76-.53-1.37-1.32-2.28-1.59-.36-.11-.71-.1-.72-.58,2.32,.05,4.63,.11,6.95,.16,.61,1.1-.5,1-.95,1.35Z"/><path class="cls-7" d="M124.2,28.47c-.86,.19-1.64,.05-2.32-.53,.16-.3,.45-.25,.72-.26,.83,.28,1.68,.42,2.47-.02,.95-.53,1.97-.93,2.8-1.65,.16-.62,.71-.34,.91-.22,.34,.21,.66,.2,1.01,.21l2.17,.26c-.45,.54-.99,.96-1.65,1.23-.09-.08-.16-.2-.26-.24-1.23-.45-2.29,.08-3.3,.65-.81,.46-1.6,.83-2.55,.56Z"/><path class="cls-6" d="M15.27,48.95c-1.71-.63-3.18-1.83-5.02-2.16-.49-.38-.98-.76-1.47-1.14,.12-.31,.34-.52,.69-.51,.77,0,.6-.49,.53-.95,.15,.08,.3,.16,.45,.23-.18,1.32,1.17,.83,1.7,1.33,.14,.14,.42,.48,.71,.54,.35,.07,.46,1.3,1.07,.22,.11-.19,1.19,.83,1.01,.98-.9,.74,.31,.96,.32,1.46Z"/><path class="cls-13" d="M82.35,66.37c.09-.64,.49-.77,1.1-.97,1.53-.49,3.06-.39,4.6-.42,1.07-.02,1.94,.39,2.22,1.56-2.64-.24-5.28-.14-7.93-.17Z"/><path class="cls-8" d="M118.77,9.32c.04,.67-.3,.9-.94,.92-.87,.03-1.74,.16-2.6,.23-.35,.03-.61,.16-.76,.48h0c-.98-.76-1.58,.41-2.4,.48-.01-.33,.05-.61,.38-.79,.63-.34,.62-.95,.58-1.55l5.75,.24Z"/><path class="cls-7" d="M121.65,50.89c.57,.86,1.16,1.38,2.4,1.44,.66,.03,1.59-.2,2.33,.35,.46,.35,1.04-.18,1.57-.24v.03c-.1,.38,.08,.53,.44,.54,.08,.05,.17,.09,.25,.14-.02,.35-.03,.7-.05,1.06h-.47c-.71-.36-1.67-.21-2.12-1.09-.02-.05-.17-.08-.21-.06-.95,.53-1.87,.04-2.72-.21-1-.29-2.22-.27-2.88-1.33,.44-.32,.9-.58,1.46-.64Z"/><path class="cls-8" d="M124.2,28.47c.95,.26,1.74-.11,2.55-.56,1.01-.57,2.08-1.1,3.3-.65,.1,.04,.17,.16,.26,.24-.76,.71-1.82,.83-2.71,1.32,.14,.4,.56,.31,.76,.54-.02,.07-.02,.19-.07,.22-.74,.48-3.65-.31-4.09-1.1Z"/><path class="cls-12" d="M17.13,56.63c.72-.49,1.57-.07,2.36-.36,.46-.16,.56-.16,.46-.61-.23-1.12-.41-2.24-.62-3.37,.62,.11,1.13,.38,1.44,.96-.03,.44,.1,.82,.31,1.23,.41,.8,.1,1.93-.45,2.1-.67,.21-.76,.7-1.14,1.02-.83-.22-1.67-.42-2.37-.97Z"/><path class="cls-13" d="M127.64,24.57c1.24-.99,2.82-.22,4.11-.75,.95-.39,1.67-.03,2.45,.31-.39,.39-.78,.78-1.17,1.17-1.06-.32-2.16-.09-3.23-.24-.75-.01-1.47-.18-2.16-.48Z"/><path class="cls-3" d="M10.01,44.19c.07,.46,.24,.96-.53,.95-.35,0-.57,.2-.69,.51-.89-.5-1.86-.91-2.65-1.53-.88-.7,.38-.89,.49-1.38,.81,.46,1.51,1.19,2.63,.78,.34-.13,.46,.49,.76,.67Z"/><path class="cls-11" d="M19.5,57.6c.38-.32,.47-.81,1.14-1.02,.55-.17,.87-1.3,.45-2.1-.21-.41-.34-.78-.31-1.23,.96-.11,1.22,.9,1.92,1.19-.07,1.11-.39,2.13-1.24,2.91-.26,.24-.51,.49-.43,.9-.52-.19-1.08-.29-1.53-.65Z"/><path class="cls-7" d="M146.57,51.83c-.25,1.01-.68,1.95-1.13,2.88-.05,.1-.19,.18-.19,.27,.04,1.25-.15,1.87-.84,2.58-.18-.03-.27-.14-.28-.32,.72-1.43,.25-2.99,.51-4.46,0-.34,.17-.58,.48-.72,.51,.09,.96-.16,1.44-.24h0Z"/><path class="cls-13" d="M135.33,60.92c-.45,.03-.81-.09-1.17-.42-.99-.93-2.05-1.79-3.06-2.7-.65-.59-1.65-.28-2.26-.94,.49-1.28,1.23-.54,1.92-.24l.78,.05c.22,.12,.41,.26,.44,.54,.18,.8,.49,1.47,1.45,1.56,.84,.54,1.35,1.37,1.91,2.17Z"/><path class="cls-1" d="M133.9,9.94c-.22,1.4-1.08,2.16-2.43,2.45-.77-.09-1.63,.08-2.16-.72,.1-.67,.34-.83,.9-.32,.24,.21,.69,.75,.95,.19,.31-.7,1.97-.4,1.26-1.75,.5-.04,1-.09,1.48,.15Z"/><path class="cls-4" d="M63.66,10.1c-.1,.58-.59,.76-1.05,.81-1.67,.2-3.36,.36-5.04,.5-.48,.04-.96-.07-1.1-.66,2.38-.39,4.79-.43,7.19-.65Z"/><path class="cls-1" d="M153.97,17.38c.22,.15,.32,.39,.25,.61-.33,1.14-.19,2.37-.71,3.47-.32,0-.63,0-.95,0-.51-.94,.68-1.59,.43-2.52-.1-.39,.02-.85,.04-1.28,.29-.17,.59-.31,.94-.29Z"/><path class="cls-12" d="M136.02,68.08c.57-1.07,1.14-2.15,1.71-3.22,.7,.67,.96,1.55,.57,2.36-.42,.88-1.4,.88-2.28,.86Z"/><path class="cls-1" d="M120.69,70.17c.05-.18,.07-.51,.14-.52,1.01-.12,1.55-1.1,2.49-1.33,.52,.43,1.08,.83,1.26,1.54-1.3,.1-2.6,.2-3.89,.31Z"/><path class="cls-9" d="M144.65,52.78c-.26,1.48,.2,3.04-.51,4.46-.3-.13-.54-.34-.71-.62,.06-.77,.17-1.54,.17-2.31,0-.79,.27-1.32,1.05-1.53Z"/><path class="cls-12" d="M10.23,47.02c-.4,1.08-1.52,1.64-1.96,2.69-.4-.28-.52-.7-.58-1.15,1.07-.26,.11-1.03,.38-1.5l2.15-.04Z"/><path class="cls-1" d="M74.19,72.67c.59-.9,1.49-1.07,2.68-.53,.19,.76-.21,.99-.88,.98-.63-.02-1.23-.19-1.81-.45Z"/><path class="cls-2" d="M129.8,25.06c1.07,.16,2.17-.08,3.23,.24-.36,.32-.71,.64-1.07,.96-.72-.09-1.45-.17-2.17-.26v-.25c0-.08,0-.15,0-.23v-.47Z"/><path class="cls-1" d="M128.59,54.21c.02-.35,.03-.7,.05-1.06,.52,.58,1.03,1.15,1.55,1.73-.29,.18-.59,.37-.88,.55-.08,0-.16-.01-.24-.02,.13-.26,.18-.49-.24-.48l-.24-.72Z"/><path class="cls-11" d="M8.07,47.07c-.27,.46,.69,1.24-.38,1.5-.42-.1-.37-.55-.55-.81-.38-.56-.22-.68,.93-.68Z"/><path class="cls-12" d="M133.42,58.75c-.95-.08-1.27-.76-1.45-1.56,.65,.36,1.23,.79,1.45,1.56Z"/><path class="cls-12" d="M107.99,69.51c.04-.46,.28-.73,.75-.68,.6,.06,.4,.54,.44,.9-.43,.13-.79-.17-1.19-.22Z"/><path class="cls-11" d="M129.32,55.43c.29-.18,.59-.37,.88-.55,.36,.19,.56,.5,.67,.89-.04,.04-.08,.08-.11,.12-.48-.16-1.01-.13-1.44-.46Z"/><path class="cls-4" d="M55.27,10.94c-.45,.89-1.08,.51-1.69,.22,.52-.37,1.12-.16,1.69-.22Z"/><path class="cls-4" d="M45.7,60.38c.4-.44,.8-.77,1.19,.01h-1.19Z"/><path class="cls-11" d="M131.53,56.66l-.78-.05v-.72s.07-.08,.11-.12c.36,.2,.71,.4,.67,.89Z"/><path class="cls-12" d="M16.19,56.17c.46-.44,.46-.06,.49,.27-.16-.09-.32-.18-.49-.27Z"/><path class="cls-8" d="M128.39,53.01c-.36,0-.54-.16-.44-.54,.4-.02,.38,.29,.44,.54Z"/><path class="cls-2" d="M39.7,26.97c.43,.18,.87,.34,1.29,.55,1.34,.67,1.42,.88,.87,2.29-.13,.34-.35,.69,.13,.9,.42,.18,.7-.05,.8-.45,.14-.57,.45-.62,.98-.46,1.37,.42,2.51-.52,3.8-.67,.03,.32,.07,.63,.1,.95-.57,.3-1.07,.74-1.8,.65-.53-.06-1.31-.22-.61,.76,.19,.26,.09,.45-.22,.51-.71,.14-.28,.33-.1,.66,.82,1.51,.14,3.85-1.4,4.35-1.16,.37-2.54,.51-3.65-.1-.83-.45-1.7-.57-2.53-.87-.75-.28-1.92-.37-1.88-1.46,.03-.94-.02-2.14,1.42-2.41,.44-.08,.74-.54,.63-1.02-.14-.65-.17-1.13,.65-1.32,.61-.15,.5-1.22,1.36-1.16,.65,.05,.59-.32,.43-.76-.11-.3-.18-.61-.26-.91Zm-1.3,3.45c-.22-.02-.32,.07-.28,.18,.04,.13,.14,.28,.26,.33,.16,.07,.31-.05,.26-.22-.03-.12-.18-.22-.23-.28Z"/><path class="cls-1" d="M39.7,26.97c.09,.3,.15,.62,.26,.91,.16,.44,.22,.81-.43,.76-.86-.06-.74,1.01-1.36,1.16-.82,.2-.79,.67-.65,1.32,.11,.48-.19,.94-.63,1.02-1.44,.27-1.39,1.47-1.42,2.41-.04,1.08,1.13,1.18,1.88,1.46,.83,.31,1.7,.42,2.53,.87,1.11,.61,2.49,.47,3.65,.1,1.54-.5,2.23-2.84,1.4-4.35-.18-.33-.61-.52,.1-.66,.3-.06,.41-.24,.22-.51-.71-.98,.08-.82,.61-.76,.73,.09,1.23-.34,1.8-.65,.35,.62,.12,1.28,.14,1.92-.25,.11-.57,.15-.74,.34-.65,.7-.78,4.02-.23,4.88,.02,.03,.07,.04,.1,.06,0,.55-.42,1.03-.24,1.61l-.53,.53c-.63,.53-.74,1.44-1.42,1.93-.16-.36-.36-.72-.46-1.09-.22-.81-1.81-2.56-2.49-2.36-2.1,.61-3.66-.96-5.53-1.16-.46-.05-1.15-.09-1.32-.38-.72-1.2-1.96-1.38-3.09-1.8,1.59-1.2,2.11-2.76,1.62-4.68,.17-.99,1.53-1.21,1.59-2.04,.07-1.09,1.52-.65,1.46-1.64,.53,.74,1.25-.5,1.67,.11,.41,.59,.93,.63,1.51,.7h0Z"/><path class="cls-1" d="M109.7,22.79c-.04-.07-.06-.17-.11-.2-1.78-.98-2.01-2.43-1.43-4.24,.17-.53,.61-.74,.8-1.06,1.08-1.73,3.13-2.22,4.38-3.71,.65-.77,1.67-.85,2.65-.62,.26,.06,.58,.3,.5,.59-.38,1.38,.75,1.25,1.46,1.45,.61,.17,1.37-.21,1.84,.53,.13,.21,.4,.11,.5-.06,.48-.82,1.03-.55,1.7-.24,.51,.23,1.2,.71,1.61-.22,1.18,.35,1.24-.69,1.79-1.25,.42-.43,1.33-.55,1.99-.89,.2,1.46-1.15,1.97-1.83,2.87-1.25,1.66-2.63,2.01-4.61,1.37-.11-.03-.3-.1-.32-.06-.81,1.16-1.47,.29-2.17-.14-.69-.42-1.45-.01-2.18-.05-.66-.03,.08,.58-.02,.89-.04,.13-.2,.24-.32,.32-.89,.59-2.49-.3-2.68-1.49-.07-.41-.26-1.19-.56-.92-.72,.65-1.94,.72-2.2,1.94-.18,.86-.07,1.73-.28,2.59-.1,.41,.21,.96,.79,1.02,.67,.07,.96,.5,1.19,1.03,.29,.69,.55,1.39,.83,2.08-.48-.17-.95-.34-1.43-.5-.29-.69-.43-1.6-1.56-1.06l-.33,.04Z"/><path class="cls-2" d="M113.02,24.32c-.27-.69-.54-1.39-.83-2.08-.22-.53-.52-.96-1.19-1.03-.58-.06-.89-.61-.79-1.02,.22-.86,.1-1.73,.28-2.59,.25-1.22,1.48-1.29,2.2-1.94,.3-.27,.49,.52,.56,.92,.19,1.19,1.79,2.08,2.68,1.49,.13-.08,.28-.19,.32-.32,.1-.31-.64-.92,.02-.89,.72,.03,1.49-.38,2.18,.05,.71,.43,1.36,1.3,2.17,.14,.03-.04,.22,.03,.32,.06,1.98,.64,3.36,.29,4.61-1.37,.68-.9,2.03-1.41,1.83-2.87h.24c.99,.44,1.16-.33,1.44-.96,.08-.08,.16-.16,.25-.24,.53,.8,1.39,.63,2.16,.72-.05,.33-.13,.69-.56,.59-1.79-.41-2.5,.92-3.29,2.05-.3,.42-.51,.75-1.05,1-.92,.43-1.44,1.42-2,2.24-.41,.6-.87,.9-1.48,.93-1.37,.05-2.79,.53-4.11-.34-.57-.37-1.21-.51-1.66,.22-.22,.35-.51,.47-.9,.47-1.48,.02-2.29,1.04-3.07,2.08-.1,.13-.11,.34,.05,.42,1.19,.64,1.06,1.74,1.01,2.81-.51-.08-.97-.29-1.41-.56Z"/><path class="cls-7" d="M109.43,55.44c-.22,1.1,.49,1.87,1.01,2.68,.39,.61,.51,.98-.06,1.63-.32,.36-.19,.97-1.01,.97-.78,0-1.62,.62-2.09-.56-.07-.18-.35-.17-.46,.08-.12,.28-.27,.56-.6,.29-.24-.19-.07-.41,.1-.6,.43-.48-.03-.86-.23-1.41-.05,.96-.5,1.02-1.25,.86-.92-.2-1.43,.43-1.24,1.29,.18,.79-.38,1.18-.94,.9-1.1-.56-1.34,.15-1.69,.85-.83,1.66-2.13,2.6-4.02,2.82-.83,.1-1.25-.59-1.92-.73v-.49h0c.68,0,1.35,.1,1.91,.5,.39,.28,.71,.23,.87-.16,.18-.45,.48-.5,.89-.61,1.23-.32,1.67-1.49,1.31-2.7-.25-.87-.84-1.92,.51-2.59,.27-.13,.71-.39,.74-.86,.6-.29,1.24-.46,1.91-.49,.05,.28-.08,.72,.47,.57,.45-.12,.89-.32,1.35-.4,.67-.12,1.59-.39,1.98,.03,.65,.71,.56,.31,.86-.19,.28-.47,.41-.91,.4-1.43l1.19-.25Z"/><path class="cls-13" d="M46.17,39.39c.18-.18,.35-.35,.53-.53,1.52,.02,3.05,0,4.5,.57,.16,1.08,1.08,.72,1.71,.89h0c.01,1.25,.8,1.75,1.91,1.93,1.09,1.22,1.94,2.59,2.61,4.07-.1,.32-.55,.5-.37,.94,.39,.93-.25,1.29-.93,1.62-.76,.36-1.56,.57-2.41,.55-.58-.01-1.07,.11-1.43,.66-.49,.76-1.32,1.06-2.15,.99-1.08-.1-1.94,.31-2.81,.81-2.1-1.13-3.91-2.6-5.25-4.6,.01-.21-.05-.38-.25-.48l.03-.48c.3-.24,.44-.57,.51-.94,.15-.16,.3-.32,.44-.49,.84,1.74,1.47,3.57,3.27,4.7,1.37,.86,2.62,1.06,3.95,.17,.16-.11,.33-.23,.51-.3,1.63-.57,3.25-1.19,4.91-1.68,.84-.25,.74-.65,.64-1.33-.2-1.32-1.08-2.15-1.91-3.04-2.17-2.35-4.54-4.3-8.03-4.03Z"/><path class="cls-7" d="M90.94,35.34c-.34,2.58-2,4.43-4.45,4.95-.73,.15-1.09,.11-1.07-.92,.06-2.29,.59-4.57,.12-6.87-.14-.67,.26-1.07,.97-.98,.59,.07,1.18,.17,1.61,.65-.03,1.9,1.31,2.61,2.8,3.17Z"/><path class="cls-2" d="M108.23,62.35c.16-.27,.49-.36,.72-.34,1.68,.11,2.22-1.16,2.86-2.29,.62-1.08,.43-1.95-.66-2.69-.32-.22-.35-.46-.23-.68,.26-.49,.04-.92-.05-1.37,.32-.08,.64-.17,.96-.25,.61,.79,.26,2.23,1.7,2.47,.22,.04,.02,.32-.05,.5-.23,.61-.06,2.58,.25,3.21l.39,.99c-.38,.29-.74-.1-1.12-.05-.4,.05-.81,.14-.81,.53,0,1.27-.87,1.06-1.57,.9-.83-.19-1.78-.15-2.4-.93Z"/><path class="cls-7" d="M67.52,42.5c-.08-.98,.03-1.97-.2-2.96-.16-.67,.09-1.1,1-.9,2.36,.54,3.65,1.89,3.75,4.09-.34,.64-.87,.46-1.44,.4-1.06-.12-1.92-1.17-3.1-.63Z"/><path class="cls-7" d="M73.51,34.13c0-.44-.01-.87-.02-1.31-.03-1.72-.04-1.66,1.58-1.33,2.77,.58,4.03,4.19,2.27,6.26,0-.4-.31-.62-.51-.91-.4-.59-1.18-1.35-1.03-1.78,.34-.99-.39-.8-.73-.88-.49-.11-1.03-.04-1.55-.05Z"/><path class="cls-9" d="M101.29,57.6c-.03,.47-.47,.73-.74,.86-1.35,.67-.77,1.72-.51,2.59,.35,1.21-.09,2.38-1.31,2.7-.41,.11-.71,.16-.89,.61-.15,.4-.47,.44-.87,.16-.56-.39-1.23-.5-1.91-.5-.01-.31-.17-.47-.48-.48l-.24-.24v-.71c.24,0,.53-.07,.7,.04,.94,.59,1.55,.3,2.49-.3,.96-.61,1.22-1.01,.88-2-.4-1.15,.85-1.49,1.2-2.29,.54-.23,1.07-.49,1.68-.45Z"/><path class="cls-8" d="M83.84,41.29c.55,2.25-.83,3.62-2.29,4.94-.17,.16-.41,.25-.58,.41-.28,.25-.56,.5-.95,.36-.47-.16-.3-.6-.31-.93-.02-.71,0-1.43,.01-2.14,.27-.04,.63,.03,.79-.13,1.01-.97,2.08-1.86,3.32-2.51Z"/><path class="cls-7" d="M65.77,35.32c-.02,1.98-1.51,3.96-3.37,4.62-.77,.27-.92,0-.9-.67,.03-.99,.02-1.99,.03-2.98,.47,0,.94,.02,1.42,0,.42-.02,1.1,.18,1.19-.23,.24-1.1,1.04-.61,1.63-.73Z"/><path class="cls-8" d="M59.35,50.63c.99,1.49,1.05,1.62-.64,2.25-1.57,.58-3.07,1.54-4.88,1.34-.74-.08-1.48-.16-2.16-.49-.03-.56,.53-.24,.72-.48,.54,.42,.95,.29,1.43-.18,.72-.7,1.51-1.22,2.65-1.22,1.06,0,2.13-.32,2.87-1.23Z"/><path class="cls-12" d="M113.74,60.91c-.31-.62-.48-2.6-.25-3.21,.07-.18,.27-.46,.05-.5-1.44-.25-1.1-1.68-1.7-2.47,.72-.24,1.43-.48,2.15-.71-.19,.77-.21,1.46,.18,2.25,.39,.8,.78,1.68,.15,2.68-.41,.65,.39,.92,.82,1.21,.8,.54,1.46,1.15,1.49,2.19-.67,.08-1.16-.14-1.47-.76-.28-.59-.8-.73-1.41-.67Z"/><path class="cls-12" d="M47.35,51.88c.87-.5,1.73-.9,2.81-.81,.83,.08,1.65-.23,2.15-.99,.36-.55,.84-.67,1.43-.66,.85,.02,1.65-.19,2.41-.55,.67-.32,1.32-.68,.93-1.62-.18-.44,.27-.62,.37-.94,.56,.71,.81,1.57,1.15,2.38-.39,.04-.77-.02-1.17,.16-1.88,.88-3.83,1.62-5.66,2.61-1.03,.56-2.2,.47-3.18,1.05-.48-.09-.9-.29-1.23-.65Z"/><path class="cls-2" d="M48.58,52.54c.98-.58,2.16-.5,3.18-1.05,1.82-.99,3.77-1.73,5.66-2.61,.39-.18,.78-.12,1.17-.16,.11,.32,.22,.64,.33,.96-.89,.4-1.79,.8-2.68,1.19-.66-.49-.7-.02-.72,.47h-.95c-.09-.06-.24-.2-.27-.18-1.4,.91-3.13,1.04-4.56,1.89-.41-.11-.83-.2-1.15-.52Z"/><path class="cls-2" d="M117.34,52.79c.5-.37,1.07-.58,1.67-.72-.07,.56,.23,1.06,.72,1.03,.96-.06,1.84,.3,2.74,.45,1.42,.24,3,.06,4.2,1.14v.72c-.29-.19-.62-.34-.87-.57-.65-.59-.53,0-.56,.35h-.72c-.19-.54-.28-.9-1.12-.64-.59,.18-1.45,.5-1.99,.26-1.09-.47-2.11-1.09-3.31-1.31-.35-.06-.6-.38-.76-.71Z"/><path class="cls-1" d="M97.74,34.13c.06-.55,.18-1.09,.17-1.64-.02-.67,.3-.8,.88-.75,1.81,.14,3.44,1.71,3.68,3.59-1.57-.42-2.9-1.77-4.72-1.2Z"/><path class="cls-6" d="M96.95,42.98c0,.71,.03,1.69-.56,1.9-.53,.19-1.22-.48-1.76-.97-.71-.65-1.4-1.3-2.6-1.14-.66,.09-.2-.8-.32-1.23,.73,.22,1.27-.3,1.9-.47,.09,.66,.71,.72,1.15,.89,.52,.21,.95,.41,1.01,1.02l-.06,.1,.05-.1h1.18Z"/><path class="cls-1" d="M65.77,35.32c-.59,.12-1.38-.38-1.63,.73-.09,.41-.77,.21-1.19,.23-.47,.02-.94,0-1.42,0,0-.64,0-1.27,0-1.91,1.24-.02,2.58,.17,3.05-1.48,.02-.08,.19-.13,.28-.2,.83,.69,1.04,1.6,.91,2.62Z"/><path class="cls-12" d="M117.34,52.79c.17,.33,.41,.65,.76,.71,1.2,.22,2.22,.84,3.31,1.31,.54,.23,1.4-.08,1.99-.26,.84-.26,.93,.1,1.12,.63-.18,.44-.55,.5-.96,.48-.34,0-.58-.16-.72-.48-.08-.17-.15-.17-.23,0l-.24,.24c-1.25-.16-2.55-.16-3.74-.54-.79-.25-1.46-.6-2.34-.46-.55,.09-.64-.45-.63-.92,.56-.23,1.12-.47,1.68-.7Z"/><path class="cls-9" d="M73.51,34.13c.52,0,1.06-.06,1.55,.05,.34,.08,1.07-.11,.73,.88-.15,.43,.64,1.19,1.03,1.78,.2,.29,.51,.51,.51,.91-.16,.63-.56,1.03-1.2,1.18-.25-1.87-.94-2.63-2.39-2.65l-.23-2.15Z"/><path class="cls-8" d="M101.04,38.69c-.24,.51-.72,.72-1.18,.94-1.59,.73-2.18,.37-2.17-1.32,0-.28,.01-.55,.02-.83,.32,.02,.58-.14,.88-.25,1.49-.59,2.83-.13,2.46,1.47Z"/><path class="cls-1" d="M126.68,54.69c-1.2-1.08-2.78-.9-4.2-1.14-.9-.16-1.78-.51-2.74-.45-.49,.03-.79-.46-.72-1.03,.3-.39,.75-.45,1.18-.54,.67,1.06,1.88,1.04,2.88,1.33,.84,.25,1.77,.74,2.72,.21,.05-.03,.19,.01,.21,.06,.44,.88,1.41,.73,2.12,1.08-.24,.16-.48,.32-.73,.49h-.72Z"/><path class="cls-11" d="M129.79,25.76v.25c-.34,0-.66,0-1-.21-.2-.12-.74-.4-.91,.22-.42-.3-.78-.59-1.31-.05-.75,.76-1.65,1.26-2.83,1.01-.49-.11-1.08-.04-1.13,.71-.27,0-.56-.04-.72,.26-.45-.15-1.04-.08-1.2-.72,.69-.32,1.38-.66,2.08-.95,.28-.11,.63-.21,.91-.14,1.46,.32,2.4-.65,3.48-1.31v-.24h.48c.69,.31,1.41,.48,2.16,.49,0,.16,0,.31,0,.47-.03,.02-.09,.05-.09,.06,.02,.06,.05,.11,.08,.17Z"/><path class="cls-7" d="M83.07,30.8c-.64,1.04-1.66,1.5-2.77,1.83-.54,.16-.78,.01-.83-.59-.06-.84,.23-1.62,.28-2.44,.31,0,.65,.09,.9,.17,.83,.26,1.87,.12,2.42,1.04Z"/><path class="cls-9" d="M101.04,38.69c.37-1.59-.97-2.06-2.46-1.47-.29,.12-.55,.28-.88,.25,0-.64,0-1.27,0-1.91,.52,.11,1.03,.4,1.59,.04,.71-.47,1.36-.16,1.94,.29,.34,.26,.6,.63,1.07,.68-.02,.94-.49,1.62-1.26,2.11Z"/><path class="cls-1" d="M79.74,42.02c-.05-.63-.01-1.28-.16-1.88-.22-.9,.05-1.21,.97-1.26,.77-.04,1.35,.37,2.03,.54,.27,1.16-.81,1.43-1.32,2.09-.46,.6-.9,.67-1.52,.5Z"/><path class="cls-8" d="M73.74,36.28c1.45,.02,2.14,.78,2.39,2.65-.45,.72-1.29,.74-1.96,1.03-.52,.23-.43-.31-.43-.58-.01-1.03,0-2.07,0-3.1Z"/><path class="cls-7" d="M79.74,42.02c.62,.17,1.05,.1,1.52-.5,.52-.67,1.59-.93,1.32-2.09,.78,.38,1.15,1.04,1.26,1.87-1.25,.66-2.31,1.54-3.32,2.51-.16,.15-.52,.09-.79,.13,0-.64,0-1.27,.01-1.91Z"/><path class="cls-7" d="M56.24,50.87c.89-.4,1.78-.8,2.68-1.19,.15,.32,.29,.64,.44,.96-.74,.91-1.81,1.23-2.87,1.23-1.14,0-1.93,.51-2.65,1.22-.48,.47-.89,.6-1.43,.18,.57-.8,1.86-.8,2.15-1.91,.32,0,.64,0,.95,0,.35,.01,.59-.15,.72-.47Z"/><path class="cls-13" d="M79.79,26.48c.02-.69-.41-1.65,.13-2.01,.74-.5,1.66,.07,2.42,.45,.67,.34,1.27,.79,1.49,1.57h-4.04Z"/><path class="cls-1" d="M91.75,28.39c0-.48-.01-.96-.02-1.43,.57,.09,1.1-.11,1.64-.23,.02,.26-.04,.62,.32,.67,1.41,.18,2.04,1.2,2.59,2.32-.03,.43-.18,.8-.51,1.08-.44-1.47-1.97-2.38-4.02-2.4Z"/><path class="cls-9" d="M105.37,21.21l.23-.7c.3-.23,.45-.55,.47-.91,.03-.65,.37-1.2,.38-1.92,0-1.23,1.32-1.77,2.27-2.42,.04,.43-.09,.8-.46,1.02-1.03,.6-1.05,1.48-.95,2.54,.06,.67-.35,1.35-.19,2.1,.07,.32,.18,.67,.17,1.02-.64-.24-1.27-.49-1.91-.73Z"/><path class="cls-11" d="M79.79,26.48h4.04c.68,.39,.29,1.18,.64,1.69-.15,.05-.33,.18-.43,.14-1.41-.55-2.81-1.07-4.27-.15l.03-1.68Z"/><path class="cls-7" d="M102.31,36.58c-.47-.05-.73-.41-1.07-.68-.58-.45-1.22-.76-1.94-.29-.55,.36-1.06,.07-1.59-.04,.01-.48,.02-.96,.03-1.44,1.82-.57,3.15,.79,4.72,1.2,.02,.15,.03,.31,.05,.46-.16,.08-.22,.17-.02,.27l-.19,.52Z"/><path class="cls-2" d="M67.54,27.91c0-.24,0-.48,0-.72,.39,.04,.5-.52,.92-.43,1.03,.24,2.06-.03,3.09-.05,.53,.72,.08,1.43-.02,2.15-1.3-.42-2.58-.93-3.98-.96Z"/><path class="cls-6" d="M70.38,46.32c-.16,.11-.31,.25-.48,.33-.76,.34-1.64,.74-2.34,.2-.66-.52-.25-1.37-.07-2.09,.03-.11,.02-.23,.03-.35,.57,.16,1.13,.33,1.7,.49,.72,.2,1.16,.63,1.16,1.42Z"/><path class="cls-9" d="M67.52,42.5c1.18-.55,2.05,.5,3.1,.63,.57,.07,1.1,.24,1.44-.4,.49,.94-.01,1.67-.49,2.42-.53-.47-.97-1.33-1.78-1.03-.49,.18-.65,.11-.8-.23-.34-.74-.88-.65-1.47-.43v-.96Z"/><path class="cls-11" d="M71.54,26.72c-1.03,.02-2.05,.29-3.09,.05-.42-.1-.53,.46-.92,.43,0-.48,0-.96,0-1.43,1.04,.09,1.9-.87,2.98-.5,.63,.28,.79,.9,1.03,1.46Z"/><path class="cls-7" d="M91.75,28.39c2.05,.02,3.58,.93,4.02,2.4-.16,.32-.41,.55-.72,.72-.69-1.37-2-1.88-3.31-2.41v-.72Z"/><path class="cls-8" d="M96.95,42.98h-1.18c-.06-.61-.49-.81-1.01-1.02-.44-.18-1.06-.23-1.15-.89v-.71h.48c.03,.38,.2,.69,.62,.67,.56-.03,.86-.43,1.06-.92,1.01,.7,1.28,1.71,1.18,2.87Z"/><path class="cls-1" d="M83.07,30.8c-.55-.92-1.58-.78-2.42-1.04-.26-.08-.59-.18-.9-.17,0-.24,0-.48,0-.72,1.14-.29,2.28-.71,3.31,.33,.28,.29,.76,.13,1.16,.15-.21,.62-.6,1.1-1.16,1.45Z"/><path class="cls-11" d="M93.38,26.72c-.54,.12-1.07,.32-1.64,.23,0-.4,0-.8,0-1.19,1.17-.61,2.41-.16,3.62-.25,.3,.18,.52,.42,.65,.73-.78,.73-1.74,.41-2.64,.48Z"/><path class="cls-6" d="M94.34,32c-.84,.38-1.86,1.17-2.58,.47-.69-.68-.43-1.89-.1-2.88,1.07,.6,1.53,1.89,2.67,2.41Z"/><path class="cls-7" d="M46.94,37.26s-.08-.03-.1-.06c-.55-.87-.42-4.18,.23-4.88,.17-.18,.49-.23,.74-.34,.15,1.83-.15,3.59-.87,5.28Z"/><path class="cls-9" d="M108.24,55.69c.02,.52-.12,.95-.4,1.43-.29,.5-.21,.9-.86,.19-.39-.42-1.31-.15-1.98-.03-.46,.08-.89,.28-1.35,.4-.55,.14-.42-.29-.47-.57,1.62-.7,3.39-.87,5.05-1.42Z"/><path class="cls-2" d="M93.38,26.72c.9-.06,1.86,.25,2.64-.48,.84,1.09,.83,2.26,.27,3.46-.55-1.12-1.19-2.13-2.59-2.31-.36-.05-.29-.4-.32-.67Z"/><path class="cls-8" d="M67.52,43.45c.6-.23,1.14-.31,1.47,.43,.15,.34,.31,.41,.8,.23,.81-.3,1.24,.57,1.78,1.03-.3,.49-.7,.88-1.2,1.18,0-.79-.44-1.22-1.16-1.43-.57-.16-1.13-.32-1.7-.49,0-.32,0-.64,.01-.96Z"/><path class="cls-2" d="M84.23,29.35c-.39-.01-.87,.14-1.16-.15-1.03-1.04-2.17-.63-3.31-.33,0-.24,0-.48,0-.72,1.46-.91,2.86-.4,4.27,.15,.11,.04,.29-.09,.43-.14,.15,.44-.2,.78-.24,1.19Z"/><path class="cls-1" d="M54.56,51.34c-.29,1.11-1.59,1.11-2.15,1.91-.19,.24-.75-.08-.72,.48-.71-.06-1.37-.27-1.96-.68,1.43-.85,3.16-.98,4.56-1.89,.04-.02,.18,.12,.27,.19Z"/><path class="cls-9" d="M90.94,35.34c-1.5-.56-2.83-1.27-2.8-3.17,1.88,.22,2.49,1.57,2.8,3.17Z"/><path class="cls-2" d="M64.87,32.7c-.1,.06-.26,.11-.28,.2-.46,1.64-1.8,1.45-3.05,1.48,0-.32,.01-.64,.02-.96,.85-.35,1.98-.34,2.1-1.62,.5,.17,.95,.41,1.21,.91Z"/><path class="cls-9" d="M70.14,31.27c-.51,.72-1.21,1.65-2,1.41-.78-.24-.31-1.4-.4-2.15-.03-.23,.02-.47,.03-.71,.48-.05,.85,.17,1.08,.54,.31,.49,.79,.7,1.29,.9Z"/><path class="cls-1" d="M67.54,27.91c1.4,.03,2.68,.53,3.98,.96-.16,.4-.33,.79-.49,1.19-1.26-.22-2.16-1.33-3.47-1.43l-.02-.71Z"/><path class="cls-7" d="M67.56,28.63c1.31,.1,2.21,1.21,3.47,1.43-.24,.45-.43,.93-.89,1.21-.49-.21-.97-.41-1.29-.9-.23-.37-.61-.59-1.08-.54-.07-.4-.14-.8-.21-1.2Z"/><path class="cls-13" d="M95.36,25.51c-1.21,.09-2.45-.37-3.62,.25-.22-1.63-.17-2.06,1.87-1.4,.67,.21,1.3,.56,1.75,1.15Z"/><path class="cls-9" d="M94.34,32c-1.14-.52-1.6-1.81-2.67-2.41,.02-.16,.05-.32,.07-.48,1.31,.52,2.62,1.04,3.31,2.41-.13,.32-.39,.44-.71,.49Z"/><path class="cls-13" d="M70.51,25.26c-1.08-.37-1.94,.59-2.98,.5,.07-.63-.42-1.49,.27-1.82,.62-.3,1.35,.22,1.93,.62,.29,.19,.63,.34,.78,.7Z"/><path class="cls-11" d="M63.66,31.79c-.12,1.29-1.26,1.27-2.1,1.62-.01-.08-.03-.15-.03-.23-.1-2.2,.1-2.33,2.13-1.39Z"/><path class="cls-7" d="M94.09,40.35c-.16,0-.32,0-.47,0-.61-.28-1.25-.4-1.91-.49-.11-.67,.08-1.02,.85-.97,.83,.05,1.61,.19,2.27,.72-.31,.18-.73,.25-.74,.73Z"/><path class="cls-9" d="M91.71,39.87c.65,.09,1.3,.21,1.91,.49,0,.24,0,.47,0,.71-.63,.17-1.18,.69-1.9,.47,0-.56,0-1.11,0-1.67Z"/><path class="cls-4" d="M34.43,55.65c.65-1.51,2.08-2.1,3.36-2.87-.72,1.42-1.94,2.26-3.36,2.87Z"/><path class="cls-9" d="M94.09,40.35c.01-.48,.43-.55,.74-.73,.38,.04,.69,.2,.94,.48-.2,.49-.5,.89-1.06,.92-.42,.02-.59-.29-.62-.68Z"/><path class="cls-12" d="M54.82,42.25c-1.11-.18-1.9-.68-1.91-1.94,.88,.41,1.47,1.1,1.91,1.94Z"/><path class="cls-1" d="M18.88,51.8c-.87-.23-1.38-.83-1.7-1.62,.78-.08,1.11,.66,1.7,.91,0,.24,0,.47,0,.71Z"/><path class="cls-7" d="M110.04,22.75c1.13-.53,1.27,.37,1.56,1.06-.52-.36-1.41-.17-1.56-1.06Z"/><path class="cls-12" d="M52.91,40.33c-.63-.18-1.55,.18-1.71-.89,.61,.23,1.29,.32,1.71,.89Z"/><path class="cls-13" d="M16.53,50.09c-.39,.09-.54-.1-.52-.47,.28,.04,.5,.14,.52,.47Z"/><path class="cls-6" d="M41.84,46.81c.2,.1,.26,.27,.25,.48-.31-.04-.59-.1-.25-.48Z"/><path class="cls-6" d="M68.22,69.75l-.1-.05,.09,.06h0Z"/><path class="cls-1" d="M102.5,36.06c-.2-.11-.14-.19,.02-.27,0,.09-.01,.18-.02,.27Z"/><path class="cls-12" d="M125.24,55.19c.03-.36-.09-.94,.56-.35,.26,.23,.58,.39,.87,.57h.24c.16,.25,.32,.24,.48,0,.17-.28,.59,.17,.72-.24l.72,.24c.08,0,.16,0,.24,0,.08,0,.16,.01,.24,.02,.42,.33,.96,.3,1.44,.46v.72c-.69-.3-1.43-1.04-1.92,.24-.38-.23-.7-.24-.95,.19-.2,.34-.46,.36-.73,.05-.02-.5-.44-.64-.79-.73-.64-.17-.94-.59-1.12-1.17Z"/><path class="cls-13" d="M125.24,55.19c.18,.58,.48,1,1.12,1.17,.35,.09,.77,.23,.79,.73-.32-.01-.61,.05-.87,.25-.14,.11-.5,.18-.51,.16-.43-.99-1.79-.87-2.21-1.85,.41,.02,.78-.04,.96-.48h.72Z"/><path class="cls-13" d="M122.61,55.18c.08-.16,.16-.17,.23,0-.08,0-.16,0-.23,0Z"/><path class="cls-8" d="M108.71,15.25c-.95,.65-2.26,1.19-2.27,2.42,0,.73-.35,1.27-.38,1.92-.02,.36-.17,.68-.47,.91-.79-.58-.25-1.35-.2-1.98,.13-1.76,.9-3.19,2.73-3.74,.71-.21,.85-1.05,1.54-1.22,0,.4,0,.8,0,1.2-.08,.64-.58,.44-.96,.48Z"/><path class="cls-9" d="M109.67,14.77c0-.4,0-.8,0-1.2h0c1.49-.1,2.25-.79,2.4-2.15h0c.82-.06,1.41-1.24,2.4-.48-1.75,1.08-2.76,3.1-4.79,3.82Z"/><path class="cls-1" d="M129.08,11.9c-.28,.62-.45,1.39-1.44,.95,.23-.3,.48-.59,.7-.9,.23-.33,.47-.38,.74-.05Z"/><path class="cls-9" d="M146.57,51.83c-.48,.08-.93,.33-1.44,.24,.06-2,.74-3.9,1-5.87,.12-.93,1.32-1.54,.92-2.67-.57-1.61-.21-3.3-.44-4.94-.1-.7,.14-1.32,.4-2.01,.51-1.36,.97-2.72,1.67-4.01,.43-.78-.21-1.75-.03-2.67,.41-2.12,.81-4.24,1.47-6.3,.09-.29,.07-.64,.04-.95-.08-.75,.25-1.03,.97-.93-.19,.73-.4,1.45-.1,2.21,.05,.13,.08,.39,0,.44-1.54,1.1-.36,2.74-.81,4-.55,1.54-.03,3.25-.94,4.7-.38,.61-.42,1.34-.42,2.05,0,.12,.08,.29,.02,.34-1.18,1.25-.7,2.86-.89,4.3-.13,.94-.4,1.9,.09,2.94,.27,.59-.04,1.56-.31,2.27-.51,1.34-1.03,2.64-1.4,4.04-.3,1.13-.22,1.9,.21,2.82Z"/><path class="cls-2" d="M152.56,21.47c.32,0,.63,0,.95,0-.36,1.01,.14,2.14-.48,3.11-.19-.04-.47-.09-.37-.33,.34-.87-.01-1.7-.1-2.54v-.24Z"/><path class="cls-9" d="M151.12,21.7c.24-.72,.07-1.57,.72-2.15,.07,.82,.41,1.73-.72,2.15Z"/><path class="cls-8" d="M91.46,63.27c0-.23,0-.46,0-.69,.42,.11,.87,.15,1.19,.5-.08,.08-.17,.17-.25,.25l-.95-.06Z"/><path class="cls-8" d="M94.34,62.59v.71h0c-.2,0-.38,.05-.48,.25h-.49c-.08,0-.16,0-.24,0v-.25c.57,.02,.76-.55,1.21-.71Z"/><path class="cls-7" d="M93.14,63.3v.25c-.31,.13-.65,.37-.73-.22,.08-.08,.17-.17,.25-.25,.08,0,.16,0,.24-.01h.24c0,.08,0,.16,0,.24Z"/><path class="cls-8" d="M93.13,63.06h-.24c.08-.17,.16-.17,.24,0Z"/><path class="cls-15" d="M33.47,29.85c.49,1.91-.03,3.48-1.62,4.68-.18,.11-.36,.22-.54,.33-1.63,.51-2.98,.11-4.06-1.2l-.52-1.18c.03-.63,.06-1.27,.09-1.9,.8-1.71,2.01-2.8,4.02-2.69l.46,.05c.97,.36,1.67,1.02,2.17,1.92Z"/><path class="cls-2" d="M33.47,29.85c-.5-.89-1.2-1.56-2.17-1.92,.46-.43,.98-.69,1.58-.89,1.22-.41,2.39-.93,3.58-1.44,1.06-.45,2.04,.02,3.01,.3,.45,.13,.16,.7,.23,1.06-.58-.07-1.1-.11-1.51-.7-.42-.61-1.14,.63-1.67-.11,.05,.99-1.39,.55-1.46,1.64-.06,.83-1.42,1.06-1.59,2.04Z"/><path class="cls-2" d="M90.75,63.76c.15,.08,.31,.16,.46,.23,.3,.45,1.25,.11,1.21,.99-1.38,.33-2.24-.79-3.35-1.2,.56-.65,1.13,.13,1.69-.02Z"/><path class="cls-7" d="M93.37,63.56c.16,0,.32,0,.49,0,.24,.3,.48,.3,.72,0h0c.31,.01,.47,.17,.48,.48h0c-.35,0-.7,0-.72,.48-.73,.1-1.06-.21-.96-.94Z"/><path class="cls-2" d="M93.62,65.93c-.72,.3-1.08,.11-.96-.71,1.19-.93,.77,.31,.96,.71Z"/><path class="cls-9" d="M94.33,64.5c.02-.48,.37-.49,.72-.48v.49c-.24,0-.48,0-.72,0Z"/><path class="cls-8" d="M42.82,44.9c-.15,.16-.3,.32-.44,.49-.37-.86-.22-1.86-.95-2.67-.44-.49-1.11-.9-1.24-1.65,.46,.03,.92-.07,1.34,.25,.66,.51,1.23,.15,1.78-.25,.57,.42,.4,1.01,.37,1.56l-.85,2.27Z"/><path class="cls-8" d="M36.83,38.44c.22-.07,.44-.61,.63-.17,.5,1.15,1.6,1.79,2.25,2.8-1.04,.25-2.48-.73-2.44-1.76,.02-.46-.25-.6-.43-.87Z"/><path class="cls-8" d="M21.97,35.57c1.13,.08,2.22-.4,3.35-.24-.46,.49-2.62,1.11-3.14,.88-.26-.12-.2-.4-.22-.64Z"/><path class="cls-8" d="M25.33,35.33c.4-.9,.8-.5,1.2,0-.4,0-.8,0-1.2,0Z"/><path class="cls-3" d="M41.14,45.37l.25-.18c.07,.28-.17,.11-.25,.18h0Z"/><path class="cls-11" d="M148.96,54.22c.34,.64,.34,1.28,0,1.91-1.03-.64-.09-1.28,0-1.91Z"/><path class="cls-11" d="M148.96,51.35c.31,.61,.51,1.23,.23,1.92-.88-.54-.5-1.23-.23-1.92Z"/><path class="cls-7" d="M43.67,42.63c.03-.56,.2-1.15-.37-1.56,.23-1.48-1.08-1.57-1.84-1.58-1.43-.02-2.31-.83-3.24-1.63-.28-.24-.5-.21-.83-.22-2.28-.1-4.2-1.16-6.01-2.44-.07-.05-.06-.22-.08-.34,.18-.11,.36-.22,.54-.33,1.13,.42,2.37,.6,3.09,1.8,.17,.29,.86,.33,1.32,.38,1.88,.2,3.44,1.77,5.53,1.16,.68-.19,2.27,1.55,2.49,2.36,.1,.38,.3,.73,.46,1.09-.18,.58-.41,1.12-1.07,1.31Z"/><path class="cls-1" d="M90.75,63.76c-.56,.15-1.13-.64-1.69,.02-.24,0-.48,0-.72,0-.94-.18-1.94-.71-2.64,.47-1.19-.38-2.32,.42-3.51,.2-.42-.08-.86,.01-1.3,.03,.21-.52,2.03-1.39,2.82-1.32,1.15,.11,2.31,.01,3.38-.26,1.22-.31,2.3-.02,3.42,.25,.31,.07,.2,.39,.24,.61Z"/><path class="cls-2" d="M85.7,64.25c.69-1.18,1.7-.65,2.64-.47-.1,.22-.29,.5-.49,.4-.75-.36-1.43,.08-2.15,.08Z"/><path class="cls-8" d="M112.06,11.42c-.14,1.36-.91,2.05-2.4,2.15,.53-1.02,1.25-1.81,2.4-2.15Z"/><path class="cls-7" d="M78.76,65.22c-.82,.96-2.01,.97-3.11,1.2,.41-.98,1.36-1.02,2.2-1.14,.27-.04,.61-.07,.91-.05Z"/><path class="cls-7" d="M74.45,67.14c-.09,.71-.49,1.11-1.2,1.19-.33-.45-.02-.71,.21-1.08,.35-.57,.65-.23,.99-.11Z"/><path class="cls-7" d="M73.25,68.33c0,.34-.16,.58-.48,.71-.53-.7-.01-.69,.48-.71Z"/><path class="cls-7" d="M75.65,66.42c-.03,.48-.37,.48-.72,.48,.13-.32,.37-.49,.72-.48Z"/><path class="cls-1" d="M122.6,27.68c.05-.75,.64-.81,1.13-.71,1.18,.25,2.08-.25,2.83-1.01,.53-.54,.89-.26,1.31,.05-.83,.72-1.86,1.12-2.8,1.65-.79,.44-1.64,.3-2.47,.02Z"/><path class="cls-2" d="M128.84,55.41l-.72-.24-.72-.48c.24-.16,.48-.32,.73-.49,.16,0,.31,0,.47,0l.24,.72v.49Z"/><path class="cls-13" d="M129.79,25.76c-.03-.05-.06-.11-.08-.17,0-.01,.06-.04,.09-.06,0,.08,0,.15,0,.23Z"/><path class="cls-11" d="M128.84,55.41v-.49c.42,0,.36,.22,.24,.48-.08,0-.16,0-.24,0Z"/><path class="cls-1" d="M38.41,30.41c.06,.07,.2,.16,.23,.28,.05,.18-.09,.3-.26,.22-.12-.05-.22-.2-.26-.33-.04-.11,.07-.2,.28-.18Z"/><path class="cls-10" d="M43.67,42.63c.66-.19,.89-.73,1.07-1.31,.69-.49,.79-1.4,1.42-1.93,3.49-.28,5.86,1.67,8.03,4.03,.82,.89,1.7,1.73,1.91,3.04,.1,.68,.2,1.08-.64,1.33-1.66,.48-3.28,1.1-4.91,1.68-.18,.06-.34,.19-.51,.3-1.33,.89-2.58,.69-3.95-.17-1.81-1.13-2.43-2.96-3.27-4.7,.28-.76,.57-1.51,.85-2.27Zm3.77-2.01c-1.33-.08-1.79,.6-2.15,1.32-1.04,2.1-.34,5.22,1.47,6.76,.7,.59,2.8,.56,3.16-.15,.65-1.27,1.53-1.72,2.91-1.33,.49,.14,.97-.14,1.17-.62,.2-.48-.06-.89-.48-1.1-.89-.45-1.29-1.32-1.71-2.09-1.04-1.91-3.21-1.81-4.39-2.78Z"/><path class="cls-7" d="M94.33,63.3l.24,.24h0l-.24-.24h0Z"/><path class="cls-1" d="M56.24,50.87c-.13,.32-.37,.49-.72,.47,.02-.49,.06-.96,.72-.47Z"/><path class="cls-11" d="M127.4,54.69l.72,.48c-.13,.41-.55-.05-.72,.24h-.72v-.72c.24,0,.48,0,.72,0Z"/><path class="cls-8" d="M95.77,42.98l-.05,.1,.06-.1h0Z"/><path class="cls-2" d="M126.92,55.41h.48c-.16,.24-.32,.25-.48,0Z"/><path class="cls-9" d="M94.33,63.3l.24,.24c-.24,.31-.48,.31-.72,0,.1-.2,.28-.24,.48-.25Z"/><path class="cls-14" d="M47.44,40.62c1.18,.97,3.34,.86,4.39,2.78,.42,.78,.83,1.64,1.71,2.09,.42,.21,.68,.63,.48,1.1-.2,.48-.68,.76-1.17,.62-1.38-.38-2.26,.07-2.91,1.33-.37,.72-2.47,.75-3.16,.15-1.82-1.54-2.52-4.66-1.47-6.76,.36-.72,.82-1.4,2.15-1.32Z"/></svg>