<?xml version="1.0" encoding="UTF-8"?><svg id="Layer_1" xmlns="http://www.w3.org/2000/svg" viewBox="0 0 214.55 84.07"><defs><style>.cls-1{fill:#02907f;}.cls-2{fill:#017660;}.cls-3{fill:#00684e;}.cls-4{fill:#005a3f;}.cls-5{fill:#006c54;}.cls-6{fill:#008975;}.cls-7{fill:#00806b;}.cls-8{fill:#72beb3;}.cls-9{fill:#9bd5ce;}.cls-10{fill:#8dccc5;}.cls-11{fill:#a5dbd5;}.cls-12{fill:#abddd9;}.cls-13{fill:#3ea698;}.cls-14{fill:#299e8f;}.cls-15{fill:#58b0a4;}</style></defs><path class="cls-5" d="M51.58,53.23c-3.88,.15-7.67,.91-11.49,1.55-.24-2.35,.25-4.75-.47-7.07-.04-.12,.08-.3,.15-.44,1.42-2.85,1.47-5.85,1-8.91-.09-.56-.48-1.03-.47-1.68,.03-3.09,.86-6.03,1.51-9,.06-.25,.28-.47,.42-.71,1,.28,1.96,.57,2.92,1.06,1.29,.67,2.83,.81,4.31,.56,1.11-.19,2.21-.19,3.32-.2-.06,.49,.26,.78,.52,1.14,1.24,1.68,3.07,2.47,4.97,2.82,2.08,.38,4.25,.35,5.85-1.51,.23-.27,.49-.54,.9-.53,1.49,.04,2.89-.44,4.32-.74,.83-.17,1.67-.51,2.07-1.26,.3-.57,.76-.78,1.22-.79,1.18-.04,2.22-.69,3.35-.71,1.03-.03,1.9-.88,2.82-.68,2.91,.62,5.45-.4,7.96-1.55,1.83-.84,3.53-2.14,5.61-2.1,1.51,.02,3-.25,4.44-.44,1.98-.25,3.9-1.2,5.81-1.9,1.86-.68,3.55-.64,5.36-.44,1.61,.18,3.3,.79,4.81,.03,1.64-.82,3.41-.26,5.07-.84,.96-.34,2.11-.52,3.18-.25,1.14,.29,2.2,.37,3.11-.56,.24-.25,.6-.26,.91-.2,2.24,.48,4.6-.03,6.82,.87,.79,.32,1.72,.53,2.58-.2,.42-.36,1.15-.65,1.67-.56,2.81,.5,5.72-.09,8.48,1.21,1.97,.93,4.34,.89,6.32,1.98,.1,.05,.24,.04,.35,.03,1.94-.11,3.83,.14,5.76,.48,.88,.15,1.57,.78,2.45,.72,.86-.06,1.65,.01,2.31,.68,.32,.32,.71,.28,1.04-.1,.25-.29,.73-.52,.94-.23,.47,.63,1.18,.74,1.76,1.11,1.53,.99,2.83,2.43,4.93,2.19,.37-.04,.69,.36,1.02,.57,.7,.44,1.42,.77,2.33,.62,.95-.16,1.8,.21,2.5,.88,.94,.9,1.49,2.14,2.56,2.92,.01,.26-.13,.44-.3,.61-1.62,1.58-2.91,3.41-4.06,5.34-.82-.55-1.76-.75-2.7-.86-3.04-.35-5.86,.1-8.05,2.52l-1.44,1.2c-.35-1.07,.2-2.07,.24-3.11,.33-1.31,.83-2.57,1.43-3.78,.34-.69,.27-1.02-.6-1.01-1.12,.01-2.21,.19-3.28,.47-3.89,1.03-7.01,3.25-9.78,6.1-3.48,3.59-4.51,8.03-4.48,12.77,.02,2.43,.46,4.88,1.38,7.19l-.73,.3-.47,.04-.26,.14c-.32,.04-.69-.09-.94,.23-.32,.09-.72-.15-.97,.23-1.84,.45-3.41,1.45-4.98,2.43-1.66-.05-3.31-.16-4.96,.21-.48,.11-.95,.19-1.51,.1-2.7-.41-5.44-.74-8.07,.25-2.86,1.08-5.82,1.5-8.82,1.79-.77,.08-1.42,.48-2.3,.35-3.84-.59-7.21-3.05-11.31-2.66-1.96,.19-3.94-.39-5.95-.37-1.6,.02-3.27,.07-4.83-.46-1.9-.65-3.83-1.24-5.68-2.04-.84-.36-1.73-.78-2.7-.77-1.01,.02-1.88-.21-2.56-1.01-.31-.37-.76-.76-1.23-.6-.65,.21-1.05-.21-1.57-.34-1.18-.29-1.58-1.51-2.57-2.05-1.26-.69-2.77-.95-3.78-2.09-.76-.86-1.82-1.26-2.79-1.78-.65-.35-1.52,.03-2.13-.69-.66-.77-1.56-.79-2.49-.46-1.63,.58-3.07,.04-4.34-1.06-1.68-1.46-3.89-1.18-5.92-1.18-.65,0-1.3,.54-1.95,.83-.8,.36-.99,.92-.94,1.82,.07,1.31,.72,2.38,1.12,3.55Zm71.18-21.15c0,2.17,.99,3.68,2.89,4.32,.65,.22,1.42,.32,1.39-.66-.07-2.47,.35-4.9,.52-7.35,.05-.73-.22-.97-.96-.97-2.07,0-3.84,2.11-3.85,4.65Zm7.43,8.26c-.26,2.06,1.33,3.67,3.01,4.39,.56,.24,.97,.17,1.04-.49,.26-2.48,.5-4.96,.97-7.41,.15-.76-.18-1.05-.99-1.04-2,.04-4.04,2.29-4.04,4.54Zm-23.01-8.47c-.2,1.29,.29,2.51,1.51,3.34,.58,.39,1.34,.49,1.97,.81,.7,.36,.97,.05,1.04-.57,.05-.39,.02-.8-.05-1.18-.33-1.94-.19-3.88-.1-5.82,.06-1.27-.22-1.57-1.5-1.11-1.76,.64-2.88,2.32-2.88,4.53Zm30.44,16.95c0,2.16,.88,3.38,3.16,4.75,.96,.58,1.12,.11,1.14-.63,.1-2.61-.16-5.23,.24-7.84,.1-.62-.19-.81-.85-.7-1.85,.33-3.69,2.47-3.69,4.42Zm0-16.64c-.08,.58,0,1.27,.35,1.85,.64,1.11,1.48,2.06,2.7,2.6,.34,.15,.51,.76,.98,.47,.49-.31,.34-.87,.23-1.31-.25-1.1-.17-2.17-.01-3.29,.21-1.44,.23-2.91,.3-4.37,.02-.43,0-.93-.69-.8-2.02,.39-3.85,2.63-3.85,4.85Zm-53.45,7.4c0,2.2,1.64,4.1,3.6,4.13,.37,0,.87,.15,.94-.45,.08-.66,.39-1.3,.25-1.99-.34-1.69-.32-3.37-.06-5.07,.11-.69-.25-1.11-.93-1.03-1.63,.19-3.77,2.74-3.78,4.41Zm-10.55-.41c0-.56,.04-1.11,0-1.67-.08-.92,.46-2.31-.27-2.65-.78-.36-1.75,.69-2.5,1.31-1.22,1.01-1.97,2.31-1.73,3.95,.29,1.92,1.47,3.1,3.35,3.56,.72,.18,1.23,.03,1.18-.93-.07-1.19-.02-2.38-.02-3.57Zm45.82-1.79c-.18-.6,.29-1.35-.33-1.7-.73-.42-1.35,.18-1.93,.58-.2,.13-.35,.33-.55,.45-2.51,1.59-1.97,4.51-.65,6.35,.7,.97,1.76,1.14,2.81,1.34,.29,.05,.54,0,.49-.44-.27-2.21-.16-4.42,.16-6.57Zm-38.15-6.34c0-1.22,0-2.25,0-3.29,0-.43,.02-.73-.65-.62-1.7,.29-3.8,2.31-3.9,3.88-.14,2.22,1.11,3.86,3.3,4.44,.61,.16,.85,.02,1.03-.58,.39-1.33,.13-2.68,.22-3.83Zm45.3,17.6c0-1.07,0-2.14,0-3.21,0-.52,.07-1.13-.46-1.38-.54-.26-1.12,.04-1.54,.38-3.48,2.84-2.71,6.27,.68,8.29,.95,.57,1.3,.33,1.32-.75,.02-1.11,0-2.22,0-3.33Zm-29.72-2.07c0-.88-.03-1.56,0-2.23,.05-.92-.45-.98-1.13-.77-1.57,.49-3.13,2.5-3.19,4.08-.07,2.12,1.25,3.74,2.87,4.52,.69,.33,1.23,.11,1.18-.73-.1-1.71,.44-3.38,.26-4.88Zm-20.13,1.44c0,2.17,.8,3.07,2.94,3.68,1.03,.29,1.19-.06,1.15-.93-.11-2.26,.12-4.5,.35-6.74,.07-.64-.11-.77-.72-.61-1.99,.53-3.96,2.42-3.71,4.61Zm30.41,.25c.09,1.27,.54,2.34,1.29,3.22,.54,.64,1.39,1.08,2.25,.76,.81-.29,.53-1.14,.56-1.78,.08-1.74-.11-3.48,.21-5.22,.22-1.2-.43-1.58-1.58-1.08-1.82,.8-2.41,2.39-2.74,4.1Zm-10.28-20.14c0-1.32-.33-1.51-1.78-.74-.62,.33-1.07,.84-1.51,1.34-1.71,1.98-.86,5.72,1.48,6.68,.65,.26,1.23,.33,1.31-.57,.18-2.13,.32-4.26,.5-6.71Zm7.25,8.58c-.24-.61,.34-1.61-.87-1.53-1.03,.07-2.95,1.78-3.23,2.78-.62,2.24,.46,4.66,2.54,5.72,.64,.33,.88,.17,1.04-.54,.47-2.15-.08-4.37,.53-6.43Z"/><path class="cls-11" d="M27.86,60.95l-.73,.44c-.34-.39-.71-.15-1.1-.07-2.65,.58-5.16,1.57-7.75,2.34-1.69,.5-2.03,.34-2.63-1.31-.07-.19-.13-.38-.18-.57-1.58-5.36-3.16-10.72-4.72-16.09-.68-2.35-1.4-4.7-1.37-7.2,.05-4.9,.93-9.67,2.14-14.39,.98-3.84,2.53-7.33,5.85-9.82,.6-.45,1.09-.48,1.61-.18,1.72,.98,3.47,1.92,5.08,3.07,.83,.59,1.4,.74,2.1,0,.86,.46,1.71,.95,2.42,1.63-.15,.23-.27,.62-.47,.66-1.03,.21-.47,.63-.37,1.23,.23,1.36,.06,2.79,.52,4.14,.04,.11-.24,.3-.31,.48-.32,.87,.39,1.93-.47,2.71,0,0,.04,.06,.07,.09,.97,.91,1.78,1.87,1.28,3.34-.02,.06,.02,.16,.06,.22,.7,1.21,.19,2.38-.16,3.53-.2,.67-.47,1.22-.05,2,.36,.66,.49,1.5,.8,2.22,.8,1.82-.71,3.42-.51,5.19,.03,.24-.36,.26-.56,.37-.88,.48-1.27,1.21-.96,2.18,.16,.5,.14,.94-.08,1.38-1.34,2.64-.93,5.58-1.44,8.36-.1,.55,.25,.87,.69,1.15,.43,.27,1.1,.63,.9,1.12-.31,.75,.25,1.19,.33,1.78Z"/><path class="cls-3" d="M51.58,53.23c-.41-1.17-1.05-2.23-1.12-3.55-.05-.9,.14-1.46,.94-1.82,.65-.29,1.3-.83,1.95-.83,2.04,0,4.24-.28,5.92,1.18,1.27,1.1,2.72,1.63,4.34,1.06,.93-.33,1.83-.31,2.49,.46,.61,.72,1.48,.34,2.13,.69,.97,.52,2.03,.91,2.79,1.78,1,1.14,2.52,1.4,3.78,2.09,.99,.55,1.39,1.76,2.57,2.05,.52,.13,.92,.54,1.57,.34,.47-.15,.91,.24,1.23,.6,.68,.8,1.56,1.03,2.56,1.01,.96-.01,1.86,.4,2.7,.77,1.85,.8,3.78,1.39,5.68,2.04,1.56,.53,3.24,.48,4.83,.46,2.01-.02,3.99,.56,5.95,.37,4.11-.39,7.47,2.06,11.31,2.66,.88,.14,1.53-.27,2.3-.35,3-.29,5.97-.71,8.82-1.79,2.63-1,5.37-.66,8.07-.25,.55,.08,1.03,0,1.51-.1,1.65-.37,3.3-.26,4.96-.21-1.31,1.08-1.8,2.54-1.95,4.17-.14,1.48,.25,2.93,.23,4.4-3.54,.22-7.08,.42-10.61,.65-3.28,.21-6.53-.12-9.79-.33-3.97-.26-7.9-.8-11.84-1.27-6.8-.81-13.47-2.28-20-4.34,.06-.15,.08-.32,.17-.43,.34-.38,1.22-.52,.9-1.19-.26-.54-1.02-.14-1.55-.24-1.45-.46-2.98-.59-4.45-1-1.98-.54-3.81-1.54-5.85-1.87-1.66-.97-3.52-1.44-5.28-2.15-.8-.37-1.6-.36-2.4-.01h-.48l-.97,.04-.72-.25c-3.24-1.34-6.48-2.67-9.71-4.03-.96-.4-1.97-.59-2.98-.81Z"/><path class="cls-3" d="M163.75,38.68c2.18-2.42,5.01-2.87,8.05-2.52,.94,.11,1.89,.3,2.7,.86,.03,.08,.04,.15,0,.23-.37,.41-.55,.91-.65,1.44-.45,.65-.43,1.45-.68,2.16-.06,.3-.13,.61-.18,.91-.24,1.68-.69,3.36-.16,5.07,.02,.23,.04,.46,.06,.7-.09,.74-.05,1.46,.23,2.15-.13,.44,.2,.79,.23,1.19-.04,.55,.14,1.03,.44,1.47,0,.6,.1,1.17,.49,1.65-.06,.55,.27,.97,.48,1.43-.71,.52-1.79,.49-2.19,1.49-.18,.46-.36,.9,.39,.89,.61,0,.73,.27,.89,.82,.3,.99,.19,2.09,.62,3,.75,1.61,3.88,2.89,5.7,2.59,1.3-.22,2.56-.65,3.86-.9,1.66-.32,3.43-.55,5.02-1.23,2.43-1.04,4.91-2.08,6.38-4.48,.46-.75,.9-1.48,1.71-1.94,.42-.24,.71-.65,.63-1.2,.32-.16,.56-.39,.72-.72l.48-.24c.24-.01,.49,.03,.71-.04,1.51-.48,3.04-.83,4.63-.42,1.02,.26,2.13-.03,3.08,.54-5.11,4.44-11.08,7.17-17.59,8.85-.27-.07-.52-.09-.66,.23-.31,.21-.61,.42-1.01,.25-.53-.05-1.02,.05-1.4,.46-3.15,1.14-6.46,1.61-9.7,2.33-2.4,.54-4.79,1.12-7.21,1.53-3.52,.59-7.06,1.08-10.64,1.07-.22-2.49-1.47-4.7-1.92-7.13,.61-.93,1.66-1.37,2.4-2.15,.62-.49,1.25-.98,1.85-1.49,.19-.16,.6-.23,.4-.61-.18-.34-.54-.36-.84-.24-.7,.28-1.42,.14-2.13,.19l-1.69,.23c.34-3.15-.6-6.22-.53-9.36,.02-.86-.28-1.69,.26-2.5,1.35-2.02,1.95-4.41,3.07-6.55,.6-1.14,1.4-1.6,2.48-1.9-.04,1.04-.59,2.04-.24,3.11-1.04,2.02-1.74,4.06-1.48,6.43,.51,4.67,4.09,8.36,8.57,9.32,.37,.08,.89,.51,1.17-.07,.24-.5,.27-1.1-.07-1.6-.24-.36-.58-.66-.91-.95-.52-.45-.81-1.05-.79-1.68,.07-1.49-.3-2.91-.51-4.35-.48-3.34-1.86-6.18-4.56-8.31Z"/><path class="cls-11" d="M174.51,37.25c.03-.08,.02-.16,0-.23,1.15-1.93,2.45-3.76,4.06-5.34,.18-.17,.32-.35,.3-.61,1.15-.51,1.8-1.57,2.66-2.4,.76-.31,1.25-.96,1.9-1.42,.52-.03,.86-.57,1.42-.51,1.43,0,2.57,.82,3.75,1.43,3.99,2.05,7.46,4.84,10.71,7.9,1.79,1.69,3.73,3.23,5.26,5.19,.12,.16,.28,.29,.41,.44,.81,.94,1.67,1.97,1.91,3.12,.28,1.33-1.3,1.78-1.99,2.67-.51,.65-1.18,1.18-1.78,1.76-1.08-.53-2.41-.5-3.29-1.5-.15-.17-.42-.19-.67-.14-1.93,.32-3.69-.39-5.5-.89-1.16-.32-2.05-1.24-3.23-1.5-.84-.19-1.4-.68-1.74-1.45,.28-.01,.56,0,.83-.05,1.6-.35,2.68-1.24,3.09-2.88,.36-1.43-.14-2.6-1.16-3.51-1.11-.99-2.45-1.03-3.78-.45-2.17,.96-2.63,3.42-1.11,5.81-.12,.09-.3,.29-.35,.26-1.17-.65-2.72-.03-3.8-1.3-.42-.5-.95-1.12-1.61-1.5-2.01-1.15-4.19-1.93-6.29-2.89Z"/><path class="cls-2" d="M181.53,28.66c-.86,.83-1.52,1.88-2.66,2.4-1.07-.78-1.62-2.02-2.56-2.92-.7-.66-1.55-1.03-2.5-.88-.91,.15-1.63-.18-2.33-.62-.34-.21-.66-.61-1.02-.57-2.1,.24-3.4-1.2-4.93-2.19-.58-.37-1.29-.49-1.76-1.11-.21-.28-.68-.06-.94,.23-.33,.38-.72,.42-1.04,.1-.66-.67-1.45-.74-2.31-.68-.88,.06-1.57-.56-2.45-.72-1.92-.34-3.81-.59-5.76-.48-.12,0-.26,.02-.35-.03-1.98-1.09-4.35-1.05-6.32-1.98-2.76-1.3-5.67-.71-8.48-1.21-.51-.09-1.24,.2-1.67,.56-.86,.74-1.8,.52-2.58,.2-2.21-.89-4.57-.39-6.82-.87-.3-.06-.66-.05-.91,.2-.91,.93-1.96,.85-3.11,.56-1.07-.27-2.22-.09-3.18,.25-1.66,.58-3.42,.02-5.07,.84-1.51,.76-3.2,.15-4.81-.03-1.81-.2-3.5-.24-5.36,.44-1.91,.69-3.83,1.64-5.81,1.9-1.44,.18-2.93,.46-4.44,.44-2.08-.03-3.78,1.27-5.61,2.1-2.51,1.15-5.05,2.17-7.96,1.55-.93-.2-1.79,.65-2.82,.68-1.13,.03-2.17,.67-3.35,.71-.46,.02-.92,.22-1.22,.79-.4,.75-1.24,1.09-2.07,1.26-1.43,.3-2.83,.78-4.32,.74-.4-.01-.67,.26-.9,.53-1.59,1.86-3.76,1.89-5.85,1.51-1.9-.35-3.72-1.14-4.97-2.82-.27-.36-.59-.65-.52-1.14,1.08-.45,2.2-.76,3.35-.98,.33,1.42,1.49,2.18,2.68,2.35,2.76,.41,5.35-.69,7.71-1.87,1.12-.56,2.09-.92,3.27-.94,.39,0,.73,0,1.05-.38,.77-.92,1.74-1.3,3.02-1.14,1.07,.14,2.16,.27,3.26-.27,1.08-.52,2.29-.93,3.47-1.04,1.84-.17,3.66-.25,5.41-.98,1.48-.61,3.06-.95,4.25-2.14,.52-.52,1.23-.67,1.89-.48,1.29,.37,2.51-.1,3.75-.16,1.68-.09,3.18-1.05,4.89-1.04,1.06,0,1.62-.65,2.08-1.47-.05-.53,.19-.77,.72-.71,.69,.87,1.75,.36,2.59,.7l.06-.22h.95c.04,.26,.17,.49,.45,.45,1.33-.18,2.68,0,4-.12,.92-.08,1.92,.31,2.78-.25,1-.65,2.22-.38,3.18-.35,1.11,.04,2.16-.27,3.24-.17,1.25,.11,2.21-.81,3.44-.87,.94-.05,1.76,.35,2.68,.3,1.02-.06,2.08-.34,3.08,.18,.3,.16,.63,.13,.92-.05,.46-.28,.85-.31,1.29,.07,.34,.3,.76,.35,1.23,.16,.35-.15,.87-.34,1.14-.2,1.57,.83,3.07-.2,4.61-.08,.8,.06,1.6,.02,2.2,.62,.35,.35,.67,.32,1.08,.2,1.16-.34,2.34,.11,3.52-.07,.39-.06,.44,.49,.56,.82,.15,.4,.21,.65,.86,.64,1.23-.02,2.4,.69,3.69,.5,1.17,1.44,2.91,.57,4.32,1.04,.28,.09,.5-.18,.63-.45h.48c.15,.32,.39,.56,.75,.43,1.2-.44,2.13-.12,2.98,.8,.27,.3,.7,.54,1.27,.16,1.39-.94,2.64-.57,3.35,.93,.27,.58,.52,.86,1.26,.63,.56-.17,1.27-.29,1.82,.15,1.46,1.16,3.21,1.77,4.95,2.01,1.25,.17,2.61,.53,3.4,1.11,1.62,1.19,3.48,1.59,5.19,2.41Z"/><path class="cls-12" d="M26.17,17.17c-.7,.75-1.27,.6-2.1,0-1.61-1.15-3.36-2.09-5.08-3.07-.53-.3-1.01-.27-1.61,.18-3.32,2.48-4.88,5.98-5.85,9.82-1.2,4.72-2.08,9.5-2.14,14.39-.03,2.5,.69,4.85,1.37,7.2,1.55,5.37,3.14,10.72,4.72,16.09,.06,.19,.12,.38,.18,.57,.6,1.65,.94,1.82,2.63,1.31,2.59-.77,5.1-1.76,7.75-2.34,.39-.08,.75-.32,1.1,.07-3.74,1.93-7.21,4.4-11.29,5.61-2.13,.63-4.54-.48-5.27-2.41-.57-1.5-.2-3.05,.22-4.55,.33-1.17,.55-2.33,.57-3.58,.03-1.66-.65-2.81-1.92-3.73-.19-.14-.4-.26-.59-.4-2.16-1.6-3.12-3.62-2.37-6.33,.41-1.47,.41-2.98,.03-4.47-.46-1.79-.34-3.54,.37-5.25,.56-1.35,.87-2.72,.37-4.17-.74-2.16,.09-4,1.52-5.45,2.36-2.39,2.64-5.02,1.81-8.11-.86-3.24,1.18-5.62,4.53-5.71,1.68-.04,3.24,.3,4.76,.95,2.2,.94,4.31,2.05,6.3,3.38Z"/><path class="cls-8" d="M159.92,13.1c.89,.4,1.77,.8,2.04,1.87-1.84-.24-3.71-.34-5.45-1.06-1.47-.61-2.86-1.37-4.51-1.56-1.14-.13-2.23,.54-3.34,.04-.32-.01-.66,.05-.95-.05-2.64-.85-5.5-.42-8.14-1.58-.93-.41-2.38-.36-3.61-.31-.49-.2-1.02-.46-1.5-.16-1.03,.64-2.16,.67-3.3,.66l-2.38-.03c-.17-.64-.69-.66-1.21-.7-1.07-.08-2.11,.13-3.12,.4-.48,.12-1.13-.5-1.44,.3-.15,0-.31,0-.46,0-.05-.33-.19-.73-.55-.6-1.31,.44-2.83-.13-4.01,.85-.18-.27-.47-.22-.73-.23-.58-.07-1.28-.37-1.73-.16-1.19,.54-2.35-.77-3.48,.07-.05,.04-.24-.03-.32-.11-1.02-.99-2.4-.78-3.62-1.12-.41-.11-.75,.08-.96,.34-.58,.7-1.31,.84-2.14,.75-.54-.06-1.06,.08-1.5,.32-1.05,.59-2.17,.66-3.31,.87-.68,.12-1.28-.48-1.71-.08-.82,.77-1.65,.43-2.41,.16-.39-.14-.69-.18-1.08-.16-1.37,.07-2.75,.15-4.11,.08-1.94-.1-2.41,.38-1.91,2.16-.86,.16-1.88-.06-2.39,.96h-.72c-.41-.43-.54-.02-.72,.24h-1.91c-.56-.67-1.4-.4-1.93-.26-1.72,.47-3.39,1.15-5.19,1.31-2.96,.25-5.57,1.79-8.46,2.34-1.12,.21-2.19,.82-2.88,1.85h0c-.19,.02-.37,.06-.46,.26-.19,.02-.37,.06-.47,.25-.38,.04-.89-.18-.96,.48h0c-.47-.15-.82-.1-1.28,.22-1.13,.77-2.17,1.61-3.05,2.66-.36-.42-.58-.91-.7-1.44,.57-.73,1.32-1.39,2.03-1.8,1.08-.62,2.24-1.25,3.52-1.57,.73-.18,1.59-.61,1.65-1.64,.08,0,.15,0,.23,0,1.69-.73,3.51-1.04,5.23-1.79,2.11-.91,4.53-1.15,6.88-1.31,.82-.05,1.43-.77,2.23-.71,1.6,.11,3.16-.32,4.75-.27,1.22,.03,1.74-.91,2.26-1.81,1.76-.48,3.44-1.23,5.24-1.55,.49,.48,.75,.2,.94-.29,.08-.03,.16-.06,.25-.08,.49,.62,1.15,.89,1.93,.87h0c.67,.65,1.21-.2,1.86-.2,1.85,0,3.72,.63,5.6-.33,.59-.3,1.31-.59,1.97-.88,.25-.11,.65-.4,.71-.13,.24,1.04,.63,.31,1.03,.17,1.42-.52,2.83-.68,4.38-.42,1.18,.2,2.36,.95,3.63,.37h.24c.73,.48,1.41,.6,2.25,.1,.58-.35,1.3-.43,1.97,.06,.88,.64,1.89-.05,2.88,.16,.93,.19,1.98-.51,3.05-.19,.58,.18,1.18,.04,1.77,.02,.88-.02,1.8-.38,2.63,.02,1.86,.88,3.82,.39,5.11-1.37,.24-.15,.48-.14,.72,0h0c.09,.63,.56,.45,.95,.44,.73,.73,1.54,1.08,2.61,.81,1.11-.28,2.17-.03,3.1,.64,.66,.47,1.42,.65,2.21,.74,.7,.09,.54-.34,.48-.73h.48c1.7,1.18,3.52,1.83,5.58,1.19,.78-.24,1.56-.17,2.34-.24l.7,.03c.11,.2,.28,.23,.49,.23l.71,.22-.27,.75c.31-.03,.61-.16,.76-.07,1.18,.75,2.63,.44,3.83,1.05,.47,.23,.91,.33,1.19-.28Zm-9.04-1.35l-.08-.03v.13s.05,0,.08-.02c.01-.01,0-.05,0-.07Z"/><path class="cls-12" d="M70.77,72.43c-1.94,1.19-3.95,2.2-6.23,2.55-2.29,.35-4.04-.49-5.24-2.46-1.01-1.66-2.04-3.31-2.9-5.05-.95-1.91-.9-3.94-.68-5.95,.16-1.51,1.42-2.21,2.75-2.68,.41-.14,.85-.19,1.27-.28-.15,1.62,.87,2.78,1.78,3.85,1.01,1.19,2.12,2.2,2.65,3.78,.2,.58,.04,1.16,.36,1.75,.55,.99,1.56,1.37,2.28,2.11,.45,.45,.82,1.07,1.59,1.18,.91,.13,1.7,.57,2.37,1.21Z"/><path class="cls-12" d="M56.9,19.81c-.63-3.72,2.02-7.17,5.51-8.72,3.91-1.75,8.09-2.05,12.37-1.63,2.62,.26,5.19,.67,7.73,1.27,.42,.1,.86,.15,1.21,.45-.48,.1-.7,.61-1.2,.7-1.44,.26-2.89,.55-4.32,.87-1.52,.34-2.91,1.18-4.59,.87-.98-.18-2.32-.24-2.97,.11-1.43,.76-3.25,.74-4.37,2.14-.24,.3-.77,.55-1.16,.54-.79-.02-1.3,.39-1.92,.75-1.98,1.14-4.15,1.88-6.29,2.66Z"/><path class="cls-1" d="M156.56,20.03c-.16,0-.32,0-.48,0-.66-.88-1.99-1.23-2.88-.72-.52,.3-.72,.15-.99-.37-.5-.98-2.15-1.48-3.13-.99-.53,.27-.7,.09-1-.37-.67-1.03-1.77-1.81-2.92-1.52-1.05,.27-1.86,.07-2.77-.21-.29-.09-.63-.11-.94-.06-1.91,.28-3.81,.8-5.76,.09-.41-.15-.95-.13-1.38-.01-1.02,.28-2.01-.19-2.7-.57-.98-.54-1.82-.36-2.75-.36-1.26,0-2.5,.76-3.79-.16-.56-.4-1.54-.19-1.99,.29-.66,.7-1.37,.7-2.16,.67-.37-.01-.71,.07-1.03,.24-.11-.67-.51-.45-.88-.27-.4,.2-.78,.33-1.25,.17-.99-.34-1.87-.04-2.66,.58h-.72c-1.23-.42-2.44-.56-3.6,.24h-.48c-.46-.18-.84-.52-1.43-.3-.61,.23-1.28,.12-1.94,.12-1.16-.01-2.29-.55-3.5-.12-.44,.16-.61,.96-1.27,.54,.25-.99,.52-1.75,1.89-1.75,.93,0,1.75,.33,2.52,.38,1.34,.09,2.9,.29,4.18-.47,.72-.43,1.23-.65,1.81,.12,.29,.38,1.09,.46,1.17,.31,.79-1.51,2.69-.13,3.53-1.4,.09-.14,.38,.02,.45,.24,.11,.36,.32,.22,.56,.16,.83-.22,1.6-.9,2.56-.41,.08,.04,.27-.17,.4-.17,1.31,.03,2.51-.87,3.9-.35,1.14,.42,2.27,.58,3.53-.03,1.3-.63,2.68-.11,3.94,.51l-.05,.1,.05-.1c.93-.19,1.81,.17,2.68,.34,1.54,.3,2.98,1.35,4.62,.39,.06-.03,.16-.03,.24,0,.75,.24,1.21-.13,1.57-.72,.08,0,.15,0,.23,0,.03,.26-.04,.62,.33,.67,.95,.14,1.86,.68,2.87,.27,.67-.27,1.4-.16,1.94,.17,1.15,.7,2.16,1.64,3.67,1.31,.09-.02,.22,.08,.32,.14,1.69,1.07,1.96,1.16,4.04,1.3,.11,0,.23,.06,.34,.11,.74,.36,1.23,.1,1.54-.93,.04,.75,.38,1.31,.65,1.13,.67-.44,1.63,.36,2.1-.59,.15-.3,.46-.17,.62-.03,.57,.48,1.51,.4,1.85,1.19,.18,.41,.37,.12,.54,.05,1.57-.59,2.88,.8,4.41,.56,.06,0,.17,.24,.23,.39,.13,.35,.43,.42,.74,.52,1.22,.42,2.31,1.08,3.36,1.82,.89,.62,1.8,.98,2.82,.28,.07,.01,.15,.02,.22,.02-.05,.75,.46,.73,.98,.7,.08,0,.16,0,.24,0,.07,.28,.08,.48,.39,.77,.69,.66,1.57-.01,2.08,.54,.83,.92,1.79,1.29,3,1.08,.44-.08,.98,.2,1.28-.36,.83,.46,1.68,.87,2.36,1.55-.56-.07-.89,.48-1.42,.51-.17-.09-.33-.22-.51-.25-1.21-.22-2.71,.77-3.59-.86-.02-.03-.22,.02-.33,.06-.52,.19-.92-.1-1.35-.29-1.34-.57-2.43-1.59-3.91-1.93-.48-.11-.8-.71-1.32-.06-.2,.25-.44,.1-.51-.19-.11-.49-.57-.48-.89-.67-1.76-1.05-4.15-.74-5.58-2.52-.28-.8-.97-1.28-1.68-1.1-1.08,.27-1.91,.02-2.8-.52-.74-.45-1.49-.46-2,.42-.89-.05-1.61,.44-2.4,.71Z"/><path class="cls-11" d="M137.14,70.46c.03-1.47-.36-2.92-.23-4.4,.15-1.62,.64-3.08,1.95-4.17,1.58-.98,3.15-1.98,4.98-2.43,.43,.61-.03,.95-.41,1.28-.61,.52-.68,1.06-.08,1.59,.67,.6,.53,1.17-.02,1.72-.45,.45-.62,.92-.24,1.46,.21,.3,.2,.55,.09,.88-.17,.48,.07,.93,.47,1.11,.89,.41,1.08,1.24,1.4,2l-.23,.24c-1.66,.9-3.35,1.72-5.22,2.1-1.69,.35-2.03,.17-2.47-1.39Z"/><path class="cls-6" d="M38.16,55.39l-.72,.27c.08-.91-.24-1.62-.77-2.4-.67-.97-1.6-2.06-.76-3.43,.17-.28-.08-.54-.07-.8,.02-1-.12-2.06,.19-2.97,.41-1.21,.11-2.23-.28-3.31,0-.08,0-.15,0-.23,1.1-.15,1.19-.8,.74-1.62-.4-.73-.65-1.49-.45-2.28,.16-.64-.03-1.05-.3-1.62-.48-1.02-.88-2.3-.28-3.32,1.01-1.71,.88-3.32,.38-5.11-.21-.77-.53-1.15-1.17-1.45-.33-.15-.76-.22-.65-.82,.2-1.12,.15-2.29,1.03-3.18,1.51,.89,3.03,1.78,4.54,2.67-.32,.26-.49,.56-.49,1.01,0,1.27,.36,2.54-.43,3.79-.43,.68-.54,1.54-1.28,2.05-.77,.53-1.06,1.46-.82,2.2,.58,1.8,.27,3.89,1.73,5.42,.14,.14,.11,.56,.02,.79-.48,1.21-.28,2.52-.56,3.77-.18,.8-.19,1.65-.62,2.39-.2,.34-.26,.7-.12,1.03,.72,1.76,.44,3.68,.91,5.48,.14,.53,.31,1.07,.23,1.63Z"/><path class="cls-9" d="M27.86,60.95c-.08-.59-.63-1.03-.33-1.78,.2-.49-.46-.85-.9-1.12-.43-.27-.79-.6-.69-1.15,.5-2.78,.09-5.72,1.44-8.36,.22-.43,.24-.88,.08-1.38-.31-.96,.07-1.7,.96-2.18,.2-.11,.59-.13,.56-.37-.2-1.77,1.31-3.37,.51-5.19-.32-.73-.45-1.56-.8-2.22-.42-.78-.15-1.33,.05-2,.35-1.16,.86-2.32,.16-3.53-.04-.07-.08-.16-.06-.22,.51-1.47-.3-2.43-1.28-3.34-.03-.03-.07-.09-.07-.09,.87-.78,.15-1.84,.47-2.71,.07-.18,.35-.37,.31-.48-.46-1.35-.29-2.78-.52-4.14-.1-.6-.66-1.02,.37-1.23,.19-.04,.31-.43,.47-.66,.56,.18,1.01,.52,1.4,.96,.01,.28,.05,.57-.18,.79-.7,.67-.86,1.36-.39,2.31,.32,.66,.26,1.52,.03,2.23-.43,1.34-.46,2.53,.72,3.51,.13,.1,.26,.23,.16,.39-.54,.9-.33,1.87-.35,2.83-.03,1.08,.52,2.12,.34,3.16-.42,2.34-.44,4.62,.32,6.89,.44,1.32,.22,2.51-.8,3.51-.15,.15-.3,.26-.27,.49,.28,1.92-.93,3.32-1.68,4.89-.52,1.1-1.12,2.16-.29,3.42,.37,.57,.84,1.45,.64,1.94-.58,1.47,.24,2.17,1.16,2.92,.22,.18,.36,.42,.36,.72-.5,.62-1.24,.87-1.91,1.21Z"/><path class="cls-6" d="M57.57,26.95l1.66-.7h.74l.25-.23h0c.7-.03,1.21-.32,1.73-.85,1.17-1.21,2.35-2.61,3.94-3.09,2.56-.78,4.89-2.38,7.7-2.31,.15,0,.3-.12,.45-.14,1.58-.21,2.95-1.13,4.5-1.4,.74-.13,1.6-.4,2.04,.61-3.03,.72-5.92,1.88-8.86,2.89-.82,.1-1.68,.05-2.13,1.04-.07,.15-.54,1.36-1.38,.42-.33-.37-.62,.07-.53,.38,.18,.56,.47,1.12,1.02,1.4,.55,.28,.87-.25,1.22-.53,.77-.62,1.47-1.15,2.56-.62,.54,.26,1.23,.21,1.86,.3-.06,.51-.44,.49-.8,.47-.41-.01-.79,.05-1.14,.26-1.28,.76-2.56,1.42-4.15,1.21-.55-.07-1.29,.02-1.71,.35-1.24,.96-2.74,1.16-4.14,1.61-1.78,.58-3.5,.49-4.85-1.06Z"/><path class="cls-10" d="M29.78,59.74c0-.3-.14-.54-.36-.72-.93-.76-1.74-1.46-1.16-2.92,.2-.5-.27-1.38-.64-1.94-.84-1.26-.24-2.32,.29-3.42,.75-1.57,1.96-2.97,1.68-4.89-.03-.23,.12-.34,.27-.49,1.02-.99,1.24-2.18,.8-3.51-.76-2.27-.74-4.55-.32-6.89,.19-1.03-.37-2.07-.34-3.16,.03-.96-.18-1.93,.35-2.83,.1-.16-.04-.29-.16-.39-1.18-.98-1.15-2.16-.72-3.51,.22-.7,.29-1.57-.03-2.23-.47-.95-.31-1.63,.39-2.31,.23-.22,.19-.51,.18-.79,.38,.29,.92,.31,1.22,.73-.31,1.29-.76,2.57-.71,3.92,.03,.7,.15,1.39,.24,2.08-.95,.83-.33,1.48,.23,2.15-.04,.35,.07,.66,.24,.96-.16,.98-.49,1.96,.22,2.89,.15,.2,.3,.59,.21,.77-.57,1.2,.1,2.58-.61,3.78-.19,.32-.19,.93-.02,1.28,.57,1.18,.35,2.46,.62,3.67,.22,.97,.25,2.14-.24,2.96-.5,.83-.8,1.62-.93,2.54-.1,.7-.28,1.39-.61,2.04-.48,.94-.32,2.06-.22,3.03,.14,1.33,1.5,2.06,1.37,3.55-.07,.8,.87,1.53,1.42,2.25-.82,.58-1.6,1.24-2.66,1.37Z"/><path class="cls-11" d="M153.21,11.2c-.23,0-.47-.02-.7-.03-.12-.76-.58-1.04-1.31-1.29-.72-.25-1.42,.42-2.06-.12-.55-.34-1.15-.4-1.79-.32-.65,.08-1.21,.08-1.88-.31-.42-.24-1.1-.86-1.54-.62-.95,.52-1.66-.02-2.48-.19-1.18-.24-2.34-.8-3.57-.24h-.24c-.02-.08-.03-.21-.07-.22-1.95-.65-3.94-.91-6-.68-1.2,.13-2.43,.06-3.45,.86-.06,.05-.23-.05-.34-.06-2.19-.06-4.37,0-6.55,.07-.79,.03-1.49,.12-2.04,.73h-.95c-.23-.97-.7-.69-1.21-.23l-1.44,.23c-.41-.36-.8-.78-1.4-.7-.89,.11-1.59-.25-2.25-.77,1.69-.44,3.45-.55,5.16-.62,2.94-.11,5.88-.25,8.82-.34,5.22-.15,10.36,.43,15.52,.95,4.52,.46,8.94,1.26,13.17,2.95,.44,.17,.84,.43,1.26,.64-.29,.63-1.29-.14-1.46,.74-.24-.07-.48-.15-.71-.22-.05-.31-.11-.6-.49-.23Z"/><path class="cls-9" d="M188.68,43.75c.34,.77,.9,1.26,1.74,1.45,1.18,.26,2.06,1.18,3.23,1.5,1.8,.5,3.56,1.21,5.5,.89,.26-.04,.53-.03,.67,.14,.87,1,2.2,.97,3.29,1.5-.09,.14-.18,.28-.27,.41l-.46,.3c-.49-.04-.22-1-1.08-.77-1.46,.39-2.93,.09-4.44-.13-2.07-.3-3.8-1.56-5.88-1.7-.17-.01-.34-.19-.49-.32-.89-.83-2-1.22-3.09-1.66-1.04-.42-2.17-.08-3.24-.65-2.47-1.31-4.13-3.69-6.81-4.77-1.15-.46-2.34-.79-3.49-1.26,.1-.53,.28-1.03,.65-1.44,2.1,.96,4.28,1.74,6.29,2.89,.65,.37,1.18,.99,1.61,1.5,1.08,1.28,2.62,.66,3.8,1.3,.05,.03,.23-.17,.35-.26,.65,.48,1.36,.82,2.13,1.07Z"/><path class="cls-7" d="M57.57,26.95c1.35,1.55,3.07,1.63,4.85,1.06,1.4-.45,2.9-.65,4.14-1.61,.42-.32,1.15-.42,1.71-.35,1.59,.21,2.87-.45,4.15-1.21,.35-.21,.74-.27,1.14-.26,.36,.01,.75,.04,.8-.47l.72,.24c.03,.26,.17,.51,.44,.45,.79-.17,1.64-.04,2.37-.59,.52-.4,1.13-.68,1.83-.75,1.84-.19,3.75-.17,5.51-.68,1.73-.51,3.45-1.29,4.84-2.58,.59-.54,1.39-.98,2.16-.51,1.54,.94,2.81-.38,4.24-.43,.61-.02,1.34-.33,2.1-.34,.72-.02,1.62,.28,2.17-.54h.48c.6-.03,1.04-.58,1.68-.48-.46,.81-1.02,1.47-2.08,1.47-1.7-.01-3.21,.95-4.89,1.04-1.25,.06-2.47,.53-3.75,.16-.66-.19-1.37-.04-1.89,.48-1.19,1.18-2.78,1.52-4.25,2.14-1.76,.73-3.57,.81-5.41,.98-1.18,.11-2.39,.52-3.47,1.04-1.1,.53-2.19,.4-3.26,.27-1.27-.16-2.25,.22-3.02,1.14-.32,.38-.66,.37-1.05,.38-1.18,.02-2.15,.38-3.27,.94-2.36,1.17-4.95,2.28-7.71,1.87-1.19-.18-2.35-.93-2.68-2.35,.43-.31,.92-.43,1.44-.48Z"/><path class="cls-2" d="M42.23,26.98c-.14,.24-.37,.45-.42,.71-.65,2.97-1.48,5.92-1.51,9,0,.65,.38,1.11,.47,1.68,.47,3.05,.42,6.06-1,8.91-.07,.14-.19,.32-.15,.44,.72,2.32,.24,4.72,.47,7.07l-.95,.3c-.24-2.23-.49-4.46-.72-6.7-.12-1.15-.22-2.41,.54-3.29,1.19-1.38,.76-3.01,.45-4.27-.38-1.55-.89-3.17-1.55-4.69-.4-.92-.28-1.76,.5-2.6,1.22-1.31,1.11-3.29,2.18-4.72,.07-.09,.04-.35-.05-.46-.64-.8-.06-1.37,.34-1.98,.48,.17,1,.24,1.4,.59Z"/><path class="cls-7" d="M68.84,58.29c1.76,.71,3.62,1.18,5.28,2.15,.02,.41-.52,.9-.03,1.21,.68,.44,.93,1.18,1.44,1.69,1.05,1.04,2.22,1.89,3.9,1.44,.58-.16,1.18-.41,1.86-.17,1.69,.59,2.56,.2,3.13-1.3,.53,.1,1.29-.3,1.55,.24,.33,.67-.56,.8-.9,1.19-.1,.11-.12,.29-.17,.43-1.23,.11-1.96,1.24-3.1,1.51-.78-1.28-1.99-.71-3.02-.62-.62,.06-1.07-.04-1.66-.27-.97-.39-1.8-1.38-3.07-.9-.22,.08-.61,.06-.91,.05-.8-.02-1.49-.17-1.95-1.05-.41-.78-.82-1.68-1.97-1.83-.68-.09-.91-2.91-.37-3.76Z"/><path class="cls-14" d="M174.3,22.42c-1.02,.7-1.93,.34-2.82-.28-1.05-.73-2.14-1.4-3.36-1.82-.31-.11-.61-.17-.74-.52-.05-.14-.17-.4-.23-.39-1.53,.24-2.84-1.15-4.41-.56-.17,.07-.36,.36-.54-.05-.34-.79-1.28-.7-1.85-1.19-.16-.13-.47-.27-.62,.03-.47,.95-1.44,.15-2.1,.59-.27,.17-.6-.38-.65-1.13-.31,1.04-.79,1.3-1.54,.93-.11-.05-.22-.11-.34-.11-2.08-.14-2.35-.22-4.04-1.3-.1-.06-.23-.16-.32-.14-1.51,.33-2.52-.61-3.67-1.31-.54-.33-1.27-.44-1.94-.17-1.01,.41-1.92-.13-2.87-.27-.38-.05-.3-.41-.33-.67,.96-.19,1.96,.54,2.81,.16,1.53-.67,2.62,.37,3.69,.9,.64,.31,1.19,.59,1.89,.61,.1,.19,.28,.22,.47,.22,.9-.07,1.34,.88,2.17,.97h.48c.06,1.06,.66,.35,1.02,.28,.92-.19,1.8-1.08,2.75-.44,.64,.43,1.15,.3,1.77,.17,1.18-.25,2.33-.41,3.19,.76,.22,.3,.62,.26,.86,.02,.74-.75,1.73-.95,2.66-1.27l.45,.08c-.08,.96,.44,1.59,1.22,1.97,.93,.46,1.94,.69,2.98,.85,.3,.05,.75,.13,.72,.49-.15,1.77,1.1,1.8,2.28,1.87,.54,.03,.77,.31,.95,.73Z"/><path class="cls-13" d="M36.26,56.21l-.74,.41c-.93-.2-1.59-1.23-2.71-.79,.31-1.37-.23-2.45-.9-3.48-.17-.26-.43-.39-.33-.79,.26-1.04-.07-2.23,.62-3.15,.62-.84,.06-1.79,.51-2.69,.69-1.39,.93-2.91,.82-4.56-.07-1.11-.49-2.21-.23-3.41,.22-1-.26-2.11-.63-3.13l.21-1.18c.27-.17,.13-.38,.09-.62-.36-1.97-.58-3.97-1.09-5.9-.33-1.23,.2-2.34,.05-3.51-.1-.81-.53-1.61,0-2.41l.73,.45c-.04,1.37,.34,2.77-.03,4.1-.39,1.41,.13,2.75,.52,3.89,.65,1.89,.55,3.76,.74,5.65,.18,1.71-.05,3.45,.46,5.13,.22,.7,.71,1.37,.24,2.14-.54,.88-.6,1.92-.79,2.87-.12,.59-.86,1.71,.52,2.07v.46c-.63,.43-1.34,.6-1.34,1.74,0,.71,.23,1.39,.2,1.94-.14,2.1,1.15,3.04,2.6,3.93,.39,.23,.47,.47,.48,.83Z"/><path class="cls-7" d="M40.83,26.38c-.4,.61-.98,1.18-.34,1.98,.08,.1,.12,.36,.05,.46-1.07,1.43-.96,3.41-2.18,4.72-.78,.84-.89,1.68-.5,2.6,.66,1.52,1.17,3.13,1.55,4.69,.31,1.26,.73,2.89-.45,4.27-.76,.88-.66,2.15-.54,3.29,.23,2.23,.48,4.47,.72,6.7l-.99,.31c.08-.57-.09-1.1-.23-1.63-.47-1.8-.19-3.72-.91-5.48-.13-.33-.07-.69,.12-1.03,.43-.74,.44-1.59,.62-2.39,.28-1.25,.08-2.56,.56-3.77,.09-.23,.12-.65-.02-.79-1.46-1.53-1.15-3.62-1.73-5.42-.24-.74,.06-1.67,.82-2.2,.74-.52,.86-1.38,1.28-2.05,.79-1.25,.43-2.52,.43-3.79,0-.45,.17-.75,.49-1.01l1.24,.58Z"/><path class="cls-4" d="M157.28,61.16c.45,2.43,1.69,4.64,1.92,7.13-1.44,.03-2.87,.06-4.29,.34-.99-1.21-2.47-1.9-3.39-3.18,.16-.15,.33-.31,.49-.46,1.65-1.03,3.15-2.25,4.56-3.59l.71-.24Z"/><path class="cls-5" d="M202.38,49.94l.46-.3c2.42,.01,4.83,.03,7.25,.04,.38,0,.87-.13,1.06,.31,.2,.47-.31,.68-.57,.93-.98,.97-1.95,1.96-3.17,2.65-.96-.57-2.07-.28-3.08-.54-1.58-.4-3.11-.06-4.63,.42-.22,.07-.47,.03-.71,.04l.25-.71c.35,0,.59-.17,.72-.5,.38-.21,.71-.45,.71-.93,.47-.01,.74-.33,.97-.69l.74-.74Z"/><path class="cls-15" d="M150.8,15.96c-.19,0-.37-.04-.47-.22-.13-.7-.61-.99-1.25-1.24-.65-.25-1.48-.62-.6-1.56,.12-.13,.12-.36,.18-.55,1.11,.51,2.21-.16,3.34-.04,1.65,.19,3.04,.95,4.51,1.56,1.74,.72,3.61,.82,5.45,1.06,.04,.08,.09,.16,.13,.24-.36,.65-.95-.05-1.38,.23-1.02,.66-2.16,.32-3.25,.45-.66,.08-1.29-.61-1.83-.08-.4,.39-.7,.63-1.3,.52-.27-.05-.83,.03-.87,.6h-.48c-.1-1.03-1-1.2-1.72-1.5-.33-.14-.4,.26-.45,.54Z"/><path class="cls-8" d="M32.88,33.43c-.07,.39-.14,.79-.21,1.18-.27,.65-.9,1.21-.67,1.97,.46,1.5,.26,3.07,.58,4.59,.13,.64,.25,1.51,.08,2.07-.37,1.28-.91,2.52-1.28,3.82-.59,2.03-1.66,4.07,.35,5.95,.22,.21,0,.45,.02,.66,.11,1.4,.24,2.79,1.89,3.33,.17,.06,.3,.24,.45,.36-.49,.44-1.07,.73-1.67,.99-.55-.72-1.49-1.45-1.42-2.25,.13-1.49-1.24-2.22-1.37-3.55-.1-.97-.26-2.09,.22-3.03,.33-.65,.51-1.34,.61-2.04,.13-.93,.44-1.71,.93-2.54,.49-.82,.46-1.99,.24-2.96-.27-1.22-.05-2.5-.62-3.67-.17-.35-.18-.96,.02-1.28,.71-1.19,.04-2.58,.61-3.78,.09-.19-.06-.57-.21-.77-.71-.93-.38-1.91-.22-2.89,.52,.2,.47,.69,.53,1.11,.16,1,.19,2.05,1.13,2.72Z"/><path class="cls-9" d="M56.9,19.81c2.15-.77,4.31-1.52,6.29-2.66,.62-.35,1.14-.77,1.92-.75,.39,.01,.91-.23,1.16-.54,1.12-1.4,2.94-1.38,4.37-2.14,.65-.35,1.99-.29,2.97-.11,1.68,.3,3.07-.54,4.59-.87,1.43-.32,2.87-.61,4.32-.87,.51-.09,.73-.6,1.2-.7,.51,.04,1,.16,1.42,.46-.3,.98-1.17,1.44-2.1,1.09-.28-.11-.52-.06-.8,.06-1.77,.76-3.69,.8-5.54,1.2-.92,.2-1.95-.13-2.79,.53-.24,.19-.56,.3-.9,.26-2.5-.29-4.65,.8-6.8,1.77-.44,.2-1.05,.62-.98,1.35-.08,0-.15,0-.23,0-.53-.07-1.1,.01-1.47,.33-.69,.59-1.51,.96-2.34,1.05-.99,.1-1.64,.64-2.41,1.12-.59,.37-.92,.94-1.44,1.33-.36-.59-.27-1.28-.47-1.91Z"/><path class="cls-14" d="M59.96,26.25h-.74l-.46-1.43c1.09-.26,1.42-1.42,2.32-1.99,.57-.36,1.47-.55,1.77-1.36h0c.38-.04,.88,.17,.96-.48,.1-.19,.28-.23,.47-.25,.41,.38,.43,.06,.46-.25h0c1.57-.4,3.13-.8,4.65-1.45,1.02-.44,2.07-.94,3.23-1.23,1.54-.38,3.17-.28,4.66-1.04,1.6-.81,3.4-1.15,5.21-1.27v.7c-1.1,.46-2.26,.73-3.41,1.04-1.54,.41-3.05,.95-4.59,1.38-1.01,.28-2.09,.13-3.09,.6-.52,.24-.9,.68-1.51,.82-1.69,.41-3.43,.69-4.93,1.68-.6,.39-1.17,.87-1.83,1.1-1.56,.56-2.28,1.83-2.92,3.18h0l-.25,.24Z"/><path class="cls-9" d="M70.77,72.43c-.67-.64-1.46-1.08-2.37-1.21-.77-.11-1.14-.73-1.59-1.18-.72-.73-1.73-1.11-2.28-2.11-.32-.59-.16-1.17-.36-1.75-.53-1.58-1.64-2.59-2.65-3.78-.91-1.06-1.93-2.23-1.78-3.85,.23-.02,.47-.03,.7-.05-.21,.84,.66,.75,1,1.08,.91,.9,1.13,2.25,1.95,3.05,1.37,1.33,2.39,2.91,3.21,4.51,.85,1.64,2.31,2.51,3.37,3.82,.65,.8,1.55,.28,2.21,.71l-1.43,.75Z"/><path class="cls-10" d="M114.14,9.52c-1.27,.58-2.45-.17-3.63-.37-1.56-.26-2.96-.1-4.38,.42-.39,.14-.79,.87-1.03-.17-.06-.27-.46,.02-.71,.13-.66,.29-1.38,.58-1.97,.88-1.88,.97-3.75,.34-5.6,.33-.65,0-1.19,.85-1.86,.2l.05-.1-.05,.1c-.79,.02-1.44-.25-1.93-.87,1.22-.56,2.55-.69,3.84-1,.04,.44,.06,1.04,.69,.76,.62-.28,1.12-.14,1.7,.01,1.68,.44,3.37-.26,4.33-1.74,2.06-.3,4.13-.48,6.22-.56,.55,1.03,1.64,.93,2.55,1.24,.61,.2,1.37,.01,1.78,.72Z"/><path class="cls-6" d="M68.84,58.29c-.54,.85-.31,3.67,.37,3.76,1.16,.16,1.57,1.05,1.97,1.83,.46,.88,1.15,1.03,1.95,1.05,.3,0,.68,.04,.91-.05,1.27-.48,2.1,.51,3.07,.9,.59,.24,1.03,.33,1.66,.27,1.04-.09,2.24-.66,3.02,.62-.49,.4-.99,.81-1.63,.97-.15-.13-.31-.38-.44-.37-2.45,.24-4.67-1.29-7.14-.91-.36,.06-.61-.27-.9-.48-1.31-.94-2.07-2.4-3.31-3.4-.65-.53-1.08-1.25-1.13-2.03-.06-.84-.43-1.5-.8-2.19,.8-.35,1.6-.36,2.4,.01Z"/><path class="cls-15" d="M34.1,57.38c-.15-.12-.28-.3-.45-.36-1.65-.54-1.78-1.94-1.89-3.33-.02-.22,.2-.46-.02-.66-2-1.88-.94-3.92-.35-5.95,.38-1.3,.91-2.54,1.28-3.82,.16-.56,.05-1.43-.08-2.07-.32-1.52-.12-3.09-.58-4.59-.23-.77,.4-1.33,.67-1.97,.36,1.02,.84,2.13,.63,3.13-.26,1.21,.16,2.3,.23,3.41,.11,1.66-.13,3.17-.82,4.56-.45,.91,.11,1.86-.51,2.69-.69,.92-.36,2.11-.62,3.15-.1,.41,.16,.53,.33,.79,.67,1.03,1.21,2.12,.9,3.48,1.13-.45,1.79,.59,2.71,.79l-1.42,.76Z"/><path class="cls-1" d="M35.05,23.13c-.87,.89-.83,2.07-1.03,3.18-.11,.6,.32,.67,.65,.82,.64,.3,.96,.68,1.17,1.45,.49,1.79,.62,3.4-.38,5.11-.6,1.01-.2,2.29,.28,3.32,.27,.57,.46,.98,.3,1.62-.2,.79,.06,1.55,.45,2.28,.44,.81,.36,1.47-.74,1.62,.25-.93-.44-1.62-.6-2.44-.29-1.49,.27-3.12-.77-4.49-.06-.07,0-.23,0-.35-.11-1.3,.74-2.59,.04-3.9-.02-.03-.01-.09,0-.12,.65-1.01-.04-1.92-.48-2.62-.73-1.19-.49-2.52-.89-3.73-.03-.1-.02-.27,.04-.33,.75-.71,.35-1.63,.49-2.45l1.46,1.04Z"/><path class="cls-14" d="M33.59,22.1c-.13,.82,.27,1.74-.49,2.45-.06,.06-.08,.23-.04,.33,.41,1.21,.16,2.54,.89,3.73,.43,.71,1.13,1.61,.48,2.62-.02,.03-.02,.09,0,.12,.69,1.31-.15,2.6-.04,3.9,0,.12-.05,.27,0,.35,1.05,1.37,.48,3,.77,4.49,.16,.81,.85,1.51,.6,2.44,0,.08,0,.15,0,.23-.44,.47-.38,1.15-.78,1.72-.52,.74-.46,1.88-.65,2.84-1.39-.36-.64-1.48-.52-2.07,.19-.95,.26-1.99,.79-2.87,.47-.77-.02-1.44-.24-2.14-.51-1.67-.28-3.42-.46-5.13-.19-1.89-.09-3.76-.74-5.65-.39-1.14-.91-2.49-.52-3.89,.37-1.33,0-2.73,.03-4.1l.93,.65Z"/><path class="cls-13" d="M174.3,22.42c-.18-.42-.41-.7-.95-.73-1.18-.07-2.44-.1-2.28-1.87,.03-.36-.42-.44-.72-.49-1.03-.15-2.04-.39-2.98-.85-.79-.38-1.3-1.02-1.22-1.97,4.56,1.57,8.8,3.78,12.83,6.41,.26,.17,.58,.3,.63,.67-.25,.1-.56,.38-.76,.18-.66-.68-1.86-.02-2.41-1.04-.13-.25-.54,.11-.7,.4-.08,0-.16,0-.24,0-.28-.29-.09-1.25-.98-.7-.07,0-.15-.01-.22-.02Z"/><path class="cls-10" d="M65.24,17.88c-.07-.73,.54-1.15,.98-1.35,2.16-.98,4.31-2.06,6.8-1.77,.34,.04,.66-.07,.9-.26,.84-.66,1.86-.33,2.79-.53,1.85-.39,3.77-.44,5.54-1.2,.27-.12,.51-.17,.8-.06,.93,.35,1.8-.1,2.1-1.09,.48,.12,.97,.25,1.45,.37-.52,.9-1.03,1.84-2.26,1.81-1.59-.04-3.15,.38-4.75,.27-.8-.05-1.41,.66-2.23,.71-2.35,.16-4.78,.4-6.88,1.31-1.72,.74-3.54,1.06-5.23,1.79Z"/><path class="cls-3" d="M151.52,65.46c.92,1.28,2.4,1.97,3.39,3.18-3.32,.76-6.68,1.12-10.08,1.11l.23-.24,1.12-.62c.37-.23,.81-.35,1.07-.74,.63-.17,1.09-.6,1.6-.97,.63-.35,1.29-.66,1.77-1.23,.41,.03,.59-.36,.91-.49Z"/><path class="cls-1" d="M66.44,58.28c.37,.69,.75,1.34,.8,2.19,.05,.78,.48,1.5,1.13,2.03,1.23,1,1.99,2.46,3.31,3.4,.29,.21,.54,.54,.9,.48,2.47-.38,4.69,1.15,7.14,.91,.13-.01,.3,.24,.44,.37-.82,.63-1.74,1.06-2.69,1.46-.02-.39-.24-.54-.62-.54-1.02,0-1.9-.47-2.76-.91-.69-.35-1.36-.57-2.12-.54l-.26-.02c-1.17-1.36-2.51-2.56-3.69-3.93-1.27-1.48-1.87-3.04-2.06-4.87h.48Z"/><path class="cls-15" d="M71.72,67.1c.09,0,.17,.01,.26,.02-.06,.7,.13,1.03,.97,1.05,1.17,.03,1.92,1.16,3.04,1.43,.03,0,.04,.14,.05,.22-.26,.28-.6,.39-.96,.47-.74-.67-1.72-.78-2.61-1.1-.54-.19-.69,.13-.76,.57h0c-.6-.65-1-1.51-1.93-1.84-.11-.04-.14-.27-.22-.41-.4-.64-.94-1.27-1.45-1.71-1.4-1.25-2.42-2.74-3.21-4.35-.48-.97-.93-1.86-1.83-2.46-.24-.16-.21-.41-.21-.65,.46-.15,1,.13,1.41-.26,.24,.08,.48,.17,.72,.25-.02,.9,.3,1.68,.7,2.47,.51,1.03,1.25,1.92,1.8,2.89,.82,1.45,2,2.42,3.23,3.41,.36,.29,.66,.43,1,0Z"/><path class="cls-10" d="M72.19,71.68c-.67-.43-1.57,.08-2.21-.71-1.07-1.31-2.53-2.18-3.37-3.82-.82-1.59-1.85-3.18-3.21-4.51-.83-.8-1.05-2.16-1.95-3.05-.34-.33-1.21-.25-1-1.08,.37-.32,.8-.2,1.22-.18,0,.24-.04,.5,.22,.63,.99,.49,1.46,1.36,1.89,2.32,.43,.95,.82,2.15,1.6,2.65,.99,.63,.88,2.1,2.15,2.36,.08,.02,.05,.45,.12,.67,.25,.69,.34,1.69,.84,1.98,.8,.47,1.73,.78,2.57,1.25,.3,.17,.63,0,.65-.44h0c.6,.45,1.79-.04,1.92,1.18-.38,.43-.89,.62-1.43,.74Z"/><path class="cls-1" d="M34.31,47.3c.19-.97,.13-2.11,.65-2.84,.4-.57,.34-1.25,.78-1.72,.39,1.08,.69,2.09,.28,3.31-.31,.91-.17,1.98-.19,2.97,0,.26,.24,.52,.07,.8-.84,1.38,.1,2.46,.76,3.43,.53,.78,.85,1.49,.77,2.4l-.48,.24c.07-.8-.84-1.16-.9-1.97-.01-.18-.48-.79-.65-.9-1.2-.75-1.92-2.34-1.39-3.65,.22-.53,.35-1.04,.29-1.61v-.46Z"/><path class="cls-8" d="M71.71,69.76c-.01,.45-.35,.6-.65,.44-.84-.47-1.77-.78-2.57-1.25-.5-.29-.59-1.29-.84-1.98-.08-.22-.04-.65-.12-.67-1.27-.26-1.17-1.73-2.15-2.36-.78-.5-1.17-1.7-1.6-2.65-.43-.96-.91-1.83-1.89-2.32-.26-.13-.22-.39-.22-.63,.4,0,.8,0,1.2,0,0,.24-.03,.49,.21,.65,.91,.61,1.36,1.49,1.83,2.46,.79,1.62,1.81,3.11,3.21,4.35,.5,.45,1.05,1.07,1.45,1.71,.08,.13,.11,.37,.22,.41,.92,.33,1.33,1.19,1.93,1.84Z"/><path class="cls-13" d="M153.45,16.92c.03-.56,.6-.64,.87-.6,.61,.1,.9-.13,1.3-.52,.54-.52,1.17,.16,1.83,.08,1.08-.13,2.23,.22,3.25-.45,.43-.28,1.02,.43,1.38-.23,1.18,.47,2.48,.6,3.61,1.23-.93,.33-1.92,.53-2.66,1.27-.24,.24-.64,.29-.86-.02-.86-1.17-2.01-1.02-3.19-.76-.62,.13-1.13,.26-1.77-.17-.95-.64-1.83,.25-2.75,.44-.36,.07-.95,.78-1.02-.28Z"/><path class="cls-15" d="M32.88,33.43c-.94-.67-.97-1.72-1.13-2.72-.07-.42,0-.91-.53-1.11-.17-.3-.28-.61-.24-.96-.13-.71,.61-1.51-.23-2.15-.08-.69-.21-1.39-.24-2.08-.06-1.35,.4-2.63,.71-3.92l.72,.5c-.53,.8-.11,1.6,0,2.41,.15,1.16-.38,2.28-.05,3.51,.51,1.93,.73,3.93,1.09,5.9,.04,.23,.19,.44-.09,.62Z"/><path class="cls-14" d="M34.31,47.77c.06,.56-.07,1.08-.29,1.61-.53,1.31,.19,2.9,1.39,3.65,.17,.11,.64,.71,.65,.9,.05,.81,.97,1.17,.9,1.97l-.7,.32c-.01-.37-.1-.6-.48-.83-1.46-.89-2.74-1.83-2.6-3.93,.04-.55-.19-1.23-.2-1.94,0-1.14,.71-1.31,1.33-1.74Z"/><path class="cls-10" d="M57.37,21.71c.52-.39,.85-.97,1.44-1.33,.77-.48,1.42-1.01,2.41-1.12,.83-.09,1.64-.46,2.34-1.05,.37-.31,.94-.4,1.47-.33-.06,1.03-.92,1.46-1.65,1.64-1.28,.32-2.44,.95-3.52,1.57-.71,.41-1.47,1.07-2.03,1.8-.31-.34-.41-.76-.45-1.19Z"/><path class="cls-14" d="M175.74,23.15c.16-.29,.56-.65,.7-.4,.55,1.02,1.75,.37,2.41,1.04,.2,.2,.51-.09,.76-.18,1.16,.15,1.9,1.07,2.88,1.57-.3,.56-.84,.28-1.28,.36-1.21,.21-2.17-.16-3-1.08-.5-.55-1.39,.12-2.08-.54-.3-.29-.31-.48-.39-.77Z"/><path class="cls-9" d="M103.6,8.12c-.96,1.48-2.65,2.18-4.33,1.74-.58-.15-1.08-.29-1.7-.01-.63,.28-.66-.32-.69-.76,2.21-.5,4.45-.88,6.72-.96Z"/><path class="cls-10" d="M154.41,11.65c.16-.88,1.17-.11,1.46-.74,1.41,.63,2.85,1.19,4.06,2.19-.27,.61-.72,.51-1.19,.28-1.21-.61-2.66-.3-3.83-1.05-.15-.1-.45,.03-.76,.07l.27-.75Z"/><path class="cls-9" d="M114.14,9.52c-.4-.7-1.17-.51-1.78-.72-.9-.3-2-.21-2.55-1.24,.67-.4,1.42-.09,2.11-.24,.66,.52,1.36,.88,2.25,.77,.6-.07,1,.35,1.4,.7-.05,.38-.12,.72-.64,.51-.24-.1-.54-.29-.55,.21h-.24Z"/><path class="cls-14" d="M76.04,69.82c-.02-.08-.02-.21-.05-.22-1.12-.27-1.87-1.4-3.04-1.43-.83-.02-1.03-.35-.97-1.05,.76-.02,1.43,.19,2.12,.54,.86,.44,1.74,.91,2.76,.91,.37,0,.6,.15,.62,.54-.43,.34-.91,.57-1.44,.71Z"/><path class="cls-15" d="M62.85,21.47c-.29,.81-1.2,1-1.77,1.36-.9,.57-1.22,1.73-2.32,1.99-.22-.08-.22-.29-.25-.47,.88-1.04,1.92-1.89,3.05-2.66,.46-.31,.81-.37,1.28-.22Z"/><path class="cls-8" d="M73.63,70.94c-.13-1.22-1.32-.73-1.92-1.18,.07-.44,.22-.77,.76-.57,.89,.32,1.87,.44,2.61,1.1-.43,.34-.9,.59-1.46,.65Z"/><path class="cls-5" d="M186.74,63.37c.38-.4,.87-.51,1.4-.46-.39,.38-.84,.58-1.4,.46Z"/><path class="cls-10" d="M92.79,10.17c-.2,.48-.46,.76-.94,.29,.25-.32,.63-.2,.94-.29Z"/><path class="cls-5" d="M189.16,62.65c.14-.32,.39-.3,.66-.23-.17,.23-.37,.35-.66,.23Z"/><path class="cls-4" d="M162.55,36.77c-1.08,.31-1.89,.77-2.48,1.9-1.12,2.14-1.71,4.53-3.07,6.55-.54,.81-.24,1.64-.26,2.5-.07,3.14,.87,6.21,.53,9.36-2.09,.27-4.2,.36-6.24,.95l-.48,.03-1.43,.24-1.68,.24-.23-.04c-.92-2.31-1.36-4.76-1.38-7.19-.03-4.74,.99-9.18,4.48-12.77,2.77-2.85,5.89-5.07,9.78-6.1,1.08-.29,2.16-.46,3.28-.47,.87,0,.94,.32,.6,1.01-.6,1.21-1.09,2.47-1.43,3.78Z"/><path class="cls-4" d="M163.75,38.68c2.7,2.13,4.08,4.97,4.56,8.31,.21,1.45,.57,2.87,.51,4.35-.03,.62,.26,1.23,.79,1.68,.33,.28,.66,.59,.91,.95,.34,.49,.31,1.1,.07,1.6-.28,.58-.81,.15-1.17,.07-4.49-.96-8.06-4.65-8.57-9.32-.26-2.37,.44-4.41,1.48-6.43,.48-.4,.96-.8,1.44-1.2Z"/><path class="cls-4" d="M122.77,32.08c0-2.54,1.78-4.65,3.85-4.65,.73,0,1,.24,.96,.97-.16,2.45-.58,4.88-.52,7.35,.03,.97-.75,.88-1.39,.66-1.9-.65-2.89-2.15-2.89-4.32Z"/><path class="cls-4" d="M130.2,40.34c0-2.25,2.04-4.51,4.04-4.54,.8-.01,1.13,.28,.99,1.04-.47,2.45-.71,4.93-.97,7.41-.07,.65-.48,.73-1.04,.49-1.68-.72-3.27-2.33-3.01-4.39Z"/><path class="cls-4" d="M107.19,31.87c0-2.21,1.11-3.89,2.88-4.53,1.28-.46,1.56-.16,1.5,1.11-.09,1.94-.23,3.88,.1,5.82,.07,.39,.1,.8,.05,1.18-.08,.62-.34,.93-1.04,.57-.63-.32-1.4-.42-1.97-.81-1.22-.83-1.72-2.05-1.51-3.34Z"/><path class="cls-4" d="M137.63,48.82c0-1.95,1.84-4.09,3.69-4.42,.66-.12,.95,.08,.85,.7-.4,2.6-.14,5.23-.24,7.84-.03,.74-.18,1.21-1.14,.63-2.28-1.36-3.16-2.59-3.16-4.75Z"/><path class="cls-4" d="M137.63,32.18c0-2.22,1.83-4.46,3.85-4.85,.7-.13,.72,.36,.69,.8-.07,1.46-.1,2.93-.3,4.37-.16,1.11-.24,2.18,.01,3.29,.1,.45,.25,1.01-.23,1.31-.47,.29-.64-.32-.98-.47-1.21-.54-2.05-1.48-2.7-2.6-.34-.59-.42-1.27-.35-1.85Z"/><path class="cls-4" d="M84.18,39.57c0-1.67,2.16-4.22,3.78-4.41,.68-.08,1.04,.34,.93,1.03-.26,1.69-.28,3.38,.06,5.07,.14,.69-.17,1.33-.25,1.99-.07,.6-.57,.45-.94,.45-1.96-.03-3.61-1.93-3.6-4.13Z"/><path class="cls-4" d="M73.63,39.17c0,1.19-.05,2.38,.02,3.57,.05,.96-.45,1.11-1.18,.93-1.88-.46-3.06-1.64-3.35-3.56-.25-1.64,.51-2.94,1.73-3.95,.75-.62,1.72-1.66,2.5-1.31,.73,.33,.19,1.73,.27,2.65,.05,.55,0,1.11,0,1.67Z"/><path class="cls-4" d="M119.46,37.38c-.32,2.15-.43,4.36-.16,6.57,.05,.43-.2,.5-.49,.44-1.05-.2-2.11-.36-2.81-1.34-1.32-1.84-1.86-4.76,.65-6.35,.2-.13,.36-.32,.55-.45,.59-.4,1.2-.99,1.93-.58,.62,.35,.15,1.1,.33,1.7Z"/><path class="cls-4" d="M81.3,31.04c-.09,1.15,.17,2.5-.22,3.83-.17,.59-.42,.74-1.03,.58-2.19-.58-3.44-2.23-3.3-4.44,.1-1.57,2.2-3.58,3.9-3.88,.67-.12,.65,.19,.65,.62,0,1.03,0,2.07,0,3.29Z"/><path class="cls-4" d="M126.6,48.64c0,1.11,.02,2.22,0,3.33-.02,1.08-.37,1.31-1.32,.75-3.38-2.02-4.15-5.45-.68-8.29,.42-.34,1-.64,1.54-.38,.53,.25,.46,.86,.46,1.38,0,1.07,0,2.14,0,3.21Z"/><path class="cls-4" d="M96.88,46.57c.19,1.5-.36,3.17-.26,4.88,.05,.84-.5,1.06-1.18,.73-1.62-.78-2.95-2.4-2.87-4.52,.06-1.58,1.61-3.59,3.19-4.08,.69-.21,1.18-.15,1.13,.77-.04,.67,0,1.35,0,2.23Z"/><path class="cls-4" d="M76.75,48c-.25-2.19,1.72-4.08,3.71-4.61,.61-.16,.78-.03,.72,.61-.23,2.24-.46,4.48-.35,6.74,.04,.87-.12,1.22-1.15,.93-2.14-.6-2.94-1.51-2.94-3.68Z"/><path class="cls-4" d="M107.16,48.26c.32-1.71,.92-3.3,2.74-4.1,1.15-.5,1.79-.12,1.58,1.08-.32,1.74-.13,3.48-.21,5.22-.03,.64,.25,1.49-.56,1.78-.86,.31-1.71-.13-2.25-.76-.75-.88-1.2-1.96-1.29-3.22Z"/><path class="cls-4" d="M96.89,28.12c-.18,2.45-.31,4.58-.5,6.71-.08,.9-.66,.83-1.31,.57-2.34-.96-3.19-4.7-1.48-6.68,.44-.51,.89-1.01,1.51-1.34,1.45-.77,1.79-.58,1.78,.74Z"/><path class="cls-4" d="M104.14,36.7c-.61,2.07-.06,4.28-.53,6.43-.16,.72-.4,.88-1.04,.54-2.07-1.07-3.15-3.49-2.54-5.72,.28-1,2.2-2.71,3.23-2.78,1.21-.08,.63,.91,.87,1.53Z"/><path class="cls-9" d="M146.18,68.89l-1.12,.62c-.32-.77-.51-1.59-1.4-2-.4-.18-.63-.63-.47-1.11,.11-.32,.13-.58-.09-.88-.38-.54-.22-1.01,.24-1.46,.55-.55,.69-1.12,.02-1.72-.6-.54-.54-1.07,.08-1.59,.39-.33,.84-.67,.41-1.28,.25-.38,.65-.14,.97-.23,.37,.99,0,2.13,.63,3.07,.11,.17,.07,.35-.18,.46-1.37,.62-1.45,.79-.28,1.59,.64,.44,.43,.76,.33,1.25-.25,1.23-.26,2.41,.87,3.28Z"/><path class="cls-10" d="M146.18,68.89c-1.13-.87-1.12-2.06-.87-3.28,.1-.5,.31-.81-.33-1.25-1.16-.8-1.08-.98,.28-1.59,.25-.11,.3-.29,.18-.46-.62-.94-.25-2.08-.63-3.07,.25-.32,.62-.19,.94-.23l.26-.14,.47-.04c.05,.4-.43,.69-.24,1.11,.58,1.34,.16,2.77,.34,4.16,.18,1.36-.06,2.77,.66,4.06-.26,.38-.7,.51-1.07,.74Z"/><path class="cls-8" d="M147.25,68.15c-.72-1.28-.48-2.7-.66-4.06-.18-1.39,.24-2.82-.34-4.16-.19-.43,.3-.71,.24-1.11l.73-.3,.23,.04c.44,.53,.36,1.07,.24,1.72-.2,1.05-.43,2.2-.19,3.19,.3,1.26,1.26,2.33,1.35,3.71-.51,.36-.97,.8-1.6,.97Z"/><path class="cls-8" d="M146.02,58.86l-.26,.14,.26-.14Z"/><path class="cls-2" d="M84.42,63.31c-.57,1.5-1.44,1.89-3.13,1.3-.68-.24-1.28,.01-1.86,.17-1.68,.45-2.85-.4-3.9-1.44-.51-.51-.77-1.25-1.44-1.69-.49-.31,.05-.8,.03-1.21,2.04,.33,3.87,1.33,5.85,1.87,1.47,.4,3,.53,4.45,1Z"/><path class="cls-14" d="M71.72,67.1c-.34,.42-.64,.29-1,0-1.23-1-2.41-1.97-3.23-3.41-.55-.97-1.29-1.86-1.8-2.89-.4-.8-.72-1.58-.7-2.47,.32,0,.65-.02,.97-.03,.19,1.83,.79,3.39,2.06,4.87,1.18,1.37,2.52,2.57,3.69,3.93Z"/><path class="cls-5" d="M197.79,54.47c.08,.55-.22,.96-.63,1.2-.8,.46-1.24,1.18-1.71,1.94-1.48,2.39-3.95,3.44-6.38,4.48-1.59,.68-3.36,.9-5.02,1.23-1.29,.25-2.55,.68-3.86,.9-1.82,.31-4.95-.98-5.7-2.59-.42-.91-.31-2-.62-3-.17-.55-.29-.82-.89-.82-.74,0-.57-.43-.39-.89,.4-1,1.48-.97,2.19-1.49,2.85-.68,5.78-.91,8.65-.79,2.69,.11,5.28-.42,7.91-.58,2.15-.13,4.35-.51,6.44,.42Z"/><path class="cls-10" d="M202.38,49.94c-.25,.25-.5,.49-.74,.73-.13-.14-.34-.41-.37-.4-.72,.45-1.27-.03-1.92-.22-.68-.19-1.51-.17-2.04,.55-.31,0-.63,0-.94,0-.32-.66-.64-.66-.97,0h-.7c-.28-.9-1.14-.92-1.82-1.06-.37-.08-.95,.17-.84,.84-.08,0-.15,.02-.23,.02-.07-.02-.15-.04-.23-.04-.07-.3-.14-.59-.5-.22h-.48c-.04-.12-.05-.3-.13-.33-.93-.42-1.84-.83-2.26-1.88-.12-.3-.47-.38-.81-.42-1.63-.2-3.13-.81-4.41-1.81-.6-.47-1.27-.6-1.93-.81-1.75-.58-3.46-1.31-4.72-2.68-.9-.97-1.88-1.47-3.18-1.39,.26-.71,.23-1.51,.68-2.16,1.14,.47,2.33,.8,3.49,1.26,2.68,1.07,4.34,3.46,6.81,4.77,1.07,.57,2.2,.22,3.24,.65,1.09,.45,2.21,.83,3.09,1.66,.14,.13,.32,.31,.49,.32,2.08,.14,3.81,1.4,5.88,1.7,1.51,.22,2.97,.52,4.44,.13,.86-.23,.58,.72,1.08,.77Z"/><path class="cls-8" d="M173.17,40.85c1.3-.08,2.28,.41,3.18,1.39,1.26,1.37,2.97,2.1,4.72,2.68,.67,.22,1.33,.35,1.93,.81,1.28,1,2.78,1.61,4.41,1.81,.34,.04,.69,.12,.81,.42,.42,1.05,1.33,1.47,2.26,1.88,.07,.03,.09,.21,.13,.32-.22,.42-.93,.34-.98,.94-.07,0-.14,0-.21,0-.14-.6-.62-.68-1.11-.69-.58,0-.95-.3-1.43-.58-1.02-.59-1.94-1.13-2.74-2.07-.38-.45-1.48-.88-2.14-.82-1.09,.09-2.03-.31-3-.49-.74-.14-1.67-.28-2.19-.69-.64-.51-.97-.3-1.22,.11-.68,1.08-1.62,1.22-2.74,.97-.53-1.71-.08-3.39,.16-5.07,.04-.31,.12-.61,.18-.91Z"/><path class="cls-13" d="M189.41,51.1c.07,0,.14,0,.21,0,.71-.28,1.64,.16,2.18-.67,.08,0,.15-.02,.23-.02,.32,0,.64,0,.95,.01,.03,.22,.04,.48,.29,.53,.18,.04,.18-.17,.2-.3h.71c.27,.74,.73,.56,1.21,.25h.48c1.44,.98,3.06,.05,4.56,.43l.24,.04c0,.49-.34,.73-.71,.94-.33-.84-.98-.75-1.67-.59-.45,.11-.86,.4-1.36,.28-1.95-.43-3.89-1.07-5.9-.21-.16,.07-.44-.12-.66-.19l-.11-.1,.1,.11v.45h-.46c-2.28,.53-4.51,.16-6.72-.43,.06-.92-.61-.79-1.13-.7-.42,.07-.51,.08-.79-.38-.84-1.37-1.52-1.41-3.12-.62-.27,.14-.59,.19-.9,.25-1.41,.27-2.8,.24-4.1-.48-.29-.7-.33-1.42-.23-2.15,.58-.03,1.03,.28,1.31,.7,.3,.46,.32,1.61,.97,1.13,.72-.53,1.13,.43,1.71-.08,.67-.58,1.73-.53,2.36-1.26,.2-.23,.57-.37,.7-.06,.34,.82,.78,.31,1.13,.11,.93-.53,1.61-.25,2.35,.41,.55,.49,.75,1.21,1.56,1.61,1.06,.52,2.27,.5,3.21,1.11,.58,.38,.84,.14,1.22-.12Z"/><path class="cls-2" d="M151.04,58.04c2.04-.59,4.15-.68,6.24-.95,.56-.08,1.12-.15,1.69-.23-.08,.82-.38,1.72,.72,2.15-.74,.78-1.79,1.22-2.4,2.15-.24,.08-.47,.16-.71,.24-.61-.09-1.04,.17-1.47,.6-1.04,1.03-1.43,1-2.44-.07-.56-.59-.72-1.32-.64-2.09,.09-.86-.2-1.45-.99-1.8Z"/><path class="cls-2" d="M197.79,54.47c-2.09-.93-4.29-.55-6.44-.42-2.64,.16-5.22,.69-7.91,.58-2.88-.12-5.81,.11-8.65,.79-.21-.46-.54-.88-.48-1.43,.79-.2,1.54-1.11,2.39-.09,.05,.07,.36-.09,.56-.13,2.93-.57,5.87-.38,8.78,0,1.73,.23,3.19-.79,4.85-.7,.06,0,.13-.18,.2-.28,.42,.03,.83-.02,1.2-.25,.15,.3,.47,.64,.71,.42,.52-.49,1.17-.13,1.69-.41h.48c.18,.67,.54,.57,.96,.23h.72c.11,1.11,1.21,.49,1.68,.96-.16,.32-.4,.56-.72,.72Z"/><path class="cls-15" d="M189.41,51.1c-.38,.25-.64,.49-1.22,.12-.94-.62-2.15-.6-3.21-1.11-.81-.4-1-1.12-1.56-1.61-.74-.66-1.42-.95-2.35-.41-.34,.2-.79,.7-1.13-.11-.13-.31-.5-.18-.7,.06-.63,.73-1.7,.67-2.36,1.26-.58,.51-.99-.46-1.71,.08-.65,.48-.67-.67-.97-1.13-.28-.42-.73-.74-1.31-.7-.02-.23-.04-.46-.06-.7,1.12,.26,2.06,.12,2.74-.97,.25-.4,.58-.62,1.22-.11,.52,.41,1.45,.55,2.19,.69,.98,.19,1.91,.58,3,.49,.66-.05,1.76,.38,2.14,.82,.8,.93,1.72,1.48,2.74,2.07,.48,.28,.86,.58,1.43,.58,.49,0,.97,.09,1.11,.69Z"/><path class="cls-1" d="M183.17,51.62c2.21,.59,4.44,.96,6.72,.44-.07,.56-.51,.63-.95,.73-1.89,.44-3.78,.25-5.67,.04-.69-.08-1.38-.18-2.09-.2-1.57-.05-3.17,.19-4.74-.45-.75-.3-1.78-.35-2.63,.16-.3-.44-.49-.92-.44-1.47,.94,.42,2.02,.05,2.96,.54,.08,.04,.28-.01,.33-.08,.67-1,1.54-.46,2.27-.21,1.39,.47,2.79,.69,4.24,.5Z"/><path class="cls-7" d="M173.81,52.34c.85-.52,1.88-.47,2.63-.16,1.57,.64,3.17,.4,4.74,.45,.71,.02,1.4,.12,2.09,.2,1.9,.22,3.78,.41,5.67-.04,.43-.1,.87-.18,.95-.73,.15,0,.3,0,.46,0-.04,.53,.55,.43,.73,.74-.07,.1-.14,.28-.2,.28-1.66-.09-3.12,.93-4.85,.7-2.91-.39-5.85-.57-8.78,0-.19,.04-.5,.19-.56,.13-.85-1.02-1.61-.11-2.39,.09-.39-.48-.49-1.05-.49-1.65Z"/><path class="cls-14" d="M183.17,51.62c-1.46,.19-2.85-.03-4.24-.5-.73-.25-1.6-.79-2.27,.21-.05,.07-.25,.13-.33,.08-.93-.49-2.02-.11-2.96-.54-.03-.41-.37-.75-.23-1.19,1.3,.72,2.68,.75,4.1,.48,.31-.06,.63-.11,.9-.25,1.6-.79,2.28-.75,3.12,.62,.29,.47,.37,.45,.79,.38,.52-.09,1.19-.22,1.13,.7Z"/><path class="cls-7" d="M159.68,59.02c-1.1-.43-.8-1.33-.72-2.15,.71-.05,1.43,.09,2.13-.19,.31-.12,.66-.1,.84,.24,.2,.38-.21,.46-.4,.61-.61,.51-1.23,.99-1.85,1.49Z"/><path class="cls-7" d="M198.51,53.75c-.47-.47-1.57,.15-1.68-.96h2.4l-.25,.71-.48,.24Z"/><path class="cls-4" d="M188.68,43.75c-.76-.25-1.48-.6-2.13-1.07-1.52-2.4-1.06-4.85,1.11-5.81,1.33-.59,2.67-.54,3.78,.45,1.02,.91,1.52,2.07,1.16,3.51-.41,1.64-1.5,2.53-3.09,2.88-.27,.06-.55,.04-.83,.05Z"/><path class="cls-7" d="M165.43,20.52c1.43,1.79,3.81,1.47,5.58,2.52,.33,.2,.79,.18,.89,.67,.07,.29,.3,.44,.51,.19,.52-.65,.84-.05,1.32,.06,1.48,.34,2.58,1.36,3.91,1.93,.44,.19,.84,.48,1.35,.29,.11-.04,.32-.09,.33-.06,.88,1.63,2.38,.64,3.59,.86,.18,.03,.34,.17,.51,.25-.64,.46-1.14,1.12-1.9,1.42-1.71-.83-3.57-1.23-5.19-2.41-.79-.58-2.15-.94-3.4-1.11-1.75-.24-3.5-.85-4.95-2.01-.55-.44-1.26-.32-1.82-.15-.74,.23-.99-.05-1.26-.63-.71-1.5-1.95-1.87-3.35-.93-.56,.38-.99,.13-1.27-.16-.85-.92-1.79-1.24-2.98-.8-.36,.13-.6-.11-.75-.42,.79-.28,1.51-.76,2.4-.71,.8,.24,1.33,1.26,2.41,.75,.31-.14,.77,0,1.15,.08,.96,.18,1.91,.44,2.91,.36Z"/><path class="cls-7" d="M114.38,16.45h.72c1.56,.68,3.05-.27,4.59-.2,.06,0,.13-.18,.2-.27,.32-.17,.66-.26,1.03-.24,.79,.03,1.5,.02,2.16-.67,.45-.48,1.43-.68,1.99-.29,1.29,.92,2.53,.16,3.79,.16,.93,0,1.77-.18,2.75,.36,.69,.38,1.69,.85,2.7,.57,.43-.12,.97-.14,1.38,.01,1.94,.72,3.84,.19,5.76-.09,.3-.04,.64-.02,.94,.06,.91,.27,1.73,.47,2.77,.21,1.15-.29,2.26,.49,2.92,1.52,.3,.46,.47,.64,1,.37,.98-.49,2.64,0,3.13,.99,.26,.52,.47,.67,.99,.37,.89-.51,2.22-.16,2.88,.72-.13,.27-.35,.55-.63,.45-1.41-.47-3.15,.4-4.32-1.04-1.29,.19-2.46-.52-3.69-.5-.65,0-.71-.24-.86-.64-.12-.33-.17-.88-.56-.82-1.18,.18-2.36-.28-3.52,.07-.41,.12-.73,.15-1.08-.2-.6-.6-1.4-.56-2.2-.62-1.54-.11-3.04,.91-4.61,.08-.27-.14-.79,.05-1.14,.2-.47,.2-.89,.14-1.23-.16-.44-.38-.84-.35-1.29-.07-.29,.18-.62,.21-.92,.05-1-.52-2.06-.24-3.08-.18-.92,.05-1.75-.35-2.68-.3-1.23,.06-2.19,.98-3.44,.87-1.08-.1-2.13,.21-3.24,.17-.96-.03-2.18-.31-3.18,.35-.86,.56-1.86,.17-2.78,.25-1.32,.12-2.66-.07-4,.12-.28,.04-.41-.19-.45-.45,.45-.37,.89-.46,1.52-.31,.56,.14,1.42,.4,1.6-.65h.48c.86,.79,2.81,.67,3.6-.24Z"/><path class="cls-6" d="M110.3,16.69c-.18,1.06-1.04,.79-1.6,.65-.62-.16-1.07-.07-1.52,.31-.32,0-.64,0-.95,0-.73-.99-1.73-.5-2.64-.48-.53-.05-.76,.19-.72,.71-.63-.1-1.08,.45-1.68,.48-.02-.56,.56-.76,.72-1.21l.24-.23c.65,.43,.83-.38,1.27-.54,1.22-.43,2.34,.11,3.5,.12,.66,0,1.33,.11,1.94-.12,.6-.22,.98,.11,1.43,.3Z"/><path class="cls-7" d="M103.59,17.17c.91-.02,1.91-.51,2.64,.48l-.06,.22c-.83-.34-1.9,.17-2.59-.7Z"/><path class="cls-13" d="M148.65,12.39c-.06,.19-.06,.42-.18,.55-.88,.94-.05,1.31,.6,1.56,.64,.25,1.12,.54,1.25,1.24-.7-.01-1.25-.29-1.89-.61-1.07-.53-2.16-1.57-3.69-.9-.85,.37-1.85-.36-2.81-.16-.08,0-.15,0-.23,0-1.07-.22-2.1-.65-3.25-.26-.8,.27-1.58,.01-2.27-.47,.03-.2,.08-.4,.31-.45,.6-.14,.74-.57,.61-1.08-.14-.54-.64-.31-1-.36-.49-.07-1.04,.15-1.49-.32,.69,.19,1.02-.23,1.35-.66,1.23-.05,2.68-.1,3.61,.31,2.64,1.16,5.5,.73,8.14,1.58,.29,.09,.63,.04,.95,.05Z"/><path class="cls-15" d="M88.97,14.05c-.5-1.77-.03-2.26,1.91-2.16,1.37,.07,2.74,0,4.11-.08,.4-.02,.69,.02,1.08,.16,.76,.27,1.6,.61,2.41-.16,.42-.4,1.03,.2,1.71,.08,1.14-.21,2.26-.28,3.31-.87,.44-.24,.96-.38,1.5-.32,.83,.09,1.56-.05,2.14-.75,.21-.26,.56-.45,.96-.34,1.22,.34,2.6,.13,3.62,1.12,.07,.07,.26,.15,.32,.11,1.13-.85,2.29,.47,3.48-.07,.46-.21,1.15,.09,1.73,.16-.07,.14-.14,.39-.2,.39-1.15-.07-2.23,.45-3.38,.34-.48-.05-.78-.43-1.32-.45-1.49-.05-2.96,.76-4.49-.14-.94-.55-1.85,.48-2.82,.59-.66,.19-1.35,.29-1.92,.71-1.1,0-2.28-.04-3.25,.4-.97,.44-1.74,.6-2.79,.27-.8-.25-1.64-.58-2.58-.43-.99,.16-1.85,1.11-2.97,.54-.07-.03-.21,.1-.32,.14-.74,.26-1.49,.51-2.23,.76h-.01Z"/><path class="cls-13" d="M105.03,11.67c.97-.11,1.88-1.15,2.82-.59,1.53,.9,3,.1,4.49,.14,.54,.02,.83,.4,1.32,.45,1.16,.11,2.24-.41,3.38-.34,.06,0,.14-.25,.2-.39,.26,.02,.55-.04,.73,.23,.08,.16,.16,.32,.25,.48-1.05,.15-2.11,.16-2.56,1.49-.3,.89-2.44,1.28-3.22,.67-.37-.29-.82-.35-1.11-.18-.83,.49-1.81,.5-2.66,.93-1.02,.52-1.52,.24-1.84-.88-.06-.22-.25-.4-.38-.6,.48-.42,1.06-.16,1.59-.23,.25-.03,.64,.1,.68-.28,.03-.32-.32-.38-.59-.46-1.04-.31-2.07-.06-3.11,.05v-.5Z"/><path class="cls-10" d="M114.38,9.52c.02-.5,.31-.31,.55-.21,.52,.21,.6-.13,.64-.51,.48-.08,.96-.16,1.44-.23,.24,.96,.81,.12,1.21,.22,.32,0,.63,0,.95,0,.52,.48,1.17,.31,1.71,.21,2.28-.41,4.61,.05,6.89-.42,1.73-.35,3.54,.03,5.27-.47,.32-.09,.72-.13,.99,.22-1.29,1.76-3.24,2.25-5.11,1.37-.83-.39-1.75-.03-2.63-.02-.59,.01-1.19,.15-1.77-.02-1.07-.32-2.13,.38-3.05,.19-1-.21-2,.47-2.88-.16-.67-.49-1.39-.4-1.97-.06-.83,.5-1.52,.38-2.25-.1Z"/><path class="cls-9" d="M134.04,8.33c-.27-.35-.68-.31-.99-.22-1.73,.5-3.54,.12-5.27,.47-2.28,.47-4.61,.01-6.89,.42-.54,.1-1.19,.26-1.71-.21,.55-.61,1.25-.7,2.04-.73,2.18-.07,4.37-.14,6.55-.07,.12,0,.28,.1,.34,.06,1.03-.81,2.25-.73,3.45-.86,2.06-.23,4.05,.03,6,.68,.04,.01,.05,.14,.07,.22-.4,.41-.89,.29-1.32,.16-.57-.18-.59,.14-.61,.53-.39,0-.86,.2-.95-.44l.06-.1-.06,.1c-.24-.14-.48-.15-.72,0Z"/><path class="cls-15" d="M82.5,15.51c-1.81,.12-3.61,.45-5.21,1.27-1.49,.76-3.13,.66-4.66,1.04-1.16,.29-2.2,.79-3.23,1.23-1.52,.65-3.07,1.04-4.65,1.44,.7-1.03,1.76-1.63,2.88-1.85,2.89-.55,5.5-2.09,8.46-2.34,1.81-.15,3.47-.84,5.19-1.31,.54-.15,1.37-.42,1.93,.25-.27,.02-.56-.03-.73,.27Z"/><path class="cls-15" d="M135.96,10.45c-.32,.43-.65,.86-1.35,.66,.45,.47,1,.25,1.49,.32,.36,.05,.86-.17,1,.36,.13,.51,0,.94-.61,1.08-.23,.05-.28,.25-.31,.45-.2,0-.39,.05-.49,.24-.07,0-.14,0-.22,0-1.29-.36-2.63-.55-3.83-1.2,.14-.58-.48-.9-.49-1.42,1.15,0,2.27-.01,3.3-.66,.48-.3,1.01-.05,1.5,.16Z"/><path class="cls-9" d="M137.87,8.08c1.23-.56,2.39,0,3.57,.24,.81,.17,1.53,.71,2.48,.19,.44-.24,1.12,.38,1.54,.62,.67,.39,1.23,.39,1.88,.31,.63-.08,1.23-.02,1.79,.32-.01,.32,0,.73-.45,.69-.92-.08-1.87,.31-2.78-.28-.34-.22-.92-.64-1.32,.07-.16,0-.32,0-.48-.01-.57-.25-1.13-.52-1.71-.74-.84-.31-1.55-.95-2.64-.7-.26,.06-1.54,.27-1.87-.71Z"/><path class="cls-10" d="M137.87,8.08c.33,.98,1.61,.77,1.87,.71,1.1-.26,1.8,.38,2.64,.7,.58,.22,1.14,.49,1.71,.74,.06,.39,.22,.81-.48,.73-.79-.1-1.54-.27-2.21-.74-.94-.67-1.99-.92-3.1-.64-1.07,.27-1.89-.08-2.61-.81,.02-.38,.04-.71,.61-.53,.43,.14,.93,.25,1.32-.16h.24Z"/><path class="cls-10" d="M144.58,10.23c.4-.7,.98-.28,1.32-.07,.91,.58,1.86,.2,2.78,.28,.44,.04,.44-.37,.45-.69,.64,.54,1.34-.13,2.06,.12,.73,.25,1.19,.54,1.31,1.29-.78,.07-1.56,0-2.34,.24-2.06,.64-3.88,0-5.58-1.18Z"/><path class="cls-13" d="M131.16,10.95c.01,.53,.62,.85,.49,1.42-.43-.02-.91,.15-1.26-.2-.89-.89-1.64-.53-2.33,.22-.34,.38-.61,.62-1.06,.16-.25-.26-.6-.2-.9-.17-.74,.08-1.03-.25-.95-.96,1.15-.6,2.45-.11,3.62-.51l2.38,.03Z"/><path class="cls-15" d="M128.78,10.93c-1.17,.4-2.47-.09-3.62,.51-.4,0-.79,0-1.19,0-.42,.01-.79-.05-.97-.51,.32-.8,.96-.18,1.44-.3,1.01-.26,2.05-.48,3.12-.4,.52,.04,1.04,.06,1.21,.7Z"/><path class="cls-13" d="M82.5,15.51c.17-.3,.46-.24,.73-.27,.64,0,1.27,0,1.91,0,.4,.39,.62,.27,.72-.24h.72c.03,.61,.44,.73,.95,.71-.03,.36-.18,.47-.54,.34-.39-.14-.79-.22-.9,.37-.49,.04-.98,.07-1.43-.21-.41-.35-.77-.43-.97,.2l-1.19-.21v-.7Z"/><path class="cls-15" d="M118.23,11.65c-.08-.16-.16-.32-.25-.48,1.18-.98,2.7-.41,4.01-.85,.36-.12,.5,.27,.55,.6l-.25,.25c-1.35,.17-2.68,.52-4.06,.47Z"/><path class="cls-15" d="M87.53,15.73c-.52,.02-.92-.1-.95-.71,.51-1.02,1.53-.8,2.39-.96h.01c-.32,.71-1.33,.8-1.45,1.68h0Z"/><path class="cls-13" d="M122.29,11.19l.25-.25c.15,0,.31,0,.46,0,.17,.45,.55,.52,.97,.5-.07,1.19-.99,.7-1.52,.65-.67-.06-.27-.56-.16-.9Z"/><path class="cls-15" d="M85.86,15.02c-.1,.51-.32,.63-.72,.24,.18-.26,.31-.67,.72-.24Z"/><path class="cls-15" d="M63.81,21c-.08,.64-.58,.43-.96,.48,.07-.66,.58-.44,.96-.48Z"/><path class="cls-10" d="M153.21,11.2c.37-.37,.43-.08,.49,.23-.2,0-.38-.03-.49-.23Z"/><path class="cls-15" d="M64.74,20.5c-.03,.31-.05,.63-.46,.25,.09-.19,.27-.24,.46-.25Z"/><path class="cls-10" d="M150.88,11.75s0,.06,0,.07c-.02,.02-.06,.01-.09,.02v-.13l.1,.03Z"/><path class="cls-14" d="M122.29,11.19c-.11,.34-.51,.85,.16,.9,.53,.05,1.45,.54,1.52-.65,.4,0,.79,0,1.19,0-.08,.71,.21,1.03,.95,.96,.3-.03,.65-.09,.9,.17,.44,.46,.71,.22,1.06-.16,.68-.75,1.44-1.11,2.33-.22,.34,.34,.83,.18,1.26,.2,1.2,.65,2.54,.84,3.83,1.2,.07,.13,.14,.25,.32,.16l-.1-.16c.11-.19,.29-.23,.49-.24,.69,.49,1.47,.75,2.27,.47,1.15-.39,2.18,.04,3.25,.26-.36,.59-.82,.97-1.57,.72-.07-.02-.18-.03-.24,0-1.64,.95-3.08-.1-4.62-.39-.87-.17-1.75-.54-2.68-.34h0c-1.26-.62-2.64-1.13-3.94-.5-1.26,.61-2.39,.45-3.53,.03-1.4-.51-2.59,.39-3.9,.35-.14,0-.32,.21-.4,.17-.96-.49-1.72,.19-2.56,.41-.24,.06-.45,.2-.56-.16-.07-.22-.36-.37-.45-.24-.85,1.27-2.75-.1-3.53,1.4-.08,.15-.88,.07-1.17-.31-.58-.77-1.09-.55-1.81-.12-1.28,.76-2.84,.56-4.18,.47-.77-.05-1.59-.39-2.52-.38-1.37,0-1.64,.77-1.89,1.75l-.24,.23c-.48-.3-.95-.51-1.2,.25h-.48c-.22-.15-.65-.33-.63-.46,.11-1.1-.43-.37-.72-.27-.36,.13-.75,.48-1.04,.4-.79-.2-.86,.28-.97,.8-.08,0-.16,0-.23,0-.96,.2-1.9,.42-2.93,.33-1.43-.12-2.91-.24-4.26,.5-.55,.3-1.07,.68-1.72,.78-1.22,.19-2.54-.14-3.6,.8-.3,.26-.75,.23-1.15,.21l-.1-.09,.1,.1v.46h-.47c-.7-.21-1.37,.3-2.1,.09-.32-.09-.27,.38-.3,.64h0c-.41-.3-.94-.35-1.37-.29-1.41,.18-2.87,.32-4.13,.97-.64,.33-1.07-.08-1.55,0-.92,.16-.91,.23-1.33-.68,2.94-1.01,5.82-2.17,8.86-2.89,2.31-.72,4.62-1.43,7.11-1.96-.59-.35-1.08-.44-1.6-.43,.11-.59,.51-.5,.9-.37,.36,.13,.52,.02,.54-.34h0c.7-.25,1.4-.49,2.16-.24,.12,.35-.53,.48-.26,.93l.99-.2c-.05,.88,.62,.96,1.2,.96,.88,0,1.82-.48,2.47,.56,.11,.18,.32-.13,.49-.18,1.52-.47,2.72-1.48,3.97-2.38,.62-.44,.9-.49,1.48-.09,.44,.3,1,.76,1.57,.17,.39-.41,.57-1.04,1.25-1.14,.06,0,.15-.2,.13-.29-.05-.26-.28-.21-.47-.25-.73-.13-1.41,.24-2.12,.24-.18,0-.45,.08-.46-.21-.01-.37,.34-.16,.43-.22,.81-.55,1.72,.05,2.52-.28,1.19,.54,2.38-.28,3.58-.02,.13,.2,.32,.38,.38,.6,.32,1.12,.82,1.4,1.84,.88,.85-.43,1.83-.44,2.66-.93,.29-.17,.73-.11,1.11,.18,.78,.61,2.92,.22,3.22-.67,.45-1.33,1.51-1.34,2.56-1.49,1.38,.06,2.71-.3,4.06-.47Zm-46.67,9.89l-.08-.03v.12s.05,0,.07-.02c.01,0,0-.05,0-.07Z"/><path class="cls-6" d="M165.43,20.52c-.99,.08-1.94-.18-2.91-.36-.38-.07-.85-.22-1.15-.08-1.08,.5-1.61-.52-2.41-.75,.51-.88,1.25-.88,2-.42,.88,.54,1.72,.79,2.8,.52,.71-.18,1.4,.3,1.68,1.1Z"/><path class="cls-6" d="M119.89,15.97c-.07,.1-.14,.28-.2,.27-1.54-.07-3.03,.88-4.59,.2,.79-.62,1.67-.91,2.66-.58,.47,.16,.85,.02,1.25-.17,.37-.18,.77-.39,.88,.27Z"/><path class="cls-6" d="M114.38,16.45c-.79,.9-2.73,1.03-3.6,.24,1.15-.8,2.36-.66,3.6-.24Z"/><path class="cls-14" d="M174.52,22.45c.89-.55,.69,.41,.98,.7-.51,.03-1.02,.05-.98-.7Z"/><path class="cls-14" d="M132.59,14.06l-.05,.1,.05-.1h0Z"/><path class="cls-1" d="M86.09,16.44c.52,0,1.01,.09,1.6,.43-2.49,.53-4.8,1.24-7.11,1.96-.43-1.01-1.29-.74-2.04-.61-1.56,.27-2.92,1.19-4.5,1.4-.15,.02-.3,.14-.45,.14-2.81-.06-5.14,1.54-7.7,2.31-1.6,.49-2.78,1.88-3.94,3.09-.52,.53-1.03,.82-1.73,.85,.65-1.36,1.36-2.62,2.92-3.18,.66-.24,1.23-.71,1.83-1.1,1.5-.99,3.24-1.27,4.93-1.68,.6-.15,.99-.58,1.51-.82,1-.47,2.08-.32,3.09-.6,1.54-.42,3.05-.97,4.59-1.38,1.15-.31,2.31-.58,3.41-1.04,.4,.07,.79,.14,1.19,.21,.34,.01,.71,.15,.97-.2,.44,.28,.94,.25,1.43,.21Z"/><path class="cls-1" d="M71.72,21.71c.43,.91,.41,.84,1.33,.68,.48-.08,.91,.33,1.55,0,1.26-.65,2.72-.79,4.13-.97,.42-.06,.96-.01,1.37,.29,0,.53-.07,1.02-.68,1.22-1.45,.47-2.9,.94-4.35,1.42l-.72-.24c-.62-.09-1.32-.04-1.86-.3-1.09-.53-1.8,0-2.56,.62-.34,.28-.67,.8-1.22,.53-.55-.28-.84-.84-1.02-1.4-.1-.3,.19-.75,.53-.38,.84,.94,1.31-.27,1.38-.42,.45-1,1.3-.94,2.13-1.04Z"/><path class="cls-1" d="M59.96,26.25l.25-.24-.25,.24Z"/><path class="cls-8" d="M30.74,26.49c.84,.63,.1,1.44,.23,2.15-.56-.66-1.19-1.32-.23-2.15Z"/><path class="cls-9" d="M118.22,8.78c-.4-.1-.97,.73-1.21-.22,.5-.46,.97-.75,1.21,.22Z"/><path class="cls-6" d="M75.07,24.34c1.45-.47,2.9-.95,4.35-1.42,.61-.2,.68-.69,.68-1.22h0c.39,.01,.82-.07,1.17,.05,.78,.26,1.1-.07,1.23-.77,.16,0,.31,0,.47,0,.28,.53,.8,.71,1.18,.32,.91-.94,2.02-.79,3.12-.79,.56,0,.98-.12,1.48-.51,1.23-.97,2.56-1.5,4.26-.8,1.23,.51,2.38-.55,3.57-.87,.06-.02,.05-.29,.07-.45,.08,0,.16,0,.23,0,.93,.03,1.88-.01,2.8,.11,.61,.08,.54-.24,.57-.59h.48v.95c-.55,.82-1.45,.53-2.16,.54-.76,.02-1.48,.32-2.1,.34-1.43,.05-2.7,1.37-4.24,.43-.77-.47-1.58-.03-2.16,.51-1.4,1.29-3.11,2.07-4.84,2.58-1.75,.51-3.66,.5-5.51,.68-.7,.07-1.3,.36-1.83,.75-.72,.55-1.57,.42-2.37,.59-.27,.06-.41-.19-.44-.45Z"/><path class="cls-1" d="M100.72,18.36v-.95c.26-.76,.72-.56,1.2-.25-.16,.45-.75,.65-.72,1.21h-.48Z"/><path class="cls-13" d="M150.8,15.96c.05-.27,.13-.67,.45-.54,.72,.3,1.63,.47,1.72,1.51-.83-.09-1.28-1.04-2.17-.97Z"/><path class="cls-7" d="M151.04,58.04c.79,.35,1.08,.94,.99,1.8-.08,.76,.08,1.5,.64,2.09,1.02,1.06,1.4,1.09,2.44,.07,.43-.42,.86-.68,1.47-.6-1.41,1.34-2.91,2.56-4.56,3.59-.3-.55-.83-.97-.95-1.61-.31-1.76-.49-3.53-.51-5.32l.48-.03Z"/><path class="cls-1" d="M150.56,58.07c.01,1.79,.2,3.56,.51,5.32,.11,.64,.64,1.06,.95,1.61-.16,.15-.33,.31-.49,.46-.32,.13-.5,.52-.91,.49-.98-1.24-1.27-2.75-1.7-4.2-.02-.07-.02-.18,.01-.23,.7-1.03,.25-2.12,.21-3.2l1.43-.24Z"/><path class="cls-1" d="M199.23,52.8h-3.12c-.25-.35-.63-.21-.96-.24h-.48c-.57-.59-1.83-.6-2.4-.01-.37,.23-.77,.27-1.2,.25-.18-.31-.78-.21-.73-.74,0-.15,0-.3,0-.45l.02-.02c.22,.07,.5,.26,.66,.19,2.01-.87,3.95-.22,5.9,.21,.51,.11,.91-.18,1.36-.28,.69-.16,1.34-.25,1.67,.59-.13,.33-.37,.49-.72,.5Z"/><path class="cls-8" d="M200.67,51.36c-.08-.01-.16-.03-.24-.04-.91-.82-2.02-.74-3.12-.7,.53-.73,1.36-.74,2.04-.55,.65,.18,1.2,.67,1.92,.22,.03-.02,.25,.26,.37,.4-.23,.36-.49,.67-.97,.69Z"/><path class="cls-8" d="M94.97,10.95l.05-.1-.05,.1h0Z"/><path class="cls-13" d="M149.13,58.32c.04,1.07,.5,2.17-.21,3.2-.04,.06-.03,.16-.01,.23,.43,1.46,.73,2.97,1.7,4.2-.48,.57-1.14,.88-1.77,1.23-.09-1.38-1.05-2.45-1.35-3.71-.24-1,0-2.15,.19-3.19,.12-.65,.21-1.2-.24-1.72,.56-.08,1.12-.16,1.68-.24Z"/><path class="cls-15" d="M197.3,50.62c1.1-.03,2.21-.12,3.12,.7-1.5-.38-3.12,.55-4.56-.43,.1-.2,.29-.24,.49-.26h.94Z"/><path class="cls-8" d="M194.19,50.65h-.71c-.1-.21-.28-.25-.49-.24-.32,0-.64,0-.95-.01-.11-.67,.47-.92,.84-.84,.68,.14,1.54,.16,1.82,1.06-.17,.01-.34,.03-.51,.04Z"/><path class="cls-15" d="M191.8,50.42c-.54,.83-1.47,.39-2.18,.67,.05-.6,.76-.52,.98-.94,.16,0,.32,0,.48,.01,.11,.21,.29,.24,.5,.22,.08,0,.15,.02,.23,.04Z"/><path class="cls-15" d="M194.19,50.65c.17-.01,.34-.03,.51-.04,.23,0,.47,0,.7,0v.27c-.48,.31-.93,.49-1.21-.24Z"/><path class="cls-8" d="M195.39,50.89v-.27c.33-.66,.65-.66,.97,0-.2,.02-.39,.06-.49,.26-.16,0-.32,0-.48,0Z"/><path class="cls-8" d="M191.58,50.38c-.21,.02-.39-.01-.5-.22,.36-.37,.43-.08,.5,.22Z"/><path class="cls-15" d="M192.99,50.41c.2,0,.38,.03,.49,.23-.02,.14-.01,.34-.2,.3-.25-.06-.26-.32-.29-.53Z"/><path class="cls-1" d="M190.35,51.61l-.1-.11,.11,.1-.02,.02Z"/><path class="cls-7" d="M192.27,52.55c.57-.59,1.83-.58,2.4,.01-.52,.28-1.17-.09-1.69,.41-.23,.22-.56-.11-.71-.42Z"/><path class="cls-7" d="M195.15,52.56c.33,.03,.71-.11,.96,.23-.42,.33-.79,.44-.96-.23Z"/><path class="cls-13" d="M89.69,15.49c-.76-.26-1.46-.01-2.16,.23,.12-.87,1.13-.96,1.45-1.66,.74-.25,1.49-.51,2.23-.76,.11-.04,.25-.17,.32-.14,1.12,.57,1.98-.38,2.97-.54,.94-.15,1.78,.18,2.58,.43,1.05,.33,1.82,.17,2.79-.27,.97-.44,2.14-.41,3.25-.4v.71c-.08,0-.15,.01-.23,.02-.8,.33-1.71-.27-2.52,.28-.09,.06-.44-.15-.43,.22,0,.29,.28,.21,.46,.21,.72,0,1.39-.36,2.12-.24,.19,.03,.43,0,.47,.25,.02,.09-.07,.28-.13,.29-.69,.1-.86,.73-1.25,1.14-.57,.59-1.13,.13-1.57-.17-.58-.4-.86-.36-1.48,.09-1.24,.89-2.45,1.91-3.97,2.38-.17,.05-.38,.36-.49,.18-.65-1.04-1.59-.57-2.47-.56-.58,0-1.26-.07-1.2-.96,.3-.02,.47-.18,.47-.49,.2-.43,.57-.47,.98-.49,.58-.02,1.15-.15,1.65-.47,1.06-.06,2.1-.2,3.1-.54-.04-.05-.07-.11-.12-.15-.02-.02-.08-.02-.11-.02-.67-.56-1.36-1.52-2.28-.76-.85,.7-1.79,.86-2.73,.95-.88,.08-1.23,.4-1.22,1.23h-.48Zm9.38-1.22c.16,0,.35,0,.32-.22,0-.08-.15-.17-.24-.2-.14-.04-.36-.05-.39,.13-.04,.19,.16,.24,.31,.29Z"/><path class="cls-14" d="M103.11,13.09v-.71c.58-.42,1.27-.53,1.92-.71v.5c-.7,.19-1.09,1.02-1.92,.92Z"/><path class="cls-1" d="M103.11,13.09c.83,.1,1.23-.73,1.92-.92,1.03-.11,2.07-.36,3.11-.05,.27,.08,.62,.14,.59,.46-.04,.38-.42,.24-.68,.28-.53,.07-1.11-.19-1.59,.23-1.19-.26-2.38,.56-3.58,.02,.07,0,.15,0,.22-.02Z"/><path class="cls-10" d="M134.75,8.32l.06-.1-.06,.1h0Z"/><path class="cls-13" d="M135.69,13.58l.1,.16c-.18,.09-.25-.03-.32-.16,.07,0,.14,0,.22,0Z"/><path class="cls-14" d="M84.66,16.22c-.26,.35-.63,.22-.97,.2,.21-.63,.56-.55,.97-.2Z"/><path class="cls-1" d="M96.65,17.89c-.02,.16-.01,.43-.07,.45-1.19,.33-2.33,1.38-3.57,.87-1.69-.7-3.03-.18-4.26,.8-.5,.39-.92,.51-1.48,.51-1.1,0-2.21-.16-3.12,.79-.37,.39-.9,.21-1.18-.32,0-.15,0-.31,0-.46h0c.4,.01,.85,.05,1.15-.22,1.07-.94,2.39-.61,3.6-.8,.65-.1,1.17-.48,1.72-.78,1.35-.75,2.83-.63,4.26-.5,1.03,.09,1.96-.12,2.93-.33Z"/><path class="cls-1" d="M100.24,17.41c-.03,.35,.04,.67-.57,.59-.92-.12-1.86-.08-2.8-.11,.1-.52,.17-1,.97-.8,.29,.07,.68-.28,1.04-.4,.29-.1,.83-.83,.72,.27-.01,.13,.41,.31,.63,.46Z"/><path class="cls-1" d="M82.5,20.99c-.13,.7-.45,1.03-1.23,.77-.36-.12-.78-.04-1.17-.05,.03-.26-.02-.73,.3-.64,.73,.21,1.4-.3,2.1-.08Z"/><path class="cls-1" d="M89.69,15.49c.16,0,.32,0,.48-.01,.16,.3,.45,.24,.72,.25,0,.31-.17,.47-.47,.49-.33,.07-.66,.13-.99,.2-.27-.45,.37-.57,.26-.93Z"/><path class="cls-6" d="M75.62,21.08s0,.06,0,.07c-.02,.02-.06,.01-.09,.02v-.12l.1,.03Z"/><path class="cls-1" d="M82.98,20.52l-.1-.1,.1,.09h0Z"/><path class="cls-14" d="M90.89,15.74c-.27,0-.55,.04-.72-.25-.01-.82,.34-1.15,1.22-1.23,.95-.09,1.89-.25,2.73-.95,.92-.76,1.61,.19,2.28,.76-1.04-.1-2.01,.11-2.87,.71-.5,.32-1.07,.45-1.65,.47-.42,.02-.79,.06-.98,.49Z"/><path class="cls-1" d="M93.53,14.78c.87-.6,1.83-.81,2.87-.71,.04,0,.09,0,.11,.02,.05,.04,.08,.1,.12,.15-1.01,.34-2.05,.48-3.1,.54Z"/><path class="cls-14" d="M99.07,14.26c-.16-.05-.35-.1-.31-.29,.04-.18,.25-.16,.39-.13,.1,.02,.24,.12,.24,.2,.02,.22-.16,.23-.32,.22Z"/></svg>