<?xml version="1.0" encoding="UTF-8"?><svg id="Layer_1" xmlns="http://www.w3.org/2000/svg" viewBox="0 0 51.61 31.63"><defs><style>.cls-1{fill:#02806a;}.cls-2{fill:#03816c;}.cls-3{fill:#66b6ac;}.cls-4{fill:#edcfc8;}.cls-5{fill:#7cc3bb;}.cls-6{fill:#98d5d0;}.cls-7{fill:#a6dcd9;}.cls-8{fill:#a9dfdc;}.cls-9{fill:#11917f;}.cls-10{fill:#239686;}.cls-11{fill:#068e7c;}.cls-12{fill:#42a395;}.cls-13{fill:#85c9c2;}.cls-14{fill:#4ba89b;}.cls-15{fill:#5cb1a5;}</style></defs><path class="cls-8" d="M22.91,20.8c-2.84,.06-5.68-.14-8.52,.16-.88,.09-1.8-.14-2.7-.23-.66-1.56-1.83-2.49-3.51-2.78-.27-.05-.4-.26-.54-.46,1.06-.07,1.67-.88,2.43-1.45,.56,.52,1.22,.85,1.88,.31,.73-.58,.51-1.3,0-1.95,4.37-3.05,9.46-3.81,14.57-4.49-.07,.83-.51,2.02,1.15,1.07,.28-.16,.46,.2,.51,.49,.07,.41-.08,.77-.26,1.12-.3,.56-.03,.79,.51,.86,0,.08,0,.16,0,.23l.24,.48h0c-.24-.01-.48,.01-.71-.04-.3-.07-.65-.29-.82,.12-.18,.44,.31,.35,.49,.49,.54,.42,.21,.73-.12,1.05-.39,.37-.68,.68,.09,1.02,.51,.22,.7,.77,.43,1.28-.17,.31-.7,.43-.31,.94,.37,.5,.79,.15,1.19,.12l-.23,.71c-.21,.11-.24,.31-.24,.52l-.71,.19c-1.16-.48-2.38-.13-3.57-.23-.49-.04-.93,.06-1.24,.48Zm-4.02-1.38c1.28,.12,1.52-.94,1.99-1.71,.28-.46,.19-.74-.42-.7-1.76,.11-3.51,.2-5.27,.32-.39,.03-.49,.41-.18,.54,1.29,.54,2.46,1.37,3.88,1.56Z"/><path class="cls-4" d="M26.52,9.91c-5.11,.68-10.2,1.44-14.57,4.49-1.61-.08-1.86,.14-1.88,1.63-.76,.57-1.37,1.39-2.43,1.45-1.03-.62-.5-1.2,.04-1.79,2.14-2.33,4.88-3.76,7.72-4.98,2.96-1.28,6.07-1.99,9.32-2,.99,0,1.95,.37,2.95,.25,.18,.87,1.11,.47,1.55,.91-.9,.01-1.8,.03-2.7,.04Z"/><path class="cls-1" d="M29.22,9.87c-.44-.44-1.37-.03-1.55-.91,.85-1,2.1-1.22,3.27-1.35,1.83-.2,3.69-.23,5.53,.11,.66,.12,.89,.49,.72,1.08-.37,1.26-.72,2.54-1.43,3.67-.3,.06-.59,.25-.9,.05-.39-.33-.78-.65-1.17-.98-.23-.53-.8-.42-1.21-.63l-.7-.07h0c-.03-.13-.09-.21-.24-.19l-1.21-.46-1.09-.31Z"/><path class="cls-11" d="M40.32,13.85c.92-.92,1.94-1.68,3.16-2.17,.46-.19,.83-.14,1.18,.21,.42,.41,.17,.81-.04,1.17-.49,.86-1.17,1.59-1.94,2.19-.75,.59-.72,1.08-.13,1.72,.26,.28,.45,.63,.67,.95-.18,.42-.85,.11-.98,.7-.19,.89-.69,.46-.96,.08-.45-.61-.79-1.29-1.17-1.94v-.47q.71-.87,.23-1.18v-.47c.39-.27,.03-.52-.03-.78Z"/><path class="cls-6" d="M30.31,10.18c.4,.15,.81,.3,1.21,.46l.24,.2h0c-.09,.64,.17,1.48-.95,1.52-.07,0-.57,.45-.28,.95,.47,.81,.16,1.72-.18,2.41-.45,.91-.27,1.45,.46,1.98l-.24,.24c-.19,.03-.4,.05-.43,.3-.04,.32,.19,.37,.44,.41h0c-.08,.42-1.23,.37-.68,.71,.61,.38,.28,.76,.45,1.1-.5,.11-.99,.11-1.46-.11,.01-.21-.01-.4-.22-.52,.08-.24,.15-.47,.23-.71,.02-.45,.64-.66,.48-1.18l.32-.12-.31-.12c.07-1.25-.84-2.3-.72-3.55h0c.21-.04,.61,.06,.56-.23-.07-.42-.52-.17-.8-.25,0-.08,0-.16,0-.23,.22-.4,.93-.39,.81-1.13-.14-.9,.28-1.64,1.08-2.13Z"/><path class="cls-3" d="M33.68,11.54c.39,.33,.78,.65,1.17,.98-.3,.63,.22,1.25,.02,1.87-2.04-.71-.41,1.38-1.28,1.7-.32,.12,.61,.06,.43,.51-.32,.35-.8,.17-1.2,.32,.6,1.02,1.85,1.69,1.57,3.11-.25,.05-.5,.1-.75,.15-.63-1.7-1.27-3.39-1.9-5.09l.02-.47c.47,.18,.85,.47,1.28-.23,.36-.59,.31-.89-.19-1.25-.53-.38-.26-.76,.07-1.07,.22-.21,.51-.36,.76-.54Z"/><path class="cls-12" d="M37.21,18.99c-.42,.51-1.02,.66-1.62,.8,.26-1.53-1.02-2.9-.48-4.46,.33-.09,.68-.15,.99-.28,.31-.13,.84-.2,.36-.77-.25-.3,.16-.64,.11-.98l1.9,1.31c-.17,.09-.49,.18-.49,.28-.06,1.18-1.59,2.04-.76,3.42,.1,.17,0,.45,0,.69Z"/><path class="cls-13" d="M31.76,14.63c0,.16-.01,.31-.02,.47-.54,.09-.44,.41-.31,.79,.26,.81-.03,1.11-.86,.87l-.09-.05,.1,.05c1.05,.98,1.39,2.2,1.21,3.59-.45,.37-.94,.17-1.42,.12-.17-.34,.16-.72-.45-1.1-.55-.35,.6-.3,.68-.71l.05-.1-.05,.1c-.24-.03-.47-.09-.44-.41,.03-.25,.24-.27,.43-.3l.24-.24c-.73-.53-.91-1.07-.46-1.98,.34-.7,.66-1.6,.18-2.41-.29-.5,.21-.94,.28-.95,1.12-.04,.86-.89,.95-1.53,.23,.02,.47,.05,.7,.07,0,.34,.01,.66-.29,.94-.85,.8-.57,1.81-.42,2.78Z"/><path class="cls-10" d="M37.21,18.99c0-.23,.11-.52,0-.69-.83-1.38,.7-2.24,.76-3.42,0-.1,.32-.18,.49-.28,.65,.4,.95-.27,1.4-.46,0,.3,.16,.47,.47,.48v.47c-.31,.01-.65-.01-.69,.42-.03,.36-.04,.72,.46,.76v.47c-.74,.34-1.1,.88-.97,1.71-.9-.73-1.25,.49-1.93,.53Z"/><path class="cls-2" d="M22.91,20.8c.31-.43,.75-.52,1.24-.48,1.19,.1,2.41-.25,3.57,.23-.2,.76,.04,1.78-1.2,1.91-1.6,.17-3.18-.55-3.61-1.66Z"/><path class="cls-15" d="M35.1,15.34c-.53,1.56,.74,2.93,.48,4.46-.39,.12-.76,.36-1.2,.23,.28-1.42-.97-2.09-1.57-3.11,.4-.15,.88,.03,1.2-.32,.19-.45-.74-.4-.43-.51,.87-.32-.76-2.41,1.28-1.7,.34,.25,.19,.62,.23,.95Z"/><path class="cls-9" d="M39.14,18.47c-.12-.82,.24-1.37,.97-1.71,.38,.65,.73,1.34,1.17,1.94,.28,.38,.78,.81,.96-.08,.13-.6,.8-.28,.98-.7,.51,.36,.8,.86,.98,1.44-.4,.14-.84,.46-1.18,.38-.89-.21-.75,.34-.77,.83-1.17-.51-2.21-1.21-3.12-2.1Z"/><path class="cls-14" d="M8.18,17.95c1.68,.29,2.85,1.22,3.51,2.78-.95,.02-1.91,.03-2.86,.08-.42,.02-.86-.07-1.06-.39-.2-.32,.16-.65,.38-.92,.41-.52,.75-1.02,.03-1.56Z"/><path class="cls-5" d="M31.77,20.34c.18-1.39-.16-2.61-1.21-3.59h0c.83,.24,1.13-.06,.86-.87-.12-.37-.22-.69,.31-.79,.63,1.7,1.27,3.39,1.9,5.09-.3,.14-.6,.15-.92,.09-.03-.26,.05-.68-.27-.69-.34,0-.24,.5-.45,.71l-.23,.06Z"/><path class="cls-14" d="M35.1,15.34c-.03-.33,.11-.69-.23-.95,.2-.63-.33-1.24-.02-1.87,.31,.21,.61,.02,.9-.05,.1,.44,.59,.5,.81,.83,.05,.34-.36,.68-.11,.98,.48,.57-.05,.63-.36,.77-.31,.14-.66,.19-.99,.28Z"/><path class="cls-10" d="M42.25,20.57c.02-.49-.13-1.04,.77-.83,.35,.08,.79-.24,1.18-.38,.36,.48,.76,1.08,.18,1.51-.7,.52-1.46,.11-2.13-.3Z"/><path class="cls-13" d="M32.01,20.29c.21-.21,.11-.72,.45-.71,.32,0,.24,.43,.27,.69-.24,0-.48,.01-.72,.02Z"/><path class="cls-9" d="M40.34,14.63c-.31-.01-.46-.17-.47-.48l.44-.3c.06,.26,.42,.51,.03,.78Z"/><path class="cls-7" d="M28.67,19.84c.21,.11,.24,.31,.22,.52-.16,0-.31,0-.47,0,0-.21,.03-.41,.24-.52Z"/><path class="cls-2" d="M18.88,19.42c-1.42-.19-2.59-1.02-3.88-1.56-.31-.13-.21-.51,.18-.54,1.75-.12,3.51-.21,5.27-.32,.61-.04,.7,.24,.42,.7-.47,.77-.71,1.83-1.99,1.71Z"/><path class="cls-7" d="M29.38,17.95c.16,.52-.46,.73-.48,1.18-.4,.02-.81,.37-1.19-.12-.38-.51,.14-.63,.31-.94,.27-.5,.08-1.05-.43-1.28-.77-.33-.48-.65-.09-1.02,.33-.32,.67-.62,.12-1.05-.18-.14-.67-.05-.49-.49,.17-.42,.52-.19,.82-.12,.23,.05,.47,.03,.71,.04-.12,1.26,.79,2.31,.72,3.55v.24Z"/><path class="cls-7" d="M30.31,10.18c-.8,.49-1.22,1.23-1.08,2.13,.12,.74-.59,.72-.81,1.13-.54-.07-.81-.3-.51-.86,.19-.35,.33-.71,.26-1.12-.05-.29-.23-.65-.51-.49-1.66,.96-1.22-.24-1.15-1.07,.9-.01,1.8-.02,2.7-.04,.36,.1,.73,.21,1.09,.31Z"/><path class="cls-2" d="M10.07,16.03c.02-1.49,.27-1.71,1.88-1.63,.51,.65,.73,1.37,0,1.95-.66,.53-1.32,.2-1.88-.31Z"/><path class="cls-7" d="M28.43,13.68c.28,.07,.73-.17,.8,.25,.05,.29-.35,.19-.56,.23l-.24-.48Z"/><path class="cls-5" d="M31.76,14.63c-.16-.97-.44-1.97,.42-2.78,.3-.28,.29-.6,.29-.94,.4,.21,.98,.1,1.21,.63-.26,.18-.55,.32-.76,.54-.32,.32-.6,.69-.07,1.07,.5,.36,.56,.65,.19,1.25-.43,.7-.81,.41-1.28,.23Z"/><path class="cls-13" d="M31.77,10.84l-.24-.2c.15-.02,.22,.07,.24,.2Z"/><path class="cls-9" d="M40.11,16.29c-.5-.04-.5-.4-.46-.76,.04-.44,.38-.41,.7-.42q.48,.32-.23,1.18Z"/><path class="cls-13" d="M29.38,17.95v-.24l.32,.12-.32,.12Z"/><path class="cls-5" d="M30.81,17.71l-.24,.24,.24-.24Z"/><path class="cls-5" d="M30.58,18.65l.05-.1-.05,.1h0Z"/><path class="cls-6" d="M30.57,16.76l-.1-.05,.09,.05h0Z"/></svg>