<?xml version="1.0" encoding="utf-8"?>
<!-- Generator: Adobe Illustrator 26.3.1, SVG Export Plug-In . SVG Version: 6.00 Build 0)  -->
<svg version="1.1" id="Layer_1" xmlns="http://www.w3.org/2000/svg" xmlns:xlink="http://www.w3.org/1999/xlink" x="0px" y="0px"
	 viewBox="0 0 634.3 216.5" style="enable-background:new 0 0 634.3 216.5;" xml:space="preserve">
<style type="text/css">
	.st0{fill:#FD4D00;}
	.st1{fill:#FD3700;}
	.st2{fill:#FD4300;}
	.st3{fill:#FDB4A7;}
	.st4{fill:#FD9F87;}
	.st5{fill:#FD662B;}
	.st6{fill:#FDAD9D;}
	.st7{fill:#FD815B;}
	.st8{fill:#FDA692;}
	.st9{fill:#FDB7AC;}
	.st10{fill:#FD703D;}
	.st11{fill:#FD8C6C;}
	.st12{fill:#FD957A;}
	.st13{fill:#FD7749;}
	.st14{fill:#345940;}
	.st15{fill:#006C54;}
	.st16{fill:#A4DAD4;}
	.st17{fill:#00684E;}
	.st18{fill:#017660;}
	.st19{fill:#AADCD8;}
	.st20{fill:#72BDB2;}
	.st21{fill:#028F7F;}
	.st22{fill:#008875;}
	.st23{fill:#9AD4CD;}
	.st24{fill:#8CCBC4;}
	.st25{fill:#00806B;}
	.st26{fill:#299D8E;}
	.st27{fill:#3EA597;}
	.st28{fill:#005A3F;}
	.st29{fill:#58AFA3;}
	.st30{fill:#FBAFA7;}
	.st31{fill:#02755E;}
	.st32{fill:#0B7964;}
	.st33{fill:#8DB9B4;}
	.st34{fill:#B9B2AA;}
	.st35{fill:#338B7B;}
	.st36{fill:#1D806C;}
	.st37{fill:#4E9B8E;}
	.st38{fill:#B79C8F;}
	.st39{fill:#B9D5D2;}
	.st40{fill:#E1ABA2;}
	.st41{fill:#71B0A7;}
	.st42{fill:#919485;}
	.st43{fill:#5BA499;}
	.st44{fill:#02371B;}
	.st45{fill:#A8DEDB;}
	.st46{fill:#ECCEC7;}
	.st47{fill:#02806A;}
	.st48{fill:#068D7C;}
	.st49{fill:#97D4CF;}
	.st50{fill:#66B5AB;}
	.st51{fill:#42A294;}
	.st52{fill:#84C8C1;}
	.st53{fill:#239585;}
	.st54{fill:#03806C;}
	.st55{fill:#5CB0A4;}
	.st56{fill:#11907F;}
	.st57{fill:#4BA79A;}
	.st58{fill:#7CC2BA;}
	.st59{fill:#A5DBD8;}
	.st60{fill:#CFAE6C;}
	.st61{fill:#EFE4CE;}
	.st62{fill:#036629;}
	.st63{fill:#5F6065;}
	.st64{fill:#BE984B;}
	.st65{fill:#FFB8AD;}
	.st66{fill:#FB867A;}
	.st67{fill:#FFADA1;}
	.st68{fill:#F77777;}
	.st69{fill:#FE998C;}
	.st70{fill:#E84669;}
	.st71{fill:#EE586E;}
	.st72{fill:#00582C;}
</style>
<path class="st60" d="M589.6,145.3c3.8,0.2,7.7,0.4,11.5,0.5c3.8,0.1,7.6,0.3,11.4,0.5c6.1,0.3,12.2,0.5,18.2,1.2
	c1.3,0.1,2.7,0,3.9,0.4v70.1c-0.6,0.5-1.4,0.3-2.2,0.4c-5.4,0.1-10.7,0.3-16.1,0c-11.3-0.6-22.5-0.3-33.8-0.6
	c-9.2-0.3-18.4-0.1-27.6-0.3c-9.2-0.3-18.3-0.1-27.5-0.3c-9.2-0.3-18.3-0.1-27.5-0.3c-9.1-0.3-18.2-0.1-27.3-0.3
	c-9.1-0.3-18.2-0.1-27.3-0.3c-9.1-0.3-21.6,10.3-30.7,10.1c-9.1-0.3-18.2-0.1-27.3-0.3c-9-0.3-18.1-0.1-27.1-0.3
	c-9.1-0.3-18.2-0.1-27.3-0.3c-9-0.3-18.1-0.1-27.1-0.3c-9-0.3-18-0.1-27-0.3c-9-0.3-18.1-0.1-27.1-0.3c-9-0.3-18.1-0.1-27.1-0.3
	c-9-0.3-18-0.1-27-0.3c-9-0.3-18.1-0.1-27.1-0.3c-8.8-0.3-17.6-0.1-26.4-0.3c-9-0.3-18.1-0.1-27.1-0.4c-8.9-0.3-17.7-0.1-26.6-0.3
	c-8.7-0.3-17.5-0.1-26.3-0.3c-8.9-0.3-17.7-0.1-26.6-0.3c-8.6-0.3-17.3,0-25.9-0.3c-4.3-0.2-8.6-0.1-13-0.1
	c-0.2-0.7-0.1-1.5-0.1-2.2c0-22.3-10.5-55.7-10.5-78c0-1.6,13.7-2.5,13.9-4.2c1.3,2.7-12.3,1.8-12.1,1.5c2.7-0.2,5.4-0.5,8.1-0.6
	c3-0.2,20,0.4,23,0.3c10.1-0.6,20.1-0.8,30.2-0.6c5.5,0.1,11,0.4,16.6,0.6c4.6,0.2,9.2,0.4,13.8,0.8c5.5,0.5,11,1,16.5,1.6
	c5.9,0.7,11.8,1.4,17.6,2.2c5.2,0.7,10.3,1.6,15.5,2.5c6.5,1.1,12.9,2.2,19.4,3.3c7.6,1.3,15.3,2.7,22.9,4c4.6,0.8,9.3,1.4,14,1.9
	c4.8,0.5,9.6,0.9,14.4,1.3c9.2,0.6,18.4,1,27.6,0.6c4.7-0.2,9.4-0.4,14.1-0.8c4.2-0.4,8.4-0.8,12.5-1.2c3.7-0.3,7.3-0.8,11-1.2
	c3.8-0.4,7.5-0.8,11.3-1.1c3.3-0.3,6.6-0.7,10-0.9c3.3-0.3,6.5-0.5,9.8-0.8c3.5-0.3,7-0.6,10.5-0.9c3.1-0.3,6.2-0.6,9.3-0.8
	c4.5-0.3,8.9-0.7,13.4-0.9c4.4-0.2,8.9-0.3,13.3-0.5c5.4-0.3,10.8-0.2,16.2-0.4c6.1-0.2,12.2-0.4,18.3-0.7c7-0.4,14-1,21-1.9
	c11.1-1.5,22.1-3.3,33.1-5.5c4.8-1,9.6-2.2,14.4-3.4c6.1-1.5,12.3-2.6,18.6-3.4c9.2-1.1,18.3-1.6,27.6-1.3c4.3,0.2,8.6,0.6,12.9,1.2
	c1,0.1,1.9,0.2,2.9,0.2c2.7,3.1,4.7,6.7,8.1,9.2c-2,1-3.8,2.3-5.6,3.5c-2-0.1-3.9,0-5.8,0.2c-2,0.3-4.1,0.5-6.1,1
	c-5.5,1.2-10.6,3.5-15.6,5.9c-1.8,0.8-3.5,1.8-5.3,2.5c-4,1.7-8.2,3.1-12.3,4.5c-1.4,0.5-2.8,1-3.9,2.1c-0.6,0.6-0.5,1.4,0.3,1.7
	c0.8,0.4,1.7,0.6,2.7,0.7c3.1,0.2,6.1-0.2,9-0.9c3.6-0.8,7.1-1.8,10.7-2.7c3.9-1,7.8-1.7,11.8-2.2c2.1-0.3,4.2-0.5,6.3-0.7
	c1.8-0.1,3.7-0.2,5.5-0.5c3.3-0.4,6.5-0.2,9.8-0.5c2.1-0.3,4.2,0,6.4,0.2c2.2,0.2,4.5,0,6.7,0.1c1.8,0.1,3.4-0.3,5.1-0.8
	c1.1-0.3,2.2-1,2.4-2.3c0.1-1.1,0.7-1.2,1.5-1.2c1.9,1.1,4,1.5,6.1,1.7c5.2,0.4,10.4,0.8,15.6,1c5.3,0.2,10.5,0.5,15.8,0.4
	c0.2,0,0.4,0,0.6,0c5.8,0.5,11.6,0.3,17.4-0.1c1.3-0.1,2.6-0.5,3.9-0.9c1.8-0.5,2.8-2.5,0.7-4.2c-1.6-1.3-3.5-1.9-5.5-2.5
	C593.6,146.4,591.6,145.8,589.6,145.3z M101.6,167.6c-1.1-0.4-2.3-0.5-3.5-0.6c-0.8,0.1-1.6-0.4-2.4-0.4c-0.4-0.4-0.3-1-0.7-1.4
	c0-0.6,0-1.1,0-1.7c-0.2-1.1-0.4-2.2-1.8-2.4c-2-0.2-3.7,0.3-4.9,2c-0.6,0.1-1,0.5-1.3,1.1c-0.5,0.2-0.8,0.6-1,1
	c-1,1.1-2.2,1.3-3.5,0.8c-0.1,0-0.2,0-0.3,0c-0.7-0.1-1.4-0.2-2.1-0.4c-0.6-0.1-1.1-0.1-1.7-0.4c-0.9-0.5-1.8-0.4-2.7,0
	c-1.1,0.5-1.4,1.1-0.8,2.2c0.4,0.7,0.9,1.3,1.7,1.7c0.4,0.8,1.1,1.1,1.8,1.7c0.2,0.8,1.4,0.8,1.4,1.7c-0.6,0.3-1.2,0.5-1.7,1
	c-0.9,0.3-1.6,0.8-2.2,1.4c-1.2,1.4-0.7,3.3,1,4c1.7,0.7,3.5,0.7,5.3,0.1c0.9,0,1.7-0.2,2.4-0.7c1.2-0.1,2.3-0.6,3.4-1.1
	c1.7-0.6,2.3-0.5,3.4,0.9c0.5,0.7,0.9,1.5,1.7,1.9c0.6,0.7,1.1,1.5,2.1,1.7c0.9,0.7,1.9,1.1,3.1,1c1.2-0.1,2.1-1.2,2.1-2.4
	c0-0.6,0-1.1-0.1-1.7c0.1-0.5-0.2-0.8-0.6-1.1c0-1.3-0.8-2.5-0.9-3.8c-0.1-0.7,0-1,0.7-1c1,0,2-0.2,3-0.7c0.5-0.1,1.2,0.2,1.4-0.6
	c0.3-0.1,0.7-0.1,1-0.2c0.8-0.2,1.3-0.8,1.4-1.6c0.1-0.9-0.6-1.2-1.2-1.4C104,167.9,102.8,167.6,101.6,167.6z M385.8,188.7
	c0-0.1-0.1-0.2-0.1-0.3c-0.3-0.7-1.8-0.5-1.4-1.5c0.3-0.6,1.3-0.8,2-1.2c0,0,0.1,0,0.2,0c0.9-0.2,1.5-0.7,2.2-1.3
	c1.3-1,1.2-2.4-0.2-3.2c-1-0.6-2.1-1-3.2-1c-1.4,0-2.9,0-4.3,0.1c-1,0-2.1,0-3.1,0c-1-0.5-2.2-1-3.1-1.5l0,0
	c-0.2-1.1-0.5-2.1-0.9-3.1c-0.5-1.3-1.8-2.1-3.2-1.9c-3,0.5-5.4,4-5.6,7.4c0,0.5,0,1,0,1.5c0,1.6-0.1,1.7-1.6,1.5
	c-1.3-0.1-2.6-0.4-3.9-0.2c-1.4-0.2-2.7-0.1-4.1,0.3c-0.7,0.2-1.3,0.4-1.5,1.2c-0.1,0.8,0.3,1.4,1,1.8c1.3,0.9,2.8,1.3,4.2,1.7
	c1.3,0.3,2.5,0.7,3.7,1.3c1.3,0.8,1.5,1.3,0.8,2.6c-0.4,0.7-0.7,1.4-0.7,2.2c-0.9,2.5,0,3.9,2.6,3.8c1.8-0.1,3.1-1.2,4.3-2.4
	c1.3-1,2.5-2.1,3.5-3.4c0.4,0,0.7-0.3,1.1-0.5c0.7-0.3,1.4-0.6,2.3-0.3c0.8,0.3,1.7,0.3,2.5,0.5c1.1,0.5,2.3,0.4,3.5,0.7
	c0.4,0.1,0.9,0.2,1.3,0.3c1,0.1,2,0.2,3-0.3c1.2-0.6,1.5-1.3,1.1-2.5C387.6,189.9,387.1,188.9,385.8,188.7z M49.5,142.4
	c-3.8,0.2-7.5,0.9-11.2,1.6c-3.1,0.6-6.1,1.6-8.9,3.1c-1.2,0.6-2,1.6-2.6,2.7c-0.4,0.6-0.4,1.3,0.2,1.9c0.5,0.5,1,1.1,1.8,1.3
	c1.2,0.3,2.3,0.6,3.5,0.6c4.8-0.1,9.5,0.2,14.3-0.3c2.8-0.3,5.7,0.4,8.6,0.3c2-0.1,4.1-0.2,6,0.1c2.9,0.4,5.8,0.2,8.7,0.5
	c2.2,0.3,4.5,0.4,6.7,0.5c1.6,0.1,3.3,0.1,4.9,0.4c1.5,0.3,3,0.4,4.5,0.5c1.4,0.1,2.7,0.3,4,0.5c3.5,0.4,7,1,10.5,1.6
	c4.3,0.7,8.7,1.5,13,2.2c3.1,0.5,6.2,1.1,9.3,1.6c2.8,0.5,5.5,1,8.3,1.3c1.8,0.2,3.5,0.6,5.3,0.8c2.1,0.1,4.1,0.7,6.1,0.9
	c2.2,0.2,4.4,0.6,6.6,0.9c2.1,0.3,4.2,0.6,6.3,0.9c2.5,0.3,5,0.7,7.5,0.8c1.9,0.1,3.8,0.3,5.7,0.5c3.3,0.2,6.6,0.6,9.9,0.6
	c4.4,0,8.8,0,13.2,0c1.4,0,2.8-0.3,3.9-1c0.3-0.2,0.5-0.4,0.5-0.8c0.1-0.8-0.5-1.3-1-1.7c-0.9-0.6-1.8-1-2.8-1.3
	c-4.9-1.8-10-2.3-15.1-3.4c-4.2-0.9-8.5-1.3-12.7-2.2c-7-1.5-14-3.3-21.1-4.9c-5.2-1.2-10.3-2.6-15.6-3.5
	c-6.6-1.2-13.1-2.7-19.7-3.7c-3.5-0.5-7-1-10.5-1.5c-2.4-0.3-4.8-0.6-7.2-0.8c-2.8-0.3-5.7-0.7-8.5-0.6c-9,0.1-18.1-0.5-27.1,0.3
	C53.1,142.9,51.3,142.3,49.5,142.4z M473.1,138.3c-1.8,0-3.3,0.2-4.7,0.3c-2.5,0.1-4.9,0.4-7.3,0.7c-3.8,0.5-7.5,1.1-11.2,1.9
	c-6.4,1.4-12.7,3-19.1,4.3c-3.3,0.7-6.6,1.2-10,1.8c-2.7,0.5-5.4,0.9-8.1,1.3c-2.5,0.4-5.1,0.8-7.6,1.1c-3,0.4-6,0.6-9,1.1
	c-3,0.5-6.1,0.8-9.2,1.2c-2.2,0.3-4.4,0.7-6.6,1c-2.2,0.3-4.4,0.7-6.6,1.2c-3,0.6-6,1.4-8.7,3.1c-1.5,0.9-1.5,2.6,0,3.4
	c2.6,1.3,5.5,1.7,8.4,1.6c2.7-0.2,5.4-0.1,8.1-0.4c2.2-0.3,4.4-0.4,6.7-0.5c1.4-0.1,2.7-0.1,4.1-0.3c2.7-0.3,5.4-0.7,8.2-1
	c2.6-0.3,5.1-0.5,7.7-0.7c2.8-0.3,5.6-0.8,8.3-0.9c2.5-0.2,5-0.5,7.5-0.8c2.7-0.3,5.5-0.5,8.2-0.9c1.9-0.3,3.9-0.4,5.8-0.8
	c5-0.9,9.9-1.7,14.8-2.7c6.9-1.4,13.7-2.9,20.2-5.6c2.5-1,4.9-2.4,6.8-4.3c1.9-1.8,1.4-3.6-1.1-4.3
	C476.8,138.4,474.8,138.2,473.1,138.3z M229.2,182.8c4.2,0,8.4-0.3,12.5-0.6c3.2-0.2,6.2-0.9,9.3-1.5c0.9-0.2,1.8-0.6,2.5-1
	c1.1-0.7,1.1-1.5,0.1-2.3c-0.5-0.4-1-0.6-1.5-0.8c-2.6-1-5.3-1.2-8-1.7c-3-0.5-6.1-0.5-9.1-0.6c-6.2-0.3-12.4,0-18.6-0.4
	c-0.4,0-0.9-0.1-1.3,0.2c-0.7,0.6-1.7,0.7-2.6,0.8c-1.6,0.3-3.2,0.5-4.7,1c-0.7,0.3-1.3,0.7-1.5,1.5c-0.2,0.9,0.5,1.4,1.1,1.8
	c1.1,0.7,2.3,1.2,3.6,1.5C217.1,182.2,223.1,183,229.2,182.8z"/>
<path class="st62" d="M557.9,100.4c2.7-7.4,4.8-15,7.7-22.3c1.3-3.2,2.3-6.5,2.7-9.9c0.1-0.5,0.2-0.9,0.3-1.3
	c0.2-0.9,0.6-1.5,1.5-1.6c0.9-0.2,1.7,0.2,2.3,1.1c0.8,1.3,1.4,2.8,1.9,4.2c2.1,5.8,2.2,11.7,0.9,17.7c-1,5-3.2,9.5-5.3,14.1
	c-2,4.4-3.8,8.9-4.9,13.6c-0.7,3.2-1.1,6.5-0.6,9.9c0.8-0.4,0.7-1.2,0.8-1.8c1-4,2.5-7.8,3.9-11.6c2.1-5.6,4.3-11.2,6.4-16.9
	c2.2-6.2,3.5-12.6,3.7-19.2c0.1-4.4-0.4-8.7-1.4-13c-1.4-6.1-3.7-11.8-5.8-17.6c-1.8-4.8-3.7-9.6-5-14.6c-1.2-4.6-1.6-9.3-0.1-13.9
	c0.8-2.6,2.2-5,3.6-7.4c0.7-1.1,1.4-2.2,2.1-3.4c0.2-0.4,0.5-0.8,0.9-1c0.6-0.5,1.3-0.5,1.9-0.1c0.7,0.4,0.5,1.1,0.3,1.7
	c-1.1,3.4-1.6,6.9-1.2,10.5c0.4,4.8,1.7,9.4,3.5,14c2.1,5.3,4.7,10.3,6.9,15.5c2.4,5.7,4.4,11.4,5.6,17.5c1,5.1,1.1,10.2,1.1,15.3
	c0,5-0.7,10-1.6,14.9c-0.8,4.1-2.2,8-3.6,11.8c-2.6,6.9-5.8,13.5-9,20.1c-1.4,3-2.4,6.1-3.4,9.2c-0.1,0.3-0.2,0.7,0,1.1
	c1-0.7,1.6-1.7,2.4-2.5c3.7-3.9,7.5-7.8,10.7-12.2c3.3-4.6,5.8-9.6,7.8-14.9c1.4-3.8,2.5-7.8,2.7-11.9c0.3-3.7,0.1-7.4-0.3-11
	c-0.7-6.1-2-12-2.9-18c-0.9-5.6-1.6-11.3-1.5-17c0.1-4.5,1-8.8,2.3-13c1.6-4.9,3.7-9.5,5.7-14.2c0.2-0.6,0.5-1.1,0.9-1.7
	c0.4-0.6,0.9-1,1.7-1c1.3,0,1.9,0.7,1.7,2c-0.3,1.4-0.7,2.8-1,4.2c-0.7,3.4-0.1,6.8,0.5,10.1c0.9,5.2,2.9,10.1,4.7,15.1
	c2.1,5.8,4,11.7,5.3,17.8c0.9,4.4,1.5,8.8,1.4,13.3c-0.1,5.5-1.6,10.7-3.9,15.6c-3.1,6.8-7.6,12.7-12.1,18.5
	c-4,5.1-8.4,9.9-13.1,14.4c-3.7,3.5-7.2,7.2-11.1,10.6c-0.1,0.1-0.1,0.2-0.1,0.4c1.1,0.6,2.5,0.5,3.6,1.1c0.5,0.7,0.5,1.2-0.2,1.8
	c-0.3,0.2-0.5,0.3-0.7,0.7c-0.6,1.1-1.1,1.2-2.2,0.8c-0.5-0.2-0.8-0.8-1.5-0.6c-0.1,0.6,0.3,0.8,0.5,1.1c0.7,1.3,0.2,2.1-1.2,2.2
	c-0.5,0-1,0.1-1.4-0.2c-1.1-0.7-2-0.5-3.1,0.3c-1.2,0.9-2,1.4-3.7-0.1c-0.3-0.3-0.6-0.5-1.1-0.3c-0.4,0.2-0.9,0.2-1.4,0.2
	c-1.1,0-1.4-0.3-1.3-1.3c0.1-0.8-0.3-0.9-0.8-1c-0.4-0.1-0.9-0.1-1.3-0.2c-0.6-0.2-1.2-0.5-1-1.3c0.1-0.5-0.2-0.6-0.5-0.6
	c-0.4-0.1-0.8-0.2-0.8-0.5c0-0.5,0.5-0.6,0.8-0.7c0.8-0.3,1.7-0.4,2.8-0.5c-0.4-0.5-0.6-0.9-1.1-1c-0.4-0.6-0.8-1.1-1.2-1.7
	c-4.7-5.9-6.7-12.5-5.8-20.1c0.3-2.8,0.9-5.5,1.4-8.3c0.2-0.7,0.4-1.4,0.6-2.1c0.7-1.7,1.3-3.4,1.5-5.2
	C557.2,102.6,557.6,101.6,557.9,100.4z M566.1,135.3c0.3-0.4,0.5-0.5,0.5-0.7c1.5-3.5,3.1-7,4.6-10.5c1.7-3.8,3.6-7.5,5.6-11.2
	c1.5-2.9,2.9-5.8,4.2-8.8c0.9-1.9,1.6-3.9,2.2-6c0.9-3.1,1.5-6.3,2.2-9.5c0.7-3.3,1.2-6.6,1.5-10c0.3-3,0-6-0.4-8.9
	c-0.5-3.9-1.5-7.8-2.8-11.5c-1.9-5.1-3.9-10.2-5.8-15.2c-1-2.5-1.9-5-2.7-7.6c-0.7-2-1-4-1.5-6c-0.6-2.7-1.3-5.5-1.2-8.3
	c0-2.6,0-5.3,0-7.9c0-0.3,0.1-0.8-0.4-0.8c-0.3,0-0.5,0.3-0.6,0.5c-0.1,0.3-0.3,0.5-0.3,0.8c-0.4,2.1-0.8,4.3-0.8,6.5
	c0.1,2.1,0.3,4.2,0.7,6.3c1,5.7,2.7,11.1,4.7,16.5c1.5,3.9,3.2,7.8,4.6,11.8c1.1,3.3,2.4,6.5,3.1,10c0.6,2.8,1.4,5.6,1.2,8.5
	c0,0.6,0,1.1,0.2,1.7c0.3,0.8,0.3,1.7,0,2.5c-0.2,0.6-0.2,1.2-0.2,1.9c0.1,1.5-0.2,3-0.5,4.4c-0.3,1.3-0.6,2.7-0.8,4
	c-0.6,3.2-1.3,6.5-2.3,9.6c-1.1,3.7-2.7,7.1-4.4,10.6c-1.9,3.9-4,7.7-5.7,11.7c-1.7,4-3.3,8.1-4.4,12.3
	C566.1,132.8,565.7,133.9,566.1,135.3z M581.7,132.2c0.8,0.2,1.1-0.3,1.4-0.6c1.6-1.7,3.3-3.4,4.9-5.1c3.5-3.8,6.7-7.9,9.7-12
	c2.4-3.3,4.7-6.6,6.4-10.4c1.5-3.4,2.6-7,2.9-10.7c0.5-5.8-0.2-11.5-1.6-17.2c-0.6-2.5-1.2-5-1.7-7.5c-0.8-3.8-1.9-7.6-2.3-11.6
	c-0.2-1.9-0.7-3.8-0.6-5.8c0.1-3.1-0.2-6.2,0.3-9.3c0.2-1.1,0.4-2.1,0.4-3.2c0.1-2.8,0.5-5.6,1.1-8.3c0.3-1.3,0.3-2.5,0.3-3.8
	c0-0.3,0.1-0.8-0.4-0.8c-0.4,0-0.6,0.4-0.7,0.7c-0.4,1-0.7,2.1-0.9,3.1c-0.6,3.4-1,6.8-1.5,10.1c-0.6,3.5-0.5,7-0.6,10.4
	c-0.1,4.6,0.7,9,1.7,13.4c0.5,2.4,1.1,4.8,1.7,7.1c0.7,2.8,1.2,5.6,1.7,8.4c0.4,2.6,1,5.3,1.1,8c0.1,3.8-0.4,7.5-1.3,11.2
	c-1.1,4.3-3.1,8.1-5.3,11.8c-1.9,3.1-4,6-6.2,8.9c-1.6,2-3.1,4.1-4.8,6.1C585.3,127.2,583.6,129.7,581.7,132.2z M563.1,135.8
	c0.4-0.5,0.4-0.9,0.2-1.3c-0.8-2.3-1.2-4.8-1.7-7.2c-0.5-2-0.9-4.1-1-6.2c-0.2-2.8,0.2-5.6,0.8-8.4c1.2-5.1,2.6-10.1,4.4-15
	c1-2.7,1.8-5.5,2.5-8.4c0.6-2.4,1-4.8,1.5-7.2c0.6-3.2,1.4-6.4,1.2-9.7c0-0.6,0.5-1.6-0.5-1.7c-0.7-0.1-0.7,1.1-0.9,1.7
	c-0.3,1.7-0.4,3.4-0.8,5.1c-0.9,3.9-1.5,7.9-2.7,11.7c-0.8,2.7-1.4,5.5-2.6,8.1c-0.9,1.9-1.6,3.9-2.2,5.9c-0.9,2.9-1.7,5.8-2.5,8.7
	c-0.5,2.1-1,4.2-1,6.4c0.1,4.1,0.9,8.1,2.2,11.9C560.7,132.3,561.4,134.2,563.1,135.8z"/>
<path class="st62" d="M517.6,140.7c-3.4-2.5-5.4-6.1-8.1-9.2c-1.2-1.7-2.8-3-4.3-4.5c-2.9-2.8-5.6-5.7-7.4-9.4
	c-1.3-2.6-2.2-5.4-3.1-8.2c-0.7-2.1-1.4-4.1-2.3-6.1c-1-2.3-2.6-4.1-4.6-5.5c-1.1-0.8-2.2-1.7-3.2-2.6c-0.6-0.5-1.1-1.2-0.7-2.1
	c0.3-0.8,1-1,1.8-1.1c1.9-0.2,3.8,0.1,5.6,0.5c7.8,2.1,13.5,6.8,17.8,13.5c3.3,5.3,5.8,11.1,7.5,17.1c1,3.4,1.5,6.8,2.3,10.2
	c0.1,1.4,0.6,2.6,1.3,3.8c0.3,0.5,0.7,0.6,1,0c0.6-1,1.2-2,1.9-3c2.1-3.4,2.8-7,2.3-10.9c-0.4-2.7-1.4-5.2-2.6-7.6
	c-2.6-5.5-5.5-10.9-8-16.5c-2.3-5.1-4.1-10.4-4.8-15.9c-0.3-2.8-0.3-5.6,0-8.4c0.5-5.1,1.9-10,3.4-14.9c1.5-4.8,3.2-9.6,4.2-14.5
	c1-4.9,1.3-9.9,0.5-14.9c-0.2-1.4-0.3-2.7-0.3-4.1c0-0.5,0.1-1,0.2-1.5c0.2-1.1,0.8-2,2-2.4c1.2-0.4,2.3,0,3.2,0.9
	c0.9,0.9,1.6,2,2.1,3.1c1.9,3.7,3.1,7.6,3.6,11.8c0.4,2.6,0.6,5.3,0.6,7.9c0,5.3-1.3,10.3-3.2,15.3c-1.3,3.4-2.9,6.7-3.9,10.3
	c-1.4,4.9-1.3,9.7,0.5,14.5c1.6,4.4,4,8.5,6.2,12.6c2.1,3.9,3.7,8,4.8,12.3c0.9,3.9,1.3,7.8,0.5,11.8c-0.1,0.7-0.4,1.5-0.3,2.2
	c0.5,0.1,0.5-0.3,0.7-0.6c2.6-4.6,5-9.4,6.7-14.5c1.4-4.4,1.9-8.8,1.3-13.4c-0.7-4.9-1.8-9.6-2.9-14.3c-1.2-4.7-2.2-9.5-3.1-14.3
	c-0.7-3.9-1.3-7.8-1.3-11.8c0-5.7,1.2-11.2,3.1-16.5c0.3-1,0.7-1.9,1.1-2.9c0.2-0.5,0.5-0.9,0.8-1.3c1.1-1.1,2.9-0.7,3.5,0.7
	c0.2,0.5,0.4,1.1,0.4,1.7c0.5,5.2,1.9,10.3,3.8,15.1c1.8,4.4,3.6,8.8,5.4,13.2c1.4,3.6,2.3,7.4,3,11.3c0.4,2.6,0.7,5.1,0.9,7.7
	c-0.2,0.2-0.1,0.3,0.1,0.5c0.2,2.3,0.3,4.5,0.3,6.8c0,0-0.1,0-0.1,0l0.1,0c0,2.6-0.3,5.3-0.6,7.9c-0.2,1.1-0.7,2.2-0.7,3.3
	c-0.9,1.5-1,3.3-1.7,4.8c0,0.8-0.6,1.3-0.7,2.1c-0.6,1.2-1.2,2.3-1.9,3.5c-3.3,5.8-7.5,11-12.1,15.8c-2.2,2.3-4.2,4.8-5.8,7.6
	c0.2,0.7,0.8,0.8,1.4,1c0.4,0.2,0.9,0.2,1.3,0.4c0.5,0.2,0.9,0.5,0.8,1.2c-0.1,0.5-0.6,0.6-1.1,0.6c-0.7,0-1.3-0.1-1.9,0.5
	c-1.1,1.1-1.9,1.2-3.3,0.2c-0.7-0.5-1.3-0.6-2.2-0.2c-0.8,0.4-1.8,1-2.6,0.6c-1-0.6-1.5-0.1-2.2,0.4c-0.9,0.7-1.9,0.8-2.8,0
	c-0.3-0.3-0.6-0.4-1.1-0.3c-1.1,0.3-1.9,0.1-2.4-1C518.1,140.8,517.8,140.8,517.6,140.7z M528.1,125.8c-0.2,1.3,0.3,3.1,0.4,4.8
	c0,0.2,0,0.5,0.3,0.5c0.3,0,0.4-0.1,0.5-0.3c0.1-0.2,0.1-0.4,0.2-0.7c0.7-2.6,0.9-5.3,0.4-8c-0.4-2.4-0.7-4.9-1.4-7.2
	c-1.3-4.7-3-9.3-5-13.8c-1.5-3.3-3.1-6.4-4.1-9.9c-0.8-2.6-1.6-5.3-1.6-8c0-4.3-0.3-8.7,0.6-13c0.6-3.3,1.4-6.6,2.5-9.8
	c0.8-2.6,1.6-5.3,2.4-7.9c0.7-2.5,1.4-5,1.6-7.7c0.1-1,0.1-2.1,0.4-3.1c0.4-1.7,0.3-3.4,0.2-5.1c-0.3-3.1-0.9-6.1-2.1-8.9
	c-0.3-0.8-0.4-1.7-1.1-2.3c-0.3-0.2-0.6-0.4-0.9-0.2c-0.3,0.2-0.3,0.5-0.3,0.8c0.2,0.8,0.3,1.6,0.6,2.3c2,5.1,2.4,10.5,1.7,15.8
	c-0.5,4.2-1.9,8.2-3.1,12.2c-0.5,1.7-1.1,3.4-1.5,5.1c-0.6,2.3-1.3,4.5-1.7,6.8c-0.5,2.8-1.2,5.6-1.2,8.5c0,1.9,0.1,3.8,0,5.7
	c-0.1,3.3,0.7,6.5,1.6,9.6c1.3,4.1,3.3,8,4.9,12c0.8,1.8,1.7,3.6,2.3,5.5c0.9,2.6,1.8,5.2,2.4,7.9
	C527.5,120,528.3,122.6,528.1,125.8z M535.8,126.8c0.4-0.1,0.6-0.1,0.7-0.2c2-2.6,4.1-5.3,6-7.9c1.6-2.2,3.1-4.4,4.5-6.7
	c2.8-4.3,4.3-9.1,4.3-14.3c0-1.4,0-2.8,0-4.1c0.1-3.8-0.8-7.4-1.7-11c-0.8-3.7-2.3-7.1-3.7-10.6c-1.3-3.2-2.6-6.5-3.4-9.9
	c-0.3-1.3-0.9-2.7-0.9-4c0-4.1-0.4-8.2,0.3-12.2c0.1-0.5,0-1,0-1.6c0-0.4-0.2-0.7-0.5-0.8c-0.5-0.1-0.8,0.2-1,0.6
	c-0.2,0.5-0.4,1.1-0.6,1.6c-0.6,2.5-0.4,5.1-0.7,7.7c-0.2,2.7,0.4,5.4,0.9,8.2c0.8,4.3,2.4,8.3,3.9,12.4c0.8,2.3,1.7,4.5,2.4,6.8
	c1.1,3.6,1.8,7.2,2.2,10.9c0.2,2.4,0.7,4.8,0.4,7.3c-0.5,3.7-1.3,7.2-3,10.5c-1.5,3-3.4,5.9-5.3,8.6c-1.1,1.6-2,3.2-2.9,4.8
	C537.1,124,536.2,125.2,535.8,126.8z M517,135.2c0.1-0.8-0.1-1.3-0.3-1.8c-1-2.8-2.8-5.1-4.8-7.2c-3-3-4.8-6.6-5.6-10.8
	c-0.4-1.9-0.8-3.8-1.6-5.6c-1.3-3-3-5.8-5.1-8.3c-2.6-3.2-5.8-5.4-9.4-7c-0.4-0.2-0.8-0.4-1.3-0.3c-0.3,0.1-0.6,0.2-0.7,0.5
	c-0.2,0.3,0.1,0.5,0.3,0.7c0.9,0.6,1.7,1.2,2.6,1.7c1.9,1,3.6,2.3,5.1,3.8c2,2.1,3.5,4.5,4.9,7c1.8,3.2,2.3,6.8,3.1,10.3
	c0.7,3.3,2.2,6.1,4.5,8.5c2,2.1,3.8,4.3,5.2,6.8c0.4,0.7,1,1.4,1.5,2.1c0.3,0.3,0.6,0.8,1.1,0.6C517.3,135.9,517,135.4,517,135.2z"
	/>
<path class="st63" d="M517.6,140.7c0.2,0.1,0.5,0.2,0.6,0.3c0.5,1.1,1.3,1.3,2.4,1c0.4-0.1,0.8,0,1.1,0.3c0.9,0.8,1.9,0.7,2.8,0
	c0.7-0.5,1.2-1,2.2-0.4c0.7,0.4,1.8-0.1,2.6-0.6c0.8-0.5,1.4-0.4,2.2,0.2c1.4,1,2.2,0.9,3.3-0.2c0.6-0.6,1.2-0.5,1.9-0.5
	c0.5,0,1-0.1,1.1-0.6c0.2-0.6-0.3-1-0.8-1.2c-0.4-0.2-0.9-0.2-1.3-0.4c-0.5-0.2-1.2-0.2-1.4-1c4.9,1.3,9.7,2.7,14.6,3.7
	c2.7,0.6,5.2,1,7.9,0.2c1.1-0.3,2.3-0.3,3.4-0.5c0.4,0.1,0.6,0.5,1.1,1c-1.1,0.1-2,0.2-2.8,0.5c-0.4,0.2-0.9,0.2-0.8,0.7
	c0,0.4,0.4,0.5,0.8,0.5c0.3,0.1,0.7,0.1,0.5,0.6c-0.2,0.8,0.4,1.1,1,1.3c0.4,0.1,0.9,0.1,1.3,0.2c0.5,0.1,0.9,0.3,0.8,1
	c-0.2,1.1,0.2,1.3,1.3,1.3c0.5,0,0.9,0,1.4-0.2c0.4-0.2,0.7,0,1.1,0.3c1.6,1.5,2.4,1,3.7,0.1c1.1-0.8,2-1,3.1-0.3
	c0.4,0.2,0.9,0.2,1.4,0.2c1.5-0.1,1.9-0.9,1.2-2.2c-0.2-0.3-0.6-0.6-0.5-1.1c0.7-0.2,1,0.5,1.5,0.6c1.1,0.4,1.6,0.3,2.2-0.8
	c0.2-0.3,0.5-0.5,0.7-0.7c0.7-0.5,0.7-1.1,0.2-1.8c2.3,0.3,4.5,1.2,6.7,1.8c1.2,0.3,2.4,0.8,3.6,1c2,0.6,4,1.1,5.9,1.7
	c1.9,0.6,3.8,1.2,5.5,2.5c2.1,1.6,1.1,3.6-0.7,4.2c-1.3,0.4-2.5,0.8-3.9,0.9c-5.8,0.5-11.6,0.6-17.4,0.1c-0.3,0-0.6,0-0.9,0
	c-5.2,0.1-10.3-0.2-15.5-0.5c-5.2-0.2-10.4-0.6-15.6-1c-2.1-0.2-4.2-0.6-6.1-1.7c-0.5-0.4-1.1-0.3-1.7-0.3c-3.3,0.1-6.7-0.3-10-0.5
	c-3-0.2-5.9-0.6-8.9-0.9c-2.6-0.3-5.1-0.6-7.6-1.4c-2.2-0.7-2.4-2.3-1.2-3.6c0.1-0.1,0.2-0.3,0.3-0.4
	C513.8,143,515.6,141.7,517.6,140.7z"/>
<path class="st60" d="M523,134.2c-0.6,1-1.2,2-1.9,3c-0.3,0.6-0.7,0.5-1,0c-0.7-1.2-1.2-2.4-1.3-3.8
	C520.3,133.7,521.6,133.9,523,134.2z"/>
<path class="st60" d="M557.6,85.7c-0.2-0.1-0.2-0.3-0.1-0.5C557.7,85.3,557.8,85.5,557.6,85.7z"/>
<polygon class="st60" points="557.8,92.5 557.8,92.5 557.8,92.5 "/>
<path class="st64" d="M49.5,142.4c1.8-0.1,3.6,0.5,5.5,0.4c9-0.8,18.1-0.2,27.1-0.3c2.6,0,5.2,0.3,7.9,0.6c2.4,0.2,4.8,0.5,7.2,0.8
	c3.7,0.5,7.5,1,11.2,1.6c6.6,1,13.1,2.5,19.7,3.7c5.2,1,10.4,2.3,15.6,3.5c7,1.6,14,3.4,21.1,4.9c4.2,0.9,8.5,1.4,12.7,2.2
	c5,1,10.2,1.6,15.1,3.4c1,0.4,1.9,0.8,2.8,1.3c0.6,0.4,1.1,0.8,1,1.7c-0.1,0.8-0.8,1-1.4,1.2c-1.6,0.5-3.2,0.7-4.9,0.7
	c-3.8,0-7.6,0-11.4,0c-3.3,0-6.6-0.4-9.9-0.6c-1.9-0.1-3.8-0.3-5.7-0.5c-2.5-0.2-5-0.5-7.5-0.8c-2.1-0.3-4.2-0.6-6.3-0.9
	c-2.2-0.3-4.4-0.7-6.6-0.9c-2-0.2-4-0.7-6.1-0.9c-1.8-0.1-3.5-0.6-5.3-0.8c-2.8-0.3-5.5-0.8-8.3-1.3c-3.1-0.5-6.2-1-9.3-1.6
	c-4.3-0.7-8.7-1.5-13-2.2c-3.5-0.6-7-1.2-10.5-1.6c-1.5-0.2-2.9-0.4-4.4-0.5c-1.6-0.1-3.2-0.3-4.8-0.6c-1.4-0.2-2.9-0.2-4.3-0.3
	c-2.2-0.1-4.5-0.3-6.7-0.5c-2.9-0.3-5.8-0.1-8.7-0.5c-2-0.3-4-0.2-6-0.1c-2.9,0.1-5.8-0.6-8.6-0.3c-4.8,0.5-9.5,0.1-14.3,0.3
	c-1.2,0-2.4-0.3-3.5-0.6c-0.8-0.2-1.3-0.7-1.8-1.3c-0.5-0.6-0.6-1.3-0.2-1.9c0.7-1.1,1.4-2,2.6-2.7c2.8-1.5,5.8-2.5,8.9-3.1
	C42,143.3,45.7,142.7,49.5,142.4z"/>
<path class="st64" d="M473.1,138.3c1.7-0.1,3.6,0.1,5.5,0.6c2.5,0.7,2.9,2.5,1.1,4.3c-2,1.9-4.3,3.2-6.8,4.3
	c-6.5,2.6-13.3,4.2-20.2,5.6c-4.9,1-9.9,1.9-14.8,2.7c-1.9,0.3-3.9,0.5-5.8,0.8c-2.7,0.4-5.5,0.6-8.2,0.9c-2.5,0.3-5,0.7-7.5,0.8
	c-2.8,0.2-5.6,0.6-8.3,0.9c-2.6,0.3-5.1,0.5-7.7,0.7c-2.7,0.3-5.4,0.7-8.2,1c-1.4,0.2-2.8,0.2-4.1,0.3c-2.2,0.1-4.5,0.3-6.7,0.5
	c-2.7,0.3-5.4,0.3-8.1,0.4c-2.8,0.2-5.7-0.2-8.4-1.6c-1.5-0.8-1.5-2.5,0-3.4c2.7-1.7,5.7-2.5,8.7-3.1c2.2-0.4,4.4-0.9,6.6-1.2
	c2.2-0.2,4.4-0.7,6.6-1c3.1-0.4,6.1-0.7,9.2-1.2c3-0.5,6-0.7,9-1.1c2.6-0.3,5.1-0.7,7.6-1.1c2.7-0.4,5.4-0.9,8.1-1.3
	c3.3-0.6,6.7-1.1,10-1.8c6.4-1.3,12.7-2.9,19.1-4.3c3.7-0.8,7.4-1.5,11.2-1.9c2.4-0.3,4.9-0.6,7.3-0.7
	C469.9,138.5,471.4,138.3,473.1,138.3z"/>
<path class="st64" d="M512,144.2c-0.1,0.1-0.2,0.3-0.3,0.4c-1.3,1.3-1,3,1.2,3.6c2.5,0.8,5,1.1,7.6,1.4c3,0.3,5.9,0.8,8.9,0.9
	c3.3,0.2,6.6,0.6,10,0.5c0.6,0,1.2-0.2,1.7,0.3c-0.8,0-1.3,0.1-1.5,1.2c-0.2,1.2-1.2,2-2.4,2.3c-1.7,0.4-3.3,0.9-5.1,0.8
	c-2.2-0.1-4.5,0.1-6.7-0.1c-2.1-0.2-4.3-0.5-6.4-0.2c-3.3,0.4-6.5,0.1-9.8,0.5c-1.8,0.2-3.6,0.3-5.5,0.5c-2.1,0.1-4.2,0.4-6.3,0.7
	c-4,0.5-7.9,1.3-11.8,2.2c-3.6,0.9-7.1,1.9-10.7,2.7c-3,0.7-6,1.1-9,0.9c-0.9,0-1.8-0.3-2.7-0.6c-0.9-0.4-1-1-0.3-1.7
	c1.1-1.1,2.5-1.6,3.9-2.1c4.1-1.4,8.3-2.8,12.3-4.5c1.8-0.8,3.5-1.7,5.3-2.5c5-2.4,10.1-4.7,15.6-5.9c2-0.4,4-0.7,6.1-1
	C508.1,144.2,510,144.1,512,144.2z"/>
<path class="st64" d="M229.2,182.8c-6.1,0.1-12.1-0.7-18-2.1c-1.3-0.3-2.5-0.8-3.6-1.5c-0.6-0.4-1.3-0.9-1.1-1.8
	c0.1-0.8,0.7-1.3,1.5-1.5c1.5-0.5,3.1-0.8,4.7-1c0.9-0.1,1.8-0.2,2.6-0.8c0.4-0.3,0.9-0.3,1.3-0.2c6.2,0.5,12.4,0.1,18.6,0.4
	c3,0.1,6.1,0.1,9.1,0.6c2.7,0.5,5.5,0.7,8,1.7c0.5,0.2,1.1,0.4,1.5,0.8c1,0.8,1,1.6-0.1,2.3c-0.8,0.5-1.6,0.9-2.5,1
	c-3.1,0.6-6.1,1.3-9.3,1.5C237.5,182.5,233.3,182.9,229.2,182.8z"/>
<path class="st65" d="M379.1,192.8c-0.8-0.1-1.7-0.2-2.5-0.5c-0.9-0.3-1.6,0-2.3,0.3c-0.4,0.2-0.6,0.5-1.1,0.5
	c-1.4,0-2.8-0.5-4.3-0.4c-0.4,0-0.6-0.2-0.9-0.4c-0.7-0.6-1.5-1.2-2.2-1.9c-1.3-1.2-1.6-3.2-1-4.8c0.6-1.6,1.5-2.7,3.2-3
	c0.2,0,0.4-0.2,0.6-0.3c1.6-1.1,3.2-1.7,5.2-1.7c0.6,0,1.4,0,1.9-0.6c0.9,0,1.8,0.1,2.7,0.1c-0.1,0.7,0.4,1.1,1,1.4
	c1,0.6,2,1.2,2.9,1.9c1,0.8,1.5,2.6,0.7,3.5c-1.1,1.3-1.8,2.8-2.8,4.1C379.8,191.7,379.1,192,379.1,192.8z"/>
<path class="st66" d="M79.8,172.5c0.1-1-1.2-1-1.4-1.7c0.5-0.4,0.6-1.1,0.8-1.6c0.3-1.2,1.1-2,2.1-2.6c0.3-0.2,0.6-0.4,0.8-0.6
	c0.1,0,0.2,0,0.3,0c1.3,0.5,2.5,0.3,3.5-0.8c0.8,0.1,1.4,0.5,2,0.9c0.2,0.1,0.4,0.3,0.2,0.6c-0.1,0.1-0.3,0.2-0.4,0.2
	c-0.2,0-0.3,0-0.5,0c-1.5-0.1-2.5,0.4-2.7,2c0,0.3-0.3,0.5-0.4,0.7c-0.8,0.9-0.7,1.6,0,2.5c0.8,1,1.8,1.7,2.7,2.6
	c0.3,0.4,0.8,0.4,1.3,0.4c0.6,0,1.2-0.3,1.7-0.2c2.4,0.3,3.6-1.4,5-2.8c0.1-0.1,0.2-0.3,0.2-0.5c-0.3-0.9-0.2-2.1-1.2-2.7
	c-0.7-0.4-1.4-1-1.7-1.8c1.3-0.7,2.5-0.7,3.8-0.7c0.8,0,1.6,0.5,2.4,0.4c0.6,0.8,1.2,1.8,2,1.9c2,0.3,2.3,1.7,2.5,3.3
	c-0.9,0.5-1.9,0.6-3,0.7c-0.7,0-0.8,0.3-0.7,1c0.2,1.3,1,2.5,0.9,3.8c-0.7,0-1.1,0.5-1.5,1c-1.1,1.3-2.4,1.8-4,1.3
	c-0.4-0.1-0.8,0-1.1,0.2c-0.8-0.4-1.2-1.2-1.7-1.9c-1.1-1.4-1.8-1.5-3.4-0.9c-1.1,0.4-2.2,0.9-3.4,1.1c-0.1-0.7-0.4-1.1-1.1-1
	c-0.9,0-1.6-0.5-2-1.1C80.8,175,80,173.9,79.8,172.5z"/>
<path class="st67" d="M375.7,180c-0.5,0.6-1.3,0.6-1.9,0.6c-2,0-3.6,0.6-5.2,1.7c-0.2,0.1-0.4,0.3-0.6,0.3c-1.7,0.4-2.6,1.4-3.2,3
	c-0.6,1.6-0.3,3.6,1,4.8c0.7,0.7,1.5,1.3,2.2,1.9c0.3,0.2,0.5,0.5,0.9,0.4c1.4-0.2,2.8,0.4,4.3,0.4c-1,1.3-2.2,2.4-3.5,3.4
	c-0.5,0-0.9,0-1.3-0.1c-1.8-0.5-3.8-0.6-5.6-1.2c0-0.8,0.4-1.5,0.7-2.2c0.7-1.3,0.5-1.9-0.8-2.6c-1.1-0.7-2.4-1.1-3.7-1.3
	c-0.2-1.6-0.5-3.2,0.3-4.7c0-0.1,0-0.2,0-0.3c1.3-0.2,2.6,0.1,3.9,0.2c1.6,0.1,1.6,0,1.6-1.5c0-0.5,0-1,0-1.5
	c0.8,0.1,1.5-0.3,2.1-0.7c2.2-1.5,4.7-2,7.3-1.7c0.1,0,0.2,0,0.3,0C375,179.1,375.4,179.6,375.7,180z"/>
<path class="st68" d="M95.7,166.6c-1.2,0-2.5,0-3.8,0.7c0.4,0.8,1,1.3,1.7,1.8c1,0.6,0.9,1.8,1.2,2.7c0,0.1-0.1,0.3-0.2,0.5
	c-1.4,1.4-2.5,3.2-5,2.8c-0.5-0.1-1.1,0.2-1.7,0.2c-0.5,0-0.9-0.1-1.3-0.4c-0.8-0.9-1.9-1.6-2.7-2.6c-0.7-1-0.8-1.6,0-2.5
	c0.2-0.2,0.4-0.4,0.4-0.7c0.2-1.6,1.2-2.1,2.7-2c0.2,0,0.4,0,0.5,0c0.2,0,0.3-0.1,0.4-0.2c0.2-0.2,0-0.5-0.2-0.6
	c-0.6-0.4-1.3-0.8-2-0.9c0.2-0.4,0.6-0.8,1-1c2.6,0.9,5.3,0.9,8,1C95.4,165.6,95.3,166.2,95.7,166.6z M89.3,173.9c0.1,0,0.1,0,0.2,0
	c1.6,0,2.9-0.8,3.1-1.9c0.2-1.1-0.7-2.3-1.9-3.1c-1.4-0.9-2.7-0.2-3.9,0.1c-1,0.2-1.6,1.5-1.3,2.1C86.4,172.9,87.2,174.1,89.3,173.9
	z"/>
<path class="st69" d="M374.7,178.7c-0.1,0-0.2,0-0.3,0c-2.6-0.3-5.1,0.2-7.3,1.7c-0.6,0.4-1.3,0.8-2.1,0.7c0.1-3.3,2.4-6.6,5.2-7.3
	c1.5-0.4,2.8,0.1,3.4,1.5C374,176.4,374.4,177.5,374.7,178.7z"/>
<path class="st67" d="M379.1,192.8c0-0.8,0.7-1.2,1.1-1.7c1-1.4,1.7-2.9,2.8-4.1c0.8-0.9,0.4-2.8-0.7-3.5c-0.9-0.7-1.9-1.3-2.9-1.9
	c-0.6-0.3-1-0.7-1-1.4c0.8,0,1.6,0,2.4,0c0.1,1,0.7,1.5,1.7,1.7c2,0.5,3.2,1.9,3.9,3.8c-0.1,0-0.1,0-0.2,0c-0.7,0.4-1.7,0.6-2,1.2
	c-0.5,1,1.1,0.8,1.4,1.5c0,0.1,0.1,0.2,0.1,0.3c-0.1,1-0.9,1.4-1.5,2c-0.9,0.8-1.5,1.7-1.7,2.9C381.5,193.2,380.2,193.4,379.1,192.8
	z"/>
<path class="st69" d="M386.4,185.6c-0.7-1.8-1.9-3.2-3.9-3.8c-0.9-0.2-1.5-0.7-1.7-1.7c1.4,0,2.9,0,4.3-0.1c1.2,0,2.3,0.4,3.2,1
	c1.4,0.8,1.5,2.2,0.2,3.2C387.9,184.8,387.3,185.4,386.4,185.6z"/>
<path class="st70" d="M82.2,179c-1.8,0.6-3.7,0.6-5.5-0.2c-2-0.9-2.3-2.4-0.8-4.1c0.6-0.6,1.3-1.1,2.1-1.4c0.6,1,1.7,2.1,1.7,3.1
	c0.1,1.8,1.8,1.3,2.4,2.3C82.2,178.9,82.2,179,82.2,179z"/>
<path class="st69" d="M359.5,183.9c0,0.1,0,0.2,0,0.3c-0.8,1.5-0.5,3.1-0.3,4.7c-1.5-0.5-2.9-0.8-4.2-1.7c-0.7-0.5-1.1-1-1-1.8
	c0.1-0.8,0.8-1,1.5-1.2C356.7,183.9,358.1,183.8,359.5,183.9z"/>
<path class="st69" d="M382.6,193.5c0.2-1.2,0.8-2.1,1.7-2.9c0.6-0.6,1.4-1,1.5-2c1.3,0.2,1.9,1.3,2.3,2.3c0.5,1.2,0.1,1.9-1.1,2.5
	c-1,0.5-2,0.5-3,0.3C383.5,193.7,383,193.6,382.6,193.5z"/>
<path class="st69" d="M362.9,195.3c1.8,0.7,3.7,0.8,5.6,1.2c0.5,0.1,0.9,0.1,1.3,0.1c-1.2,1.2-2.4,2.4-4.3,2.4
	C362.9,199.1,362,197.8,362.9,195.3z"/>
<path class="st68" d="M82.2,179c0-0.1-0.1-0.1-0.1-0.2c-0.5-1-2.3-0.6-2.4-2.3c-0.1-1.1-1.1-2.1-1.7-3.1c0.5-0.5,1.1-0.7,1.7-1
	c0.2,1.4,1.1,2.5,1.7,3.7c0.4,0.7,1.1,1.2,2,1.1c0.7,0,1.1,0.4,1.1,1C83.9,178.9,83.1,179.1,82.2,179z"/>
<path class="st70" d="M88.3,163.1c1.2-1.7,2.9-2.3,4.9-2c1.4,0.2,1.5,1.3,1.8,2.4c-0.8,0-1.6,0.4-2.5,0c-0.3-0.1-0.8,0-1.2,0.1
	C90.2,164.1,89.2,163.8,88.3,163.1z"/>
<path class="st70" d="M100.5,178.7c0,0.5,0.1,1,0.1,1.5c0,1.8-0.8,2.6-2.6,2.6c-1,0-1.9-0.4-2.6-1c1.2-0.5,2.3-1.2,3.3-2.1
	C99.1,179.2,99.7,178.8,100.5,178.7z"/>
<path class="st71" d="M82.1,166c-0.3,0.2-0.6,0.4-0.8,0.6c-1,0.6-1.8,1.4-2.1,2.6c-0.2,0.6-0.3,1.2-0.8,1.6
	c-0.6-0.5-1.4-0.9-1.8-1.7c0.5-1.6,1.4-2.7,3.1-3.1c0.1,0,0.3-0.2,0.4-0.3C80.8,165.7,81.5,165.9,82.1,166z"/>
<path class="st70" d="M80.1,165.6c-0.1,0.1-0.2,0.3-0.4,0.3c-1.7,0.4-2.6,1.6-3.1,3.1c-0.8-0.4-1.3-1-1.7-1.7
	c-0.6-1-0.3-1.7,0.8-2.2c0.9-0.4,1.8-0.5,2.7,0C79,165.5,79.5,165.5,80.1,165.6z"/>
<path class="st71" d="M88.3,163.1c0.9,0.7,1.9,1,3,0.5c0.4-0.1,0.8-0.2,1.2-0.1c0.9,0.4,1.7,0,2.5,0c0,0.6,0,1.1,0,1.7
	c-2.7-0.2-5.4-0.1-8-1C87.3,163.7,87.7,163.2,88.3,163.1z"/>
<path class="st68" d="M102.6,172.2c-0.2-1.6-0.5-2.9-2.5-3.3c-0.9-0.2-1.5-1.1-2-1.9c1.2,0.1,2.3,0.2,3.5,0.6c0,0.6,0.3,1.1,0.7,1.2
	c1.5,0.4,1.7,1.5,1.7,2.8C103.8,172.4,103.1,172.1,102.6,172.2z"/>
<path class="st71" d="M104,171.6c0-1.3-0.2-2.3-1.7-2.8c-0.5-0.1-0.8-0.7-0.7-1.2c1.3,0.1,2.5,0.3,3.6,0.8c0.6,0.3,1.3,0.6,1.2,1.4
	c-0.1,0.8-0.6,1.3-1.4,1.6C104.7,171.5,104.3,171.5,104,171.6z"/>
<path class="st68" d="M100.5,178.7c-0.8,0.1-1.4,0.5-1.9,1.1c-0.9,0.9-2,1.6-3.3,2.1c-1-0.2-1.5-1-2.1-1.7c0.4-0.2,0.7-0.3,1.1-0.2
	c1.6,0.5,2.9,0,4-1.3c0.4-0.5,0.8-1,1.5-1C100.3,177.9,100.5,178.2,100.5,178.7z"/>
<path class="st72" d="M566.1,135.3c-0.3-1.4,0-2.4,0.3-3.4c1.1-4.2,2.7-8.3,4.4-12.3c1.7-4,3.9-7.8,5.7-11.7
	c1.7-3.4,3.3-6.9,4.4-10.6c0.9-3.2,1.6-6.4,2.3-9.6c0.3-1.3,0.6-2.7,0.8-4c0.3-1.5,0.6-2.9,0.5-4.4c0-0.6,0-1.3,0.2-1.9
	c0.3-0.8,0.3-1.7,0-2.5c-0.2-0.6-0.2-1.1-0.2-1.7c0.2-2.9-0.6-5.7-1.2-8.5c-0.7-3.4-2-6.7-3.1-10c-1.3-4-3.1-7.8-4.6-11.8
	c-2-5.4-3.8-10.8-4.7-16.5c-0.4-2.1-0.6-4.2-0.7-6.3c-0.1-2.2,0.3-4.3,0.8-6.5c0.1-0.3,0.2-0.5,0.3-0.8c0.1-0.3,0.3-0.6,0.6-0.5
	c0.5,0,0.4,0.5,0.4,0.8c0,2.6,0,5.3,0,7.9c0,2.8,0.6,5.6,1.2,8.3c0.5,2,0.8,4,1.5,6c0.8,2.6,1.7,5.1,2.7,7.6
	c1.9,5.1,4,10.1,5.8,15.2c1.4,3.7,2.3,7.6,2.8,11.5c0.4,2.9,0.7,5.9,0.4,8.9c-0.3,3.3-0.8,6.7-1.5,10c-0.7,3.2-1.3,6.4-2.2,9.5
	c-0.6,2-1.3,4-2.2,6c-1.3,3-2.7,5.9-4.2,8.8c-2,3.7-3.9,7.4-5.6,11.2c-1.5,3.5-3.1,7-4.6,10.5C566.5,134.8,566.4,134.9,566.1,135.3z
	"/>
<path class="st72" d="M581.7,132.2c1.9-2.5,3.6-4.9,5.6-7.1c1.7-1.9,3.2-4,4.8-6.1c2.2-2.9,4.3-5.8,6.2-8.9
	c2.3-3.7,4.3-7.5,5.3-11.8c0.9-3.7,1.4-7.4,1.3-11.2c-0.1-2.7-0.7-5.3-1.1-8c-0.5-2.8-1-5.6-1.7-8.4c-0.6-2.4-1.2-4.8-1.7-7.1
	c-1-4.4-1.8-8.8-1.7-13.4c0.1-3.5,0.1-7,0.6-10.4c0.5-3.4,0.9-6.8,1.5-10.1c0.2-1,0.5-2.1,0.9-3.1c0.1-0.3,0.3-0.7,0.7-0.7
	c0.5,0,0.4,0.5,0.4,0.8c0,1.3,0,2.5-0.3,3.8c-0.6,2.7-1,5.5-1.1,8.3c0,1.1-0.3,2.2-0.4,3.2c-0.5,3.1-0.2,6.2-0.3,9.3
	c-0.1,2,0.4,3.9,0.6,5.8c0.3,4,1.4,7.8,2.3,11.6c0.5,2.5,1.1,5,1.7,7.5c1.4,5.7,2.1,11.4,1.6,17.2c-0.3,3.7-1.4,7.3-2.9,10.7
	c-1.7,3.8-4,7.1-6.4,10.4c-3.1,4.1-6.2,8.2-9.7,12c-1.6,1.7-3.2,3.4-4.9,5.1C582.8,131.9,582.5,132.4,581.7,132.2z"/>
<path class="st72" d="M563.1,135.8c-1.7-1.6-2.4-3.5-3-5.4c-1.3-3.8-2.1-7.8-2.2-11.9c0-2.2,0.5-4.3,1-6.4c0.7-2.9,1.6-5.8,2.5-8.7
	c0.6-2,1.3-4,2.2-5.9c1.2-2.6,1.8-5.4,2.6-8.1c1.1-3.8,1.7-7.8,2.7-11.7c0.4-1.7,0.5-3.4,0.8-5.1c0.1-0.6,0.1-1.7,0.9-1.7
	c0.9,0.1,0.4,1.1,0.5,1.7c0.2,3.3-0.5,6.5-1.2,9.7c-0.5,2.4-0.9,4.8-1.5,7.2c-0.7,2.8-1.5,5.7-2.5,8.4c-1.8,4.9-3.2,9.9-4.4,15
	c-0.6,2.7-1,5.5-0.8,8.4c0.1,2.1,0.5,4.2,1,6.2c0.6,2.4,0.9,4.8,1.7,7.2C563.5,134.9,563.5,135.3,563.1,135.8z"/>
<path class="st61" d="M554.8,108.6c0.2,0.1,0.3,0.2,0.5,0.4c-0.2,0.7-0.4,1.4-0.6,2.1c-0.2-0.1-0.4-0.2-0.5-0.4
	C554.2,109.9,554.8,109.3,554.8,108.6z"/>
<path class="st72" d="M528.1,125.8c0.2-3.2-0.6-5.9-1.1-8.6c-0.6-2.7-1.5-5.3-2.4-7.9c-0.6-1.9-1.6-3.6-2.3-5.5
	c-1.7-4-3.6-7.9-4.9-12c-1-3.1-1.8-6.3-1.6-9.6c0.1-1.9,0-3.8,0-5.7c0-2.9,0.6-5.7,1.2-8.5c0.4-2.3,1.1-4.5,1.7-6.8
	c0.4-1.7,1-3.4,1.5-5.1c1.3-4,2.6-8.1,3.1-12.2c0.6-5.4,0.2-10.7-1.7-15.8c-0.3-0.7-0.4-1.5-0.6-2.3c-0.1-0.3,0-0.6,0.3-0.8
	c0.4-0.2,0.7,0,0.9,0.2c0.7,0.6,0.8,1.5,1.1,2.3c1.2,2.9,1.8,5.9,2.1,8.9c0.2,1.7,0.3,3.4-0.2,5.1c-0.3,1-0.3,2.1-0.4,3.1
	c-0.2,2.7-0.9,5.2-1.6,7.7c-0.7,2.6-1.5,5.3-2.4,7.9c-1,3.2-1.8,6.5-2.5,9.8c-0.8,4.3-0.6,8.7-0.6,13c0,2.7,0.9,5.4,1.6,8
	c1,3.5,2.6,6.7,4.1,9.9c2,4.5,3.7,9.1,5,13.8c0.6,2.4,0.9,4.8,1.4,7.2c0.5,2.7,0.3,5.3-0.4,8c-0.1,0.2-0.1,0.5-0.2,0.7
	c-0.1,0.2-0.3,0.4-0.5,0.3c-0.3,0-0.3-0.3-0.3-0.5C528.4,128.9,527.9,127.2,528.1,125.8z"/>
<path class="st72" d="M535.8,126.8c0.4-1.7,1.2-2.8,1.9-4.1c0.9-1.6,1.9-3.3,2.9-4.8c1.9-2.8,3.8-5.6,5.3-8.6
	c1.7-3.3,2.5-6.8,3-10.5c0.3-2.5-0.1-4.9-0.4-7.3c-0.3-3.7-1-7.4-2.2-10.9c-0.7-2.3-1.6-4.5-2.4-6.8c-1.5-4.1-3.1-8.1-3.9-12.4
	c-0.5-2.7-1.1-5.4-0.9-8.2c0.2-2.6,0.1-5.2,0.7-7.7c0.1-0.6,0.3-1.1,0.6-1.6c0.2-0.3,0.5-0.7,1-0.6c0.4,0.1,0.5,0.5,0.5,0.8
	c0,0.5,0.1,1,0,1.6c-0.7,4.1-0.2,8.1-0.3,12.2c0,1.3,0.6,2.7,0.9,4c0.8,3.4,2.1,6.6,3.4,9.9c1.4,3.5,2.9,7,3.7,10.6
	c0.8,3.6,1.8,7.2,1.7,11c-0.1,1.4,0,2.8,0,4.1c0,5.2-1.5,9.9-4.3,14.3c-1.5,2.3-3,4.5-4.5,6.7c-1.9,2.7-4,5.3-6,7.9
	C536.4,126.7,536.2,126.7,535.8,126.8z"/>
<path class="st72" d="M517,135.2c0,0.2,0.2,0.7-0.4,0.9c-0.5,0.1-0.9-0.3-1.1-0.6c-0.5-0.7-1.1-1.3-1.5-2.1
	c-1.4-2.5-3.2-4.7-5.2-6.8c-2.3-2.4-3.8-5.2-4.5-8.5c-0.8-3.5-1.2-7.1-3.1-10.3c-1.4-2.5-3-4.9-4.9-7c-1.4-1.5-3.2-2.8-5.1-3.8
	c-0.9-0.5-1.7-1.1-2.6-1.7c-0.3-0.2-0.5-0.4-0.3-0.7c0.1-0.2,0.4-0.4,0.7-0.5c0.5-0.1,0.9,0.1,1.3,0.3c3.6,1.7,6.9,3.9,9.4,7
	c2.1,2.6,3.7,5.4,5.1,8.3c0.8,1.8,1.3,3.7,1.6,5.6c0.8,4.2,2.6,7.8,5.6,10.8c2.1,2.1,3.8,4.4,4.8,7.2
	C516.9,133.9,517.1,134.4,517,135.2z"/>
<path class="st71" d="M89.3,173.9c-2.1,0.2-2.9-1-3.8-2.8c-0.3-0.6,0.3-1.9,1.3-2.1c1.3-0.3,2.5-1,3.9-0.1c1.2,0.8,2.1,2,1.9,3.1
	c-0.2,1.1-1.5,1.9-3.1,1.9C89.4,173.9,89.3,173.9,89.3,173.9z"/>
</svg>
