<?xml version="1.0" encoding="UTF-8"?><svg id="Layer_1" xmlns="http://www.w3.org/2000/svg" viewBox="0 0 634.34 216.49"><defs><style>.cls-1{fill:#fb867a;}.cls-2{fill:#00582c;}.cls-3{fill:#036629;}.cls-4{fill:#ee586e;}.cls-5{fill:#f77777;}.cls-6{fill:#fe998c;}.cls-7{fill:#ffada1;}.cls-8{fill:#ffb8ad;}.cls-9{fill:#fbfcfb;}.cls-10{fill:#e84669;}.cls-11{fill:#efe4ce;}.cls-12{fill:#cfae6c;}.cls-13{fill:#be984b;}.cls-14{fill:#5f6065;}</style></defs><path class="cls-12" d="M589.61,145.27c3.84,.18,7.68,.43,11.52,.53,3.79,.1,7.58,.31,11.36,.48,6.07,.28,12.16,.53,18.21,1.22,1.31,.15,2.65,0,3.92,.45v70.11c-.65,.52-1.43,.35-2.16,.37-5.37,.13-10.75,.3-16.11-.01-11.26-.65-22.54-.26-33.81-.6-9.21-.28-18.43-.06-27.64-.34-9.15-.29-18.31-.06-27.47-.34-9.15-.29-18.31-.06-27.47-.35-9.09-.29-18.2-.06-27.3-.34-9.09-.29-18.2-.06-27.3-.35-9.09-.29-21.56,10.35-30.66,10.06-9.09-.29-18.2-.06-27.3-.35-9.04-.29-18.08-.06-27.12-.34-9.09-.28-18.2-.06-27.3-.35-9.04-.28-18.08-.06-27.12-.35-8.98-.29-17.97-.06-26.95-.34-9.04-.29-18.08-.06-27.12-.35-9.04-.29-18.08-.06-27.12-.35-8.98-.29-17.97-.06-26.95-.34-9.04-.29-18.08-.06-27.12-.35-8.81-.28-17.62-.06-26.43-.34-9.04-.29-18.08-.06-27.12-.35-8.86-.28-17.74-.06-26.61-.34-8.75-.28-17.51-.06-26.26-.34-8.86-.29-17.74-.06-26.6-.35-8.63-.28-17.28-.02-25.91-.35-4.32-.16-8.64-.1-12.96-.14-.19-.73-.12-1.49-.12-2.23,0-22.29-10.52-55.74-10.53-78.03,0-1.65,13.72-2.54,13.89-4.19,1.28,2.75-12.31,1.83-12.07,1.52,2.69-.22,5.38-.47,8.08-.64,3.04-.2,19.98,.44,23.02,.26,10.06-.57,20.14-.77,30.21-.59,5.52,.1,11.04,.38,16.56,.63,4.6,.21,9.2,.39,13.79,.78,5.5,.46,10.99,.96,16.48,1.57,5.88,.65,11.76,1.4,17.62,2.23,5.18,.73,10.33,1.61,15.49,2.48,6.46,1.09,12.91,2.22,19.36,3.35,7.64,1.33,15.27,2.73,22.92,4.01,4.65,.77,9.32,1.4,14.01,1.91,4.8,.52,9.61,.94,14.43,1.28,9.19,.64,18.4,1.02,27.61,.65,4.71-.19,9.42-.43,14.12-.83,4.18-.35,8.36-.79,12.54-1.18,3.66-.34,7.31-.84,10.96-1.24,3.77-.41,7.55-.78,11.32-1.15,3.32-.33,6.64-.65,9.96-.94,3.27-.28,6.54-.51,9.8-.78,3.49-.29,6.99-.62,10.48-.93,3.09-.27,6.19-.55,9.28-.79,4.47-.34,8.94-.7,13.42-.95,4.42-.24,8.86-.3,13.28-.54,5.41-.29,10.82-.21,16.23-.35,6.1-.16,12.2-.36,18.29-.68,7.01-.37,13.99-.98,20.95-1.9,11.09-1.45,22.1-3.33,33.07-5.53,4.83-.97,9.62-2.16,14.4-3.36,6.13-1.54,12.33-2.59,18.59-3.36,9.16-1.12,18.35-1.6,27.56-1.27,4.3,.16,8.6,.56,12.88,1.18,.97,.14,1.95,.16,2.92,.24,2.67,3.1,4.73,6.73,8.1,9.22-1.95,1.05-3.76,2.33-5.6,3.55-1.95-.08-3.88-.02-5.84,.23-2.04,.27-4.08,.55-6.09,.98-5.49,1.17-10.56,3.47-15.59,5.88-1.76,.85-3.5,1.75-5.29,2.52-4.01,1.73-8.16,3.08-12.29,4.48-1.41,.48-2.82,1.04-3.91,2.1-.62,.61-.5,1.35,.28,1.73,.83,.4,1.74,.61,2.67,.65,3.06,.15,6.07-.25,9.04-.9,3.58-.79,7.1-1.82,10.66-2.7,3.89-.97,7.81-1.74,11.79-2.23,2.1-.26,4.2-.55,6.31-.69,1.83-.12,3.67-.24,5.48-.46,3.26-.4,6.53-.15,9.78-.54,2.09-.25,4.23,.02,6.35,.23,2.22,.22,4.49-.02,6.73,.08,1.77,.08,3.42-.35,5.08-.79,1.14-.31,2.2-1.04,2.36-2.26,.14-1.08,.69-1.16,1.48-1.17,1.88,1.09,3.95,1.55,6.07,1.71,5.21,.4,10.41,.81,15.63,1.04,5.25,.23,10.51,.55,15.77,.45,.2,0,.4,0,.6,.02,5.8,.51,11.6,.33,17.39-.13,1.3-.1,2.58-.48,3.85-.86,1.83-.55,2.81-2.53,.73-4.18-1.63-1.29-3.52-1.9-5.45-2.46-1.98-.57-3.96-1.11-5.95-1.67Zm-488.05,22.3c-1.12-.4-2.28-.55-3.45-.6-.84,.09-1.58-.41-2.4-.38-.37-.39-.27-1.02-.71-1.38v-1.72c-.23-1.07-.4-2.23-1.76-2.4-1.99-.25-3.68,.33-4.89,2.02-.63,.12-1.01,.55-1.31,1.07-.48,.21-.8,.59-1.05,1.03-.98,1.11-2.16,1.28-3.5,.77-.1-.04-.22-.01-.34-.01l-2.05-.35c-.56-.09-1.13-.08-1.66-.38-.87-.5-1.77-.37-2.66,0-1.13,.46-1.4,1.12-.79,2.15,.41,.69,.88,1.35,1.66,1.7,.36,.8,1.14,1.15,1.77,1.65,.22,.77,1.44,.75,1.37,1.75-.58,.32-1.25,.49-1.72,.98-.86,.28-1.6,.77-2.19,1.45-1.21,1.4-.7,3.33,1.01,4.05s3.53,.67,5.32,.09c.88,.03,1.7-.16,2.42-.68,1.22-.11,2.32-.62,3.44-1.06,1.65-.64,2.34-.5,3.45,.88,.54,.67,.93,1.46,1.72,1.89,.56,.72,1.08,1.5,2.06,1.75,.88,.73,1.89,1.11,3.1,.98s2.12-1.2,2.14-2.41c.01-.56-.04-1.13-.07-1.69,.07-.51-.18-.85-.61-1.08,.03-1.35-.77-2.49-.94-3.8-.09-.69,.04-.99,.72-1,1.03-.02,2.04-.17,2.97-.66,.5-.11,1.19,.2,1.4-.6,.34-.05,.68-.07,1.01-.16,.78-.23,1.25-.76,1.35-1.57,.11-.88-.56-1.16-1.19-1.44-1.15-.51-2.36-.77-3.61-.83Zm284.19,21.09c-.03-.11-.07-.21-.1-.32-.25-.72-1.84-.48-1.36-1.52,.27-.58,1.28-.82,1.96-1.21,.05-.03,.11-.02,.17-.03,.89-.16,1.54-.74,2.21-1.26,1.26-.98,1.18-2.4-.19-3.22-.99-.59-2.05-1.04-3.24-1.03-1.44,.01-2.87,.04-4.31,.06-1.03,.02-2.07,.03-3.1,.05l-3.11-1.49h0c-.19-1.06-.53-2.08-.94-3.07-.53-1.27-1.83-2.13-3.19-1.91-3.01,.5-5.45,3.99-5.55,7.4,0,.51,0,1.02-.01,1.53-.02,1.59-.06,1.66-1.62,1.55-1.29-.09-2.56-.45-3.87-.24-1.37-.16-2.73-.08-4.05,.31-.65,.19-1.35,.38-1.48,1.21-.14,.84,.28,1.38,.95,1.84,1.29,.88,2.78,1.26,4.23,1.72,1.29,.27,2.53,.67,3.67,1.34,1.28,.76,1.49,1.34,.82,2.64-.37,.71-.69,1.43-.73,2.25-.88,2.55,.04,3.88,2.64,3.8,1.85-.06,3.09-1.19,4.28-2.42,1.31-.99,2.48-2.14,3.51-3.43,.43-.01,.71-.33,1.06-.5,.71-.33,1.42-.63,2.28-.33,.79,.27,1.67,.31,2.5,.45,1.09,.53,2.32,.39,3.46,.69,.44,.09,.88,.22,1.33,.27,1.02,.13,2.03,.18,3-.33,1.16-.62,1.54-1.29,1.09-2.48-.41-1.07-.96-2.09-2.27-2.33ZM49.51,142.41c-3.77,.25-7.49,.85-11.21,1.56-3.13,.59-6.1,1.57-8.92,3.06-1.18,.62-1.97,1.57-2.62,2.67-.38,.64-.37,1.33,.17,1.91,.51,.55,.99,1.09,1.79,1.28,1.17,.27,2.33,.63,3.55,.59,4.77-.14,9.53,.22,14.31-.28,2.84-.3,5.71,.45,8.6,.3,2.01-.1,4.07-.23,6.04,.07,2.91,.44,5.83,.19,8.75,.53,2.2,.25,4.45,.4,6.68,.52,1.63,.09,3.32,.14,4.95,.44,1.49,.27,3,.39,4.52,.48,1.35,.08,2.68,.3,4.01,.46,3.51,.43,7.01,1.04,10.5,1.62,4.34,.72,8.67,1.5,13.01,2.24,3.1,.53,6.2,1.05,9.3,1.56,2.76,.45,5.52,.95,8.3,1.29,1.76,.21,3.5,.64,5.26,.76,2.06,.14,4.06,.66,6.11,.87,2.22,.23,4.42,.58,6.63,.88,2.09,.29,4.19,.61,6.28,.87,2.5,.31,4.99,.66,7.5,.83,1.89,.13,3.77,.32,5.65,.45,3.31,.24,6.61,.62,9.94,.62,4.39,0,8.78,.03,13.17-.04,1.37-.02,2.76-.3,3.92-1.04,.27-.17,.48-.42,.54-.82,.13-.83-.45-1.3-1.01-1.67-.86-.57-1.81-.99-2.79-1.34-4.88-1.76-10.03-2.32-15.07-3.36-4.2-.86-8.48-1.33-12.67-2.23-7.05-1.53-14.05-3.28-21.08-4.91-5.19-1.2-10.35-2.55-15.58-3.5-6.58-1.2-13.1-2.71-19.73-3.68-3.51-.51-7.02-1.03-10.53-1.5-2.38-.32-4.77-.55-7.16-.79-2.84-.28-5.71-.65-8.55-.63-9.03,.07-18.07-.47-27.09,.31-1.86,.16-3.64-.44-5.49-.37Zm423.64-4.13c-1.79,0-3.27,.2-4.75,.29-2.46,.14-4.9,.41-7.35,.71-3.75,.46-7.48,1.1-11.15,1.91-6.37,1.42-12.7,3-19.09,4.31-3.3,.68-6.64,1.2-9.96,1.76-2.7,.46-5.41,.9-8.12,1.31-2.54,.39-5.09,.76-7.64,1.1-3,.4-6.03,.64-9.02,1.14-3.05,.52-6.12,.81-9.17,1.24-2.21,.31-4.4,.73-6.61,.97-2.23,.25-4.4,.74-6.58,1.18-3.03,.62-6.05,1.37-8.71,3.07-1.48,.95-1.52,2.65,0,3.43,2.62,1.35,5.53,1.75,8.35,1.57,2.68-.17,5.37-.11,8.06-.42,2.2-.26,4.45-.42,6.68-.53,1.36-.07,2.74-.14,4.11-.3,2.72-.32,5.44-.68,8.17-.97,2.56-.28,5.13-.47,7.69-.75,2.78-.3,5.55-.76,8.35-.95,2.52-.17,5.01-.53,7.51-.83,2.72-.32,5.46-.52,8.18-.93,1.92-.29,3.87-.43,5.78-.76,4.96-.86,9.91-1.73,14.84-2.72,6.86-1.37,13.68-2.95,20.19-5.58,2.51-1.02,4.88-2.35,6.84-4.26,1.85-1.81,1.38-3.6-1.09-4.35-1.88-.57-3.82-.75-5.49-.65Zm-243.99,44.56c4.19,.04,8.35-.35,12.53-.63,3.16-.22,6.22-.89,9.31-1.47,.89-.17,1.75-.55,2.53-1.04,1.12-.71,1.14-1.47,.12-2.27-.46-.36-.97-.6-1.51-.8-2.59-.99-5.35-1.22-8.04-1.71-3-.55-6.06-.47-9.07-.62-6.19-.29-12.41,.05-18.61-.42-.45-.03-.94-.11-1.33,.22-.75,.64-1.67,.66-2.57,.81-1.58,.26-3.16,.53-4.68,1.05-.74,.26-1.33,.74-1.48,1.54-.16,.89,.52,1.39,1.14,1.77,1.13,.68,2.34,1.21,3.64,1.52,5.93,1.4,11.93,2.19,18.04,2.06Z"/><path class="cls-3" d="M557.87,100.42c2.74-7.36,4.81-14.96,7.74-22.25,1.29-3.22,2.31-6.48,2.73-9.93,.05-.45,.24-.89,.32-1.34,.15-.89,.59-1.47,1.52-1.64,.95-.17,1.69,.15,2.3,1.12,.83,1.32,1.39,2.77,1.92,4.22,2.1,5.79,2.15,11.67,.91,17.66-1.04,5.01-3.22,9.55-5.35,14.12-2.04,4.38-3.81,8.86-4.88,13.58-.72,3.2-1.12,6.46-.58,9.85,.77-.42,.7-1.22,.84-1.8,.96-3.97,2.46-7.76,3.88-11.57,2.1-5.64,4.35-11.22,6.37-16.89,2.21-6.2,3.47-12.63,3.68-19.22,.14-4.38-.39-8.72-1.37-13-1.38-6.06-3.7-11.81-5.84-17.62-1.78-4.84-3.69-9.64-5.03-14.63-1.24-4.63-1.59-9.29-.14-13.95,.82-2.64,2.18-5.05,3.56-7.43,.66-1.14,1.38-2.25,2.1-3.35,.25-.38,.54-.76,.88-1.04,.59-.48,1.28-.53,1.93-.13,.71,.43,.52,1.08,.32,1.69-1.13,3.43-1.57,6.93-1.24,10.54,.44,4.84,1.74,9.45,3.5,13.97,2.07,5.29,4.71,10.32,6.94,15.54,2.42,5.67,4.42,11.44,5.6,17.5,.98,5.06,1.07,10.17,1.05,15.29-.02,5.02-.74,9.98-1.65,14.9-.75,4.07-2.16,7.96-3.6,11.84-2.56,6.89-5.85,13.45-8.97,20.09-1.39,2.97-2.45,6.06-3.43,9.18-.1,.32-.19,.67-.02,1.14,.99-.7,1.62-1.71,2.41-2.53,3.75-3.89,7.47-7.79,10.66-12.17,3.34-4.58,5.84-9.59,7.82-14.87,1.44-3.83,2.46-7.78,2.74-11.88,.26-3.68,.13-7.36-.29-11.03-.69-6.06-1.99-12.02-2.9-18.04-.85-5.63-1.61-11.28-1.5-17,.09-4.46,.98-8.77,2.34-13.01,1.56-4.87,3.75-9.49,5.68-14.21,.24-.58,.54-1.15,.88-1.67,.39-.6,.94-.98,1.71-1,1.29-.02,1.93,.69,1.67,1.96-.29,1.4-.71,2.77-.99,4.18-.7,3.44-.07,6.77,.5,10.11,.89,5.23,2.9,10.13,4.73,15.08,2.15,5.81,4.04,11.7,5.33,17.79,.93,4.41,1.48,8.82,1.36,13.34-.15,5.51-1.61,10.66-3.91,15.59-3.14,6.76-7.57,12.71-12.12,18.55-3.99,5.12-8.4,9.89-13.12,14.36-3.71,3.52-7.24,7.22-11.09,10.6-.07,.06-.08,.2-.14,.36,1.13,.6,2.49,.46,3.59,1.1,.49,.66,.49,1.25-.23,1.77-.27,.19-.55,.35-.74,.68-.64,1.08-1.08,1.17-2.19,.76-.49-.18-.83-.8-1.48-.63-.07,.56,.34,.79,.52,1.12,.69,1.27,.22,2.1-1.25,2.16-.46,.02-.95,.06-1.35-.19-1.14-.69-2.02-.48-3.1,.33-1.23,.94-2.05,1.42-3.65-.07-.33-.31-.63-.47-1.06-.27-.43,.2-.89,.21-1.35,.2-1.07-.04-1.41-.27-1.25-1.33,.11-.78-.27-.9-.77-1.04-.44-.12-.92-.1-1.35-.25-.6-.21-1.24-.49-1.01-1.33,.15-.55-.19-.55-.54-.6-.35-.05-.76-.17-.77-.55-.02-.49,.48-.58,.84-.74,.81-.34,1.72-.38,2.78-.52-.45-.49-.61-.86-1.05-.96-.39-.56-.75-1.14-1.18-1.68-4.65-5.9-6.73-12.53-5.83-20.06,.33-2.79,.95-5.53,1.44-8.29,.21-.69,.42-1.37,.63-2.06,.72-1.67,1.3-3.38,1.48-5.2,.43-1.08,.86-2.17,1.09-3.31Zm8.19,34.86c.33-.4,.48-.51,.55-.66,1.54-3.51,3.08-7.02,4.61-10.53,1.67-3.84,3.62-7.53,5.58-11.23,1.52-2.87,2.87-5.84,4.19-8.81,.86-1.93,1.58-3.92,2.16-5.96,.89-3.13,1.53-6.32,2.24-9.5,.73-3.3,1.18-6.63,1.52-9.98,.3-2.98-.05-5.98-.42-8.92-.5-3.9-1.46-7.75-2.83-11.46-1.89-5.1-3.9-10.15-5.85-15.23-.96-2.51-1.86-5.04-2.71-7.59-.65-1.97-1.02-3.98-1.49-5.98-.64-2.73-1.25-5.46-1.2-8.29,.04-2.65,.01-5.29,0-7.94,0-.33,.05-.77-.41-.81-.3-.03-.49,.26-.62,.53-.12,.26-.26,.52-.31,.8-.43,2.13-.83,4.25-.77,6.46,.06,2.13,.3,4.21,.66,6.3,.97,5.68,2.7,11.12,4.74,16.48,1.5,3.93,3.23,7.78,4.56,11.77,1.1,3.29,2.39,6.52,3.07,9.96,.56,2.81,1.38,5.55,1.18,8.46-.04,.57,.02,1.13,.19,1.7,.25,.84,.26,1.72,0,2.55-.2,.62-.22,1.25-.18,1.88,.08,1.51-.23,2.96-.51,4.42-.25,1.35-.56,2.68-.82,4.02-.63,3.24-1.33,6.46-2.27,9.61-1.1,3.67-2.75,7.15-4.41,10.59-1.88,3.9-4.05,7.65-5.74,11.66-1.7,4.02-3.3,8.06-4.42,12.27-.26,.97-.6,2.04-.29,3.42Zm15.64-3.13c.84,.25,1.07-.26,1.35-.56,1.64-1.68,3.28-3.37,4.86-5.12,3.47-3.83,6.65-7.87,9.71-12.02,2.42-3.28,4.72-6.62,6.37-10.38,1.51-3.43,2.62-7.01,2.92-10.72,.48-5.8-.21-11.54-1.6-17.2-.61-2.5-1.2-5.01-1.73-7.52-.82-3.85-1.92-7.64-2.26-11.6-.17-1.93-.65-3.83-.57-5.79,.13-3.09-.21-6.19,.29-9.28,.17-1.05,.4-2.13,.42-3.23,.06-2.8,.5-5.58,1.07-8.31,.26-1.26,.28-2.5,.29-3.76,0-.33,.06-.78-.4-.82-.38-.03-.57,.35-.69,.68-.36,1.02-.71,2.07-.9,3.11-.62,3.36-.99,6.77-1.54,10.15-.56,3.49-.52,6.96-.63,10.45-.14,4.56,.7,8.99,1.69,13.4,.54,2.39,1.1,4.77,1.72,7.15,.73,2.75,1.24,5.57,1.7,8.38,.43,2.65,1.04,5.27,1.13,7.97,.12,3.79-.36,7.49-1.28,11.19-1.07,4.29-3.09,8.1-5.34,11.78-1.88,3.07-4.04,5.99-6.22,8.86-1.55,2.05-3.06,4.13-4.78,6.07-1.96,2.21-3.66,4.65-5.58,7.12Zm-18.58,3.65c.35-.48,.36-.9,.23-1.26-.82-2.33-1.16-4.78-1.74-7.16-.5-2.04-.87-4.13-.98-6.25-.16-2.84,.18-5.64,.8-8.36,1.16-5.07,2.55-10.08,4.4-14.96,1.03-2.72,1.78-5.54,2.48-8.38,.59-2.39,1.05-4.8,1.53-7.2,.63-3.2,1.36-6.39,1.16-9.68-.04-.6,.45-1.65-.45-1.71-.73-.05-.73,1.06-.86,1.69-.34,1.68-.44,3.41-.85,5.07-.94,3.88-1.53,7.85-2.66,11.69-.81,2.73-1.45,5.5-2.63,8.12-.86,1.91-1.56,3.9-2.18,5.9-.9,2.88-1.73,5.79-2.47,8.72-.53,2.1-1.03,4.24-1,6.42,.07,4.09,.86,8.09,2.17,11.93,.65,1.9,1.36,3.88,3.05,5.44Z"/><path class="cls-3" d="M517.59,140.66c-3.37-2.49-5.44-6.11-8.1-9.22-1.22-1.69-2.81-3.02-4.3-4.45-2.91-2.79-5.63-5.74-7.43-9.41-1.3-2.63-2.18-5.42-3.07-8.2-.66-2.08-1.45-4.1-2.34-6.09-1.01-2.26-2.56-4.05-4.56-5.5-1.12-.81-2.19-1.68-3.24-2.57-.65-.54-1.08-1.23-.73-2.12,.31-.81,1.04-1.03,1.8-1.12,1.91-.22,3.79,.05,5.64,.55,7.79,2.08,13.54,6.8,17.77,13.55,3.34,5.33,5.77,11.05,7.54,17.08,.99,3.37,1.54,6.82,2.32,10.23,.09,1.38,.6,2.63,1.29,3.81,.3,.52,.68,.58,1.02,.02,.63-1,1.24-2.02,1.86-3.02,2.07-3.36,2.82-7,2.31-10.89-.35-2.71-1.39-5.2-2.56-7.63-2.65-5.53-5.53-10.94-8.02-16.55-2.26-5.11-4.1-10.35-4.78-15.93-.34-2.8-.27-5.63-.02-8.44,.46-5.13,1.93-10.02,3.44-14.91,1.49-4.82,3.23-9.57,4.22-14.54,.98-4.94,1.3-9.91,.5-14.92-.22-1.37-.35-2.74-.3-4.13,.02-.51,.06-1.04,.17-1.54,.24-1.13,.81-2.05,1.98-2.39,1.22-.36,2.29,.04,3.16,.91,.9,.9,1.58,1.97,2.15,3.1,1.86,3.72,3.09,7.63,3.64,11.77,.35,2.63,.61,5.25,.6,7.9,0,5.31-1.33,10.34-3.17,15.26-1.28,3.43-2.89,6.74-3.92,10.27-1.42,4.9-1.32,9.74,.46,14.55,1.64,4.43,4.03,8.48,6.22,12.64,2.07,3.93,3.72,8.02,4.76,12.32,.93,3.88,1.26,7.83,.51,11.81-.14,.73-.36,1.45-.25,2.22,.5,.12,.53-.3,.68-.56,2.64-4.64,5.01-9.42,6.66-14.51,1.41-4.37,1.92-8.82,1.3-13.43-.66-4.85-1.76-9.59-2.94-14.33-1.17-4.74-2.19-9.51-3.1-14.31-.74-3.91-1.35-7.81-1.32-11.8,.04-5.7,1.22-11.17,3.11-16.51,.34-.97,.7-1.94,1.11-2.89,.2-.47,.47-.94,.83-1.3,1.13-1.13,2.91-.74,3.52,.74,.22,.53,.37,1.08,.42,1.67,.47,5.25,1.86,10.26,3.83,15.13,1.78,4.41,3.64,8.79,5.38,13.21,1.43,3.64,2.35,7.43,3.01,11.29,.44,2.56,.68,5.13,.9,7.7-.16,.18-.14,.34,.05,.48,.19,2.27,.3,4.54,.29,6.81l-.09,.03,.09,.03c-.04,2.64-.33,5.26-.62,7.87-.22,1.1-.69,2.16-.68,3.31-.87,1.5-.98,3.28-1.71,4.83-.04,.76-.59,1.34-.71,2.08-.63,1.16-1.23,2.33-1.88,3.48-3.29,5.84-7.49,10.98-12.1,15.82-2.22,2.33-4.23,4.82-5.84,7.62,.16,.73,.84,.75,1.36,.98,.42,.18,.89,.24,1.31,.4,.51,.2,.94,.53,.77,1.16-.14,.53-.62,.6-1.1,.64-.66,.04-1.3-.1-1.89,.52-1.1,1.15-1.93,1.19-3.32,.22-.75-.52-1.33-.63-2.16-.15-.77,.44-1.85,.99-2.58,.57-1.05-.6-1.51-.1-2.22,.42-.89,.66-1.9,.82-2.82-.03-.33-.3-.64-.4-1.09-.28-1.05,.28-1.93,.11-2.4-1.04-.06-.16-.38-.21-.58-.31Zm10.54-14.82c-.23,1.33,.3,3.07,.39,4.85,.01,.22,.05,.48,.35,.51,.26,.03,.44-.14,.53-.35,.09-.21,.1-.44,.16-.66,.72-2.63,.86-5.26,.4-7.98-.41-2.42-.71-4.86-1.36-7.23-1.3-4.73-2.96-9.34-5.01-13.8-1.49-3.26-3.13-6.45-4.13-9.91-.76-2.64-1.61-5.3-1.63-8.04-.03-4.35-.28-8.69,.57-13.04,.65-3.32,1.43-6.59,2.46-9.8,.84-2.61,1.61-5.25,2.36-7.89,.71-2.51,1.42-5.05,1.59-7.71,.07-1,.09-2.06,.35-3.06,.45-1.7,.33-3.45,.16-5.14-.31-3.05-.93-6.07-2.11-8.92-.32-.78-.44-1.68-1.11-2.3-.26-.25-.57-.43-.93-.22-.28,.16-.32,.49-.26,.76,.16,.78,.3,1.58,.58,2.32,1.96,5.13,2.36,10.48,1.73,15.84-.49,4.18-1.87,8.21-3.13,12.24-.53,1.69-1.1,3.38-1.54,5.08-.59,2.25-1.25,4.49-1.68,6.8-.52,2.81-1.18,5.59-1.17,8.47,.01,1.9,.07,3.8-.01,5.7-.15,3.32,.66,6.52,1.64,9.57,1.32,4.1,3.26,8.01,4.94,12,.78,1.83,1.72,3.6,2.35,5.48,.87,2.59,1.79,5.17,2.36,7.87,.56,2.69,1.31,5.34,1.14,8.58Zm7.68,.99c.37-.12,.59-.12,.67-.23,2.01-2.64,4.05-5.26,6-7.95,1.58-2.19,3.08-4.43,4.53-6.7,2.78-4.34,4.34-9.06,4.31-14.26,0-1.38-.04-2.76,0-4.14,.14-3.77-.82-7.38-1.65-10.98-.84-3.66-2.34-7.13-3.72-10.62-1.27-3.25-2.65-6.46-3.41-9.88-.3-1.34-.86-2.68-.85-4.01,.03-4.07-.43-8.16,.26-12.22,.08-.5,.02-1.03,.01-1.55,0-.37-.15-.71-.51-.82-.47-.15-.79,.21-.96,.55-.25,.51-.43,1.06-.56,1.62-.59,2.52-.44,5.12-.66,7.68-.23,2.73,.41,5.44,.91,8.15,.78,4.31,2.41,8.31,3.87,12.39,.81,2.25,1.69,4.48,2.42,6.76,1.12,3.55,1.82,7.19,2.16,10.91,.22,2.43,.7,4.79,.35,7.3-.5,3.66-1.34,7.17-3,10.46-1.53,3.02-3.36,5.87-5.28,8.64-1.08,1.56-2,3.2-2.93,4.84-.69,1.22-1.57,2.39-1.94,4.07Zm-18.76,8.38c.08-.81-.11-1.27-.3-1.76-1.03-2.79-2.75-5.12-4.83-7.21-3-3.01-4.79-6.62-5.6-10.79-.37-1.89-.83-3.8-1.63-5.57-1.35-2.97-2.99-5.75-5.05-8.32-2.55-3.18-5.77-5.36-9.4-7.04-.39-.18-.84-.44-1.31-.31-.26,.07-.57,.24-.7,.45-.16,.28,.09,.53,.34,.69,.87,.56,1.71,1.16,2.62,1.66,1.88,1.03,3.63,2.29,5.06,3.81,1.96,2.08,3.52,4.49,4.93,7,1.81,3.22,2.29,6.82,3.05,10.32,.72,3.31,2.21,6.11,4.52,8.5,2,2.07,3.81,4.27,5.24,6.78,.42,.74,.99,1.4,1.53,2.06,.28,.35,.62,.78,1.14,.63,.6-.17,.37-.75,.39-.91Z"/><path class="cls-14" d="M517.59,140.66c.2,.1,.52,.15,.58,.31,.47,1.15,1.35,1.32,2.4,1.04,.45-.12,.76-.02,1.09,.28,.92,.85,1.93,.68,2.82,.03,.71-.52,1.17-1.02,2.22-.42,.73,.42,1.8-.13,2.58-.57,.83-.47,1.42-.37,2.16,.15,1.39,.97,2.22,.93,3.32-.22,.59-.62,1.23-.48,1.89-.52,.48-.03,.96-.1,1.1-.64,.17-.63-.27-.96-.77-1.16-.42-.17-.89-.22-1.31-.4-.52-.22-1.2-.24-1.36-.98,4.87,1.25,9.69,2.66,14.6,3.73,2.65,.58,5.23,1.03,7.92,.22,1.08-.33,2.26-.34,3.39-.49,.44,.1,.6,.48,1.05,.96-1.06,.14-1.96,.17-2.78,.52-.36,.15-.86,.24-.84,.74,.02,.38,.42,.49,.77,.55,.34,.05,.69,.06,.54,.6-.23,.84,.41,1.12,1.01,1.33,.43,.15,.91,.12,1.35,.25,.49,.14,.88,.26,.77,1.04-.15,1.06,.18,1.3,1.25,1.33,.46,.02,.93,0,1.35-.2,.44-.2,.73-.04,1.06,.27,1.6,1.49,2.42,1.01,3.65,.07,1.08-.82,1.96-1.02,3.1-.33,.4,.24,.89,.21,1.35,.19,1.47-.07,1.94-.9,1.25-2.16-.18-.34-.59-.56-.52-1.12,.66-.17,.99,.45,1.48,.63,1.11,.41,1.56,.31,2.19-.76,.19-.33,.47-.48,.74-.68,.72-.52,.72-1.1,.23-1.77,2.33,.31,4.49,1.21,6.74,1.83,1.21,.33,2.38,.78,3.62,.98,1.98,.55,3.97,1.09,5.95,1.67,1.93,.56,3.82,1.17,5.45,2.46,2.08,1.64,1.1,3.63-.73,4.18-1.27,.38-2.55,.76-3.85,.86-5.79,.45-11.59,.64-17.39,.13-.29-.03-.57-.02-.86-.02-5.18,.08-10.34-.23-15.51-.45-5.22-.22-10.42-.64-15.63-1.04-2.12-.16-4.19-.62-6.07-1.71-.5-.43-1.1-.28-1.66-.26-3.34,.11-6.66-.3-9.99-.49-2.97-.17-5.93-.6-8.9-.94-2.57-.29-5.13-.64-7.61-1.41-2.2-.69-2.45-2.3-1.16-3.64,.12-.12,.22-.26,.33-.4,1.84-1.22,3.65-2.5,5.6-3.55Z"/><path class="cls-12" d="M523.04,134.2c-.62,1.01-1.23,2.02-1.86,3.02-.35,.55-.72,.49-1.02-.02-.68-1.18-1.19-2.43-1.29-3.81,1.39,.27,2.78,.54,4.17,.81Z"/><path class="cls-12" d="M556.54,103.73c0-1.15,.46-2.21,.68-3.31,.21,0,.43,0,.64,0-.24,1.15-.66,2.23-1.09,3.32-.08,0-.15,0-.23,0Z"/><path class="cls-12" d="M557.56,85.68c-.2-.14-.21-.3-.05-.48,.22,.14,.28,.29,.05,.48Z"/><polygon class="cls-12" points="557.84 92.55 557.76 92.52 557.84 92.5 557.84 92.55"/><path class="cls-13" d="M49.51,142.41c1.84-.07,3.63,.53,5.49,.37,9.02-.78,18.06-.24,27.09-.31,2.62-.02,5.25,.3,7.87,.56,2.39,.25,4.78,.45,7.17,.77,3.74,.5,7.47,1.05,11.2,1.59,6.63,.97,13.15,2.48,19.73,3.68,5.23,.95,10.39,2.3,15.58,3.5,7.03,1.63,14.03,3.39,21.08,4.91,4.19,.91,8.47,1.37,12.67,2.23,5.04,1.03,10.19,1.6,15.07,3.36,.98,.35,1.93,.77,2.79,1.34,.56,.37,1.14,.84,1.01,1.67-.12,.77-.78,.98-1.37,1.15-1.6,.47-3.25,.71-4.91,.73-3.78,.04-7.57,0-11.35,.02-3.33,0-6.63-.38-9.94-.62-1.88-.14-3.77-.33-5.65-.45-2.51-.17-5-.52-7.5-.83-2.1-.26-4.19-.58-6.28-.87-2.21-.3-4.41-.65-6.63-.88-2.05-.21-4.05-.73-6.11-.87-1.77-.12-3.5-.55-5.26-.76-2.78-.33-5.53-.84-8.3-1.29-3.1-.51-6.2-1.03-9.3-1.56-4.34-.74-8.67-1.52-13.01-2.24-3.49-.58-6.99-1.2-10.5-1.62-1.47-.18-2.94-.43-4.44-.48-1.59-.05-3.18-.34-4.76-.57-1.42-.2-2.87-.25-4.28-.33-2.23-.13-4.48-.27-6.68-.52-2.91-.34-5.84-.09-8.75-.53-1.97-.3-4.03-.17-6.04-.07-2.88,.14-5.75-.6-8.6-.3-4.77,.5-9.54,.13-14.31,.28-1.22,.04-2.37-.32-3.55-.59-.8-.18-1.28-.73-1.79-1.28-.54-.59-.55-1.27-.17-1.91,.65-1.09,1.44-2.04,2.62-2.67,2.82-1.49,5.79-2.47,8.92-3.06,3.71-.71,7.43-1.31,11.21-1.56Z"/><path class="cls-13" d="M473.15,138.28c1.67-.1,3.61,.08,5.49,.65,2.47,.75,2.94,2.54,1.09,4.35-1.95,1.91-4.33,3.24-6.84,4.26-6.51,2.64-13.33,4.21-20.19,5.58-4.93,.99-9.89,1.86-14.84,2.72-1.91,.33-3.86,.47-5.78,.76-2.71,.41-5.45,.61-8.18,.93-2.49,.3-4.99,.66-7.51,.83-2.79,.19-5.56,.65-8.35,.95-2.56,.28-5.13,.47-7.69,.75-2.73,.3-5.45,.66-8.17,.97-1.36,.16-2.75,.23-4.11,.3-2.23,.12-4.49,.27-6.68,.53-2.69,.32-5.38,.25-8.06,.42-2.82,.18-5.74-.22-8.35-1.57-1.52-.79-1.49-2.48,0-3.43,2.66-1.7,5.68-2.45,8.71-3.07,2.18-.45,4.36-.93,6.58-1.18,2.21-.25,4.4-.66,6.61-.97,3.05-.43,6.13-.73,9.17-1.24,2.99-.51,6.01-.75,9.02-1.14,2.55-.34,5.1-.71,7.64-1.1,2.71-.42,5.42-.85,8.12-1.31,3.33-.56,6.66-1.08,9.96-1.76,6.39-1.32,12.73-2.9,19.09-4.31,3.68-.82,7.4-1.46,11.15-1.91,2.45-.3,4.88-.57,7.35-.71,1.48-.08,2.96-.28,4.75-.29Z"/><path class="cls-13" d="M511.98,144.21c-.11,.13-.21,.27-.33,.4-1.28,1.34-1.04,2.96,1.16,3.64,2.47,.77,5.04,1.12,7.61,1.41,2.96,.34,5.92,.77,8.9,.94,3.33,.19,6.65,.6,9.99,.49,.56-.02,1.16-.17,1.66,.26-.79,.02-1.34,.09-1.48,1.17-.16,1.22-1.22,1.95-2.36,2.26-1.65,.45-3.31,.87-5.08,.79-2.24-.1-4.51,.14-6.73-.08-2.12-.21-4.26-.49-6.35-.23-3.25,.39-6.52,.15-9.78,.54-1.8,.22-3.65,.34-5.48,.46-2.11,.14-4.21,.42-6.31,.69-3.98,.5-7.9,1.27-11.79,2.23-3.56,.88-7.08,1.91-10.66,2.7-2.96,.66-5.98,1.06-9.04,.9-.92-.05-1.82-.25-2.66-.65-.93-.44-1.04-1.01-.3-1.73,1.09-1.07,2.5-1.63,3.91-2.11,4.13-1.4,8.28-2.76,12.29-4.48,1.79-.77,3.53-1.68,5.29-2.52,5.03-2.41,10.1-4.71,15.59-5.88,2.01-.43,4.05-.71,6.09-.98,1.95-.26,3.88-.31,5.84-.23Z"/><path class="cls-13" d="M229.16,182.84c-6.11,.13-12.1-.66-18.04-2.06-1.3-.31-2.51-.84-3.64-1.52-.63-.38-1.3-.88-1.14-1.77,.14-.8,.73-1.28,1.48-1.54,1.52-.52,3.1-.79,4.68-1.05,.9-.15,1.82-.17,2.57-.81,.39-.33,.88-.25,1.33-.22,6.2,.46,12.42,.12,18.61,.42,3.02,.14,6.08,.07,9.07,.62,2.7,.49,5.45,.72,8.04,1.71,.54,.21,1.05,.45,1.51,.8,1.02,.79,1,1.55-.12,2.27-.78,.49-1.63,.87-2.53,1.04-3.09,.58-6.15,1.25-9.31,1.47-4.17,.29-8.34,.68-12.53,.63Z"/><path class="cls-8" d="M379.15,192.84c-.84-.14-1.71-.18-2.5-.45-.87-.3-1.57,0-2.28,.33-.35,.16-.63,.48-1.06,.5-1.43,.04-2.8-.54-4.25-.38-.36,.04-.64-.21-.9-.44-.73-.63-1.49-1.24-2.21-1.89-1.33-1.22-1.62-3.19-1.05-4.8,.57-1.6,1.48-2.67,3.16-3.03,.22-.05,.42-.18,.61-.31,1.56-1.05,3.22-1.72,5.17-1.69,.58,0,1.39-.03,1.88-.63,.91,.04,1.82,.09,2.74,.13-.06,.75,.38,1.11,.99,1.45,1,.56,1.97,1.18,2.9,1.85,1.03,.75,1.46,2.65,.68,3.53-1.12,1.26-1.83,2.77-2.79,4.12-.38,.54-1.08,.92-1.07,1.72Z"/><path class="cls-1" d="M79.78,172.48c.06-.99-1.15-.98-1.37-1.75,.55-.41,.65-1.06,.81-1.65,.32-1.18,1.06-1.97,2.09-2.56,.29-.17,.56-.37,.84-.56,.11,0,.24-.02,.34,.01,1.34,.51,2.52,.35,3.5-.77,.77,.08,1.39,.51,2.02,.89,.18,.11,.36,.33,.2,.58-.08,.12-.26,.19-.41,.23-.16,.04-.34,.04-.51,.03-1.45-.11-2.47,.38-2.7,1.95-.05,.3-.27,.48-.45,.71-.77,.94-.75,1.56-.01,2.55,.76,1.02,1.84,1.71,2.67,2.65,.33,.37,.78,.43,1.25,.44,.58,.01,1.17-.28,1.68-.2,2.42,.35,3.56-1.45,4.96-2.82,.11-.11,.23-.33,.19-.45-.3-.95-.18-2.09-1.21-2.72-.72-.44-1.35-.98-1.71-1.79,1.26-.7,2.51-.68,3.76-.67,.83-.02,1.57,.48,2.4,.38,.56,.79,1.15,1.77,2.04,1.92,1.98,.34,2.27,1.71,2.45,3.27-.93,.5-1.93,.64-2.97,.66-.68,.01-.81,.31-.72,1,.17,1.31,.97,2.46,.94,3.8-.72,.01-1.12,.54-1.52,1.01-1.07,1.25-2.36,1.77-3.96,1.27-.45-.14-.77,.02-1.14,.17-.79-.43-1.18-1.22-1.72-1.89-1.11-1.38-1.79-1.53-3.45-.88-1.12,.43-2.22,.95-3.44,1.06-.05-.69-.42-1.06-1.11-1.04-.9,.01-1.61-.46-1.99-1.14-.67-1.18-1.56-2.28-1.74-3.7Z"/><path class="cls-7" d="M375.71,180.04c-.49,.6-1.3,.64-1.88,.63-1.95-.03-3.61,.63-5.17,1.69-.19,.13-.39,.26-.61,.31-1.68,.37-2.59,1.43-3.16,3.03-.57,1.61-.28,3.58,1.05,4.8,.71,.66,1.47,1.26,2.21,1.89,.26,.23,.54,.48,.9,.44,1.45-.16,2.82,.43,4.25,.38-1.03,1.29-2.19,2.43-3.51,3.43-.45,0-.89-.03-1.35-.14-1.85-.45-3.77-.57-5.57-1.24,.03-.82,.36-1.53,.73-2.25,.67-1.3,.46-1.89-.82-2.64-1.14-.67-2.38-1.07-3.67-1.34-.16-1.6-.5-3.21,.33-4.74,.05-.09,.01-.22,.02-.34,1.31-.21,2.58,.15,3.87,.24,1.57,.11,1.6,.04,1.62-1.55,0-.51,0-1.02,.01-1.53,.79,.08,1.47-.29,2.06-.7,2.21-1.53,4.66-1.97,7.28-1.71,.11,.01,.23,0,.34,0l1.05,1.35Z"/><path class="cls-5" d="M95.7,166.6c-1.25,0-2.5-.04-3.76,.67,.36,.8,.99,1.34,1.71,1.79,1.03,.64,.91,1.78,1.21,2.72,.04,.12-.08,.34-.19,.45-1.4,1.37-2.53,3.16-4.96,2.82-.51-.07-1.1,.21-1.68,.2-.48,0-.92-.07-1.25-.44-.83-.94-1.91-1.63-2.67-2.65-.73-.99-.76-1.61,.01-2.55,.18-.22,.4-.4,.45-.71,.23-1.57,1.25-2.06,2.7-1.95,.17,.01,.35,.02,.51-.03,.15-.04,.33-.11,.41-.23,.17-.24-.01-.47-.2-.58-.64-.38-1.26-.81-2.02-.89,.25-.45,.57-.82,1.05-1.03,2.58,.9,5.29,.87,7.97,1.03,.44,.36,.33,.99,.71,1.38Zm-6.41,7.26c.06,0,.11,0,.17,0,1.55,0,2.86-.81,3.07-1.89,.22-1.1-.69-2.3-1.85-3.09-1.39-.95-2.66-.22-3.92,.05-.98,.21-1.62,1.49-1.3,2.1,.96,1.86,1.69,3.03,3.82,2.83Z"/><path class="cls-6" d="M374.66,178.69c-.11,0-.23,0-.34,0-2.62-.25-5.07,.18-7.28,1.71-.59,.41-1.27,.79-2.06,.7,.1-3.28,2.37-6.64,5.23-7.33,1.49-.36,2.76,.09,3.37,1.5,.48,1.1,.87,2.23,1.09,3.42Z"/><path class="cls-7" d="M379.15,192.84c0-.79,.69-1.17,1.07-1.72,.96-1.36,1.67-2.86,2.79-4.12,.78-.88,.35-2.78-.68-3.53-.92-.68-1.9-1.3-2.9-1.85-.61-.34-1.05-.7-.99-1.45,.81-.01,1.62-.02,2.42-.04,.14,.98,.75,1.47,1.67,1.7,2,.51,3.15,1.91,3.86,3.75-.06,0-.12,0-.17,.03-.68,.39-1.69,.63-1.96,1.21-.48,1.04,1.11,.79,1.36,1.52,.04,.11,.07,.21,.1,.32-.09,.97-.89,1.43-1.49,1.99-.86,.8-1.49,1.69-1.66,2.87-1.14-.29-2.36-.16-3.46-.69Z"/><path class="cls-6" d="M386.41,185.58c-.71-1.84-1.87-3.24-3.86-3.75-.93-.24-1.53-.72-1.67-1.7,1.44-.02,2.87-.04,4.31-.05,1.19-.01,2.25,.44,3.24,1.03,1.38,.82,1.46,2.24,.19,3.22-.67,.52-1.32,1.1-2.21,1.26Z"/><path class="cls-10" d="M82.2,179.04c-1.84,.6-3.69,.64-5.46-.15-2-.89-2.28-2.43-.81-4.06,.57-.64,1.29-1.1,2.12-1.37,.61,1.04,1.66,2.05,1.72,3.12,.09,1.76,1.84,1.31,2.35,2.31,.03,.05,.05,.1,.08,.15Z"/><path class="cls-6" d="M359.46,183.94c0,.11,.03,.25-.02,.34-.83,1.53-.49,3.14-.33,4.74-1.46-.46-2.94-.84-4.23-1.72-.67-.46-1.09-.99-.95-1.84,.14-.83,.83-1.02,1.48-1.21,1.33-.39,2.68-.47,4.05-.31Z"/><path class="cls-6" d="M382.6,193.53c.17-1.18,.8-2.07,1.66-2.87,.6-.56,1.41-1.02,1.49-1.99,1.31,.23,1.86,1.26,2.27,2.33,.46,1.19,.07,1.86-1.09,2.48-.97,.52-1.98,.47-3,.33-.45-.06-.89-.18-1.33-.27Z"/><path class="cls-6" d="M362.88,195.26c1.8,.67,3.72,.78,5.57,1.24,.45,.11,.89,.15,1.35,.14-1.18,1.23-2.43,2.36-4.28,2.42-2.6,.08-3.52-1.25-2.64-3.8Z"/><path class="cls-5" d="M82.2,179.04c-.03-.05-.05-.1-.08-.15-.52-1-2.26-.56-2.35-2.31-.05-1.07-1.11-2.08-1.72-3.12,.48-.5,1.15-.66,1.72-.98,.18,1.42,1.07,2.52,1.74,3.7,.39,.68,1.09,1.16,1.99,1.14,.69-.01,1.06,.36,1.11,1.04-.72,.52-1.54,.71-2.42,.68Z"/><path class="cls-10" d="M88.34,163.12c1.21-1.69,2.91-2.27,4.89-2.02,1.36,.17,1.53,1.33,1.76,2.4-.83,0-1.63,.38-2.49,.03-.32-.13-.81-.04-1.16,.1-1.12,.44-2.1,.22-3-.51Z"/><path class="cls-10" d="M100.47,178.71c.03,.51,.08,1.02,.08,1.53,0,1.77-.85,2.59-2.61,2.59-1.01,0-1.87-.37-2.64-1.01,1.22-.48,2.32-1.16,3.26-2.06,.55-.52,1.12-.99,1.91-1.06Z"/><path class="cls-4" d="M82.14,165.97c-.28,.19-.55,.39-.84,.56-1.03,.58-1.77,1.38-2.09,2.56-.16,.59-.26,1.24-.81,1.65-.63-.51-1.41-.86-1.77-1.66,.46-1.59,1.42-2.71,3.07-3.15,.15-.04,.26-.2,.38-.31l2.05,.35Z"/><path class="cls-10" d="M80.09,165.62c-.13,.11-.24,.27-.38,.31-1.66,.44-2.61,1.55-3.07,3.15-.77-.35-1.25-1.01-1.66-1.7-.61-1.03-.34-1.69,.79-2.15,.89-.36,1.79-.49,2.66,0,.53,.31,1.1,.29,1.66,.38Z"/><path class="cls-4" d="M88.34,163.12c.91,.73,1.88,.95,3,.51,.35-.14,.84-.23,1.16-.1,.86,.35,1.66-.04,2.49-.03,0,.57,0,1.15,0,1.72-2.68-.16-5.38-.13-7.97-1.03,.3-.53,.68-.96,1.31-1.07Z"/><path class="cls-5" d="M102.6,172.17c-.18-1.56-.47-2.92-2.45-3.27-.89-.15-1.49-1.14-2.04-1.92,1.18,.05,2.34,.2,3.45,.6-.04,.58,.27,1.1,.74,1.24,1.46,.42,1.72,1.48,1.7,2.76-.21,.79-.89,.48-1.4,.6Z"/><path class="cls-4" d="M104,171.57c.01-1.27-.24-2.34-1.7-2.76-.47-.14-.78-.65-.74-1.24,1.26,.05,2.46,.32,3.61,.83,.63,.28,1.29,.56,1.19,1.44-.1,.81-.57,1.34-1.35,1.57-.32,.09-.67,.11-1.01,.16Z"/><path class="cls-5" d="M100.47,178.71c-.79,.07-1.36,.53-1.91,1.06-.95,.9-2.05,1.58-3.26,2.06-.98-.24-1.49-1.02-2.06-1.74,.36-.15,.69-.31,1.14-.17,1.6,.5,2.89-.02,3.96-1.27,.4-.47,.8-1,1.52-1.01,.43,.23,.68,.57,.61,1.08Z"/><path class="cls-9" d="M560.23,141.01c-1.13,.16-2.31,.17-3.39,.49-2.69,.81-5.27,.36-7.92-.22-4.91-1.07-9.74-2.48-14.6-3.73,1.61-2.8,3.62-5.29,5.84-7.62,4.61-4.84,8.81-9.98,12.1-15.82,.65-1.15,1.26-2.32,1.88-3.48,.18,.12,.36,.23,.54,.35-.5,2.76-1.11,5.5-1.44,8.29-.9,7.53,1.18,14.16,5.83,20.06,.42,.54,.78,1.12,1.18,1.68Z"/><path class="cls-2" d="M566.05,135.28c-.31-1.38,.03-2.45,.29-3.42,1.12-4.21,2.72-8.25,4.42-12.27,1.69-4.01,3.86-7.76,5.74-11.66,1.66-3.45,3.31-6.92,4.41-10.59,.94-3.15,1.65-6.37,2.27-9.61,.26-1.34,.56-2.68,.82-4.02,.28-1.47,.59-2.92,.51-4.42-.04-.63-.02-1.25,.18-1.88,.27-.83,.26-1.71,0-2.55-.17-.57-.23-1.13-.19-1.7,.2-2.91-.63-5.66-1.18-8.46-.68-3.44-1.97-6.67-3.07-9.96-1.33-3.99-3.06-7.84-4.56-11.77-2.04-5.36-3.77-10.81-4.74-16.48-.36-2.1-.59-4.17-.66-6.3-.06-2.21,.34-4.33,.77-6.46,.06-.28,.2-.54,.31-.8,.12-.27,.32-.56,.62-.53,.46,.05,.41,.48,.41,.81,0,2.65,.04,5.3,0,7.94-.05,2.83,.57,5.56,1.2,8.29,.47,2,.83,4.01,1.49,5.98,.85,2.55,1.75,5.08,2.71,7.59,1.94,5.08,3.96,10.13,5.85,15.23,1.37,3.7,2.33,7.55,2.83,11.46,.38,2.94,.73,5.94,.42,8.92-.34,3.35-.79,6.68-1.52,9.98-.71,3.18-1.34,6.36-2.24,9.5-.58,2.04-1.3,4.03-2.16,5.96-1.32,2.97-2.66,5.94-4.19,8.81-1.96,3.7-3.91,7.39-5.58,11.23-1.53,3.51-3.07,7.02-4.61,10.53-.07,.15-.21,.26-.55,.66Z"/><path class="cls-2" d="M581.7,132.15c1.91-2.47,3.62-4.9,5.58-7.12,1.72-1.94,3.22-4.02,4.78-6.07,2.18-2.87,4.34-5.79,6.22-8.86,2.25-3.69,4.27-7.49,5.34-11.78,.92-3.7,1.4-7.4,1.28-11.19-.08-2.69-.7-5.32-1.13-7.97-.46-2.81-.97-5.63-1.7-8.38-.63-2.37-1.18-4.76-1.72-7.15-.99-4.41-1.83-8.83-1.69-13.4,.11-3.49,.07-6.96,.63-10.45,.54-3.37,.91-6.78,1.54-10.15,.19-1.04,.54-2.09,.9-3.11,.12-.33,.31-.71,.69-.68,.46,.03,.41,.48,.4,.82-.01,1.26-.03,2.5-.29,3.76-.57,2.74-1.01,5.51-1.07,8.31-.02,1.1-.25,2.17-.42,3.23-.5,3.1-.16,6.19-.29,9.28-.08,1.96,.4,3.86,.57,5.79,.34,3.96,1.44,7.75,2.26,11.6,.54,2.51,1.12,5.02,1.73,7.52,1.39,5.66,2.08,11.4,1.6,17.2-.3,3.71-1.41,7.29-2.92,10.72-1.65,3.75-3.96,7.1-6.37,10.38-3.06,4.15-6.24,8.19-9.71,12.02-1.58,1.75-3.22,3.43-4.86,5.12-.29,.3-.51,.81-1.35,.56Z"/><path class="cls-2" d="M563.12,135.8c-1.69-1.56-2.4-3.54-3.05-5.44-1.31-3.85-2.1-7.85-2.17-11.93-.04-2.18,.46-4.32,1-6.42,.74-2.93,1.57-5.84,2.47-8.72,.62-2,1.32-3.99,2.18-5.9,1.18-2.62,1.82-5.39,2.63-8.12,1.14-3.84,1.72-7.81,2.66-11.69,.4-1.66,.51-3.39,.85-5.07,.13-.63,.13-1.74,.86-1.69,.9,.07,.42,1.11,.45,1.71,.2,3.29-.52,6.48-1.16,9.68-.48,2.41-.94,4.81-1.53,7.2-.7,2.84-1.45,5.65-2.48,8.38-1.85,4.88-3.24,9.9-4.4,14.96-.62,2.72-.96,5.52-.8,8.36,.12,2.12,.48,4.21,.98,6.25,.59,2.39,.93,4.83,1.74,7.16,.13,.36,.12,.78-.23,1.26Z"/><path class="cls-14" d="M556.54,103.73c.08,0,.15,0,.23,0-.17,1.82-.76,3.53-1.48,5.2l-.46-.37c.73-1.55,.83-3.33,1.71-4.83Z"/><path class="cls-11" d="M554.83,108.56l.46,.37c-.21,.69-.42,1.37-.63,2.06-.18-.12-.36-.23-.54-.35,.11-.73,.67-1.32,.71-2.08Z"/><path class="cls-2" d="M528.12,125.84c.16-3.24-.58-5.89-1.14-8.58-.57-2.69-1.49-5.28-2.36-7.87-.63-1.88-1.57-3.65-2.35-5.48-1.69-3.99-3.62-7.89-4.94-12-.98-3.05-1.79-6.25-1.64-9.57,.09-1.89,.02-3.8,.01-5.7-.02-2.88,.64-5.66,1.17-8.47,.43-2.3,1.09-4.54,1.68-6.8,.45-1.7,1.01-3.39,1.54-5.08,1.26-4.03,2.65-8.06,3.13-12.24,.62-5.36,.23-10.71-1.73-15.84-.28-.74-.42-1.54-.58-2.32-.06-.27-.02-.6,.26-.76,.36-.2,.67-.02,.93,.22,.66,.62,.79,1.52,1.11,2.3,1.18,2.85,1.8,5.87,2.11,8.92,.17,1.69,.29,3.44-.16,5.14-.26,1-.29,2.06-.35,3.06-.18,2.66-.89,5.2-1.59,7.71-.74,2.63-1.52,5.27-2.36,7.89-1.02,3.21-1.81,6.47-2.46,9.8-.85,4.35-.6,8.69-.57,13.04,.02,2.74,.87,5.41,1.63,8.04,.99,3.46,2.63,6.65,4.13,9.91,2.05,4.46,3.71,9.07,5.01,13.8,.65,2.37,.95,4.81,1.36,7.23,.47,2.72,.32,5.35-.4,7.98-.06,.22-.08,.46-.16,.66-.09,.21-.26,.38-.53,.35-.3-.04-.34-.29-.35-.51-.09-1.77-.62-3.51-.39-4.85Z"/><path class="cls-2" d="M535.81,126.83c.37-1.67,1.24-2.85,1.94-4.07,.93-1.63,1.85-3.28,2.93-4.84,1.93-2.77,3.76-5.62,5.28-8.64,1.66-3.29,2.5-6.79,3-10.46,.35-2.52-.13-4.87-.35-7.3-.34-3.72-1.04-7.36-2.16-10.91-.72-2.28-1.61-4.51-2.42-6.76-1.46-4.08-3.08-8.08-3.87-12.39-.49-2.71-1.14-5.42-.91-8.15,.22-2.56,.06-5.16,.66-7.68,.13-.55,.31-1.11,.56-1.62,.17-.35,.49-.7,.96-.55,.36,.11,.51,.45,.51,.82,.01,.52,.07,1.05-.01,1.55-.69,4.06-.23,8.14-.26,12.22,0,1.34,.56,2.68,.85,4.01,.76,3.42,2.14,6.64,3.41,9.88,1.37,3.5,2.87,6.96,3.72,10.62,.83,3.61,1.8,7.22,1.65,10.98-.05,1.38-.01,2.76,0,4.14,.03,5.2-1.53,9.92-4.31,14.26-1.45,2.27-2.95,4.52-4.53,6.7-1.94,2.69-3.98,5.31-6,7.95-.08,.11-.3,.11-.67,.23Z"/><path class="cls-2" d="M517.05,135.21c-.02,.16,.21,.73-.39,.91-.52,.15-.85-.29-1.14-.63-.54-.66-1.11-1.32-1.53-2.06-1.43-2.51-3.23-4.71-5.24-6.78-2.31-2.39-3.8-5.19-4.52-8.5-.76-3.5-1.24-7.1-3.05-10.32-1.41-2.51-2.97-4.93-4.93-7-1.43-1.52-3.19-2.78-5.06-3.81-.9-.5-1.75-1.1-2.62-1.66-.25-.16-.5-.41-.34-.69,.12-.22,.44-.38,.7-.45,.47-.13,.92,.13,1.31,.31,3.63,1.68,6.85,3.86,9.4,7.04,2.06,2.57,3.71,5.35,5.05,8.32,.8,1.77,1.26,3.68,1.63,5.57,.81,4.17,2.6,7.77,5.6,10.79,2.08,2.09,3.79,4.42,4.83,7.21,.18,.49,.38,.96,.3,1.76Z"/><path class="cls-4" d="M89.29,173.86c-2.13,.2-2.85-.97-3.82-2.83-.32-.62,.31-1.9,1.3-2.1,1.25-.27,2.53-1,3.92-.05,1.17,.8,2.07,1.99,1.85,3.09-.22,1.09-1.52,1.89-3.07,1.89-.06,0-.11,0-.17,0Z"/></svg>